<?xml version="1.0" encoding="UTF-8"?>
<!DOCTYPE svg PUBLIC "-//W3C//DTD SVG 1.1//EN" "http://www.w3.org/Graphics/SVG/1.1/DTD/svg11.dtd">
<svg xmlns="http://www.w3.org/2000/svg" version="1.1" width="512px" height="512px" style="shape-rendering:geometricPrecision; text-rendering:geometricPrecision; image-rendering:optimizeQuality; fill-rule:evenodd; clip-rule:evenodd" xmlns:xlink="http://www.w3.org/1999/xlink">
<g><path style="opacity:0.839" fill="#945a46" d="M 249.5,4.5 C 246.689,5.47499 243.689,6.14166 240.5,6.5C 243.155,3.77047 246.155,3.1038 249.5,4.5 Z"/></g>
<g><path style="opacity:0.962" fill="#282727" d="M 249.5,4.5 C 256.508,4.33371 263.508,4.50038 270.5,5C 278.254,5.96 283.42,10.1267 286,17.5C 287.723,24.3946 288.556,31.3946 288.5,38.5C 336.643,38.7005 384.81,38.3672 433,37.5C 443.689,36.8905 453.523,39.3905 462.5,45C 476,58.5 489.5,72 503,85.5C 510.015,93.904 511.015,102.904 506,112.5C 493.196,126.305 480.029,139.805 466.5,153C 461.344,157.414 455.677,161.081 449.5,164C 442.621,164.542 435.788,165.375 429,166.5C 381.874,165.758 334.707,165.425 287.5,165.5C 287.5,191.5 287.5,217.5 287.5,243.5C 339.497,243.166 391.497,242.832 443.5,242.5C 450.366,243.731 456.699,246.231 462.5,250C 475.002,262.835 487.836,275.335 501,287.5C 511.3,300.128 510.967,312.462 500,324.5C 487.167,336.667 474.333,348.833 461.5,361C 449.675,367.998 436.842,371.164 423,370.5C 416.493,370.214 409.993,369.881 403.5,369.5C 401.167,368.167 398.833,368.167 396.5,369.5C 391.167,369.5 385.833,369.5 380.5,369.5C 378.167,369.5 375.833,369.5 373.5,369.5C 369.5,369.5 365.5,369.5 361.5,369.5C 359.5,369.5 357.5,369.5 355.5,369.5C 349.167,369.5 342.833,369.5 336.5,369.5C 334.167,369.5 331.833,369.5 329.5,369.5C 322.833,369.5 316.167,369.5 309.5,369.5C 307.167,369.5 304.833,369.5 302.5,369.5C 297.5,369.5 292.5,369.5 287.5,369.5C 287.5,395.5 287.5,421.5 287.5,447.5C 303.913,446.963 320.246,447.796 336.5,450C 350.979,455.598 357.646,466.265 356.5,482C 357.541,490.517 355.207,497.85 349.5,504C 347.913,504.862 346.246,505.529 344.5,506C 337.471,506.238 330.471,506.738 323.5,507.5C 274.336,507.434 225.169,507.434 176,507.5C 170.131,507.99 164.631,506.824 159.5,504C 157.106,502.048 155.606,499.548 155,496.5C 154.144,486.726 154.81,477.059 157,467.5C 158.886,463.56 161.386,460.06 164.5,457C 170.838,453.164 177.504,449.997 184.5,447.5C 197.455,447.703 210.455,447.703 223.5,447.5C 222.809,387.178 222.809,326.845 223.5,266.5C 216.5,266.5 209.5,266.5 202.5,266.5C 199.833,266.5 197.167,266.5 194.5,266.5C 186.167,266.5 177.833,266.5 169.5,266.5C 166.833,266.5 164.167,266.5 161.5,266.5C 156.167,266.5 150.833,266.5 145.5,266.5C 142.833,266.5 140.167,266.5 137.5,266.5C 128.833,266.5 120.167,266.5 111.5,266.5C 108.833,266.5 106.167,266.5 103.5,266.5C 99.5,266.5 95.5,266.5 91.5,266.5C 89.1667,266.5 86.8333,266.5 84.5,266.5C 68.8802,270.749 55.2136,267.582 43.5,257C 33,245.167 21.8333,234 10,223.5C 0.973179,212.968 0.306513,201.968 8,190.5C 20.7055,177.293 33.8721,164.627 47.5,152.5C 54.5576,147.033 62.5576,143.699 71.5,142.5C 82.7135,140.577 94.0469,140.244 105.5,141.5C 107.948,142.473 110.615,142.806 113.5,142.5C 119.536,142.64 125.536,142.307 131.5,141.5C 134.167,142.833 136.833,142.833 139.5,141.5C 142.5,141.5 145.5,141.5 148.5,141.5C 151.167,142.833 153.833,142.833 156.5,141.5C 160.167,141.5 163.833,141.5 167.5,141.5C 170.167,142.833 172.833,142.833 175.5,141.5C 184.167,141.5 192.833,141.5 201.5,141.5C 204.167,142.833 206.833,142.833 209.5,141.5C 214.167,141.5 218.833,141.5 223.5,141.5C 223.333,101.499 223.5,61.4986 224,21.5C 226.492,13.1745 231.992,8.17445 240.5,6.5C 243.689,6.14166 246.689,5.47499 249.5,4.5 Z M 250.5,10.5 C 253.5,10.5 256.5,10.5 259.5,10.5C 255.483,13.2671 251.316,15.9337 247,18.5C 247.84,15.8067 249.007,13.1401 250.5,10.5 Z M 274.5,28.5 C 274.5,28.8333 274.5,29.1667 274.5,29.5C 273.609,30.1098 272.609,30.4431 271.5,30.5C 271.973,29.0937 272.973,28.427 274.5,28.5 Z M 303.5,46.5 C 307.167,46.5 310.833,46.5 314.5,46.5C 307.003,51.0831 299.337,55.4164 291.5,59.5C 295.528,55.1407 299.528,50.8073 303.5,46.5 Z M 352.5,46.5 C 354.5,46.5 356.5,46.5 358.5,46.5C 351.996,51.2552 344.996,55.2552 337.5,58.5C 341.913,53.79 346.913,49.79 352.5,46.5 Z M 379.5,46.5 C 381.833,46.5 384.167,46.5 386.5,46.5C 375.998,53.588 364.998,59.9214 353.5,65.5C 362.129,59.1786 370.795,52.8453 379.5,46.5 Z M 407.5,46.5 C 410.167,46.5 412.833,46.5 415.5,46.5C 401.834,55.0024 387.834,63.0024 373.5,70.5C 384.533,62.1436 395.866,54.1436 407.5,46.5 Z M 436.5,46.5 C 439.829,46.2153 442.829,46.8819 445.5,48.5C 425.167,59.8333 404.833,71.1667 384.5,82.5C 401.448,70.0193 418.781,58.0193 436.5,46.5 Z M 337.5,58.5 C 337.027,59.9063 336.027,60.573 334.5,60.5C 334.973,59.0937 335.973,58.427 337.5,58.5 Z M 460.5,61.5 C 461.833,62.1667 462.833,63.1667 463.5,64.5C 453.5,69.8333 443.5,75.1667 433.5,80.5C 442.325,73.9207 451.325,67.5873 460.5,61.5 Z M 246.5,70.5 C 243.192,73.4715 239.859,76.4715 236.5,79.5C 236.5,78.1667 236.5,76.8333 236.5,75.5C 239.85,73.8039 243.183,72.1373 246.5,70.5 Z M 471.5,71.5 C 472.5,72.8333 473.5,74.1667 474.5,75.5C 460.968,83.4321 447.301,91.0988 433.5,98.5C 445.777,89.0211 458.444,80.0211 471.5,71.5 Z M 482.5,82.5 C 484.5,83.8333 486.167,85.5 487.5,87.5C 473.968,95.4321 460.301,103.099 446.5,110.5C 458.214,100.785 470.214,91.4513 482.5,82.5 Z M 493.5,96.5 C 493.557,97.609 493.89,98.609 494.5,99.5C 488.738,103.262 482.738,106.596 476.5,109.5C 481.858,104.814 487.525,100.481 493.5,96.5 Z M 240.5,103.5 C 239.5,105.167 238.167,106.5 236.5,107.5C 236.5,106.5 236.5,105.5 236.5,104.5C 237.833,104.167 239.167,103.833 240.5,103.5 Z M 446.5,110.5 C 446.027,111.906 445.027,112.573 443.5,112.5C 443.973,111.094 444.973,110.427 446.5,110.5 Z M 295.5,111.5 C 293.23,113.975 290.563,115.975 287.5,117.5C 287.5,116.833 287.5,116.167 287.5,115.5C 290.193,114.153 292.86,112.82 295.5,111.5 Z M 315.5,116.5 C 315.027,117.906 314.027,118.573 312.5,118.5C 312.973,117.094 313.973,116.427 315.5,116.5 Z M 312.5,118.5 C 304.695,124.906 296.361,130.572 287.5,135.5C 287.5,134.167 287.5,132.833 287.5,131.5C 295.991,127.422 304.324,123.088 312.5,118.5 Z M 408.5,125.5 C 394.784,136.55 380.784,147.217 366.5,157.5C 361.833,157.5 357.167,157.5 352.5,157.5C 370.833,146.331 389.5,135.664 408.5,125.5 Z M 372.5,128.5 C 359.167,138.167 345.833,147.833 332.5,157.5C 328.833,157.5 325.167,157.5 321.5,157.5C 338.238,147.441 355.238,137.775 372.5,128.5 Z M 334.5,134.5 C 334.027,135.906 333.027,136.573 331.5,136.5C 331.973,135.094 332.973,134.427 334.5,134.5 Z M 331.5,136.5 C 321.537,143.487 311.537,150.487 301.5,157.5C 299.167,157.5 296.833,157.5 294.5,157.5C 306.572,150.108 318.905,143.108 331.5,136.5 Z M 449.5,137.5 C 442.061,144.393 434.394,151.059 426.5,157.5C 422.5,157.5 418.5,157.5 414.5,157.5C 425.996,150.584 437.663,143.917 449.5,137.5 Z M 416.5,140.5 C 409.167,146.167 401.833,151.833 394.5,157.5C 391.833,157.5 389.167,157.5 386.5,157.5C 396.167,151.331 406.167,145.664 416.5,140.5 Z M 90.5,147.5 C 91.8333,147.5 93.1667,147.5 94.5,147.5C 91.669,149.417 88.669,151.083 85.5,152.5C 86.973,150.605 88.6397,148.939 90.5,147.5 Z M 113.5,147.5 C 115.833,147.5 118.167,147.5 120.5,147.5C 113.095,152.226 105.428,156.559 97.5,160.5C 102.833,156.167 108.167,151.833 113.5,147.5 Z M 175.5,147.5 C 180.5,147.5 185.5,147.5 190.5,147.5C 169.996,160.255 148.996,172.255 127.5,183.5C 143.783,171.885 159.783,159.885 175.5,147.5 Z M 209.5,147.5 C 212.5,147.5 215.5,147.5 218.5,147.5C 203.331,157.255 187.664,166.255 171.5,174.5C 184.167,165.5 196.833,156.5 209.5,147.5 Z M 223.5,158.5 C 223.5,160.167 223.5,161.833 223.5,163.5C 210.806,170.512 198.14,177.512 185.5,184.5C 197.782,175.352 210.449,166.685 223.5,158.5 Z M 97.5,160.5 C 97.0269,161.906 96.0269,162.573 94.5,162.5C 94.9731,161.094 95.9731,160.427 97.5,160.5 Z M 223.5,177.5 C 223.5,178.167 223.5,178.833 223.5,179.5C 219.966,181.766 216.3,183.766 212.5,185.5C 215.597,182.112 219.264,179.445 223.5,177.5 Z M 25.5,199.5 C 22.8103,202.185 19.8103,204.518 16.5,206.5C 16.5,205.833 16.5,205.167 16.5,204.5C 19.2402,202.44 22.2402,200.774 25.5,199.5 Z M 84.5,201.5 C 69.7156,212.732 54.7156,223.732 39.5,234.5C 37.5,233.167 35.8333,231.5 34.5,229.5C 51.1939,220.155 67.8606,210.821 84.5,201.5 Z M 223.5,207.5 C 223.5,208.5 223.5,209.5 223.5,210.5C 220.45,212.692 217.117,214.358 213.5,215.5C 216.429,212.364 219.762,209.697 223.5,207.5 Z M 213.5,215.5 C 213.027,216.906 212.027,217.573 210.5,217.5C 210.973,216.094 211.973,215.427 213.5,215.5 Z M 274.5,216.5 C 274.5,217.167 274.5,217.833 274.5,218.5C 273.833,218.5 273.167,218.5 272.5,218.5C 272.833,217.5 273.5,216.833 274.5,216.5 Z M 113.5,220.5 C 113.027,221.906 112.027,222.573 110.5,222.5C 110.973,221.094 111.973,220.427 113.5,220.5 Z M 83.5,221.5 C 72.7994,229.524 61.7994,237.19 50.5,244.5C 49.1667,243.833 48.1667,242.833 47.5,241.5C 59.5272,234.821 71.5272,228.155 83.5,221.5 Z M 110.5,222.5 C 94.3784,234.067 78.045,245.401 61.5,256.5C 60.5,255.167 59.5,253.833 58.5,252.5C 75.4986,241.998 92.832,231.998 110.5,222.5 Z M 175.5,230.5 C 162.682,241.074 149.682,251.407 136.5,261.5C 131.5,261.5 126.5,261.5 121.5,261.5C 139.166,250.664 157.166,240.331 175.5,230.5 Z M 125.5,231.5 C 125.027,232.906 124.027,233.573 122.5,233.5C 122.973,232.094 123.973,231.427 125.5,231.5 Z M 122.5,233.5 C 109.5,242.833 96.5,252.167 83.5,261.5C 80.1667,261.5 76.8333,261.5 73.5,261.5C 89.337,251.411 105.67,242.078 122.5,233.5 Z M 211.5,243.5 C 205.194,249.14 199.194,255.14 193.5,261.5C 188.833,261.5 184.167,261.5 179.5,261.5C 189.835,254.997 200.502,248.997 211.5,243.5 Z M 303.5,250.5 C 306.833,250.5 310.167,250.5 313.5,250.5C 306.732,255.059 299.732,259.392 292.5,263.5C 292.167,263.333 291.833,263.167 291.5,263C 295.704,258.964 299.704,254.798 303.5,250.5 Z M 333.5,250.5 C 337.833,250.5 342.167,250.5 346.5,250.5C 335.33,257.922 323.663,264.589 311.5,270.5C 318.833,263.833 326.167,257.167 333.5,250.5 Z M 366.5,250.5 C 370.5,250.5 374.5,250.5 378.5,250.5C 363.671,259.416 348.671,268.083 333.5,276.5C 344.279,267.603 355.279,258.937 366.5,250.5 Z M 398.5,250.5 C 400.167,250.5 401.833,250.5 403.5,250.5C 397.162,254.671 390.496,258.337 383.5,261.5C 388.284,257.601 393.284,253.934 398.5,250.5 Z M 423.5,250.5 C 424.833,250.5 426.167,250.5 427.5,250.5C 421.83,254.337 415.83,257.67 409.5,260.5C 413.865,256.811 418.531,253.478 423.5,250.5 Z M 171.5,252.5 C 168.167,255.5 164.833,258.5 161.5,261.5C 159.5,261.5 157.5,261.5 155.5,261.5C 160.502,257.997 165.835,254.997 171.5,252.5 Z M 223.5,254.5 C 223.5,256.833 223.5,259.167 223.5,261.5C 219.833,261.5 216.167,261.5 212.5,261.5C 215.961,258.931 219.628,256.597 223.5,254.5 Z M 409.5,260.5 C 409.027,261.906 408.027,262.573 406.5,262.5C 406.973,261.094 407.973,260.427 409.5,260.5 Z M 383.5,261.5 C 383.027,262.906 382.027,263.573 380.5,263.5C 380.973,262.094 381.973,261.427 383.5,261.5 Z M 461.5,267.5 C 462.5,267.833 463.167,268.5 463.5,269.5C 454.5,275.336 445.167,280.669 435.5,285.5C 443.868,279.143 452.535,273.143 461.5,267.5 Z M 270.5,270.5 C 269.871,272.997 268.204,274.33 265.5,274.5C 266.585,272.413 268.251,271.08 270.5,270.5 Z M 471.5,276.5 C 472.5,277.167 473.5,277.833 474.5,278.5C 468.162,282.671 461.496,286.337 454.5,289.5C 459.987,284.924 465.653,280.591 471.5,276.5 Z M 246.5,278.5 C 243.192,281.471 239.859,284.471 236.5,287.5C 236.5,286.167 236.5,284.833 236.5,283.5C 239.85,281.804 243.183,280.137 246.5,278.5 Z M 481.5,286.5 C 482.5,286.833 483.167,287.5 483.5,288.5C 476.816,292.195 470.15,295.862 463.5,299.5C 469.462,295.179 475.462,290.845 481.5,286.5 Z M 454.5,289.5 C 454.027,290.906 453.027,291.573 451.5,291.5C 451.973,290.094 452.973,289.427 454.5,289.5 Z M 293.5,293.5 C 291.54,295.156 289.54,296.823 287.5,298.5C 287.5,297.5 287.5,296.5 287.5,295.5C 289.5,294.833 291.5,294.167 293.5,293.5 Z M 243.5,313.5 C 241.5,316.167 239.167,318.5 236.5,320.5C 236.5,319.167 236.5,317.833 236.5,316.5C 238.98,315.758 241.313,314.758 243.5,313.5 Z M 243.5,332.5 C 241.5,335.167 239.167,337.5 236.5,339.5C 236.5,338.167 236.5,336.833 236.5,335.5C 238.713,334.227 241.046,333.227 243.5,332.5 Z M 331.5,342.5 C 322.01,349.745 312.344,356.745 302.5,363.5C 299.833,363.5 297.167,363.5 294.5,363.5C 306.663,356.25 318.996,349.25 331.5,342.5 Z M 356.5,343.5 C 356.027,344.906 355.027,345.573 353.5,345.5C 353.973,344.094 354.973,343.427 356.5,343.5 Z M 353.5,345.5 C 345.167,351.5 336.833,357.5 328.5,363.5C 326.167,363.5 323.833,363.5 321.5,363.5C 331.835,356.997 342.502,350.997 353.5,345.5 Z M 377.5,346.5 C 377.027,347.906 376.027,348.573 374.5,348.5C 374.973,347.094 375.973,346.427 377.5,346.5 Z M 444.5,346.5 C 444.027,347.906 443.027,348.573 441.5,348.5C 441.973,347.094 442.973,346.427 444.5,346.5 Z M 374.5,348.5 C 367.833,353.5 361.167,358.5 354.5,363.5C 352.5,363.5 350.5,363.5 348.5,363.5C 356.832,357.998 365.499,352.998 374.5,348.5 Z M 441.5,348.5 C 436.021,353.735 430.354,358.735 424.5,363.5C 421.5,363.5 418.5,363.5 415.5,363.5C 423.832,357.998 432.499,352.998 441.5,348.5 Z M 402.5,357.5 C 400.5,359.5 398.5,361.5 396.5,363.5C 395.167,363.5 393.833,363.5 392.5,363.5C 395.494,361 398.827,359 402.5,357.5 Z M 274.5,362.5 C 274.5,363.167 274.5,363.833 274.5,364.5C 272.95,365.441 271.284,366.107 269.5,366.5C 270.579,364.457 272.246,363.124 274.5,362.5 Z M 241.5,377.5 C 240.167,379.5 238.5,381.167 236.5,382.5C 236.5,381.5 236.5,380.5 236.5,379.5C 238.05,378.559 239.716,377.893 241.5,377.5 Z M 257.5,447.5 C 256.833,447.5 256.167,447.5 255.5,447.5C 256.172,446.733 257.005,446.066 258,445.5C 258.692,446.437 258.525,447.103 257.5,447.5 Z M 199.5,456.5 C 193.298,460.101 186.964,463.434 180.5,466.5C 182.5,463.5 184.5,460.5 186.5,457.5C 190.89,455.922 195.223,455.588 199.5,456.5 Z M 219.5,455.5 C 221.5,455.5 223.5,455.5 225.5,455.5C 225.297,457.39 225.963,458.89 227.5,460C 219.432,465.033 211.098,469.533 202.5,473.5C 208.167,467.5 213.833,461.5 219.5,455.5 Z M 321.5,455.5 C 310.004,462.416 298.337,469.083 286.5,475.5C 293.14,469.194 299.807,462.861 306.5,456.5C 311.405,455.555 316.405,455.221 321.5,455.5 Z M 249.5,460.5 C 249.5,461.5 249.5,462.5 249.5,463.5C 245.836,466.335 241.836,468.668 237.5,470.5C 241.183,466.82 245.183,463.486 249.5,460.5 Z M 340.5,469.5 C 340.5,470.167 340.5,470.833 340.5,471.5C 339.341,473.25 337.674,474.25 335.5,474.5C 336.833,472.5 338.5,470.833 340.5,469.5 Z M 202.5,473.5 C 202.027,474.906 201.027,475.573 199.5,475.5C 199.973,474.094 200.973,473.427 202.5,473.5 Z M 181.5,478.5 C 177.5,483.167 173.167,487.5 168.5,491.5C 168.5,489.5 168.5,487.5 168.5,485.5C 172.701,482.9 177.034,480.566 181.5,478.5 Z M 265.5,480.5 C 259.473,487.194 253.14,493.527 246.5,499.5C 241.833,499.5 237.167,499.5 232.5,499.5C 243.002,492.412 254.002,486.079 265.5,480.5 Z M 205.5,484.5 C 200.167,489.5 194.833,494.5 189.5,499.5C 186.167,499.5 182.833,499.5 179.5,499.5C 187.832,493.998 196.499,488.998 205.5,484.5 Z M 304.5,488.5 C 301.167,492.167 297.833,495.833 294.5,499.5C 291.5,499.5 288.5,499.5 285.5,499.5C 291.57,495.442 297.903,491.775 304.5,488.5 Z M 325.5,492.5 C 323.42,494.573 321.754,496.907 320.5,499.5C 318.167,499.5 315.833,499.5 313.5,499.5C 317.164,496.665 321.164,494.332 325.5,492.5 Z M 219.5,493.5 C 217.54,495.156 215.54,496.823 213.5,498.5C 211.958,499.301 210.292,499.634 208.5,499.5C 211.678,496.742 215.345,494.742 219.5,493.5 Z"/></g>
<g><path style="opacity:0.993" fill="#8f5c4a" d="M 250.5,10.5 C 249.007,13.1401 247.84,15.8067 247,18.5C 251.316,15.9337 255.483,13.2671 259.5,10.5C 269.185,12.5099 274.185,18.5099 274.5,28.5C 272.973,28.427 271.973,29.0937 271.5,30.5C 272.609,30.4431 273.609,30.1098 274.5,29.5C 274.667,61.6574 274.667,93.9907 274.5,126.5C 273.167,126.833 273.167,127.167 274.5,127.5C 274.5,157.167 274.5,186.833 274.5,216.5C 273.5,216.833 272.833,217.5 272.5,218.5C 273.167,218.5 273.833,218.5 274.5,218.5C 274.5,266.5 274.5,314.5 274.5,362.5C 272.246,363.124 270.579,364.457 269.5,366.5C 271.284,366.107 272.95,365.441 274.5,364.5C 274.5,392.5 274.5,420.5 274.5,448.5C 268.642,448.822 262.975,448.489 257.5,447.5C 258.525,447.103 258.692,446.437 258,445.5C 257.005,446.066 256.172,446.733 255.5,447.5C 249.225,448.418 242.892,448.751 236.5,448.5C 236.5,426.5 236.5,404.5 236.5,382.5C 238.5,381.167 240.167,379.5 241.5,377.5C 239.716,377.893 238.05,378.559 236.5,379.5C 236.5,374.833 236.5,370.167 236.5,365.5C 237.833,365.167 237.833,364.833 236.5,364.5C 236.5,356.167 236.5,347.833 236.5,339.5C 239.167,337.5 241.5,335.167 243.5,332.5C 241.046,333.227 238.713,334.227 236.5,335.5C 236.5,330.5 236.5,325.5 236.5,320.5C 239.167,318.5 241.5,316.167 243.5,313.5C 241.313,314.758 238.98,315.758 236.5,316.5C 236.5,306.833 236.5,297.167 236.5,287.5C 239.859,284.471 243.192,281.471 246.5,278.5C 243.183,280.137 239.85,281.804 236.5,283.5C 236.5,267.5 236.5,251.5 236.5,235.5C 237.833,235.167 237.833,234.833 236.5,234.5C 236.5,192.167 236.5,149.833 236.5,107.5C 238.167,106.5 239.5,105.167 240.5,103.5C 239.167,103.833 237.833,104.167 236.5,104.5C 236.5,96.1667 236.5,87.8333 236.5,79.5C 239.859,76.4715 243.192,73.4715 246.5,70.5C 243.183,72.1373 239.85,73.8039 236.5,75.5C 236.5,66.1667 236.5,56.8333 236.5,47.5C 238.85,46.8897 238.517,46.5563 235.5,46.5C 235.334,38.4931 235.5,30.4931 236,22.5C 237.755,14.5644 242.588,10.5644 250.5,10.5 Z M 250.5,10.5 C 253.5,10.5 256.5,10.5 259.5,10.5C 255.483,13.2671 251.316,15.9337 247,18.5C 247.84,15.8067 249.007,13.1401 250.5,10.5 Z M 270.5,270.5 C 269.871,272.997 268.204,274.33 265.5,274.5C 266.585,272.413 268.251,271.08 270.5,270.5 Z M 257.5,447.5 C 256.833,447.5 256.167,447.5 255.5,447.5C 256.172,446.733 257.005,446.066 258,445.5C 258.692,446.437 258.525,447.103 257.5,447.5 Z"/></g>
<g><path style="opacity:0.964" fill="#a5715b" d="M 303.5,46.5 C 299.528,50.8073 295.528,55.1407 291.5,59.5C 299.337,55.4164 307.003,51.0831 314.5,46.5C 327.295,45.1966 339.961,45.1966 352.5,46.5C 346.913,49.79 341.913,53.79 337.5,58.5C 344.996,55.2552 351.996,51.2552 358.5,46.5C 365.629,45.2233 372.629,45.2233 379.5,46.5C 370.795,52.8453 362.129,59.1786 353.5,65.5C 364.998,59.9214 375.998,53.588 386.5,46.5C 393.642,45.262 400.642,45.262 407.5,46.5C 395.866,54.1436 384.533,62.1436 373.5,70.5C 387.834,63.0024 401.834,55.0024 415.5,46.5C 422.629,45.2233 429.629,45.2233 436.5,46.5C 418.781,58.0193 401.448,70.0193 384.5,82.5C 404.833,71.1667 425.167,59.8333 445.5,48.5C 452,50.9936 457,55.3269 460.5,61.5C 451.325,67.5873 442.325,73.9207 433.5,80.5C 443.5,75.1667 453.5,69.8333 463.5,64.5C 466.764,66.0941 469.431,68.4275 471.5,71.5C 458.444,80.0211 445.777,89.0211 433.5,98.5C 447.301,91.0988 460.968,83.4321 474.5,75.5C 478.395,76.3931 481.062,78.7264 482.5,82.5C 470.214,91.4513 458.214,100.785 446.5,110.5C 460.301,103.099 473.968,95.4321 487.5,87.5C 490.737,89.6304 492.737,92.6304 493.5,96.5C 487.525,100.481 481.858,104.814 476.5,109.5C 482.738,106.596 488.738,103.262 494.5,99.5C 495.766,105.24 494.599,110.574 491,115.5C 488.295,118.036 485.795,120.703 483.5,123.5C 482.833,123.5 482.5,123.833 482.5,124.5C 481.508,124.328 480.842,124.662 480.5,125.5C 479.833,125.5 479.5,125.833 479.5,126.5C 478.833,126.5 478.5,126.833 478.5,127.5C 477.167,127.833 477.167,128.167 478.5,128.5C 470.062,136.437 461.728,144.604 453.5,153C 445.076,158.4 436.076,159.9 426.5,157.5C 434.394,151.059 442.061,144.393 449.5,137.5C 437.663,143.917 425.996,150.584 414.5,157.5C 407.704,158.774 401.037,158.774 394.5,157.5C 401.833,151.833 409.167,146.167 416.5,140.5C 406.167,145.664 396.167,151.331 386.5,157.5C 379.704,158.774 373.037,158.774 366.5,157.5C 380.784,147.217 394.784,136.55 408.5,125.5C 389.5,135.664 370.833,146.331 352.5,157.5C 345.704,158.774 339.037,158.774 332.5,157.5C 345.833,147.833 359.167,138.167 372.5,128.5C 355.238,137.775 338.238,147.441 321.5,157.5C 314.704,158.774 308.037,158.774 301.5,157.5C 311.537,150.487 321.537,143.487 331.5,136.5C 318.905,143.108 306.572,150.108 294.5,157.5C 292.236,158.219 289.903,158.552 287.5,158.5C 287.5,150.833 287.5,143.167 287.5,135.5C 296.361,130.572 304.695,124.906 312.5,118.5C 304.324,123.088 295.991,127.422 287.5,131.5C 287.5,126.833 287.5,122.167 287.5,117.5C 290.563,115.975 293.23,113.975 295.5,111.5C 292.86,112.82 290.193,114.153 287.5,115.5C 287.5,110.5 287.5,105.5 287.5,100.5C 288.833,100.167 288.833,99.8333 287.5,99.5C 287.5,81.5 287.5,63.5 287.5,45.5C 293.026,45.1786 298.36,45.5119 303.5,46.5 Z M 303.5,46.5 C 307.167,46.5 310.833,46.5 314.5,46.5C 307.003,51.0831 299.337,55.4164 291.5,59.5C 295.528,55.1407 299.528,50.8073 303.5,46.5 Z M 352.5,46.5 C 354.5,46.5 356.5,46.5 358.5,46.5C 351.996,51.2552 344.996,55.2552 337.5,58.5C 341.913,53.79 346.913,49.79 352.5,46.5 Z M 379.5,46.5 C 381.833,46.5 384.167,46.5 386.5,46.5C 375.998,53.588 364.998,59.9214 353.5,65.5C 362.129,59.1786 370.795,52.8453 379.5,46.5 Z M 407.5,46.5 C 410.167,46.5 412.833,46.5 415.5,46.5C 401.834,55.0024 387.834,63.0024 373.5,70.5C 384.533,62.1436 395.866,54.1436 407.5,46.5 Z M 337.5,58.5 C 337.027,59.9063 336.027,60.573 334.5,60.5C 334.973,59.0937 335.973,58.427 337.5,58.5 Z M 446.5,110.5 C 446.027,111.906 445.027,112.573 443.5,112.5C 443.973,111.094 444.973,110.427 446.5,110.5 Z M 315.5,116.5 C 315.027,117.906 314.027,118.573 312.5,118.5C 312.973,117.094 313.973,116.427 315.5,116.5 Z M 408.5,125.5 C 394.784,136.55 380.784,147.217 366.5,157.5C 361.833,157.5 357.167,157.5 352.5,157.5C 370.833,146.331 389.5,135.664 408.5,125.5 Z M 372.5,128.5 C 359.167,138.167 345.833,147.833 332.5,157.5C 328.833,157.5 325.167,157.5 321.5,157.5C 338.238,147.441 355.238,137.775 372.5,128.5 Z M 334.5,134.5 C 334.027,135.906 333.027,136.573 331.5,136.5C 331.973,135.094 332.973,134.427 334.5,134.5 Z M 331.5,136.5 C 321.537,143.487 311.537,150.487 301.5,157.5C 299.167,157.5 296.833,157.5 294.5,157.5C 306.572,150.108 318.905,143.108 331.5,136.5 Z M 449.5,137.5 C 442.061,144.393 434.394,151.059 426.5,157.5C 422.5,157.5 418.5,157.5 414.5,157.5C 425.996,150.584 437.663,143.917 449.5,137.5 Z M 416.5,140.5 C 409.167,146.167 401.833,151.833 394.5,157.5C 391.833,157.5 389.167,157.5 386.5,157.5C 396.167,151.331 406.167,145.664 416.5,140.5 Z"/></g>
<g><path style="opacity:0.782" fill="#a36d58" d="M 71.5,142.5 C 62.5576,143.699 54.5576,147.033 47.5,152.5C 47.4142,151.504 47.7476,150.671 48.5,150C 53.8333,147 59.1667,144 64.5,141C 66.5,140.333 68.5,140.333 70.5,141C 71.056,141.383 71.3893,141.883 71.5,142.5 Z"/></g>
<g><path style="opacity:0.715" fill="#a46b57" d="M 113.5,142.5 C 110.615,142.806 107.948,142.473 105.5,141.5C 108.577,138.709 111.243,139.043 113.5,142.5 Z"/></g>
<g><path style="opacity:0.997" fill="#865e4e" d="M 139.5,141.5 C 136.833,142.833 134.167,142.833 131.5,141.5C 134.299,139.269 136.966,139.269 139.5,141.5 Z"/></g>
<g><path style="opacity:1" fill="#8b5f4e" d="M 156.5,141.5 C 153.833,142.833 151.167,142.833 148.5,141.5C 151.296,138.982 153.963,138.982 156.5,141.5 Z"/></g>
<g><path style="opacity:1" fill="#885f4f" d="M 175.5,141.5 C 172.833,142.833 170.167,142.833 167.5,141.5C 170.296,138.982 172.963,138.982 175.5,141.5 Z"/></g>
<g><path style="opacity:1" fill="#89614f" d="M 209.5,141.5 C 206.833,142.833 204.167,142.833 201.5,141.5C 204.296,138.982 206.963,138.982 209.5,141.5 Z"/></g>
<g><path style="opacity:0.967" fill="#a5715b" d="M 90.5,147.5 C 88.6397,148.939 86.973,150.605 85.5,152.5C 88.669,151.083 91.669,149.417 94.5,147.5C 100.963,146.23 107.296,146.23 113.5,147.5C 108.167,151.833 102.833,156.167 97.5,160.5C 105.428,156.559 113.095,152.226 120.5,147.5C 138.878,146.203 157.211,146.203 175.5,147.5C 159.783,159.885 143.783,171.885 127.5,183.5C 148.996,172.255 169.996,160.255 190.5,147.5C 196.963,146.23 203.296,146.23 209.5,147.5C 196.833,156.5 184.167,165.5 171.5,174.5C 187.664,166.255 203.331,157.255 218.5,147.5C 220.167,147.5 221.833,147.5 223.5,147.5C 223.5,151.167 223.5,154.833 223.5,158.5C 210.449,166.685 197.782,175.352 185.5,184.5C 198.14,177.512 210.806,170.512 223.5,163.5C 223.5,168.167 223.5,172.833 223.5,177.5C 219.264,179.445 215.597,182.112 212.5,185.5C 216.3,183.766 219.966,181.766 223.5,179.5C 223.5,188.833 223.5,198.167 223.5,207.5C 219.762,209.697 216.429,212.364 213.5,215.5C 217.117,214.358 220.45,212.692 223.5,210.5C 223.5,225.167 223.5,239.833 223.5,254.5C 219.628,256.597 215.961,258.931 212.5,261.5C 206.167,261.5 199.833,261.5 193.5,261.5C 199.194,255.14 205.194,249.14 211.5,243.5C 200.502,248.997 189.835,254.997 179.5,261.5C 173.5,261.5 167.5,261.5 161.5,261.5C 164.833,258.5 168.167,255.5 171.5,252.5C 165.835,254.997 160.502,257.997 155.5,261.5C 149.167,261.5 142.833,261.5 136.5,261.5C 149.682,251.407 162.682,241.074 175.5,230.5C 157.166,240.331 139.166,250.664 121.5,261.5C 108.833,261.5 96.1667,261.5 83.5,261.5C 96.5,252.167 109.5,242.833 122.5,233.5C 105.67,242.078 89.337,251.411 73.5,261.5C 68.7679,261.373 64.7679,259.707 61.5,256.5C 78.045,245.401 94.3784,234.067 110.5,222.5C 92.832,231.998 75.4986,241.998 58.5,252.5C 54.8333,250.833 52.1667,248.167 50.5,244.5C 61.7994,237.19 72.7994,229.524 83.5,221.5C 71.5272,228.155 59.5272,234.821 47.5,241.5C 44.1898,239.854 41.5232,237.52 39.5,234.5C 54.7156,223.732 69.7156,212.732 84.5,201.5C 67.8606,210.821 51.1939,220.155 34.5,229.5C 25.4725,224.146 19.4725,216.48 16.5,206.5C 19.8103,204.518 22.8103,202.185 25.5,199.5C 22.2402,200.774 19.2402,202.44 16.5,204.5C 15.3786,198.664 16.8786,193.331 21,188.5C 33.8333,175.667 46.6667,162.833 59.5,150C 63.9034,147.955 68.5701,146.955 73.5,147C 79.3487,146.182 85.0154,146.348 90.5,147.5 Z M 90.5,147.5 C 91.8333,147.5 93.1667,147.5 94.5,147.5C 91.669,149.417 88.669,151.083 85.5,152.5C 86.973,150.605 88.6397,148.939 90.5,147.5 Z M 113.5,147.5 C 115.833,147.5 118.167,147.5 120.5,147.5C 113.095,152.226 105.428,156.559 97.5,160.5C 102.833,156.167 108.167,151.833 113.5,147.5 Z M 175.5,147.5 C 180.5,147.5 185.5,147.5 190.5,147.5C 169.996,160.255 148.996,172.255 127.5,183.5C 143.783,171.885 159.783,159.885 175.5,147.5 Z M 209.5,147.5 C 212.5,147.5 215.5,147.5 218.5,147.5C 203.331,157.255 187.664,166.255 171.5,174.5C 184.167,165.5 196.833,156.5 209.5,147.5 Z M 97.5,160.5 C 97.0269,161.906 96.0269,162.573 94.5,162.5C 94.9731,161.094 95.9731,160.427 97.5,160.5 Z M 213.5,215.5 C 213.027,216.906 212.027,217.573 210.5,217.5C 210.973,216.094 211.973,215.427 213.5,215.5 Z M 113.5,220.5 C 113.027,221.906 112.027,222.573 110.5,222.5C 110.973,221.094 111.973,220.427 113.5,220.5 Z M 175.5,230.5 C 162.682,241.074 149.682,251.407 136.5,261.5C 131.5,261.5 126.5,261.5 121.5,261.5C 139.166,250.664 157.166,240.331 175.5,230.5 Z M 125.5,231.5 C 125.027,232.906 124.027,233.573 122.5,233.5C 122.973,232.094 123.973,231.427 125.5,231.5 Z M 122.5,233.5 C 109.5,242.833 96.5,252.167 83.5,261.5C 80.1667,261.5 76.8333,261.5 73.5,261.5C 89.337,251.411 105.67,242.078 122.5,233.5 Z M 211.5,243.5 C 205.194,249.14 199.194,255.14 193.5,261.5C 188.833,261.5 184.167,261.5 179.5,261.5C 189.835,254.997 200.502,248.997 211.5,243.5 Z M 171.5,252.5 C 168.167,255.5 164.833,258.5 161.5,261.5C 159.5,261.5 157.5,261.5 155.5,261.5C 160.502,257.997 165.835,254.997 171.5,252.5 Z"/></g>
<g><path style="opacity:0.971" fill="#a5715b" d="M 303.5,250.5 C 299.704,254.798 295.704,258.964 291.5,263C 291.833,263.167 292.167,263.333 292.5,263.5C 299.732,259.392 306.732,255.059 313.5,250.5C 320.309,249.268 326.976,249.268 333.5,250.5C 326.167,257.167 318.833,263.833 311.5,270.5C 323.663,264.589 335.33,257.922 346.5,250.5C 353.296,249.226 359.963,249.226 366.5,250.5C 355.279,258.937 344.279,267.603 333.5,276.5C 348.671,268.083 363.671,259.416 378.5,250.5C 385.296,249.226 391.963,249.226 398.5,250.5C 393.284,253.934 388.284,257.601 383.5,261.5C 390.496,258.337 397.162,254.671 403.5,250.5C 410.296,249.226 416.963,249.226 423.5,250.5C 418.531,253.478 413.865,256.811 409.5,260.5C 415.83,257.67 421.83,254.337 427.5,250.5C 431.78,249.46 436.113,249.294 440.5,250C 442.32,250.2 443.653,251.034 444.5,252.5C 448.975,252.979 451.975,255.312 453.5,259.5C 457.167,261.167 459.833,263.833 461.5,267.5C 452.535,273.143 443.868,279.143 435.5,285.5C 445.167,280.669 454.5,275.336 463.5,269.5C 466.81,271.146 469.477,273.48 471.5,276.5C 465.653,280.591 459.987,284.924 454.5,289.5C 461.496,286.337 468.162,282.671 474.5,278.5C 477.573,280.569 479.906,283.236 481.5,286.5C 475.462,290.845 469.462,295.179 463.5,299.5C 470.15,295.862 476.816,292.195 483.5,288.5C 487.779,290.684 490.946,294.018 493,298.5C 494.202,300.677 494.702,303.011 494.5,305.5C 492.15,306.11 492.483,306.444 495.5,306.5C 494.51,316.155 490.177,323.821 482.5,329.5C 481.833,329.5 481.5,329.833 481.5,330.5C 480.167,330.833 480.167,331.167 481.5,331.5C 473.066,338.1 465.399,345.6 458.5,354C 455.93,356.087 453.263,357.92 450.5,359.5C 449.508,359.328 448.842,359.662 448.5,360.5C 447.833,360.5 447.5,360.833 447.5,361.5C 446.508,361.328 445.842,361.662 445.5,362.5C 438.557,363.427 431.557,363.76 424.5,363.5C 430.354,358.735 436.021,353.735 441.5,348.5C 432.499,352.998 423.832,357.998 415.5,363.5C 409.167,363.5 402.833,363.5 396.5,363.5C 398.5,361.5 400.5,359.5 402.5,357.5C 398.827,359 395.494,361 392.5,363.5C 379.833,363.5 367.167,363.5 354.5,363.5C 361.167,358.5 367.833,353.5 374.5,348.5C 365.499,352.998 356.832,357.998 348.5,363.5C 341.833,363.5 335.167,363.5 328.5,363.5C 336.833,357.5 345.167,351.5 353.5,345.5C 342.502,350.997 331.835,356.997 321.5,363.5C 315.167,363.5 308.833,363.5 302.5,363.5C 312.344,356.745 322.01,349.745 331.5,342.5C 318.996,349.25 306.663,356.25 294.5,363.5C 292.167,363.5 289.833,363.5 287.5,363.5C 287.5,341.833 287.5,320.167 287.5,298.5C 289.54,296.823 291.54,295.156 293.5,293.5C 291.5,294.167 289.5,294.833 287.5,295.5C 287.5,280.167 287.5,264.833 287.5,249.5C 293.026,249.179 298.36,249.512 303.5,250.5 Z M 303.5,250.5 C 306.833,250.5 310.167,250.5 313.5,250.5C 306.732,255.059 299.732,259.392 292.5,263.5C 292.167,263.333 291.833,263.167 291.5,263C 295.704,258.964 299.704,254.798 303.5,250.5 Z M 333.5,250.5 C 337.833,250.5 342.167,250.5 346.5,250.5C 335.33,257.922 323.663,264.589 311.5,270.5C 318.833,263.833 326.167,257.167 333.5,250.5 Z M 366.5,250.5 C 370.5,250.5 374.5,250.5 378.5,250.5C 363.671,259.416 348.671,268.083 333.5,276.5C 344.279,267.603 355.279,258.937 366.5,250.5 Z M 398.5,250.5 C 400.167,250.5 401.833,250.5 403.5,250.5C 397.162,254.671 390.496,258.337 383.5,261.5C 388.284,257.601 393.284,253.934 398.5,250.5 Z M 423.5,250.5 C 424.833,250.5 426.167,250.5 427.5,250.5C 421.83,254.337 415.83,257.67 409.5,260.5C 413.865,256.811 418.531,253.478 423.5,250.5 Z M 409.5,260.5 C 409.027,261.906 408.027,262.573 406.5,262.5C 406.973,261.094 407.973,260.427 409.5,260.5 Z M 383.5,261.5 C 383.027,262.906 382.027,263.573 380.5,263.5C 380.973,262.094 381.973,261.427 383.5,261.5 Z M 454.5,289.5 C 454.027,290.906 453.027,291.573 451.5,291.5C 451.973,290.094 452.973,289.427 454.5,289.5 Z M 331.5,342.5 C 322.01,349.745 312.344,356.745 302.5,363.5C 299.833,363.5 297.167,363.5 294.5,363.5C 306.663,356.25 318.996,349.25 331.5,342.5 Z M 356.5,343.5 C 356.027,344.906 355.027,345.573 353.5,345.5C 353.973,344.094 354.973,343.427 356.5,343.5 Z M 353.5,345.5 C 345.167,351.5 336.833,357.5 328.5,363.5C 326.167,363.5 323.833,363.5 321.5,363.5C 331.835,356.997 342.502,350.997 353.5,345.5 Z M 377.5,346.5 C 377.027,347.906 376.027,348.573 374.5,348.5C 374.973,347.094 375.973,346.427 377.5,346.5 Z M 444.5,346.5 C 444.027,347.906 443.027,348.573 441.5,348.5C 441.973,347.094 442.973,346.427 444.5,346.5 Z M 374.5,348.5 C 367.833,353.5 361.167,358.5 354.5,363.5C 352.5,363.5 350.5,363.5 348.5,363.5C 356.832,357.998 365.499,352.998 374.5,348.5 Z M 441.5,348.5 C 436.021,353.735 430.354,358.735 424.5,363.5C 421.5,363.5 418.5,363.5 415.5,363.5C 423.832,357.998 432.499,352.998 441.5,348.5 Z M 402.5,357.5 C 400.5,359.5 398.5,361.5 396.5,363.5C 395.167,363.5 393.833,363.5 392.5,363.5C 395.494,361 398.827,359 402.5,357.5 Z"/></g>
<g><path style="opacity:0.606" fill="#a6725b" d="M 84.5,266.5 C 86.8333,266.5 89.1667,266.5 91.5,266.5C 89.0837,269.034 86.7504,269.034 84.5,266.5 Z"/></g>
<g><path style="opacity:0.711" fill="#a4705c" d="M 103.5,266.5 C 106.167,266.5 108.833,266.5 111.5,266.5C 108.757,269.059 106.09,269.059 103.5,266.5 Z"/></g>
<g><path style="opacity:0.733" fill="#a56f5d" d="M 137.5,266.5 C 140.167,266.5 142.833,266.5 145.5,266.5C 142.757,269.059 140.09,269.059 137.5,266.5 Z"/></g>
<g><path style="opacity:0.748" fill="#a3725f" d="M 161.5,266.5 C 164.167,266.5 166.833,266.5 169.5,266.5C 166.757,269.059 164.09,269.059 161.5,266.5 Z"/></g>
<g><path style="opacity:0.714" fill="#a3725f" d="M 194.5,266.5 C 197.167,266.5 199.833,266.5 202.5,266.5C 199.757,269.059 197.09,269.059 194.5,266.5 Z"/></g>
<g><path style="opacity:0.554" fill="#a6735a" d="M 302.5,369.5 C 304.833,369.5 307.167,369.5 309.5,369.5C 307.167,372.167 304.833,372.167 302.5,369.5 Z"/></g>
<g><path style="opacity:0.637" fill="#b16d54" d="M 329.5,369.5 C 331.833,369.5 334.167,369.5 336.5,369.5C 334.098,371.891 331.764,371.891 329.5,369.5 Z"/></g>
<g><path style="opacity:0.773" fill="#a6725b" d="M 355.5,369.5 C 357.5,369.5 359.5,369.5 361.5,369.5C 359.5,372.167 357.5,372.167 355.5,369.5 Z"/></g>
<g><path style="opacity:0.774" fill="#b26c54" d="M 373.5,369.5 C 375.833,369.5 378.167,369.5 380.5,369.5C 378.098,371.891 375.764,371.891 373.5,369.5 Z"/></g>
<g><path style="opacity:0.745" fill="#956652" d="M 403.5,369.5 C 401.098,371.891 398.764,371.891 396.5,369.5C 398.833,368.167 401.167,368.167 403.5,369.5 Z"/></g>
<g><path style="opacity:0.96" fill="#684135" d="M 285.5,455.5 C 286.167,456.833 286.833,456.833 287.5,455.5C 294.022,455.177 300.355,455.51 306.5,456.5C 299.807,462.861 293.14,469.194 286.5,475.5C 298.337,469.083 310.004,462.416 321.5,455.5C 330.697,456.374 337.031,461.041 340.5,469.5C 338.5,470.833 336.833,472.5 335.5,474.5C 337.674,474.25 339.341,473.25 340.5,471.5C 341.117,471.611 341.617,471.944 342,472.5C 344.139,481.281 343.973,489.947 341.5,498.5C 340.508,498.328 339.842,498.662 339.5,499.5C 333.167,499.5 326.833,499.5 320.5,499.5C 321.754,496.907 323.42,494.573 325.5,492.5C 321.164,494.332 317.164,496.665 313.5,499.5C 307.167,499.5 300.833,499.5 294.5,499.5C 297.833,495.833 301.167,492.167 304.5,488.5C 297.903,491.775 291.57,495.442 285.5,499.5C 272.5,499.5 259.5,499.5 246.5,499.5C 253.14,493.527 259.473,487.194 265.5,480.5C 254.002,486.079 243.002,492.412 232.5,499.5C 225.978,499.823 219.645,499.49 213.5,498.5C 215.54,496.823 217.54,495.156 219.5,493.5C 215.345,494.742 211.678,496.742 208.5,499.5C 202.167,499.5 195.833,499.5 189.5,499.5C 194.833,494.5 200.167,489.5 205.5,484.5C 196.499,488.998 187.832,493.998 179.5,499.5C 172.33,501.306 168.663,498.64 168.5,491.5C 173.167,487.5 177.5,483.167 181.5,478.5C 177.034,480.566 172.701,482.9 168.5,485.5C 167.012,478.069 167.846,470.735 171,463.5C 174.504,456.856 179.671,454.856 186.5,457.5C 184.5,460.5 182.5,463.5 180.5,466.5C 186.964,463.434 193.298,460.101 199.5,456.5C 206.078,455.54 212.745,455.207 219.5,455.5C 213.833,461.5 208.167,467.5 202.5,473.5C 211.098,469.533 219.432,465.033 227.5,460C 225.963,458.89 225.297,457.39 225.5,455.5C 245.336,454.468 265.336,454.468 285.5,455.5 Z M 219.5,455.5 C 221.5,455.5 223.5,455.5 225.5,455.5C 225.297,457.39 225.963,458.89 227.5,460C 219.432,465.033 211.098,469.533 202.5,473.5C 208.167,467.5 213.833,461.5 219.5,455.5 Z M 321.5,455.5 C 310.004,462.416 298.337,469.083 286.5,475.5C 293.14,469.194 299.807,462.861 306.5,456.5C 311.405,455.555 316.405,455.221 321.5,455.5 Z M 249.5,460.5 C 249.5,461.5 249.5,462.5 249.5,463.5C 245.836,466.335 241.836,468.668 237.5,470.5C 241.183,466.82 245.183,463.486 249.5,460.5 Z M 202.5,473.5 C 202.027,474.906 201.027,475.573 199.5,475.5C 199.973,474.094 200.973,473.427 202.5,473.5 Z M 265.5,480.5 C 259.473,487.194 253.14,493.527 246.5,499.5C 241.833,499.5 237.167,499.5 232.5,499.5C 243.002,492.412 254.002,486.079 265.5,480.5 Z M 205.5,484.5 C 200.167,489.5 194.833,494.5 189.5,499.5C 186.167,499.5 182.833,499.5 179.5,499.5C 187.832,493.998 196.499,488.998 205.5,484.5 Z M 304.5,488.5 C 301.167,492.167 297.833,495.833 294.5,499.5C 291.5,499.5 288.5,499.5 285.5,499.5C 291.57,495.442 297.903,491.775 304.5,488.5 Z M 325.5,492.5 C 323.42,494.573 321.754,496.907 320.5,499.5C 318.167,499.5 315.833,499.5 313.5,499.5C 317.164,496.665 321.164,494.332 325.5,492.5 Z M 219.5,493.5 C 217.54,495.156 215.54,496.823 213.5,498.5C 211.958,499.301 210.292,499.634 208.5,499.5C 211.678,496.742 215.345,494.742 219.5,493.5 Z"/></g>
<g><path style="opacity:0.996" fill="#8d5b49" d="M 249.5,463.5 C 249.5,462.5 249.5,461.5 249.5,460.5C 249.859,458.629 250.859,457.129 252.5,456C 256.5,455.333 260.5,455.333 264.5,456C 259.807,459.212 254.807,461.712 249.5,463.5 Z"/></g>
</svg>
