<?xml version="1.0" encoding="UTF-8"?>
<!DOCTYPE svg PUBLIC "-//W3C//DTD SVG 1.1//EN" "http://www.w3.org/Graphics/SVG/1.1/DTD/svg11.dtd">
<svg xmlns="http://www.w3.org/2000/svg" version="1.1" width="512px" height="512px" style="shape-rendering:geometricPrecision; text-rendering:geometricPrecision; image-rendering:optimizeQuality; fill-rule:evenodd; clip-rule:evenodd" xmlns:xlink="http://www.w3.org/1999/xlink">
<g><path style="opacity:0.981" fill="#282829" d="M 185.5,7.5 C 187.867,8.91417 190.367,10.2475 193,11.5C 193.399,11.2716 193.565,10.9382 193.5,10.5C 196.923,12.6285 200.423,14.6285 204,16.5C 206.295,19.7974 208.962,22.7974 212,25.5C 216.343,35.3656 222.51,43.8656 230.5,51C 235.761,54.1428 241.428,55.9761 247.5,56.5C 250.167,56.5 252.833,56.5 255.5,56.5C 260.5,56.5 265.5,56.5 270.5,56.5C 272.833,56.5 275.167,56.5 277.5,56.5C 280.833,56.5 284.167,56.5 287.5,56.5C 290.167,56.5 292.833,56.5 295.5,56.5C 301.833,56.5 308.167,56.5 314.5,56.5C 316.833,56.5 319.167,56.5 321.5,56.5C 328.5,56.5 335.5,56.5 342.5,56.5C 344.833,56.5 347.167,56.5 349.5,56.5C 357.5,56.5 365.5,56.5 373.5,56.5C 375.833,56.5 378.167,56.5 380.5,56.5C 385.5,56.5 390.5,56.5 395.5,56.5C 397.833,56.5 400.167,56.5 402.5,56.5C 407.167,56.5 411.833,56.5 416.5,56.5C 418.833,56.5 421.167,56.5 423.5,56.5C 430.167,56.5 436.833,56.5 443.5,56.5C 445.833,56.5 448.167,56.5 450.5,56.5C 459.031,56.7595 467.531,56.4262 476,55.5C 492.581,58.1172 503.248,67.4505 508,83.5C 509.79,92.8986 510.957,102.232 511.5,111.5C 511.5,112.167 511.5,112.833 511.5,113.5C 510.671,121.657 510.171,129.99 510,138.5C 509.333,209.5 509.333,280.5 510,351.5C 510.179,355.025 510.679,358.359 511.5,361.5C 511.5,376.167 511.5,390.833 511.5,405.5C 509.849,416.785 506.182,427.452 500.5,437.5C 496.564,439.766 493.231,442.766 490.5,446.5C 483.981,449.767 477.314,452.434 470.5,454.5C 459.91,456.014 449.243,456.681 438.5,456.5C 425.828,456.257 413.162,455.924 400.5,455.5C 398.5,454.167 396.5,454.167 394.5,455.5C 388.862,454.78 383.196,454.447 377.5,454.5C 375.167,454.5 372.833,454.5 370.5,454.5C 365.482,454.613 360.482,454.947 355.5,455.5C 358.243,467.095 358.743,478.762 357,490.5C 355.237,497.262 351.07,501.762 344.5,504C 338.449,504.746 332.449,504.579 326.5,503.5C 324.228,502.681 321.894,502.015 319.5,501.5C 313.345,499.836 307.345,497.67 301.5,495C 285.305,486.737 269.305,478.237 253.5,469.5C 243.204,475.317 232.871,481.15 222.5,487C 217.036,490.068 211.369,492.568 205.5,494.5C 198.837,497.383 192.171,500.05 185.5,502.5C 176.621,505.599 167.955,505.099 159.5,501C 154.186,495.271 151.853,488.438 152.5,480.5C 152.812,472.13 154.145,463.963 156.5,456C 121.761,456.321 86.9279,456.487 52,456.5C 45.1892,455.004 38.3558,453.671 31.5,452.5C 29.2084,450.733 26.5418,449.733 23.5,449.5C 10.6711,442.896 3.50439,432.23 2,417.5C 1.09126,409.023 0.25793,400.69 -0.5,392.5C -0.5,387.167 -0.5,381.833 -0.5,376.5C 0.331598,359.338 0.831598,342.005 1,324.5C 1.33333,229.167 1.66667,133.833 2,38.5C 3.07654,31.0134 6.24321,24.68 11.5,19.5C 13.9095,18.2993 15.9095,16.6326 17.5,14.5C 19.6626,12.9172 21.9959,11.5839 24.5,10.5C 29.9211,8.81668 35.2545,7.15001 40.5,5.5C 45.711,5.36493 50.711,5.36493 55.5,5.5C 57.9479,6.47307 60.6146,6.8064 63.5,6.5C 69.8333,6.5 76.1667,6.5 82.5,6.5C 86.0419,6.81277 89.3752,6.47944 92.5,5.5C 110.7,4.39076 129.033,3.39076 147.5,2.5C 160.423,2.45797 173.089,4.12464 185.5,7.5 Z M 63.5,8.5 C 68.1667,8.5 72.8333,8.5 77.5,8.5C 68.5002,14.3357 59.1669,19.6691 49.5,24.5C 53.6371,19.8372 58.1371,15.5038 63,11.5C 63.4828,10.552 63.6495,9.55198 63.5,8.5 Z M 93.5,9.5 C 96.1667,9.5 98.8333,9.5 101.5,9.5C 94.6707,13.7495 87.6707,17.7495 80.5,21.5C 84.8333,17.5 89.1667,13.5 93.5,9.5 Z M 117.5,11.5 C 119.167,11.5 120.833,11.5 122.5,11.5C 116.666,15.9209 110.332,19.5876 103.5,22.5C 108.167,18.8333 112.833,15.1667 117.5,11.5 Z M 168.5,11.5 C 171.237,11.4013 173.904,11.7347 176.5,12.5C 160.337,22.0828 144.004,31.4162 127.5,40.5C 140.991,30.5875 154.658,20.9209 168.5,11.5 Z M 141.5,12.5 C 143.167,12.5 144.833,12.5 146.5,12.5C 138.836,17.668 130.836,22.3347 122.5,26.5C 128.617,21.6011 134.951,16.9344 141.5,12.5 Z M 187.5,18.5 C 188.5,18.8333 189.167,19.5 189.5,20.5C 181.792,25.3542 173.792,29.6875 165.5,33.5C 172.449,28.0184 179.783,23.0184 187.5,18.5 Z M 196.5,28.5 C 197.167,28.5 197.5,28.8333 197.5,29.5C 192.498,33.0031 187.165,36.0031 181.5,38.5C 186.291,34.9317 191.291,31.5984 196.5,28.5 Z M 165.5,33.5 C 164.341,35.2503 162.674,36.2503 160.5,36.5C 161.659,34.7497 163.326,33.7497 165.5,33.5 Z M 160.5,36.5 C 160.027,37.9063 159.027,38.573 157.5,38.5C 157.973,37.0937 158.973,36.427 160.5,36.5 Z M 19.5,37.5 C 18.4206,39.543 16.754,40.8763 14.5,41.5C 14.5,40.8333 14.5,40.1667 14.5,39.5C 16.0495,38.5592 17.7162,37.8925 19.5,37.5 Z M 181.5,38.5 C 181.027,39.9063 180.027,40.573 178.5,40.5C 178.973,39.0937 179.973,38.427 181.5,38.5 Z M 209.5,45.5 C 210.833,46.1667 211.833,47.1667 212.5,48.5C 196.833,57.1667 181.167,65.8333 165.5,74.5C 179.62,64.055 194.286,54.3883 209.5,45.5 Z M 17.5,55.5 C 16.8333,56.8333 15.8333,57.8333 14.5,58.5C 14.5,57.8333 14.5,57.1667 14.5,56.5C 15.391,55.8902 16.391,55.5569 17.5,55.5 Z M 451.5,60.5 C 455.312,61.0264 458.979,61.6931 462.5,62.5C 448.301,70.7656 433.968,78.7656 419.5,86.5C 418.167,86.5 416.833,86.5 415.5,86.5C 426.596,78.7752 437.93,71.2752 449.5,64C 450.823,63.1841 451.489,62.0174 451.5,60.5 Z M 228.5,61.5 C 230.403,61.7959 232.07,62.4625 233.5,63.5C 219.866,72.3222 205.866,80.6555 191.5,88.5C 190.167,88.5 188.833,88.5 187.5,88.5C 200.891,79.1145 214.557,70.1145 228.5,61.5 Z M 433.5,61.5 C 419.366,70.0708 405.033,78.4041 390.5,86.5C 389.833,86.5 389.167,86.5 388.5,86.5C 400.463,78.5132 412.463,70.5132 424.5,62.5C 427.518,62.2962 430.518,61.9629 433.5,61.5 Z M 255.5,62.5 C 256.5,62.5 257.5,62.5 258.5,62.5C 255.322,65.2583 251.655,67.2583 247.5,68.5C 250.167,66.5 252.833,64.5 255.5,62.5 Z M 295.5,62.5 C 297.833,62.5 300.167,62.5 302.5,62.5C 287.699,71.4042 272.699,80.0708 257.5,88.5C 257.167,88.5 256.833,88.5 256.5,88.5C 269.5,79.8333 282.5,71.1667 295.5,62.5 Z M 321.5,62.5 C 324.5,62.5 327.5,62.5 330.5,62.5C 315.699,71.4042 300.699,80.0708 285.5,88.5C 284.5,88.5 283.5,88.5 282.5,88.5C 295.5,79.8333 308.5,71.1667 321.5,62.5 Z M 349.5,62.5 C 353.5,62.5 357.5,62.5 361.5,62.5C 345.668,71.5816 330.001,80.9149 314.5,90.5C 312.5,90.5 310.5,90.5 308.5,90.5C 322.167,81.1667 335.833,71.8333 349.5,62.5 Z M 380.5,62.5 C 381.5,62.5 382.5,62.5 383.5,62.5C 382.486,63.6737 381.153,64.3404 379.5,64.5C 379.833,63.8333 380.167,63.1667 380.5,62.5 Z M 377.5,65.5 C 377.027,66.9063 376.027,67.573 374.5,67.5C 374.973,66.0937 375.973,65.427 377.5,65.5 Z M 475.5,66.5 C 477.153,66.6596 478.486,67.3263 479.5,68.5C 467.329,75.7531 454.996,82.7531 442.5,89.5C 441.833,89.5 441.167,89.5 440.5,89.5C 451.873,81.4738 463.54,73.8071 475.5,66.5 Z M 20.5,68.5 C 18.8525,70.3264 16.8525,71.6597 14.5,72.5C 14.5,72.1667 14.5,71.8333 14.5,71.5C 16.2163,69.9752 18.2163,68.9752 20.5,68.5 Z M 247.5,68.5 C 247.027,69.9063 246.027,70.573 244.5,70.5C 244.973,69.0937 245.973,68.427 247.5,68.5 Z M 487.5,75.5 C 488.974,76.4363 489.974,77.7697 490.5,79.5C 480.033,84.9004 469.7,90.5671 459.5,96.5C 458.833,96.1667 458.167,95.8333 457.5,95.5C 467.463,88.8465 477.463,82.1798 487.5,75.5 Z M 26.5,79.5 C 22.5383,82.4884 18.5383,85.4884 14.5,88.5C 14.5,87.5 14.5,86.5 14.5,85.5C 18.5266,83.4867 22.5266,81.4867 26.5,79.5 Z M 48.5,81.5 C 48.0269,82.9063 47.0269,83.573 45.5,83.5C 45.9731,82.0937 46.9731,81.427 48.5,81.5 Z M 45.5,83.5 C 35.38,91.0667 25.0466,98.4 14.5,105.5C 14.5,103.833 14.5,102.167 14.5,100.5C 24.7001,94.5671 35.0334,88.9004 45.5,83.5 Z M 494.5,88.5 C 494.833,89.1667 495.167,89.8333 495.5,90.5C 490.817,92.8627 486.15,95.1961 481.5,97.5C 485.622,94.266 489.955,91.266 494.5,88.5 Z M 172.5,97.5 C 173.5,97.5 174.5,97.5 175.5,97.5C 173.819,99.0075 171.819,100.008 169.5,100.5C 170.306,99.2719 171.306,98.2719 172.5,97.5 Z M 396.5,97.5 C 397.833,97.5 399.167,97.5 400.5,97.5C 396.167,100.669 391.5,103.336 386.5,105.5C 389.833,102.833 393.167,100.167 396.5,97.5 Z M 481.5,97.5 C 481.027,98.9063 480.027,99.573 478.5,99.5C 478.973,98.0937 479.973,97.427 481.5,97.5 Z M 169.5,100.5 C 169.027,101.906 168.027,102.573 166.5,102.5C 166.973,101.094 167.973,100.427 169.5,100.5 Z M 497.5,101.5 C 497.5,103.833 497.5,106.167 497.5,108.5C 487.948,113.776 478.281,118.776 468.5,123.5C 467.662,123.158 467.328,122.492 467.5,121.5C 477.5,114.833 487.5,108.167 497.5,101.5 Z M 36.5,105.5 C 29.5505,110.982 22.2172,115.982 14.5,120.5C 14.5,119.5 14.5,118.5 14.5,117.5C 21.8604,113.488 29.1937,109.488 36.5,105.5 Z M 497.5,120.5 C 497.5,121.167 497.5,121.833 497.5,122.5C 494.634,124.432 491.634,126.099 488.5,127.5C 488.167,127.5 487.833,127.5 487.5,127.5C 490.446,124.687 493.779,122.354 497.5,120.5 Z M 29.5,124.5 C 29.0269,125.906 28.0269,126.573 26.5,126.5C 26.9731,125.094 27.9731,124.427 29.5,124.5 Z M 26.5,126.5 C 22.8523,129.66 18.8523,132.327 14.5,134.5C 14.5,133.833 14.5,133.167 14.5,132.5C 18.2717,130.066 22.2717,128.066 26.5,126.5 Z M 43.5,140.5 C 43.5,141.167 43.5,141.833 43.5,142.5C 33.6623,148.585 23.9957,154.918 14.5,161.5C 14.5,159.833 14.5,158.167 14.5,156.5C 24.3003,151.433 33.9669,146.099 43.5,140.5 Z M 44.5,167.5 C 44.5,168.5 44.5,169.5 44.5,170.5C 39.3484,173.022 34.3484,175.688 29.5,178.5C 27.079,178.878 24.7457,179.545 22.5,180.5C 29.4957,175.666 36.829,171.333 44.5,167.5 Z M 265.5,170.5 C 265.027,171.906 264.027,172.573 262.5,172.5C 262.973,171.094 263.973,170.427 265.5,170.5 Z M 262.5,172.5 C 262.027,173.906 261.027,174.573 259.5,174.5C 259.378,173.293 260.378,172.626 262.5,172.5 Z M 18.5,182.5 C 18.0269,183.906 17.0269,184.573 15.5,184.5C 15.9731,183.094 16.9731,182.427 18.5,182.5 Z M 496.5,185.5 C 496.5,186.167 496.5,186.833 496.5,187.5C 495.609,188.11 494.609,188.443 493.5,188.5C 494.167,187.167 495.167,186.167 496.5,185.5 Z M 458.5,208.5 C 458.443,209.609 458.11,210.609 457.5,211.5C 438.5,223.003 419.166,234.003 399.5,244.5C 418.658,231.75 438.325,219.75 458.5,208.5 Z M 428.5,209.5 C 427.89,210.391 427.557,211.391 427.5,212.5C 413.301,220.766 398.968,228.766 384.5,236.5C 398.824,227.001 413.491,218.001 428.5,209.5 Z M 334.5,218.5 C 338.005,215.486 341.838,212.819 346,210.5C 346.617,211.449 346.451,212.282 345.5,213C 342.09,215.372 338.423,217.205 334.5,218.5 Z M 479.5,211.5 C 479.5,212.833 479.5,214.167 479.5,215.5C 458.139,227.512 436.806,239.512 415.5,251.5C 436.461,237.68 457.794,224.347 479.5,211.5 Z M 369.5,215.5 C 369.5,215.833 369.5,216.167 369.5,216.5C 366.322,219.258 362.655,221.258 358.5,222.5C 361.65,219.421 365.317,217.087 369.5,215.5 Z M 496.5,217.5 C 496.5,219.833 496.5,222.167 496.5,224.5C 458.833,245.833 421.167,267.167 383.5,288.5C 420.878,264.472 458.544,240.805 496.5,217.5 Z M 334.5,218.5 C 333.341,220.25 331.674,221.25 329.5,221.5C 330.659,219.75 332.326,218.75 334.5,218.5 Z M 358.5,222.5 C 357.341,224.25 355.674,225.25 353.5,225.5C 354.659,223.75 356.326,222.75 358.5,222.5 Z M 42.5,224.5 C 32.813,232.85 22.813,240.85 12.5,248.5C 12.5,246.167 12.5,243.833 12.5,241.5C 22.5171,235.805 32.5171,230.139 42.5,224.5 Z M 353.5,225.5 C 352.341,227.25 350.674,228.25 348.5,228.5C 349.659,226.75 351.326,225.75 353.5,225.5 Z M 496.5,235.5 C 496.5,236.167 496.5,236.833 496.5,237.5C 494.287,238.773 491.954,239.773 489.5,240.5C 491.619,238.6 493.953,236.934 496.5,235.5 Z M 384.5,236.5 C 384.027,237.906 383.027,238.573 381.5,238.5C 381.973,237.094 382.973,236.427 384.5,236.5 Z M 379.5,239.5 C 379.027,240.906 378.027,241.573 376.5,241.5C 376.973,240.094 377.973,239.427 379.5,239.5 Z M 489.5,240.5 C 489.027,241.906 488.027,242.573 486.5,242.5C 486.973,241.094 487.973,240.427 489.5,240.5 Z M 399.5,244.5 C 399.027,245.906 398.027,246.573 396.5,246.5C 396.973,245.094 397.973,244.427 399.5,244.5 Z M 496.5,249.5 C 496.5,251.5 496.5,253.5 496.5,255.5C 464.799,274.351 432.799,292.684 400.5,310.5C 432.154,289.67 464.154,269.337 496.5,249.5 Z M 415.5,251.5 C 414.341,253.25 412.674,254.25 410.5,254.5C 411.659,252.75 413.326,251.75 415.5,251.5 Z M 408.5,255.5 C 408.027,256.906 407.027,257.573 405.5,257.5C 405.973,256.094 406.973,255.427 408.5,255.5 Z M 21.5,256.5 C 18.7198,259.064 15.7198,261.397 12.5,263.5C 12.5,262.833 12.5,262.167 12.5,261.5C 15.2402,259.44 18.2402,257.774 21.5,256.5 Z M 37.5,261.5 C 29.4636,267.525 21.1302,273.191 12.5,278.5C 12.5,277.5 12.5,276.5 12.5,275.5C 20.699,270.568 29.0323,265.901 37.5,261.5 Z M 496.5,267.5 C 496.5,268.167 496.5,268.833 496.5,269.5C 491.632,272.434 486.632,275.1 481.5,277.5C 486.291,273.932 491.291,270.598 496.5,267.5 Z M 496.5,281.5 C 496.5,283.5 496.5,285.5 496.5,287.5C 472.073,301.928 447.406,315.928 422.5,329.5C 446.875,313.14 471.541,297.14 496.5,281.5 Z M 383.5,288.5 C 382.341,290.25 380.674,291.25 378.5,291.5C 379.659,289.75 381.326,288.75 383.5,288.5 Z M 481.5,277.5 C 480.341,279.25 478.674,280.25 476.5,280.5C 477.659,278.75 479.326,277.75 481.5,277.5 Z M 50.5,304.5 C 50.0269,305.906 49.0269,306.573 47.5,306.5C 47.9731,305.094 48.9731,304.427 50.5,304.5 Z M 45.5,307.5 C 35.6851,314.911 25.3517,321.578 14.5,327.5C 14.5,326.5 14.5,325.5 14.5,324.5C 24.7001,318.567 35.0334,312.9 45.5,307.5 Z M 20.5,308.5 C 19.3406,310.25 17.674,311.25 15.5,311.5C 16.6594,309.75 18.326,308.75 20.5,308.5 Z M 94.5,308.5 C 94.0269,309.906 93.0269,310.573 91.5,310.5C 91.9731,309.094 92.9731,308.427 94.5,308.5 Z M 13.5,311.5 C 14.1667,311.5 14.8333,311.5 15.5,311.5C 15.1667,312.5 14.5,313.167 13.5,313.5C 13.5,312.833 13.5,312.167 13.5,311.5 Z M 89.5,311.5 C 88.3406,313.25 86.674,314.25 84.5,314.5C 85.6594,312.75 87.326,311.75 89.5,311.5 Z M 398.5,311.5 C 398.027,312.906 397.027,313.573 395.5,313.5C 395.973,312.094 396.973,311.427 398.5,311.5 Z M 496.5,312.5 C 496.5,313.5 496.5,314.5 496.5,315.5C 486.165,322.003 475.498,328.003 464.5,333.5C 474.788,326.016 485.454,319.016 496.5,312.5 Z M 84.5,314.5 C 62.0121,329.581 39.0121,343.915 15.5,357.5C 15.5,356.167 15.5,354.833 15.5,353.5C 38.3651,340.235 61.3651,327.235 84.5,314.5 Z M 52.5,318.5 C 51.3406,320.25 49.674,321.25 47.5,321.5C 48.6594,319.75 50.326,318.75 52.5,318.5 Z M 103.5,319.5 C 102.341,321.25 100.674,322.25 98.5,322.5C 99.6594,320.75 101.326,319.75 103.5,319.5 Z M 47.5,321.5 C 46.3406,323.25 44.674,324.25 42.5,324.5C 43.6594,322.75 45.326,321.75 47.5,321.5 Z M 98.5,322.5 C 71.5385,339.987 44.2052,356.987 16.5,373.5C 16.5,372.167 16.5,370.833 16.5,369.5C 43.4994,353.331 70.8328,337.664 98.5,322.5 Z M 42.5,324.5 C 33.4579,330.86 24.1246,336.86 14.5,342.5C 14.5,341.5 14.5,340.5 14.5,339.5C 23.8333,334.5 33.1667,329.5 42.5,324.5 Z M 496.5,327.5 C 496.5,328.167 496.5,328.833 496.5,329.5C 495.833,329.5 495.167,329.5 494.5,329.5C 494.833,328.5 495.5,327.833 496.5,327.5 Z M 422.5,329.5 C 422.027,330.906 421.027,331.573 419.5,331.5C 419.973,330.094 420.973,329.427 422.5,329.5 Z M 464.5,333.5 C 464.027,334.906 463.027,335.573 461.5,335.5C 461.973,334.094 462.973,333.427 464.5,333.5 Z M 496.5,341.5 C 496.5,342.833 496.5,344.167 496.5,345.5C 484.428,352.892 472.095,359.892 459.5,366.5C 471.537,357.808 483.87,349.475 496.5,341.5 Z M 107.5,343.5 C 108.338,343.842 108.672,344.508 108.5,345.5C 77.1667,364.833 45.8333,384.167 14.5,403.5C 15.2186,401.236 15.552,398.903 15.5,396.5C 46.1667,378.833 76.8333,361.167 107.5,343.5 Z M 116.5,356.5 C 116.833,357.167 117.167,357.833 117.5,358.5C 83.4722,379.178 49.4722,399.845 15.5,420.5C 15.634,418.708 15.3007,417.042 14.5,415.5C 48.5,395.833 82.5,376.167 116.5,356.5 Z M 496.5,358.5 C 496.5,360.167 496.5,361.833 496.5,363.5C 486.3,369.433 475.967,375.1 465.5,380.5C 475.269,372.442 485.602,365.109 496.5,358.5 Z M 151.5,366.5 C 151.027,367.906 150.027,368.573 148.5,368.5C 148.973,367.094 149.973,366.427 151.5,366.5 Z M 459.5,366.5 C 459.027,367.906 458.027,368.573 456.5,368.5C 456.973,367.094 457.973,366.427 459.5,366.5 Z M 134.5,376.5 C 135.167,376.5 135.5,376.833 135.5,377.5C 100.361,398.571 65.3612,419.904 30.5,441.5C 28.7697,440.974 27.4363,439.974 26.5,438.5C 62.1659,417.331 98.1659,396.664 134.5,376.5 Z M 465.5,380.5 C 465.027,381.906 464.027,382.573 462.5,382.5C 462.973,381.094 463.973,380.427 465.5,380.5 Z M 145.5,386.5 C 145.5,386.833 145.5,387.167 145.5,387.5C 113.335,408.083 81.0019,428.417 48.5,448.5C 45.9327,448.279 43.5994,447.612 41.5,446.5C 76.1667,426.5 110.833,406.5 145.5,386.5 Z M 156.5,397.5 C 156.833,397.5 157.167,397.5 157.5,397.5C 131.065,414.225 104.398,430.725 77.5,447C 76.1772,447.816 75.5106,448.983 75.5,450.5C 71.8333,450.5 68.1667,450.5 64.5,450.5C 94.8322,432.331 125.499,414.665 156.5,397.5 Z M 182.5,398.5 C 181.564,399.974 180.23,400.974 178.5,401.5C 178.5,401.167 178.5,400.833 178.5,400.5C 179.514,399.326 180.847,398.66 182.5,398.5 Z M 496.5,402.5 C 496.5,403.167 496.5,403.833 496.5,404.5C 495.167,404.833 493.833,405.167 492.5,405.5C 493.436,404.026 494.77,403.026 496.5,402.5 Z M 164.5,408.5 C 164.371,410.216 164.038,411.883 163.5,413.5C 144.457,425.015 125.791,437.015 107.5,449.5C 102.453,449.337 97.453,449.671 92.5,450.5C 116.136,436.01 140.136,422.01 164.5,408.5 Z M 365.5,416.5 C 361.024,420.575 356.024,423.908 350.5,426.5C 350.167,425.833 349.833,425.167 349.5,424.5C 354.833,421.833 360.167,419.167 365.5,416.5 Z M 394.5,416.5 C 394.027,417.906 393.027,418.573 391.5,418.5C 391.973,417.094 392.973,416.427 394.5,416.5 Z M 391.5,418.5 C 378.871,427.488 366.204,436.488 353.5,445.5C 352.85,443.565 352.517,441.565 352.5,439.5C 365.659,432.754 378.659,425.754 391.5,418.5 Z M 155.5,432.5 C 155.027,433.906 154.027,434.573 152.5,434.5C 152.973,433.094 153.973,432.427 155.5,432.5 Z M 150.5,435.5 C 149.341,437.25 147.674,438.25 145.5,438.5C 146.659,436.75 148.326,435.75 150.5,435.5 Z M 434.5,436.5 C 429.313,440.597 424.313,444.93 419.5,449.5C 417.167,449.5 414.833,449.5 412.5,449.5C 419.496,444.666 426.829,440.333 434.5,436.5 Z M 145.5,438.5 C 141.341,441.747 137.008,444.747 132.5,447.5C 131.5,447.5 130.5,447.5 129.5,447.5C 134.502,443.997 139.835,440.997 145.5,438.5 Z M 405.5,439.5 C 405.027,440.906 404.027,441.573 402.5,441.5C 402.973,440.094 403.973,439.427 405.5,439.5 Z M 453.5,440.5 C 449.795,443.205 446.795,446.538 444.5,450.5C 441.833,450.5 439.167,450.5 436.5,450.5C 441.665,446.414 447.332,443.08 453.5,440.5 Z M 402.5,441.5 C 400.353,443.737 398.02,445.737 395.5,447.5C 394.167,447.5 392.833,447.5 391.5,447.5C 394.678,444.742 398.345,442.742 402.5,441.5 Z M 158.5,443.5 C 158.547,448.136 156.547,449.469 152.5,447.5C 154.463,446.18 156.463,444.846 158.5,443.5 Z M 473.5,443.5 C 472.5,444.833 471.5,446.167 470.5,447.5C 468.565,448.15 466.565,448.483 464.5,448.5C 467.24,446.44 470.24,444.774 473.5,443.5 Z M 292.5,445.5 C 284.867,451.797 277.534,458.464 270.5,465.5C 267.833,464.5 265.167,463.5 262.5,462.5C 272.167,456.331 282.167,450.664 292.5,445.5 Z M 340.5,450.5 C 341.234,451.708 341.567,453.041 341.5,454.5C 338.648,456.091 335.648,457.424 332.5,458.5C 334.833,455.5 337.5,452.833 340.5,450.5 Z M 332.5,458.5 C 332.027,459.906 331.027,460.573 329.5,460.5C 329.973,459.094 330.973,458.427 332.5,458.5 Z M 310.5,464.5 C 305.833,469.5 301.167,474.5 296.5,479.5C 294.205,478.525 292.205,477.192 290.5,475.5C 297.184,471.805 303.85,468.138 310.5,464.5 Z M 198.5,468.5 C 198.027,469.906 197.027,470.573 195.5,470.5C 195.973,469.094 196.973,468.427 198.5,468.5 Z M 224.5,468.5 C 224.027,469.906 223.027,470.573 221.5,470.5C 221.973,469.094 222.973,468.427 224.5,468.5 Z M 195.5,470.5 C 186.167,476.833 176.833,483.167 167.5,489.5C 166.596,488.791 166.263,487.791 166.5,486.5C 176.033,480.901 185.7,475.567 195.5,470.5 Z M 221.5,470.5 C 210.407,478.558 199.074,486.391 187.5,494C 185.937,494.759 184.937,495.926 184.5,497.5C 181.615,497.806 178.948,497.473 176.5,496.5C 191.002,487.079 206.002,478.412 221.5,470.5 Z M 321.5,494.5 C 319.632,493.737 317.965,492.737 316.5,491.5C 320.389,489.303 324.222,486.97 328,484.5C 326.641,488.183 324.474,491.517 321.5,494.5 Z"/></g>
<g><path style="opacity:0.833" fill="#70affb" d="M 92.5,5.5 C 89.3752,6.47944 86.0419,6.81277 82.5,6.5C 85.6442,3.20212 88.9775,2.86879 92.5,5.5 Z"/></g>
<g><path style="opacity:0.805" fill="#6eadf7" d="M 40.5,5.5 C 35.2545,7.15001 29.9211,8.81668 24.5,10.5C 28.9866,5.91351 34.3199,4.24685 40.5,5.5 Z"/></g>
<g><path style="opacity:0.29" fill="#669ce0" d="M 63.5,6.5 C 60.6146,6.8064 57.9479,6.47307 55.5,5.5C 58.4742,2.69084 61.1409,3.02417 63.5,6.5 Z"/></g>
<g><path style="opacity:0.877" fill="#6ba6ef" d="M 193.5,10.5 C 193.565,10.9382 193.399,11.2716 193,11.5C 190.367,10.2475 187.867,8.91417 185.5,7.5C 189.277,5.77105 191.943,6.77105 193.5,10.5 Z"/></g>
<g><path style="opacity:0.973" fill="#6fb0fd" d="M 63.5,8.5 C 63.6495,9.55198 63.4828,10.552 63,11.5C 58.1371,15.5038 53.6371,19.8372 49.5,24.5C 59.1669,19.6691 68.5002,14.3357 77.5,8.5C 83.0262,8.17859 88.3595,8.51192 93.5,9.5C 89.1667,13.5 84.8333,17.5 80.5,21.5C 87.6707,17.7495 94.6707,13.7495 101.5,9.5C 107.034,9.66848 112.367,10.3351 117.5,11.5C 112.833,15.1667 108.167,18.8333 103.5,22.5C 110.332,19.5876 116.666,15.9209 122.5,11.5C 129.022,11.1765 135.355,11.5098 141.5,12.5C 134.951,16.9344 128.617,21.6011 122.5,26.5C 130.836,22.3347 138.836,17.668 146.5,12.5C 152.82,11.834 159.153,11.1673 165.5,10.5C 166.726,10.5195 167.726,10.8529 168.5,11.5C 154.658,20.9209 140.991,30.5875 127.5,40.5C 144.004,31.4162 160.337,22.0828 176.5,12.5C 180.933,13.2145 184.6,15.2145 187.5,18.5C 179.783,23.0184 172.449,28.0184 165.5,33.5C 173.792,29.6875 181.792,25.3542 189.5,20.5C 193.274,21.9382 195.607,24.6049 196.5,28.5C 191.291,31.5984 186.291,34.9317 181.5,38.5C 187.165,36.0031 192.498,33.0031 197.5,29.5C 200.755,31.9263 203.588,34.9263 206,38.5C 207.705,40.5766 208.872,42.91 209.5,45.5C 194.286,54.3883 179.62,64.055 165.5,74.5C 181.167,65.8333 196.833,57.1667 212.5,48.5C 217.278,53.6211 222.612,57.9544 228.5,61.5C 214.557,70.1145 200.891,79.1145 187.5,88.5C 146.875,89.322 106.208,89.822 65.5,90C 54.7576,92.7421 47.9243,99.5755 45,110.5C 43.6355,120.443 43.1355,130.443 43.5,140.5C 33.9669,146.099 24.3003,151.433 14.5,156.5C 14.5,149.167 14.5,141.833 14.5,134.5C 18.8523,132.327 22.8523,129.66 26.5,126.5C 22.2717,128.066 18.2717,130.066 14.5,132.5C 14.5,128.5 14.5,124.5 14.5,120.5C 22.2172,115.982 29.5505,110.982 36.5,105.5C 29.1937,109.488 21.8604,113.488 14.5,117.5C 14.5,113.5 14.5,109.5 14.5,105.5C 25.0466,98.4 35.38,91.0667 45.5,83.5C 35.0334,88.9004 24.7001,94.5671 14.5,100.5C 14.5,96.5 14.5,92.5 14.5,88.5C 18.5383,85.4884 22.5383,82.4884 26.5,79.5C 22.5266,81.4867 18.5266,83.4867 14.5,85.5C 14.5,81.1667 14.5,76.8333 14.5,72.5C 16.8525,71.6597 18.8525,70.3264 20.5,68.5C 18.2163,68.9752 16.2163,69.9752 14.5,71.5C 14.5,67.1667 14.5,62.8333 14.5,58.5C 15.8333,57.8333 16.8333,56.8333 17.5,55.5C 16.391,55.5569 15.391,55.8902 14.5,56.5C 14.5,51.5 14.5,46.5 14.5,41.5C 16.754,40.8763 18.4206,39.543 19.5,37.5C 17.7162,37.8925 16.0495,38.5592 14.5,39.5C 16.9242,25.0743 25.2575,16.0743 39.5,12.5C 40.1667,13.8333 40.8333,13.8333 41.5,12.5C 42.4916,12.6716 43.1583,12.3382 43.5,11.5C 49.9126,9.06633 56.5793,8.06633 63.5,8.5 Z M 63.5,8.5 C 68.1667,8.5 72.8333,8.5 77.5,8.5C 68.5002,14.3357 59.1669,19.6691 49.5,24.5C 53.6371,19.8372 58.1371,15.5038 63,11.5C 63.4828,10.552 63.6495,9.55198 63.5,8.5 Z M 93.5,9.5 C 96.1667,9.5 98.8333,9.5 101.5,9.5C 94.6707,13.7495 87.6707,17.7495 80.5,21.5C 84.8333,17.5 89.1667,13.5 93.5,9.5 Z M 117.5,11.5 C 119.167,11.5 120.833,11.5 122.5,11.5C 116.666,15.9209 110.332,19.5876 103.5,22.5C 108.167,18.8333 112.833,15.1667 117.5,11.5 Z M 141.5,12.5 C 143.167,12.5 144.833,12.5 146.5,12.5C 138.836,17.668 130.836,22.3347 122.5,26.5C 128.617,21.6011 134.951,16.9344 141.5,12.5 Z M 165.5,33.5 C 164.341,35.2503 162.674,36.2503 160.5,36.5C 161.659,34.7497 163.326,33.7497 165.5,33.5 Z M 160.5,36.5 C 160.027,37.9063 159.027,38.573 157.5,38.5C 157.973,37.0937 158.973,36.427 160.5,36.5 Z M 181.5,38.5 C 181.027,39.9063 180.027,40.573 178.5,40.5C 178.973,39.0937 179.973,38.427 181.5,38.5 Z M 48.5,81.5 C 48.0269,82.9063 47.0269,83.573 45.5,83.5C 45.9731,82.0937 46.9731,81.427 48.5,81.5 Z M 29.5,124.5 C 29.0269,125.906 28.0269,126.573 26.5,126.5C 26.9731,125.094 27.9731,124.427 29.5,124.5 Z"/></g>
<g><path style="opacity:0.78" fill="#639ade" d="M 17.5,14.5 C 15.9095,16.6326 13.9095,18.2993 11.5,19.5C 12.6385,16.9138 14.6385,15.2471 17.5,14.5 Z"/></g>
<g><path style="opacity:0.705" fill="#6db6fe" d="M 255.5,56.5 C 252.833,56.5 250.167,56.5 247.5,56.5C 250.167,53.8333 252.833,53.8333 255.5,56.5 Z"/></g>
<g><path style="opacity:0.692" fill="#70b1fe" d="M 277.5,56.5 C 275.167,56.5 272.833,56.5 270.5,56.5C 272.833,53.8333 275.167,53.8333 277.5,56.5 Z"/></g>
<g><path style="opacity:0.668" fill="#6fb1fe" d="M 321.5,56.5 C 319.167,56.5 316.833,56.5 314.5,56.5C 316.833,53.8333 319.167,53.8333 321.5,56.5 Z"/></g>
<g><path style="opacity:0.676" fill="#6fb0fe" d="M 349.5,56.5 C 347.167,56.5 344.833,56.5 342.5,56.5C 344.833,53.8333 347.167,53.8333 349.5,56.5 Z"/></g>
<g><path style="opacity:0.68" fill="#6fb0fe" d="M 402.5,56.5 C 400.167,56.5 397.833,56.5 395.5,56.5C 397.833,53.8333 400.167,53.8333 402.5,56.5 Z"/></g>
<g><path style="opacity:0.73" fill="#71b0fe" d="M 423.5,56.5 C 421.167,56.5 418.833,56.5 416.5,56.5C 418.916,53.9659 421.25,53.9659 423.5,56.5 Z"/></g>
<g><path style="opacity:0.6" fill="#6fb2fe" d="M 450.5,56.5 C 448.167,56.5 445.833,56.5 443.5,56.5C 445.833,53.8333 448.167,53.8333 450.5,56.5 Z"/></g>
<g><path style="opacity:0.868" fill="#6db1fe" d="M 295.5,56.5 C 292.833,56.5 290.167,56.5 287.5,56.5C 290.167,53.8333 292.833,53.8333 295.5,56.5 Z"/></g>
<g><path style="opacity:0.923" fill="#71b0fe" d="M 380.5,56.5 C 378.167,56.5 375.833,56.5 373.5,56.5C 375.833,53.8333 378.167,53.8333 380.5,56.5 Z"/></g>
<g><path style="opacity:0.947" fill="#6eaefa" d="M 451.5,60.5 C 451.489,62.0174 450.823,63.1841 449.5,64C 437.93,71.2752 426.596,78.7752 415.5,86.5C 407.038,87.7866 398.705,87.7866 390.5,86.5C 405.033,78.4041 419.366,70.0708 433.5,61.5C 439.441,60.5872 445.441,60.2539 451.5,60.5 Z"/></g>
<g><path style="opacity:0.966" fill="#6eaefa" d="M 255.5,62.5 C 252.833,64.5 250.167,66.5 247.5,68.5C 251.655,67.2583 255.322,65.2583 258.5,62.5C 270.961,61.1974 283.295,61.1974 295.5,62.5C 282.5,71.1667 269.5,79.8333 256.5,88.5C 234.706,89.8162 213.039,89.8162 191.5,88.5C 205.866,80.6555 219.866,72.3222 233.5,63.5C 239.921,63.6739 246.254,63.0072 252.5,61.5C 253.726,61.5195 254.726,61.8529 255.5,62.5 Z M 255.5,62.5 C 256.5,62.5 257.5,62.5 258.5,62.5C 255.322,65.2583 251.655,67.2583 247.5,68.5C 250.167,66.5 252.833,64.5 255.5,62.5 Z M 247.5,68.5 C 247.027,69.9063 246.027,70.573 244.5,70.5C 244.973,69.0937 245.973,68.427 247.5,68.5 Z"/></g>
<g><path style="opacity:0.95" fill="#6fb0fb" d="M 321.5,62.5 C 308.5,71.1667 295.5,79.8333 282.5,88.5C 274.038,89.7866 265.705,89.7866 257.5,88.5C 272.699,80.0708 287.699,71.4042 302.5,62.5C 308.963,61.2299 315.296,61.2299 321.5,62.5 Z"/></g>
<g><path style="opacity:0.954" fill="#70b0fb" d="M 349.5,62.5 C 335.833,71.8333 322.167,81.1667 308.5,90.5C 300.661,90.1178 292.995,89.4512 285.5,88.5C 300.699,80.0708 315.699,71.4042 330.5,62.5C 336.963,61.2299 343.296,61.2299 349.5,62.5 Z"/></g>
<g><path style="opacity:0.947" fill="#6faffb" d="M 380.5,62.5 C 380.167,63.1667 379.833,63.8333 379.5,64.5C 381.153,64.3404 382.486,63.6737 383.5,62.5C 390.82,61.2407 397.82,61.2407 404.5,62.5C 411.309,61.2676 417.976,61.2676 424.5,62.5C 412.463,70.5132 400.463,78.5132 388.5,86.5C 387.508,86.3284 386.842,86.6618 386.5,87.5C 362.532,89.248 338.532,90.248 314.5,90.5C 330.001,80.9149 345.668,71.5816 361.5,62.5C 367.963,61.2299 374.296,61.2299 380.5,62.5 Z M 380.5,62.5 C 381.5,62.5 382.5,62.5 383.5,62.5C 382.486,63.6737 381.153,64.3404 379.5,64.5C 379.833,63.8333 380.167,63.1667 380.5,62.5 Z M 377.5,65.5 C 377.027,66.9063 376.027,67.573 374.5,67.5C 374.973,66.0937 375.973,65.427 377.5,65.5 Z"/></g>
<g><path style="opacity:0.951" fill="#6faffb" d="M 475.5,66.5 C 463.54,73.8071 451.873,81.4738 440.5,89.5C 433.264,89.2354 426.264,88.2354 419.5,86.5C 433.968,78.7656 448.301,70.7656 462.5,62.5C 463.265,62.0766 464.098,61.7432 465,61.5C 468.853,62.7128 472.353,64.3795 475.5,66.5 Z"/></g>
<g><path style="opacity:0.948" fill="#72b0fb" d="M 479.5,68.5 C 483.429,69.4308 486.095,71.7641 487.5,75.5C 477.463,82.1798 467.463,88.8465 457.5,95.5C 452.958,93.7351 448.291,92.2351 443.5,91C 442.944,90.6174 442.611,90.1174 442.5,89.5C 454.996,82.7531 467.329,75.7531 479.5,68.5 Z"/></g>
<g><path style="opacity:0.96" fill="#6faffb" d="M 490.5,79.5 C 493.165,81.8355 494.498,84.8355 494.5,88.5C 489.955,91.266 485.622,94.266 481.5,97.5C 486.15,95.1961 490.817,92.8627 495.5,90.5C 496.903,93.9085 497.57,97.5752 497.5,101.5C 487.5,108.167 477.5,114.833 467.5,121.5C 467.666,117.154 467.499,112.821 467,108.5C 465.037,104.064 462.537,100.064 459.5,96.5C 469.7,90.5671 480.033,84.9004 490.5,79.5 Z M 481.5,97.5 C 481.027,98.9063 480.027,99.573 478.5,99.5C 478.973,98.0937 479.973,97.427 481.5,97.5 Z"/></g>
<g><path style="opacity:1" fill="#e5eaee" d="M 96.5,96.5 C 90.1665,101.814 84.8331,107.481 80.5,113.5C 89.897,107.808 99.2303,102.141 108.5,96.5C 120.498,96.9034 132.498,97.2367 144.5,97.5C 138.015,102.47 131.348,107.303 124.5,112C 123.304,112.654 123.304,113.154 124.5,113.5C 133.728,108.392 142.728,103.059 151.5,97.5C 157.167,97.5 162.833,97.5 168.5,97.5C 163.5,101.5 158.5,105.5 153.5,109.5C 143.379,116.448 133.379,123.615 123.5,131C 143.204,120.642 162.537,109.476 181.5,97.5C 187.5,97.5 193.5,97.5 199.5,97.5C 187.739,105.891 175.739,114.058 163.5,122C 162.304,122.654 162.304,123.154 163.5,123.5C 178.467,115.169 193.133,106.502 207.5,97.5C 219.5,97.5 231.5,97.5 243.5,97.5C 225.345,110.137 207.011,122.637 188.5,135C 187.304,135.654 187.304,136.154 188.5,136.5C 211.06,123.726 233.394,110.726 255.5,97.5C 261.167,97.5 266.833,97.5 272.5,97.5C 251.408,112.557 230.074,127.391 208.5,142C 207.304,142.654 207.304,143.154 208.5,143.5C 235.06,128.392 261.394,113.059 287.5,97.5C 293.167,97.5 298.833,97.5 304.5,97.5C 282.014,113.804 259.347,129.97 236.5,146C 265.145,130.555 293.478,114.388 321.5,97.5C 327.167,97.5 332.833,97.5 338.5,97.5C 330.575,103.473 322.241,108.973 313.5,114C 312.304,114.654 312.304,115.154 313.5,115.5C 323.563,109.474 333.563,103.474 343.5,97.5C 349.167,97.5 354.833,97.5 360.5,97.5C 348.283,106.529 335.616,115.029 322.5,123C 321.304,123.654 321.304,124.154 322.5,124.5C 337.729,115.726 352.729,106.726 367.5,97.5C 373.5,97.5 379.5,97.5 385.5,97.5C 374.167,105.833 362.833,114.167 351.5,122.5C 322.53,123.387 302.363,137.054 291,163.5C 283.162,174.063 272.662,178.063 259.5,175.5C 259.5,175.167 259.5,174.833 259.5,174.5C 261.027,174.573 262.027,173.906 262.5,172.5C 264.027,172.573 265.027,171.906 265.5,170.5C 266.167,170.5 266.5,170.167 266.5,169.5C 266.833,169.5 267.167,169.5 267.5,169.5C 268.167,169.5 268.5,169.167 268.5,168.5C 269.167,168.5 269.5,168.167 269.5,167.5C 269.833,167.5 270.167,167.5 270.5,167.5C 271.167,167.5 271.5,167.167 271.5,166.5C 278.472,162.011 285.472,157.511 292.5,153C 293.696,152.346 293.696,151.846 292.5,151.5C 278.606,159.274 264.939,167.274 251.5,175.5C 227.833,175.5 204.167,175.5 180.5,175.5C 191.081,167.197 202.081,159.364 213.5,152C 214.696,151.346 214.696,150.846 213.5,150.5C 199.106,158.356 185.106,166.689 171.5,175.5C 163.5,175.5 155.5,175.5 147.5,175.5C 156.079,168.532 165.079,162.032 174.5,156C 175.696,155.346 175.696,154.846 174.5,154.5C 162.437,161.527 150.437,168.527 138.5,175.5C 130.5,175.5 122.5,175.5 114.5,175.5C 119.989,171.53 125.656,167.696 131.5,164C 132.696,163.346 132.696,162.846 131.5,162.5C 124.103,166.86 116.77,171.193 109.5,175.5C 96.5,175.5 83.5,175.5 70.5,175.5C 75.0836,171.53 80.0836,168.03 85.5,165C 86.6956,164.346 86.6956,163.846 85.5,163.5C 78.7699,167.526 72.1032,171.526 65.5,175.5C 62.5,175.5 59.5,175.5 56.5,175.5C 56.5,173.167 56.5,170.833 56.5,168.5C 69.7924,159.844 82.7924,150.678 95.5,141C 82.332,147.59 69.332,154.757 56.5,162.5C 55.179,149.598 55.179,136.598 56.5,123.5C 59.2971,121.205 61.9638,118.705 64.5,116C 61.8328,116.826 59.1661,117.992 56.5,119.5C 56.7145,111.68 59.7145,105.18 65.5,100C 66.745,99.2086 68.0783,98.7086 69.5,98.5C 68.5244,99.8149 67.5244,101.148 66.5,102.5C 66.8333,102.833 67.1667,103.167 67.5,103.5C 71.4005,101.392 75.0672,99.0585 78.5,96.5C 84.6298,95.2338 90.6298,95.2338 96.5,96.5 Z M 172.5,97.5 C 173.5,97.5 174.5,97.5 175.5,97.5C 173.819,99.0075 171.819,100.008 169.5,100.5C 170.306,99.2719 171.306,98.2719 172.5,97.5 Z M 169.5,100.5 C 169.027,101.906 168.027,102.573 166.5,102.5C 166.973,101.094 167.973,100.427 169.5,100.5 Z M 265.5,170.5 C 265.027,171.906 264.027,172.573 262.5,172.5C 262.973,171.094 263.973,170.427 265.5,170.5 Z M 262.5,172.5 C 262.027,173.906 261.027,174.573 259.5,174.5C 259.378,173.293 260.378,172.626 262.5,172.5 Z"/></g>
<g><path style="opacity:1" fill="#77b4fd" d="M 96.5,96.5 C 100.5,96.5 104.5,96.5 108.5,96.5C 99.2303,102.141 89.897,107.808 80.5,113.5C 84.8331,107.481 90.1665,101.814 96.5,96.5 Z"/></g>
<g><path style="opacity:1" fill="#76b0f5" d="M 78.5,96.5 C 75.0672,99.0585 71.4005,101.392 67.5,103.5C 67.1667,103.167 66.8333,102.833 66.5,102.5C 67.5244,101.148 68.5244,99.8149 69.5,98.5C 72.1226,96.7345 75.1226,96.0679 78.5,96.5 Z"/></g>
<g><path style="opacity:1" fill="#7cb6fc" d="M 144.5,97.5 C 146.833,97.5 149.167,97.5 151.5,97.5C 142.728,103.059 133.728,108.392 124.5,113.5C 123.304,113.154 123.304,112.654 124.5,112C 131.348,107.303 138.015,102.47 144.5,97.5 Z"/></g>
<g><path style="opacity:0.911" fill="#78b5fd" d="M 168.5,97.5 C 169.833,97.5 171.167,97.5 172.5,97.5C 171.306,98.2719 170.306,99.2719 169.5,100.5C 171.819,100.008 173.819,99.0075 175.5,97.5C 177.5,97.5 179.5,97.5 181.5,97.5C 162.537,109.476 143.204,120.642 123.5,131C 133.379,123.615 143.379,116.448 153.5,109.5C 158.5,105.5 163.5,101.5 168.5,97.5 Z M 172.5,97.5 C 173.5,97.5 174.5,97.5 175.5,97.5C 173.819,99.0075 171.819,100.008 169.5,100.5C 170.306,99.2719 171.306,98.2719 172.5,97.5 Z M 169.5,100.5 C 169.027,101.906 168.027,102.573 166.5,102.5C 166.973,101.094 167.973,100.427 169.5,100.5 Z"/></g>
<g><path style="opacity:1" fill="#7bb5fc" d="M 199.5,97.5 C 202.167,97.5 204.833,97.5 207.5,97.5C 193.133,106.502 178.467,115.169 163.5,123.5C 162.304,123.154 162.304,122.654 163.5,122C 175.739,114.058 187.739,105.891 199.5,97.5 Z"/></g>
<g><path style="opacity:1" fill="#78b4fc" d="M 243.5,97.5 C 247.5,97.5 251.5,97.5 255.5,97.5C 233.394,110.726 211.06,123.726 188.5,136.5C 187.304,136.154 187.304,135.654 188.5,135C 207.011,122.637 225.345,110.137 243.5,97.5 Z"/></g>
<g><path style="opacity:1" fill="#77b4fd" d="M 272.5,97.5 C 277.5,97.5 282.5,97.5 287.5,97.5C 261.394,113.059 235.06,128.392 208.5,143.5C 207.304,143.154 207.304,142.654 208.5,142C 230.074,127.391 251.408,112.557 272.5,97.5 Z"/></g>
<g><path style="opacity:1" fill="#76b3fd" d="M 304.5,97.5 C 310.167,97.5 315.833,97.5 321.5,97.5C 293.478,114.388 265.145,130.555 236.5,146C 259.347,129.97 282.014,113.804 304.5,97.5 Z"/></g>
<g><path style="opacity:1" fill="#7db6fc" d="M 360.5,97.5 C 362.833,97.5 365.167,97.5 367.5,97.5C 352.729,106.726 337.729,115.726 322.5,124.5C 321.304,124.154 321.304,123.654 322.5,123C 335.616,115.029 348.283,106.529 360.5,97.5 Z"/></g>
<g><path style="opacity:0.926" fill="#73b3fd" d="M 385.5,97.5 C 389.167,97.5 392.833,97.5 396.5,97.5C 393.167,100.167 389.833,102.833 386.5,105.5C 385.508,105.328 384.842,105.662 384.5,106.5C 383.833,106.5 383.5,106.833 383.5,107.5C 382.508,107.328 381.842,107.662 381.5,108.5C 380.833,108.5 380.5,108.833 380.5,109.5C 380.5,110.167 380.167,110.5 379.5,110.5C 379.158,111.338 378.492,111.672 377.5,111.5C 377.167,110.167 376.833,110.167 376.5,111.5C 375.833,111.5 375.5,111.833 375.5,112.5C 375.5,113.167 375.167,113.5 374.5,113.5C 373.48,114.954 372.313,115.287 371,114.5C 367.74,117.54 364.24,120.206 360.5,122.5C 357.5,122.5 354.5,122.5 351.5,122.5C 362.833,114.167 374.167,105.833 385.5,97.5 Z"/></g>
<g><path style="opacity:1" fill="#e4e9ee" d="M 400.5,97.5 C 406.833,97.5 413.167,97.5 419.5,97.5C 414.403,101.225 409.07,104.725 403.5,108C 402.304,108.654 402.304,109.154 403.5,109.5C 410.468,105.836 417.135,101.836 423.5,97.5C 430.508,97.3337 437.508,97.5004 444.5,98C 447.185,99.161 449.185,100.994 450.5,103.5C 439.477,110.342 428.811,117.676 418.5,125.5C 399.175,124.502 379.841,123.502 360.5,122.5C 364.24,120.206 367.74,117.54 371,114.5C 372.313,115.287 373.48,114.954 374.5,113.5C 375.167,113.5 375.5,113.167 375.5,112.5C 376.167,112.5 376.5,112.167 376.5,111.5C 376.833,111.5 377.167,111.5 377.5,111.5C 378.492,111.672 379.158,111.338 379.5,110.5C 380.167,110.5 380.5,110.167 380.5,109.5C 381.167,109.5 381.5,109.167 381.5,108.5C 382.492,108.672 383.158,108.338 383.5,107.5C 384.167,107.5 384.5,107.167 384.5,106.5C 385.492,106.672 386.158,106.338 386.5,105.5C 391.5,103.336 396.167,100.669 400.5,97.5 Z"/></g>
<g><path style="opacity:1" fill="#80b8fc" d="M 338.5,97.5 C 340.167,97.5 341.833,97.5 343.5,97.5C 333.563,103.474 323.563,109.474 313.5,115.5C 312.304,115.154 312.304,114.654 313.5,114C 322.241,108.973 330.575,103.473 338.5,97.5 Z"/></g>
<g><path style="opacity:1" fill="#76b4fc" d="M 450.5,103.5 C 452.008,105.181 453.008,107.181 453.5,109.5C 444.463,114.346 435.796,119.679 427.5,125.5C 424.5,125.5 421.5,125.5 418.5,125.5C 428.811,117.676 439.477,110.342 450.5,103.5 Z"/></g>
<g><path style="opacity:1" fill="#85bafb" d="M 419.5,97.5 C 420.833,97.5 422.167,97.5 423.5,97.5C 417.135,101.836 410.468,105.836 403.5,109.5C 402.304,109.154 402.304,108.654 403.5,108C 409.07,104.725 414.403,101.225 419.5,97.5 Z"/></g>
<g><path style="opacity:0.941" fill="#6eaef8" d="M 497.5,108.5 C 498.791,112.399 498.791,116.399 497.5,120.5C 493.779,122.354 490.446,124.687 487.5,127.5C 480.996,126.401 474.663,125.067 468.5,123.5C 478.281,118.776 487.948,113.776 497.5,108.5 Z"/></g>
<g><path style="opacity:1" fill="#dfe4e8" d="M 453.5,109.5 C 454.445,114.405 454.779,119.405 454.5,124.5C 445.479,124.401 436.479,124.734 427.5,125.5C 435.796,119.679 444.463,114.346 453.5,109.5 Z"/></g>
<g><path style="opacity:1" fill="#7eb7fb" d="M 56.5,123.5 C 56.5,122.167 56.5,120.833 56.5,119.5C 59.1661,117.992 61.8328,116.826 64.5,116C 61.9638,118.705 59.2971,121.205 56.5,123.5 Z"/></g>
<g><path style="opacity:0.913" fill="#6aa8ef" d="M 497.5,122.5 C 497.823,126.226 497.489,129.893 496.5,133.5C 493.508,131.829 490.841,129.829 488.5,127.5C 491.634,126.099 494.634,124.432 497.5,122.5 Z"/></g>
<g><path style="opacity:1" fill="#93d0f9" d="M 354.5,130.5 C 337.841,140.163 321.175,149.83 304.5,159.5C 308.037,150.136 313.37,141.969 320.5,135C 331.587,131.857 342.92,130.357 354.5,130.5 Z"/></g>
<g><path style="opacity:0.98" fill="#93d2fd" d="M 354.5,130.5 C 361.313,129.509 368.313,129.175 375.5,129.5C 348.736,147.392 321.403,164.559 293.5,181C 292.304,181.654 292.304,182.154 293.5,182.5C 324.06,165.059 354.394,147.392 384.5,129.5C 390.026,129.179 395.36,129.512 400.5,130.5C 381.303,142.261 362.303,154.261 343.5,166.5C 321.696,178.678 301.03,191.678 281.5,205.5C 297.794,196.511 313.794,187.177 329.5,177.5C 351.594,165.256 373.594,152.756 395.5,140C 400.406,137.058 405.072,133.891 409.5,130.5C 428.836,130.333 448.17,130.5 467.5,131C 469.058,131.21 470.391,131.71 471.5,132.5C 467.205,134.808 463.205,137.474 459.5,140.5C 424.361,161.571 389.361,182.904 354.5,204.5C 353.614,205.325 353.281,206.325 353.5,207.5C 356.691,206.908 359.691,205.741 362.5,204C 396.727,184.392 430.727,164.559 464.5,144.5C 470.005,142.251 475.005,139.251 479.5,135.5C 482.891,136.529 485.557,138.529 487.5,141.5C 478.074,147.074 468.74,152.908 459.5,159C 460.416,159.278 461.082,159.778 461.5,160.5C 459.345,160.372 457.345,160.872 455.5,162C 432.834,174.997 410.501,188.497 388.5,202.5C 387.614,203.325 387.281,204.325 387.5,205.5C 385.806,204.314 384.139,204.481 382.5,206C 377.677,208.72 373.343,211.887 369.5,215.5C 365.317,217.087 361.65,219.421 358.5,222.5C 362.655,221.258 366.322,219.258 369.5,216.5C 376.11,214.197 382.11,210.863 387.5,206.5C 413.496,192.84 438.829,178.174 463.5,162.5C 473.493,158.175 482.826,152.841 491.5,146.5C 493.746,148.649 495.246,151.316 496,154.5C 496.499,158.486 496.666,162.486 496.5,166.5C 485.294,173.264 474.294,180.264 463.5,187.5C 459.827,189 456.494,191 453.5,193.5C 444.625,198.052 436.292,203.385 428.5,209.5C 413.491,218.001 398.824,227.001 384.5,236.5C 398.968,228.766 413.301,220.766 427.5,212.5C 435.466,208.224 443.466,203.89 451.5,199.5C 452.176,198.398 452.842,197.398 453.5,196.5C 454.721,197.465 456.054,197.298 457.5,196C 460.238,194.826 462.238,192.993 463.5,190.5C 463.369,191.239 463.536,191.906 464,192.5C 474.615,185.777 485.448,179.443 496.5,173.5C 496.5,177.167 496.5,180.833 496.5,184.5C 483.05,191.288 470.383,199.288 458.5,208.5C 438.325,219.75 418.658,231.75 399.5,244.5C 419.166,234.003 438.5,223.003 457.5,211.5C 470.617,204.774 483.617,197.774 496.5,190.5C 496.5,193.833 496.5,197.167 496.5,200.5C 490.286,203.433 484.619,207.1 479.5,211.5C 457.794,224.347 436.461,237.68 415.5,251.5C 436.806,239.512 458.139,227.512 479.5,215.5C 485.298,212.767 490.965,209.767 496.5,206.5C 496.5,210.167 496.5,213.833 496.5,217.5C 458.544,240.805 420.878,264.472 383.5,288.5C 421.167,267.167 458.833,245.833 496.5,224.5C 496.5,228.167 496.5,231.833 496.5,235.5C 493.953,236.934 491.619,238.6 489.5,240.5C 491.954,239.773 494.287,238.773 496.5,237.5C 496.5,241.5 496.5,245.5 496.5,249.5C 464.154,269.337 432.154,289.67 400.5,310.5C 399.508,310.328 398.842,310.662 398.5,311.5C 396.973,311.427 395.973,312.094 395.5,313.5C 394.833,313.5 394.167,313.5 393.5,313.5C 391.523,311.812 389.523,311.479 387.5,312.5C 375.975,309.066 364.475,306.732 353,305.5C 339.5,303.333 326,301.333 312.5,299.5C 302.742,273.145 289.742,248.645 273.5,226C 270.187,224.032 266.854,222.032 263.5,220C 261.187,219.338 258.854,218.838 256.5,218.5C 254.32,217.206 252.32,217.539 250.5,219.5C 247.996,220.584 245.663,221.917 243.5,223.5C 239.13,224.536 236.464,227.203 235.5,231.5C 220.648,252.866 208.648,275.866 199.5,300.5C 184.773,301.873 170.106,303.706 155.5,306C 147.366,307.324 139.366,309.157 131.5,311.5C 129.712,310.378 127.712,310.211 125.5,311C 122.593,312.609 119.927,314.442 117.5,316.5C 114.658,317.172 112.158,318.506 110,320.5C 108.701,323.147 107.368,325.814 106,328.5C 105.433,333.63 105.933,338.63 107.5,343.5C 76.8333,361.167 46.1667,378.833 15.5,396.5C 15.201,388.747 15.5343,381.08 16.5,373.5C 44.2052,356.987 71.5385,339.987 98.5,322.5C 70.8328,337.664 43.4994,353.331 16.5,369.5C 15.5166,365.702 15.1832,361.702 15.5,357.5C 39.0121,343.915 62.0121,329.581 84.5,314.5C 61.3651,327.235 38.3651,340.235 15.5,353.5C 14.5184,350.038 14.185,346.371 14.5,342.5C 24.1246,336.86 33.4579,330.86 42.5,324.5C 33.1667,329.5 23.8333,334.5 14.5,339.5C 14.5,335.5 14.5,331.5 14.5,327.5C 25.3517,321.578 35.6851,314.911 45.5,307.5C 35.0334,312.9 24.7001,318.567 14.5,324.5C 13.5184,321.038 13.185,317.371 13.5,313.5C 14.5,313.167 15.1667,312.5 15.5,311.5C 14.8333,311.5 14.1667,311.5 13.5,311.5C 12.5054,300.679 12.1721,289.679 12.5,278.5C 21.1302,273.191 29.4636,267.525 37.5,261.5C 29.0323,265.901 20.699,270.568 12.5,275.5C 11.2092,271.601 11.2092,267.601 12.5,263.5C 15.7198,261.397 18.7198,259.064 21.5,256.5C 18.2402,257.774 15.2402,259.44 12.5,261.5C 11.2057,257.267 11.2057,252.934 12.5,248.5C 22.813,240.85 32.813,232.85 42.5,224.5C 32.5171,230.139 22.5171,235.805 12.5,241.5C 12.5758,225.623 15.4092,210.29 21,195.5C 23.8427,189.29 28.3427,184.79 34.5,182C 36.1341,181.506 37.8008,181.34 39.5,181.5C 36.0751,187.316 31.9085,192.65 27,197.5C 26.3333,198.167 26.3333,198.833 27,199.5C 36.8333,193.667 46.6667,187.833 56.5,182C 56,181.833 55.5,181.667 55,181.5C 52.6763,182.693 50.5097,182.693 48.5,181.5C 70.6275,180.184 92.6275,180.184 114.5,181.5C 103.476,190.197 92.4757,198.864 81.5,207.5C 78.94,208.385 76.94,210.051 75.5,212.5C 74.1667,212.833 74.1667,213.167 75.5,213.5C 93.6075,203.61 111.608,193.444 129.5,183C 133.821,182.501 138.154,182.334 142.5,182.5C 143.833,182.5 145.167,182.5 146.5,182.5C 136.346,189.804 126.012,196.97 115.5,204C 114.304,204.654 114.304,205.154 115.5,205.5C 128.194,198.155 140.861,190.822 153.5,183.5C 159.026,183.179 164.36,183.512 169.5,184.5C 161.195,189.99 152.862,195.49 144.5,201C 142.384,202.171 141.718,203.671 142.5,205.5C 154.396,198.726 166.063,191.726 177.5,184.5C 196.84,184.482 216.173,184.149 235.5,183.5C 226.501,190.136 216.501,196.303 205.5,202C 204.167,203 202.833,204 201.5,205C 201.833,205.167 202.167,205.333 202.5,205.5C 215.728,198.059 228.728,190.392 241.5,182.5C 248.179,181.499 254.845,180.499 261.5,179.5C 261.586,180.496 261.252,181.329 260.5,182C 247.787,189.683 235.453,197.85 223.5,206.5C 224,206.833 224.5,207.167 225,207.5C 243.625,197.444 261.791,186.777 279.5,175.5C 285.168,173.778 290.835,171.944 296.5,170C 299.067,167.604 301.4,165.104 303.5,162.5C 321.637,152.264 339.637,141.764 357.5,131C 356.552,130.517 355.552,130.351 354.5,130.5 Z M 458.5,208.5 C 458.443,209.609 458.11,210.609 457.5,211.5C 438.5,223.003 419.166,234.003 399.5,244.5C 418.658,231.75 438.325,219.75 458.5,208.5 Z M 428.5,209.5 C 427.89,210.391 427.557,211.391 427.5,212.5C 413.301,220.766 398.968,228.766 384.5,236.5C 398.824,227.001 413.491,218.001 428.5,209.5 Z M 334.5,218.5 C 338.423,217.205 342.09,215.372 345.5,213C 346.451,212.282 346.617,211.449 346,210.5C 341.838,212.819 338.005,215.486 334.5,218.5 Z M 479.5,211.5 C 479.5,212.833 479.5,214.167 479.5,215.5C 458.139,227.512 436.806,239.512 415.5,251.5C 436.461,237.68 457.794,224.347 479.5,211.5 Z M 369.5,215.5 C 369.5,215.833 369.5,216.167 369.5,216.5C 366.322,219.258 362.655,221.258 358.5,222.5C 361.65,219.421 365.317,217.087 369.5,215.5 Z M 334.5,218.5 C 333.341,220.25 331.674,221.25 329.5,221.5C 330.659,219.75 332.326,218.75 334.5,218.5 Z M 358.5,222.5 C 357.341,224.25 355.674,225.25 353.5,225.5C 354.659,223.75 356.326,222.75 358.5,222.5 Z M 353.5,225.5 C 352.341,227.25 350.674,228.25 348.5,228.5C 349.659,226.75 351.326,225.75 353.5,225.5 Z M 384.5,236.5 C 384.027,237.906 383.027,238.573 381.5,238.5C 381.973,237.094 382.973,236.427 384.5,236.5 Z M 379.5,239.5 C 379.027,240.906 378.027,241.573 376.5,241.5C 376.973,240.094 377.973,239.427 379.5,239.5 Z M 489.5,240.5 C 489.027,241.906 488.027,242.573 486.5,242.5C 486.973,241.094 487.973,240.427 489.5,240.5 Z M 399.5,244.5 C 399.027,245.906 398.027,246.573 396.5,246.5C 396.973,245.094 397.973,244.427 399.5,244.5 Z M 415.5,251.5 C 414.341,253.25 412.674,254.25 410.5,254.5C 411.659,252.75 413.326,251.75 415.5,251.5 Z M 408.5,255.5 C 408.027,256.906 407.027,257.573 405.5,257.5C 405.973,256.094 406.973,255.427 408.5,255.5 Z M 383.5,288.5 C 382.341,290.25 380.674,291.25 378.5,291.5C 379.659,289.75 381.326,288.75 383.5,288.5 Z M 50.5,304.5 C 50.0269,305.906 49.0269,306.573 47.5,306.5C 47.9731,305.094 48.9731,304.427 50.5,304.5 Z M 20.5,308.5 C 19.3406,310.25 17.674,311.25 15.5,311.5C 16.6594,309.75 18.326,308.75 20.5,308.5 Z M 94.5,308.5 C 94.0269,309.906 93.0269,310.573 91.5,310.5C 91.9731,309.094 92.9731,308.427 94.5,308.5 Z M 89.5,311.5 C 88.3406,313.25 86.674,314.25 84.5,314.5C 85.6594,312.75 87.326,311.75 89.5,311.5 Z M 52.5,318.5 C 51.3406,320.25 49.674,321.25 47.5,321.5C 48.6594,319.75 50.326,318.75 52.5,318.5 Z M 103.5,319.5 C 102.341,321.25 100.674,322.25 98.5,322.5C 99.6594,320.75 101.326,319.75 103.5,319.5 Z M 47.5,321.5 C 46.3406,323.25 44.674,324.25 42.5,324.5C 43.6594,322.75 45.326,321.75 47.5,321.5 Z"/></g>
<g><path style="opacity:1" fill="#dfe8ef" d="M 375.5,129.5 C 378.5,129.5 381.5,129.5 384.5,129.5C 354.394,147.392 324.06,165.059 293.5,182.5C 292.304,182.154 292.304,181.654 293.5,181C 321.403,164.559 348.736,147.392 375.5,129.5 Z"/></g>
<g><path style="opacity:1" fill="#e2eaef" d="M 400.5,130.5 C 403.5,130.5 406.5,130.5 409.5,130.5C 405.072,133.891 400.406,137.058 395.5,140C 373.594,152.756 351.594,165.256 329.5,177.5C 334.167,173.833 338.833,170.167 343.5,166.5C 362.303,154.261 381.303,142.261 400.5,130.5 Z"/></g>
<g><path style="opacity:1" fill="#e3eaef" d="M 426.5,131.5 C 430.182,131.335 433.848,131.501 437.5,132C 395.748,156.293 353.915,180.46 312,204.5C 311.333,203.833 311.333,203.167 312,202.5C 350.315,178.933 388.481,155.267 426.5,131.5 Z"/></g>
<g><path style="opacity:0.887" fill="#71b1fc" d="M 471.5,132.5 C 473.698,132.12 475.365,132.787 476.5,134.5C 477.791,134.263 478.791,134.596 479.5,135.5C 475.005,139.251 470.005,142.251 464.5,144.5C 464.033,141.703 462.367,140.369 459.5,140.5C 463.205,137.474 467.205,134.808 471.5,132.5 Z"/></g>
<g><path style="opacity:1" fill="#e4eaef" d="M 459.5,140.5 C 462.367,140.369 464.033,141.703 464.5,144.5C 430.727,164.559 396.727,184.392 362.5,204C 359.691,205.741 356.691,206.908 353.5,207.5C 353.281,206.325 353.614,205.325 354.5,204.5C 389.361,182.904 424.361,161.571 459.5,140.5 Z"/></g>
<g><path style="opacity:1" fill="#71b2fd" d="M 487.5,141.5 C 489.587,142.585 490.92,144.251 491.5,146.5C 482.826,152.841 473.493,158.175 463.5,162.5C 463.167,161.5 462.5,160.833 461.5,160.5C 461.082,159.778 460.416,159.278 459.5,159C 468.74,152.908 478.074,147.074 487.5,141.5 Z"/></g>
<g><path style="opacity:0.969" fill="#6faffb" d="M 43.5,142.5 C 45.3926,150.695 45.7259,159.028 44.5,167.5C 36.829,171.333 29.4957,175.666 22.5,180.5C 21.5084,180.328 20.8417,180.662 20.5,181.5C 19.5084,181.328 18.8417,181.662 18.5,182.5C 16.9731,182.427 15.9731,183.094 15.5,184.5C 15.1667,184.5 14.8333,184.5 14.5,184.5C 14.5,176.833 14.5,169.167 14.5,161.5C 23.9957,154.918 33.6623,148.585 43.5,142.5 Z"/></g>
<g><path style="opacity:1" fill="#81b9fc" d="M 67.5,141.5 C 69.3786,141.393 69.7119,141.893 68.5,143C 64.3996,145.467 60.5662,148.301 57,151.5C 56.2888,149.633 56.7888,148.133 58.5,147C 61.8981,145.643 64.8981,143.81 67.5,141.5 Z"/></g>
<g><path style="opacity:1" fill="#dee8f0" d="M 354.5,130.5 C 355.552,130.351 356.552,130.517 357.5,131C 339.637,141.764 321.637,152.264 303.5,162.5C 303.557,161.391 303.89,160.391 304.5,159.5C 321.175,149.83 337.841,140.163 354.5,130.5 Z"/></g>
<g><path style="opacity:0.996" fill="#79b5fc" d="M 56.5,168.5 C 56.5,166.5 56.5,164.5 56.5,162.5C 69.332,154.757 82.332,147.59 95.5,141C 82.7924,150.678 69.7924,159.844 56.5,168.5 Z"/></g>
<g><path style="opacity:1" fill="#7bb5fc" d="M 180.5,175.5 C 177.5,175.5 174.5,175.5 171.5,175.5C 185.106,166.689 199.106,158.356 213.5,150.5C 214.696,150.846 214.696,151.346 213.5,152C 202.081,159.364 191.081,167.197 180.5,175.5 Z"/></g>
<g><path style="opacity:0.799" fill="#79b6fd" d="M 271.5,166.5 C 270.833,166.5 270.5,166.833 270.5,167.5C 270.167,167.5 269.833,167.5 269.5,167.5C 268.833,167.5 268.5,167.833 268.5,168.5C 267.833,168.5 267.5,168.833 267.5,169.5C 267.167,169.5 266.833,169.5 266.5,169.5C 265.833,169.5 265.5,169.833 265.5,170.5C 263.973,170.427 262.973,171.094 262.5,172.5C 260.378,172.626 259.378,173.293 259.5,174.5C 259.5,174.833 259.5,175.167 259.5,175.5C 256.833,175.5 254.167,175.5 251.5,175.5C 264.939,167.274 278.606,159.274 292.5,151.5C 293.696,151.846 293.696,152.346 292.5,153C 285.472,157.511 278.472,162.011 271.5,166.5 Z"/></g>
<g><path style="opacity:1" fill="#e4eaef" d="M 461.5,160.5 C 462.5,160.833 463.167,161.5 463.5,162.5C 438.829,178.174 413.496,192.84 387.5,206.5C 387.5,206.167 387.5,205.833 387.5,205.5C 387.281,204.325 387.614,203.325 388.5,202.5C 410.501,188.497 432.834,174.997 455.5,162C 457.345,160.872 459.345,160.372 461.5,160.5 Z"/></g>
<g><path style="opacity:1" fill="#7bb6fb" d="M 147.5,175.5 C 144.5,175.5 141.5,175.5 138.5,175.5C 150.437,168.527 162.437,161.527 174.5,154.5C 175.696,154.846 175.696,155.346 174.5,156C 165.079,162.032 156.079,168.532 147.5,175.5 Z"/></g>
<g><path style="opacity:0.993" fill="#71b2fd" d="M 496.5,166.5 C 496.5,168.833 496.5,171.167 496.5,173.5C 485.448,179.443 474.615,185.777 464,192.5C 463.536,191.906 463.369,191.239 463.5,190.5C 463.5,189.5 463.5,188.5 463.5,187.5C 474.294,180.264 485.294,173.264 496.5,166.5 Z"/></g>
<g><path style="opacity:1" fill="#7bb5f9" d="M 114.5,175.5 C 112.833,175.5 111.167,175.5 109.5,175.5C 116.77,171.193 124.103,166.86 131.5,162.5C 132.696,162.846 132.696,163.346 131.5,164C 125.656,167.696 119.989,171.53 114.5,175.5 Z"/></g>
<g><path style="opacity:1" fill="#7cb6fa" d="M 70.5,175.5 C 68.8333,175.5 67.1667,175.5 65.5,175.5C 72.1032,171.526 78.7699,167.526 85.5,163.5C 86.6956,163.846 86.6956,164.346 85.5,165C 80.0836,168.03 75.0836,171.53 70.5,175.5 Z"/></g>
<g><path style="opacity:0.752" fill="#7eb8ed" d="M 44.5,170.5 C 44.5,172.167 44.5,173.833 44.5,175.5C 39.3743,175.875 34.3743,176.875 29.5,178.5C 34.3484,175.688 39.3484,173.022 44.5,170.5 Z"/></g>
<g><path style="opacity:1" fill="#e0e7ec" d="M 279.5,175.5 C 261.791,186.777 243.625,197.444 225,207.5C 224.5,207.167 224,206.833 223.5,206.5C 235.453,197.85 247.787,189.683 260.5,182C 261.252,181.329 261.586,180.496 261.5,179.5C 267.554,178.38 273.554,177.047 279.5,175.5 Z"/></g>
<g><path style="opacity:0.892" fill="#72b2fd" d="M 39.5,181.5 C 42.5,181.5 45.5,181.5 48.5,181.5C 50.5097,182.693 52.6763,182.693 55,181.5C 55.5,181.667 56,181.833 56.5,182C 46.6667,187.833 36.8333,193.667 27,199.5C 26.3333,198.833 26.3333,198.167 27,197.5C 31.9085,192.65 36.0751,187.316 39.5,181.5 Z"/></g>
<g><path style="opacity:1" fill="#e2e9ef" d="M 114.5,181.5 C 118.5,181.5 122.5,181.5 126.5,181.5C 111.998,190.921 96.9984,199.588 81.5,207.5C 92.4757,198.864 103.476,190.197 114.5,181.5 Z"/></g>
<g><path style="opacity:1" fill="#dde6ed" d="M 146.5,182.5 C 149.059,182.198 151.393,182.532 153.5,183.5C 140.861,190.822 128.194,198.155 115.5,205.5C 114.304,205.154 114.304,204.654 115.5,204C 126.012,196.97 136.346,189.804 146.5,182.5 Z"/></g>
<g><path style="opacity:1" fill="#e3eaef" d="M 169.5,184.5 C 172.167,184.5 174.833,184.5 177.5,184.5C 166.063,191.726 154.396,198.726 142.5,205.5C 141.718,203.671 142.384,202.171 144.5,201C 152.862,195.49 161.195,189.99 169.5,184.5 Z"/></g>
<g><path style="opacity:1" fill="#75b5fd" d="M 343.5,166.5 C 338.833,170.167 334.167,173.833 329.5,177.5C 313.794,187.177 297.794,196.511 281.5,205.5C 301.03,191.678 321.696,178.678 343.5,166.5 Z"/></g>
<g><path style="opacity:1" fill="#e3eaef" d="M 463.5,187.5 C 463.5,188.5 463.5,189.5 463.5,190.5C 462.238,192.993 460.238,194.826 457.5,196C 456.054,197.298 454.721,197.465 453.5,196.5C 453.5,195.5 453.5,194.5 453.5,193.5C 456.494,191 459.827,189 463.5,187.5 Z"/></g>
<g><path style="opacity:0.963" fill="#71b2fe" d="M 496.5,184.5 C 496.5,184.833 496.5,185.167 496.5,185.5C 495.167,186.167 494.167,187.167 493.5,188.5C 494.609,188.443 495.609,188.11 496.5,187.5C 496.5,188.5 496.5,189.5 496.5,190.5C 483.617,197.774 470.617,204.774 457.5,211.5C 458.11,210.609 458.443,209.609 458.5,208.5C 470.383,199.288 483.05,191.288 496.5,184.5 Z"/></g>
<g><path style="opacity:0.972" fill="#72b2fd" d="M 453.5,193.5 C 453.5,194.5 453.5,195.5 453.5,196.5C 452.842,197.398 452.176,198.398 451.5,199.5C 443.466,203.89 435.466,208.224 427.5,212.5C 427.557,211.391 427.89,210.391 428.5,209.5C 436.292,203.385 444.625,198.052 453.5,193.5 Z"/></g>
<g><path style="opacity:1" fill="#76b3fa" d="M 126.5,181.5 C 132.026,181.179 137.36,181.512 142.5,182.5C 138.154,182.334 133.821,182.501 129.5,183C 111.608,193.444 93.6075,203.61 75.5,213.5C 75.5,213.167 75.5,212.833 75.5,212.5C 76.94,210.051 78.94,208.385 81.5,207.5C 96.9984,199.588 111.998,190.921 126.5,181.5 Z"/></g>
<g><path style="opacity:0.98" fill="#74b3fb" d="M 235.5,183.5 C 237.265,182.539 239.265,182.205 241.5,182.5C 228.728,190.392 215.728,198.059 202.5,205.5C 202.167,205.333 201.833,205.167 201.5,205C 202.833,204 204.167,203 205.5,202C 216.501,196.303 226.501,190.136 235.5,183.5 Z"/></g>
<g><path style="opacity:0.979" fill="#72b2fe" d="M 496.5,200.5 C 496.5,202.5 496.5,204.5 496.5,206.5C 490.965,209.767 485.298,212.767 479.5,215.5C 479.5,214.167 479.5,212.833 479.5,211.5C 484.619,207.1 490.286,203.433 496.5,200.5 Z"/></g>
<g><path style="opacity:0.987" fill="#72b3fe" d="M 387.5,205.5 C 387.5,205.833 387.5,206.167 387.5,206.5C 382.11,210.863 376.11,214.197 369.5,216.5C 369.5,216.167 369.5,215.833 369.5,215.5C 373.343,211.887 377.677,208.72 382.5,206C 384.139,204.481 385.806,204.314 387.5,205.5 Z"/></g>
<g><path style="opacity:1" fill="#937d41" d="M 256.5,218.5 C 254.565,219.15 252.565,219.483 250.5,219.5C 252.32,217.539 254.32,217.206 256.5,218.5 Z"/></g>
<g><path style="opacity:0.995" fill="#fac644" d="M 256.5,226.5 C 253.698,229.476 251.031,232.642 248.5,236C 252.993,234.42 257.326,232.254 261.5,229.5C 264.647,231.313 266.647,233.98 267.5,237.5C 262.029,242.801 256.362,247.967 250.5,253C 257.488,250.337 264.155,246.837 270.5,242.5C 272.341,244.849 273.674,247.515 274.5,250.5C 269.94,255.125 264.94,259.291 259.5,263C 265.043,260.228 270.71,257.395 276.5,254.5C 278.774,259.383 280.774,264.383 282.5,269.5C 263.18,282.164 244.18,295.33 225.5,309C 245.697,298.898 265.364,287.731 284.5,275.5C 286.405,278.304 288.071,281.304 289.5,284.5C 270.875,296.821 252.542,309.655 234.5,323C 235.908,323.315 237.241,322.982 238.5,322C 256.363,311.236 274.363,300.736 292.5,290.5C 294.471,292.808 296.471,295.142 298.5,297.5C 281.022,308.259 281.355,308.926 299.5,299.5C 302.117,300.786 304.45,302.453 306.5,304.5C 290.741,315.891 274.741,327.057 258.5,338C 259.908,338.315 261.241,337.982 262.5,337C 278.897,327.141 295.23,317.308 311.5,307.5C 315.93,308.599 320.263,309.599 324.5,310.5C 304.075,325.224 283.408,339.724 262.5,354C 261.304,354.654 261.304,355.154 262.5,355.5C 287.727,341.059 312.727,326.392 337.5,311.5C 342.473,312.164 347.473,312.497 352.5,312.5C 349.921,315.135 346.921,317.301 343.5,319C 342.304,319.654 342.304,320.154 343.5,320.5C 347.728,317.887 352.061,315.554 356.5,313.5C 361.01,313.884 365.343,314.551 369.5,315.5C 345.518,330.827 321.851,346.661 298.5,363C 325.175,348.154 351.841,332.987 378.5,317.5C 381.803,318.151 384.47,319.818 386.5,322.5C 370.008,333.47 353.342,344.304 336.5,355C 354.335,345.742 372.002,335.909 389.5,325.5C 391.25,326.659 392.25,328.326 392.5,330.5C 392.762,331.978 392.429,333.311 391.5,334.5C 388.5,336.333 385.5,338.167 382.5,340C 386.335,339.088 390.001,337.588 393.5,335.5C 392.266,342.24 389.433,348.24 385,353.5C 376.535,362.807 367.369,371.141 357.5,378.5C 348.403,383.748 339.403,389.248 330.5,395C 329.304,395.654 329.304,396.154 330.5,396.5C 336.279,392.709 342.279,389.376 348.5,386.5C 340.983,391.883 335.649,398.883 332.5,407.5C 322.862,413.99 313.195,420.49 303.5,427C 313.332,422.413 322.999,417.247 332.5,411.5C 334.082,414.876 334.749,418.542 334.5,422.5C 326.864,428.992 319.198,435.492 311.5,442C 319.864,437.862 328.197,433.362 336.5,428.5C 338.783,435.638 340.116,442.971 340.5,450.5C 337.5,452.833 334.833,455.5 332.5,458.5C 335.648,457.424 338.648,456.091 341.5,454.5C 343.471,458.48 344.638,462.813 345,467.5C 345.499,471.821 345.666,476.154 345.5,480.5C 344.167,480.833 344.167,481.167 345.5,481.5C 346.621,488.505 344.288,493.838 338.5,497.5C 332.253,499.348 326.587,498.348 321.5,494.5C 324.474,491.517 326.641,488.183 328,484.5C 324.222,486.97 320.389,489.303 316.5,491.5C 313.984,491.245 311.65,490.411 309.5,489C 304.754,486.304 300.421,483.137 296.5,479.5C 301.167,474.5 305.833,469.5 310.5,464.5C 303.85,468.138 297.184,471.805 290.5,475.5C 283.558,472.696 276.891,469.362 270.5,465.5C 277.534,458.464 284.867,451.797 292.5,445.5C 282.167,450.664 272.167,456.331 262.5,462.5C 257.821,462.334 253.155,462.501 248.5,463C 242.675,465.745 237.008,468.745 231.5,472C 221.436,479.061 211.102,485.727 200.5,492C 195.376,494.541 190.042,496.374 184.5,497.5C 184.937,495.926 185.937,494.759 187.5,494C 199.074,486.391 210.407,478.558 221.5,470.5C 206.002,478.412 191.002,487.079 176.5,496.5C 171.4,496.723 168.4,494.389 167.5,489.5C 176.833,483.167 186.167,476.833 195.5,470.5C 185.7,475.567 176.033,480.901 166.5,486.5C 164.973,474.735 165.973,463.068 169.5,451.5C 183.805,442.344 198.138,433.177 212.5,424C 211.092,423.685 209.759,424.018 208.5,425C 195.941,432.444 183.274,439.61 170.5,446.5C 170.952,442.454 171.619,438.454 172.5,434.5C 193.117,421.853 213.451,408.686 233.5,395C 231.402,395.032 229.402,395.699 227.5,397C 209.928,407.422 192.261,417.589 174.5,427.5C 174.43,423.575 175.097,419.909 176.5,416.5C 178.138,415.343 179.804,414.176 181.5,413C 179.718,412.878 178.052,413.378 176.5,414.5C 177.023,410.109 177.69,405.776 178.5,401.5C 180.23,400.974 181.564,399.974 182.5,398.5C 183.167,398.5 183.5,398.167 183.5,397.5C 183.833,397.5 184.167,397.5 184.5,397.5C 185.167,397.5 185.5,397.167 185.5,396.5C 186.167,396.5 186.5,396.167 186.5,395.5C 186.833,395.5 187.167,395.5 187.5,395.5C 188.167,395.5 188.5,395.167 188.5,394.5C 203.074,385.581 217.074,375.914 230.5,365.5C 211.833,375.833 193.167,386.167 174.5,396.5C 171.757,394.761 169.757,392.427 168.5,389.5C 182.06,381.227 195.06,372.227 207.5,362.5C 193.032,370.234 178.699,378.234 164.5,386.5C 161.167,385.167 158.833,382.833 157.5,379.5C 158.473,379.013 159.473,378.513 160.5,378C 161.696,377.346 161.696,376.846 160.5,376.5C 158.925,377.456 157.258,378.123 155.5,378.5C 153.167,376.833 151.167,374.833 149.5,372.5C 168.621,359.219 187.621,345.719 206.5,332C 204.402,332.032 202.402,332.699 200.5,334C 181.771,345.363 162.771,356.196 143.5,366.5C 141.167,364.833 139.167,362.833 137.5,360.5C 157.01,346.497 176.677,332.664 196.5,319C 195.092,318.685 193.759,319.018 192.5,320C 172.636,331.765 152.636,343.265 132.5,354.5C 129.48,352.477 127.146,349.81 125.5,346.5C 131.576,341.931 137.242,336.764 142.5,331C 135.623,334.438 128.623,337.938 121.5,341.5C 115.545,333.936 116.211,327.103 123.5,321C 126.071,319.546 128.738,318.38 131.5,317.5C 129.779,321.273 127.779,324.939 125.5,328.5C 125.833,328.833 126.167,329.167 126.5,329.5C 137.06,323.726 147.393,317.726 157.5,311.5C 163.739,310.109 170.072,309.443 176.5,309.5C 169.338,317.495 161.671,324.995 153.5,332C 168.705,324.058 183.705,315.558 198.5,306.5C 203.787,305.736 207.954,303.069 211,298.5C 214.333,293.167 217.667,287.833 221,282.5C 223.832,274.158 227.332,266.158 231.5,258.5C 233.649,257.252 235.649,255.752 237.5,254C 235.811,254.134 234.144,254.634 232.5,255.5C 235.268,247.298 239.101,239.631 244,232.5C 246.205,229.96 248.705,227.793 251.5,226C 253.387,225.22 255.054,225.387 256.5,226.5 Z M 292.5,445.5 C 284.867,451.797 277.534,458.464 270.5,465.5C 267.833,464.5 265.167,463.5 262.5,462.5C 272.167,456.331 282.167,450.664 292.5,445.5 Z M 332.5,458.5 C 332.027,459.906 331.027,460.573 329.5,460.5C 329.973,459.094 330.973,458.427 332.5,458.5 Z M 310.5,464.5 C 305.833,469.5 301.167,474.5 296.5,479.5C 294.205,478.525 292.205,477.192 290.5,475.5C 297.184,471.805 303.85,468.138 310.5,464.5 Z M 198.5,468.5 C 198.027,469.906 197.027,470.573 195.5,470.5C 195.973,469.094 196.973,468.427 198.5,468.5 Z M 224.5,468.5 C 224.027,469.906 223.027,470.573 221.5,470.5C 221.973,469.094 222.973,468.427 224.5,468.5 Z M 321.5,494.5 C 319.632,493.737 317.965,492.737 316.5,491.5C 320.389,489.303 324.222,486.97 328,484.5C 326.641,488.183 324.474,491.517 321.5,494.5 Z"/></g>
<g><path style="opacity:1" fill="#9cd0ee" d="M 256.5,226.5 C 258.933,226.273 260.599,227.273 261.5,229.5C 257.326,232.254 252.993,234.42 248.5,236C 251.031,232.642 253.698,229.476 256.5,226.5 Z"/></g>
<g><path style="opacity:1" fill="#d8b047" d="M 243.5,223.5 C 240.5,225.833 237.833,228.5 235.5,231.5C 236.464,227.203 239.13,224.536 243.5,223.5 Z"/></g>
<g><path style="opacity:1" fill="#9bd0ee" d="M 267.5,237.5 C 269.25,238.659 270.25,240.326 270.5,242.5C 264.155,246.837 257.488,250.337 250.5,253C 256.362,247.967 262.029,242.801 267.5,237.5 Z"/></g>
<g><path style="opacity:0.836" fill="#a4cfe0" d="M 274.5,250.5 C 275.345,251.671 276.011,253.005 276.5,254.5C 270.71,257.395 265.043,260.228 259.5,263C 264.94,259.291 269.94,255.125 274.5,250.5 Z"/></g>
<g><path style="opacity:1" fill="#aecbcb" d="M 231.5,258.5 C 231.557,257.391 231.89,256.391 232.5,255.5C 234.144,254.634 235.811,254.134 237.5,254C 235.649,255.752 233.649,257.252 231.5,258.5 Z"/></g>
<g><path style="opacity:1" fill="#9bd1f1" d="M 282.5,269.5 C 283.73,271.297 284.396,273.297 284.5,275.5C 265.364,287.731 245.697,298.898 225.5,309C 244.18,295.33 263.18,282.164 282.5,269.5 Z"/></g>
<g><path style="opacity:1" fill="#9ad1f2" d="M 289.5,284.5 C 291.025,286.216 292.025,288.216 292.5,290.5C 274.363,300.736 256.363,311.236 238.5,322C 237.241,322.982 235.908,323.315 234.5,323C 252.542,309.655 270.875,296.821 289.5,284.5 Z"/></g>
<g><path style="opacity:0.971" fill="#92d2fd" d="M 496.5,255.5 C 496.5,259.5 496.5,263.5 496.5,267.5C 491.291,270.598 486.291,273.932 481.5,277.5C 486.632,275.1 491.632,272.434 496.5,269.5C 497.791,273.399 497.791,277.399 496.5,281.5C 471.541,297.14 446.875,313.14 422.5,329.5C 447.406,315.928 472.073,301.928 496.5,287.5C 497.791,291.399 497.791,295.399 496.5,299.5C 497.694,303.437 497.694,307.771 496.5,312.5C 485.454,319.016 474.788,326.016 464.5,333.5C 475.498,328.003 486.165,322.003 496.5,315.5C 497.791,319.399 497.791,323.399 496.5,327.5C 495.5,327.833 494.833,328.5 494.5,329.5C 495.167,329.5 495.833,329.5 496.5,329.5C 497.791,333.399 497.791,337.399 496.5,341.5C 483.87,349.475 471.537,357.808 459.5,366.5C 472.095,359.892 484.428,352.892 496.5,345.5C 497.794,349.733 497.794,354.066 496.5,358.5C 485.602,365.109 475.269,372.442 465.5,380.5C 475.967,375.1 486.3,369.433 496.5,363.5C 497.179,371.567 497.179,379.901 496.5,388.5C 494.15,389.11 494.483,389.444 497.5,389.5C 497.706,393.898 497.373,398.232 496.5,402.5C 494.77,403.026 493.436,404.026 492.5,405.5C 493.833,405.167 495.167,404.833 496.5,404.5C 496.666,411.175 496.5,417.842 496,424.5C 492.065,437.27 483.565,444.937 470.5,447.5C 471.5,446.167 472.5,444.833 473.5,443.5C 470.24,444.774 467.24,446.44 464.5,448.5C 463.833,448.5 463.5,448.833 463.5,449.5C 457.075,451.25 450.742,451.584 444.5,450.5C 446.795,446.538 449.795,443.205 453.5,440.5C 447.332,443.08 441.665,446.414 436.5,450.5C 430.642,450.822 424.975,450.489 419.5,449.5C 424.313,444.93 429.313,440.597 434.5,436.5C 426.829,440.333 419.496,444.666 412.5,449.5C 406.596,449.679 400.929,449.012 395.5,447.5C 398.02,445.737 400.353,443.737 402.5,441.5C 398.345,442.742 394.678,444.742 391.5,447.5C 384.978,447.823 378.645,447.49 372.5,446.5C 366.497,447.123 360.497,447.789 354.5,448.5C 353.614,447.675 353.281,446.675 353.5,445.5C 366.204,436.488 378.871,427.488 391.5,418.5C 378.659,425.754 365.659,432.754 352.5,439.5C 351.105,435.409 350.438,431.076 350.5,426.5C 356.024,423.908 361.024,420.575 365.5,416.5C 360.167,419.167 354.833,421.833 349.5,424.5C 347.989,416.831 346.823,409.164 346,401.5C 360.638,387.863 374.971,373.863 389,359.5C 395.606,351.948 400.939,343.615 405,334.5C 405.667,331.5 405.667,328.5 405,325.5C 401.97,321.305 398.47,317.639 394.5,314.5C 395.167,314.5 395.5,314.167 395.5,313.5C 397.027,313.573 398.027,312.906 398.5,311.5C 399.492,311.672 400.158,311.338 400.5,310.5C 432.799,292.684 464.799,274.351 496.5,255.5 Z M 481.5,277.5 C 480.341,279.25 478.674,280.25 476.5,280.5C 477.659,278.75 479.326,277.75 481.5,277.5 Z M 422.5,329.5 C 422.027,330.906 421.027,331.573 419.5,331.5C 419.973,330.094 420.973,329.427 422.5,329.5 Z M 464.5,333.5 C 464.027,334.906 463.027,335.573 461.5,335.5C 461.973,334.094 462.973,333.427 464.5,333.5 Z M 459.5,366.5 C 459.027,367.906 458.027,368.573 456.5,368.5C 456.973,367.094 457.973,366.427 459.5,366.5 Z M 465.5,380.5 C 465.027,381.906 464.027,382.573 462.5,382.5C 462.973,381.094 463.973,380.427 465.5,380.5 Z M 394.5,416.5 C 394.027,417.906 393.027,418.573 391.5,418.5C 391.973,417.094 392.973,416.427 394.5,416.5 Z M 434.5,436.5 C 429.313,440.597 424.313,444.93 419.5,449.5C 417.167,449.5 414.833,449.5 412.5,449.5C 419.496,444.666 426.829,440.333 434.5,436.5 Z M 405.5,439.5 C 405.027,440.906 404.027,441.573 402.5,441.5C 402.973,440.094 403.973,439.427 405.5,439.5 Z M 453.5,440.5 C 449.795,443.205 446.795,446.538 444.5,450.5C 441.833,450.5 439.167,450.5 436.5,450.5C 441.665,446.414 447.332,443.08 453.5,440.5 Z M 402.5,441.5 C 400.353,443.737 398.02,445.737 395.5,447.5C 394.167,447.5 392.833,447.5 391.5,447.5C 394.678,444.742 398.345,442.742 402.5,441.5 Z"/></g>
<g><path style="opacity:1" fill="#aeced0" d="M 298.5,297.5 C 299.338,297.842 299.672,298.508 299.5,299.5C 281.355,308.926 281.022,308.259 298.5,297.5 Z"/></g>
<g><path style="opacity:1" fill="#9ed1ed" d="M 306.5,304.5 C 308.368,305.263 310.035,306.263 311.5,307.5C 295.23,317.308 278.897,327.141 262.5,337C 261.241,337.982 259.908,338.315 258.5,338C 274.741,327.057 290.741,315.891 306.5,304.5 Z"/></g>
<g><path style="opacity:1" fill="#97cff2" d="M 198.5,306.5 C 183.705,315.558 168.705,324.058 153.5,332C 161.671,324.995 169.338,317.495 176.5,309.5C 183.634,308.015 190.967,307.015 198.5,306.5 Z"/></g>
<g><path style="opacity:1" fill="#ddb54d" d="M 131.5,311.5 C 126.693,312.769 122.027,314.436 117.5,316.5C 119.927,314.442 122.593,312.609 125.5,311C 127.712,310.211 129.712,310.378 131.5,311.5 Z"/></g>
<g><path style="opacity:1" fill="#9ad2f3" d="M 324.5,310.5 C 328.824,310.927 333.158,311.261 337.5,311.5C 312.727,326.392 287.727,341.059 262.5,355.5C 261.304,355.154 261.304,354.654 262.5,354C 283.408,339.724 304.075,325.224 324.5,310.5 Z"/></g>
<g><path style="opacity:1" fill="#92caec" d="M 157.5,311.5 C 147.393,317.726 137.06,323.726 126.5,329.5C 126.167,329.167 125.833,328.833 125.5,328.5C 127.779,324.939 129.779,321.273 131.5,317.5C 139.934,314.612 148.601,312.612 157.5,311.5 Z"/></g>
<g><path style="opacity:1" fill="#d2b45d" d="M 387.5,312.5 C 389.523,311.479 391.523,311.812 393.5,313.5C 393.5,313.833 393.5,314.167 393.5,314.5C 391.297,314.396 389.297,313.73 387.5,312.5 Z"/></g>
<g><path style="opacity:1" fill="#9fc5d2" d="M 352.5,312.5 C 354.099,312.232 355.432,312.566 356.5,313.5C 352.061,315.554 347.728,317.887 343.5,320.5C 342.304,320.154 342.304,319.654 343.5,319C 346.921,317.301 349.921,315.135 352.5,312.5 Z"/></g>
<g><path style="opacity:0.995" fill="#9bd1f0" d="M 369.5,315.5 C 372.781,315.42 375.781,316.087 378.5,317.5C 351.841,332.987 325.175,348.154 298.5,363C 321.851,346.661 345.518,330.827 369.5,315.5 Z"/></g>
<g><path style="opacity:1" fill="#a1d1e8" d="M 386.5,322.5 C 387.833,323.167 388.833,324.167 389.5,325.5C 372.002,335.909 354.335,345.742 336.5,355C 353.342,344.304 370.008,333.47 386.5,322.5 Z"/></g>
<g><path style="opacity:1" fill="#9ad1f1" d="M 137.5,360.5 C 135.086,359.089 133.419,357.089 132.5,354.5C 152.636,343.265 172.636,331.765 192.5,320C 193.759,319.018 195.092,318.685 196.5,319C 176.677,332.664 157.01,346.497 137.5,360.5 Z"/></g>
<g><path style="opacity:1" fill="#9dd1ed" d="M 125.5,346.5 C 123.457,345.421 122.124,343.754 121.5,341.5C 128.623,337.938 135.623,334.438 142.5,331C 137.242,336.764 131.576,341.931 125.5,346.5 Z"/></g>
<g><path style="opacity:0.86" fill="#9cd2f2" d="M 149.5,372.5 C 148.094,372.027 147.427,371.027 147.5,369.5C 148.167,369.5 148.5,369.167 148.5,368.5C 146.302,368.88 144.635,368.213 143.5,366.5C 162.771,356.196 181.771,345.363 200.5,334C 202.402,332.699 204.402,332.032 206.5,332C 187.621,345.719 168.621,359.219 149.5,372.5 Z M 151.5,366.5 C 151.027,367.906 150.027,368.573 148.5,368.5C 148.973,367.094 149.973,366.427 151.5,366.5 Z"/></g>
<g><path style="opacity:1" fill="#b7c8b5" d="M 392.5,330.5 C 393.451,331.919 393.784,333.585 393.5,335.5C 390.001,337.588 386.335,339.088 382.5,340C 385.5,338.167 388.5,336.333 391.5,334.5C 392.429,333.311 392.762,331.978 392.5,330.5 Z"/></g>
<g><path style="opacity:0.938" fill="#93d3fd" d="M 108.5,345.5 C 111.876,348.559 114.543,352.225 116.5,356.5C 82.5,376.167 48.5,395.833 14.5,415.5C 14.5,411.5 14.5,407.5 14.5,403.5C 45.8333,384.167 77.1667,364.833 108.5,345.5 Z"/></g>
<g><path style="opacity:0.95" fill="#93d2fd" d="M 117.5,358.5 C 119.017,358.511 120.184,359.177 121,360.5C 125.734,365.726 130.234,371.059 134.5,376.5C 98.1659,396.664 62.1659,417.331 26.5,438.5C 23.5722,437.409 21.4055,435.409 20,432.5C 17.6361,428.781 16.1361,424.781 15.5,420.5C 49.4722,399.845 83.4722,379.178 117.5,358.5 Z"/></g>
<g><path style="opacity:1" fill="#b0cfcc" d="M 207.5,362.5 C 208.002,360.915 209.002,360.415 210.5,361C 209.756,362.039 208.756,362.539 207.5,362.5 Z"/></g>
<g><path style="opacity:1" fill="#b0cfcc" d="M 230.5,365.5 C 231.002,363.915 232.002,363.415 233.5,364C 232.756,365.039 231.756,365.539 230.5,365.5 Z"/></g>
<g><path style="opacity:0.983" fill="#9cd2f0" d="M 207.5,362.5 C 195.06,372.227 182.06,381.227 168.5,389.5C 166.596,389.262 165.262,388.262 164.5,386.5C 178.699,378.234 193.032,370.234 207.5,362.5 Z"/></g>
<g><path style="opacity:0.957" fill="#9ad1f4" d="M 230.5,365.5 C 217.074,375.914 203.074,385.581 188.5,394.5C 187.833,394.5 187.5,394.833 187.5,395.5C 187.167,395.5 186.833,395.5 186.5,395.5C 185.833,395.5 185.5,395.833 185.5,396.5C 184.833,396.5 184.5,396.833 184.5,397.5C 184.167,397.5 183.833,397.5 183.5,397.5C 182.833,397.5 182.5,397.833 182.5,398.5C 180.847,398.66 179.514,399.326 178.5,400.5C 176.833,399.5 175.5,398.167 174.5,396.5C 193.167,386.167 211.833,375.833 230.5,365.5 Z"/></g>
<g><path style="opacity:0.944" fill="#93d2fd" d="M 135.5,377.5 C 139.436,379.766 142.769,382.766 145.5,386.5C 110.833,406.5 76.1667,426.5 41.5,446.5C 36.9118,446.704 33.2451,445.037 30.5,441.5C 65.3612,419.904 100.361,398.571 135.5,377.5 Z"/></g>
<g><path style="opacity:0.541" fill="#a6ccd9" d="M 157.5,379.5 C 156.508,379.672 155.842,379.338 155.5,378.5C 157.258,378.123 158.925,377.456 160.5,376.5C 161.696,376.846 161.696,377.346 160.5,378C 159.473,378.513 158.473,379.013 157.5,379.5 Z"/></g>
<g><path style="opacity:1" fill="#a0c9d8" d="M 357.5,378.5 C 354.5,381.167 351.5,383.833 348.5,386.5C 342.279,389.376 336.279,392.709 330.5,396.5C 329.304,396.154 329.304,395.654 330.5,395C 339.403,389.248 348.403,383.748 357.5,378.5 Z"/></g>
<g><path style="opacity:0.939" fill="#93d2fd" d="M 145.5,387.5 C 150.441,389.442 154.108,392.775 156.5,397.5C 125.499,414.665 94.8322,432.331 64.5,450.5C 59.8215,450.666 55.1548,450.499 50.5,450C 49.5842,449.722 48.9175,449.222 48.5,448.5C 81.0019,428.417 113.335,408.083 145.5,387.5 Z"/></g>
<g><path style="opacity:0.939" fill="#93d2fc" d="M 157.5,397.5 C 160.061,399.371 162.561,401.371 165,403.5C 165.64,405.265 165.473,406.932 164.5,408.5C 140.136,422.01 116.136,436.01 92.5,450.5C 86.6899,451.711 81.0233,451.711 75.5,450.5C 75.5106,448.983 76.1772,447.816 77.5,447C 104.398,430.725 131.065,414.225 157.5,397.5 Z"/></g>
<g><path style="opacity:0.999" fill="#9cd0ee" d="M 172.5,434.5 C 172.767,432.035 173.434,429.701 174.5,427.5C 192.261,417.589 209.928,407.422 227.5,397C 229.402,395.699 231.402,395.032 233.5,395C 213.451,408.686 193.117,421.853 172.5,434.5 Z"/></g>
<g><path style="opacity:0.934" fill="#94d2fd" d="M 163.5,413.5 C 163.366,419.113 162.366,424.446 160.5,429.5C 159.833,429.5 159.5,429.833 159.5,430.5C 158.508,430.328 157.842,430.662 157.5,431.5C 156.508,431.328 155.842,431.662 155.5,432.5C 153.973,432.427 152.973,433.094 152.5,434.5C 151.508,434.328 150.842,434.662 150.5,435.5C 148.326,435.75 146.659,436.75 145.5,438.5C 139.835,440.997 134.502,443.997 129.5,447.5C 122.198,448.298 114.864,448.965 107.5,449.5C 125.791,437.015 144.457,425.015 163.5,413.5 Z"/></g>
<g><path style="opacity:1" fill="#bbceba" d="M 176.5,416.5 C 176.5,415.833 176.5,415.167 176.5,414.5C 178.052,413.378 179.718,412.878 181.5,413C 179.804,414.176 178.138,415.343 176.5,416.5 Z"/></g>
<g><path style="opacity:1" fill="#9fd1eb" d="M 332.5,407.5 C 332.5,408.833 332.5,410.167 332.5,411.5C 322.999,417.247 313.332,422.413 303.5,427C 313.195,420.49 322.862,413.99 332.5,407.5 Z"/></g>
<g><path style="opacity:1" fill="#9bcfec" d="M 334.5,422.5 C 335.738,424.214 336.405,426.214 336.5,428.5C 328.197,433.362 319.864,437.862 311.5,442C 319.198,435.492 326.864,428.992 334.5,422.5 Z"/></g>
<g><path style="opacity:0.926" fill="#93d2fd" d="M 159.5,430.5 C 159.833,430.5 160.167,430.5 160.5,430.5C 160.369,434.952 159.702,439.286 158.5,443.5C 156.463,444.846 154.463,446.18 152.5,447.5C 145.833,447.5 139.167,447.5 132.5,447.5C 137.008,444.747 141.341,441.747 145.5,438.5C 147.674,438.25 149.341,437.25 150.5,435.5C 151.492,435.672 152.158,435.338 152.5,434.5C 154.027,434.573 155.027,433.906 155.5,432.5C 156.492,432.672 157.158,432.338 157.5,431.5C 158.492,431.672 159.158,431.338 159.5,430.5 Z"/></g>
<g><path style="opacity:1" fill="#a1d0e7" d="M 169.5,451.5 C 169.366,449.708 169.699,448.042 170.5,446.5C 183.274,439.61 195.941,432.444 208.5,425C 209.759,424.018 211.092,423.685 212.5,424C 198.138,433.177 183.805,442.344 169.5,451.5 Z"/></g>
<g><path style="opacity:0.813" fill="#88c1e7" d="M 500.5,437.5 C 499.151,442.508 495.818,445.508 490.5,446.5C 493.231,442.766 496.564,439.766 500.5,437.5 Z"/></g>
<g><path style="opacity:0.765" fill="#90cffa" d="M 23.5,449.5 C 26.5418,449.733 29.2084,450.733 31.5,452.5C 27.8054,454.243 25.1387,453.243 23.5,449.5 Z"/></g>
<g><path style="opacity:0.829" fill="#8ac3eb" d="M 490.5,446.5 C 486.063,449.559 481.397,452.392 476.5,455C 474.288,455.789 472.288,455.622 470.5,454.5C 477.314,452.434 483.981,449.767 490.5,446.5 Z"/></g>
<g><path style="opacity:1" fill="#b0cfce" d="M 221.5,453.5 C 223.379,453.393 223.712,453.893 222.5,455C 219.125,455.632 218.791,455.132 221.5,453.5 Z"/></g>
<g><path style="opacity:0.658" fill="#a2d8fe" d="M 370.5,454.5 C 372.833,454.5 375.167,454.5 377.5,454.5C 376.866,455.947 375.699,456.613 374,456.5C 372.301,456.613 371.134,455.947 370.5,454.5 Z"/></g>
<g><path style="opacity:0.237" fill="#84bbe2" d="M 394.5,455.5 C 396.5,454.167 398.5,454.167 400.5,455.5C 398.5,456.833 396.5,456.833 394.5,455.5 Z"/></g>
<g><path style="opacity:0.853" fill="#e5b640" d="M 205.5,494.5 C 201.063,497.559 196.397,500.392 191.5,503C 189.288,503.789 187.288,503.622 185.5,502.5C 192.171,500.05 198.837,497.383 205.5,494.5 Z"/></g>
<g><path style="opacity:0.778" fill="#f3be42" d="M 319.5,501.5 C 321.894,502.015 324.228,502.681 326.5,503.5C 324.712,504.622 322.712,504.789 320.5,504C 319.748,503.329 319.414,502.496 319.5,501.5 Z"/></g>
</svg>
