<?xml version="1.0" encoding="UTF-8"?>
<!DOCTYPE svg PUBLIC "-//W3C//DTD SVG 1.1//EN" "http://www.w3.org/Graphics/SVG/1.1/DTD/svg11.dtd">
<svg xmlns="http://www.w3.org/2000/svg" version="1.1" width="512px" height="512px" style="shape-rendering:geometricPrecision; text-rendering:geometricPrecision; image-rendering:optimizeQuality; fill-rule:evenodd; clip-rule:evenodd" xmlns:xlink="http://www.w3.org/1999/xlink">
<g><path style="opacity:0.965" fill="#272726" d="M 360.5,4.5 C 362.32,6.44836 364.654,7.44836 367.5,7.5C 376.063,11.9649 379.23,18.9649 377,28.5C 373.659,38.1809 368.993,47.1809 363,55.5C 346.618,76.3761 330.451,97.3761 314.5,118.5C 312.65,119.242 311.984,120.242 312.5,121.5C 304.553,132.548 297.22,144.048 290.5,156C 306.506,155.017 322.506,155.35 338.5,157C 351.321,159.142 355.487,166.309 351,178.5C 349.066,182.759 346.732,186.759 344,190.5C 329.645,207.354 315.478,224.354 301.5,241.5C 304.667,241.833 307.833,242.167 311,242.5C 323.32,241.578 335.653,240.911 348,240.5C 357.279,239.619 366.112,241.119 374.5,245C 375.667,246.167 376.833,247.333 378,248.5C 379.555,253.382 379.888,258.382 379,263.5C 342.429,311.408 305.095,358.741 267,405.5C 252.244,426.011 237.244,446.345 222,466.5C 213.203,476.965 204.037,487.132 194.5,497C 190.341,500.247 186.008,503.247 181.5,506C 170.184,510.26 163.684,506.427 162,494.5C 161.111,490.848 160.778,487.182 161,483.5C 185.606,426.505 210.106,369.505 234.5,312.5C 217.84,313.353 201.173,313.519 184.5,313C 175.813,313.002 167.979,310.502 161,305.5C 157.845,299.213 157.845,292.88 161,286.5C 173.707,263.586 186.54,240.752 199.5,218C 185.304,217.456 171.137,217.956 157,219.5C 149.482,219.554 142.315,218.054 135.5,215C 130.278,208.964 129.111,202.131 132,194.5C 161.208,132.586 191.042,71.086 221.5,10C 226.345,6.57835 231.678,4.24502 237.5,3C 263.681,2.55658 289.848,1.72324 316,0.5C 331.017,0.0621417 345.85,1.39548 360.5,4.5 Z M 325.5,11.5 C 326.167,11.5 326.833,11.5 327.5,11.5C 327.027,12.9063 326.027,13.573 324.5,13.5C 324.833,12.8333 325.167,12.1667 325.5,11.5 Z M 240.5,12.5 C 241.833,12.5 243.167,12.5 244.5,12.5C 242.492,14.2676 240.326,15.9343 238,17.5C 238.058,15.5646 238.891,13.8979 240.5,12.5 Z M 304.5,12.5 C 289.998,21.9211 274.998,30.5878 259.5,38.5C 270.016,30.4066 280.35,22.0732 290.5,13.5C 295.214,13.6469 299.881,13.3136 304.5,12.5 Z M 263.5,13.5 C 265.216,13.6287 266.883,13.962 268.5,14.5C 264.167,17.669 259.5,20.3357 254.5,22.5C 257.694,19.7279 260.694,16.7279 263.5,13.5 Z M 360.5,16.5 C 361.71,16.9321 362.71,17.5987 363.5,18.5C 353.3,24.4329 342.967,30.0996 332.5,35.5C 341.796,29.1796 351.13,22.8463 360.5,16.5 Z M 332.5,35.5 C 332.027,36.9063 331.027,37.573 329.5,37.5C 329.973,36.0937 330.973,35.427 332.5,35.5 Z M 222.5,53.5 C 218.746,57.5484 214.413,60.8817 209.5,63.5C 209.833,62.1667 210.167,60.8333 210.5,59.5C 214.272,57.0661 218.272,55.0661 222.5,53.5 Z M 346.5,54.5 C 345.5,56.5 344.5,58.5 343.5,60.5C 330.833,67.5 318.167,74.5 305.5,81.5C 318.645,71.7574 332.311,62.7574 346.5,54.5 Z M 199.5,109.5 C 199.027,110.906 198.027,111.573 196.5,111.5C 196.973,110.094 197.973,109.427 199.5,109.5 Z M 196.5,111.5 C 192.053,115.564 187.053,118.898 181.5,121.5C 181.557,120.391 181.89,119.391 182.5,118.5C 187.167,116.167 191.833,113.833 196.5,111.5 Z M 204.5,134.5 C 204.5,134.833 204.5,135.167 204.5,135.5C 190.167,144.833 175.833,154.167 161.5,163.5C 162.167,161.5 162.833,159.5 163.5,157.5C 177.032,149.568 190.699,141.901 204.5,134.5 Z M 276.5,159.5 C 276.5,160.167 276.5,160.833 276.5,161.5C 275.833,161.5 275.167,161.5 274.5,161.5C 274.833,160.5 275.5,159.833 276.5,159.5 Z M 310.5,165.5 C 315.167,165.5 319.833,165.5 324.5,165.5C 306.167,176.669 287.5,187.336 268.5,197.5C 282.5,186.833 296.5,176.167 310.5,165.5 Z M 287.5,166.5 C 287.833,166.5 288.167,166.5 288.5,166.5C 287.341,168.25 285.674,169.25 283.5,169.5C 284.436,168.026 285.77,167.026 287.5,166.5 Z M 337.5,169.5 C 339.163,171.438 339.829,173.772 339.5,176.5C 322.15,186.195 304.816,195.861 287.5,205.5C 304.167,193.5 320.833,181.5 337.5,169.5 Z M 217.5,190.5 C 210.718,196.064 203.718,201.398 196.5,206.5C 193.946,207.388 191.279,207.721 188.5,207.5C 197.666,201.08 207.332,195.413 217.5,190.5 Z M 178.5,199.5 C 174.465,202.857 170.132,205.857 165.5,208.5C 164.5,208.5 163.5,208.5 162.5,208.5C 167.502,204.997 172.835,201.997 178.5,199.5 Z M 287.5,205.5 C 287.027,206.906 286.027,207.573 284.5,207.5C 284.973,206.094 285.973,205.427 287.5,205.5 Z M 313.5,206.5 C 311.833,208.5 310.167,210.5 308.5,212.5C 303.833,214.833 299.167,217.167 294.5,219.5C 300.554,214.783 306.887,210.45 313.5,206.5 Z M 227.5,214.5 C 222.142,219.186 216.475,223.519 210.5,227.5C 210.893,225.716 211.559,224.05 212.5,222.5C 217.368,219.566 222.368,216.9 227.5,214.5 Z M 294.5,219.5 C 294.027,220.906 293.027,221.573 291.5,221.5C 291.973,220.094 292.973,219.427 294.5,219.5 Z M 229.5,232.5 C 216.466,242.19 203.133,251.523 189.5,260.5C 190.901,257.366 192.568,254.366 194.5,251.5C 206.326,245.421 217.993,239.088 229.5,232.5 Z M 345.5,251.5 C 330.331,261.255 314.664,270.255 298.5,278.5C 309.684,269.739 320.684,260.739 331.5,251.5C 336.355,250.953 341.022,250.953 345.5,251.5 Z M 287.5,252.5 C 287.833,252.5 288.167,252.5 288.5,252.5C 288.027,253.906 287.027,254.573 285.5,254.5C 285.833,253.5 286.5,252.833 287.5,252.5 Z M 217.5,258.5 C 217.027,259.906 216.027,260.573 214.5,260.5C 214.973,259.094 215.973,258.427 217.5,258.5 Z M 214.5,260.5 C 201.044,270.068 187.377,279.401 173.5,288.5C 174.227,286.046 175.227,283.713 176.5,281.5C 189.184,274.472 201.85,267.472 214.5,260.5 Z M 360.5,268.5 C 357.925,271.319 355.592,274.319 353.5,277.5C 344.634,282.766 335.634,287.766 326.5,292.5C 337.474,284.011 348.807,276.011 360.5,268.5 Z M 210.5,280.5 C 210.027,281.906 209.027,282.573 207.5,282.5C 207.973,281.094 208.973,280.427 210.5,280.5 Z M 207.5,282.5 C 198.8,289.19 189.8,295.523 180.5,301.5C 178.708,301.634 177.042,301.301 175.5,300.5C 185.835,293.997 196.502,287.997 207.5,282.5 Z M 270.5,287.5 C 263.814,293.516 256.814,299.182 249.5,304.5C 247.95,303.559 246.284,302.893 244.5,302.5C 252.832,296.998 261.499,291.998 270.5,287.5 Z M 210.5,296.5 C 210.027,297.906 209.027,298.573 207.5,298.5C 207.973,297.094 208.973,296.427 210.5,296.5 Z M 207.5,298.5 C 206.833,299.5 206.167,300.5 205.5,301.5C 204.167,301.5 202.833,301.5 201.5,301.5C 203.181,299.992 205.181,298.992 207.5,298.5 Z M 271.5,317.5 C 271.027,318.906 270.027,319.573 268.5,319.5C 268.973,318.094 269.973,317.427 271.5,317.5 Z M 268.5,319.5 C 258.702,327.568 248.369,334.901 237.5,341.5C 237.604,339.297 238.27,337.297 239.5,335.5C 249.033,329.901 258.7,324.567 268.5,319.5 Z M 312.5,328.5 C 312.443,329.609 312.11,330.609 311.5,331.5C 308.648,333.091 305.648,334.424 302.5,335.5C 305.475,332.677 308.808,330.344 312.5,328.5 Z M 245.5,362.5 C 236.716,369.399 227.716,376.065 218.5,382.5C 219.167,380.5 219.833,378.5 220.5,376.5C 228.699,371.568 237.032,366.901 245.5,362.5 Z M 195.5,431.5 C 196.167,431.5 196.833,431.5 197.5,431.5C 197.167,432.5 196.5,433.167 195.5,433.5C 195.5,432.833 195.5,432.167 195.5,431.5 Z M 190.5,463.5 C 187.461,466.54 184.127,469.206 180.5,471.5C 180.833,470.167 181.167,468.833 181.5,467.5C 184.648,466.424 187.648,465.091 190.5,463.5 Z"/></g>
<g><path style="opacity:0.674" fill="#e2b84e" d="M 360.5,4.5 C 363.631,3.90781 365.964,4.90781 367.5,7.5C 364.654,7.44836 362.32,6.44836 360.5,4.5 Z"/></g>
<g><path style="opacity:0.973" fill="#fbcb53" d="M 325.5,11.5 C 325.167,12.1667 324.833,12.8333 324.5,13.5C 326.027,13.573 327.027,12.9063 327.5,11.5C 334.022,11.1765 340.355,11.5098 346.5,12.5C 349.518,12.3354 352.518,12.502 355.5,13C 357.76,13.5494 359.426,14.716 360.5,16.5C 351.13,22.8463 341.796,29.1796 332.5,35.5C 342.967,30.0996 353.3,24.4329 363.5,18.5C 364.117,18.6107 364.617,18.944 365,19.5C 365.667,22.1667 365.667,24.8333 365,27.5C 360.063,36.2577 354.563,44.591 348.5,52.5C 347.833,52.5 347.5,52.8333 347.5,53.5C 346.833,53.5 346.5,53.8333 346.5,54.5C 332.311,62.7574 318.645,71.7574 305.5,81.5C 318.167,74.5 330.833,67.5 343.5,60.5C 327.165,82.3412 310.998,104.341 295,126.5C 287.794,136.912 281.627,147.912 276.5,159.5C 275.5,159.833 274.833,160.5 274.5,161.5C 275.167,161.5 275.833,161.5 276.5,161.5C 277.434,162.568 277.768,163.901 277.5,165.5C 281.042,165.187 284.375,165.521 287.5,166.5C 285.77,167.026 284.436,168.026 283.5,169.5C 285.674,169.25 287.341,168.25 288.5,166.5C 295.87,164.359 303.203,164.026 310.5,165.5C 296.5,176.167 282.5,186.833 268.5,197.5C 287.5,187.336 306.167,176.669 324.5,165.5C 329.446,165.262 333.779,166.596 337.5,169.5C 320.833,181.5 304.167,193.5 287.5,205.5C 304.816,195.861 322.15,186.195 339.5,176.5C 338.453,180.261 336.619,183.594 334,186.5C 328.267,193.735 321.767,200.068 314.5,205.5C 313.833,205.5 313.5,205.833 313.5,206.5C 306.887,210.45 300.554,214.783 294.5,219.5C 299.167,217.167 303.833,214.833 308.5,212.5C 299.715,222.537 291.715,232.537 284.5,242.5C 281.181,247.236 282.181,250.57 287.5,252.5C 286.5,252.833 285.833,253.5 285.5,254.5C 287.027,254.573 288.027,253.906 288.5,252.5C 295.167,252.5 301.833,252.5 308.5,252.5C 308.833,253.833 309.167,253.833 309.5,252.5C 316.791,251.608 324.124,251.274 331.5,251.5C 320.684,260.739 309.684,269.739 298.5,278.5C 314.664,270.255 330.331,261.255 345.5,251.5C 353.213,249.887 360.38,251.22 367,255.5C 367.667,257.5 367.667,259.5 367,261.5C 364.628,263.703 362.461,266.037 360.5,268.5C 348.807,276.011 337.474,284.011 326.5,292.5C 335.634,287.766 344.634,282.766 353.5,277.5C 341.115,294.945 327.781,311.611 313.5,327.5C 312.833,327.5 312.5,327.833 312.5,328.5C 308.808,330.344 305.475,332.677 302.5,335.5C 305.648,334.424 308.648,333.091 311.5,331.5C 270.833,383.004 230.333,434.671 190,486.5C 186.227,490.115 182.06,493.115 177.5,495.5C 176.558,495.392 175.725,495.059 175,494.5C 174.479,486.273 176.312,478.606 180.5,471.5C 184.127,469.206 187.461,466.54 190.5,463.5C 187.648,465.091 184.648,466.424 181.5,467.5C 184.368,458.756 187.535,450.09 191,441.5C 192.274,438.609 193.774,435.942 195.5,433.5C 196.5,433.167 197.167,432.5 197.5,431.5C 196.833,431.5 196.167,431.5 195.5,431.5C 202.232,414.593 209.899,398.259 218.5,382.5C 227.716,376.065 236.716,369.399 245.5,362.5C 237.032,366.901 228.699,371.568 220.5,376.5C 224.883,364.665 230.217,353.332 236.5,342.5C 237.167,342.5 237.5,342.167 237.5,341.5C 248.369,334.901 258.702,327.568 268.5,319.5C 258.7,324.567 249.033,329.901 239.5,335.5C 243.009,326.309 246.676,317.142 250.5,308C 250.011,306.862 249.678,305.695 249.5,304.5C 256.814,299.182 263.814,293.516 270.5,287.5C 261.499,291.998 252.832,296.998 244.5,302.5C 238.884,301.46 233.217,300.793 227.5,300.5C 227.167,299.167 226.833,299.167 226.5,300.5C 219.557,301.427 212.557,301.76 205.5,301.5C 206.167,300.5 206.833,299.5 207.5,298.5C 205.181,298.992 203.181,299.992 201.5,301.5C 194.371,302.777 187.371,302.777 180.5,301.5C 189.8,295.523 198.8,289.19 207.5,282.5C 196.502,287.997 185.835,293.997 175.5,300.5C 173.589,300.426 172.422,299.426 172,297.5C 171.068,294.177 171.568,291.177 173.5,288.5C 187.377,279.401 201.044,270.068 214.5,260.5C 201.85,267.472 189.184,274.472 176.5,281.5C 178.944,273.666 183.278,266.666 189.5,260.5C 203.133,251.523 216.466,242.19 229.5,232.5C 217.993,239.088 206.326,245.421 194.5,251.5C 199.34,243.148 204.673,235.148 210.5,227.5C 216.475,223.519 222.142,219.186 227.5,214.5C 222.368,216.9 217.368,219.566 212.5,222.5C 213.368,218.192 213.534,213.859 213,209.5C 207.456,208.172 201.956,207.172 196.5,206.5C 203.718,201.398 210.718,196.064 217.5,190.5C 207.332,195.413 197.666,201.08 188.5,207.5C 181.847,208.166 175.18,208.833 168.5,209.5C 167.274,209.48 166.274,209.147 165.5,208.5C 170.132,205.857 174.465,202.857 178.5,199.5C 172.835,201.997 167.502,204.997 162.5,208.5C 145.753,210.24 140.586,203.24 147,187.5C 151.512,179.806 156.012,172.139 160.5,164.5C 161.167,164.5 161.5,164.167 161.5,163.5C 175.833,154.167 190.167,144.833 204.5,135.5C 203.322,140.191 201.322,144.524 198.5,148.5C 199.54,150.375 201.04,151.708 203,152.5C 209.25,149.02 213.916,144.02 217,137.5C 229.822,112.373 241.488,86.706 252,60.5C 254.785,54.427 257.952,48.5936 261.5,43C 260.418,41.6703 259.751,40.1703 259.5,38.5C 274.998,30.5878 289.998,21.9211 304.5,12.5C 311.457,11.6136 318.457,11.2803 325.5,11.5 Z M 325.5,11.5 C 326.167,11.5 326.833,11.5 327.5,11.5C 327.027,12.9063 326.027,13.573 324.5,13.5C 324.833,12.8333 325.167,12.1667 325.5,11.5 Z M 332.5,35.5 C 332.027,36.9063 331.027,37.573 329.5,37.5C 329.973,36.0937 330.973,35.427 332.5,35.5 Z M 310.5,165.5 C 315.167,165.5 319.833,165.5 324.5,165.5C 306.167,176.669 287.5,187.336 268.5,197.5C 282.5,186.833 296.5,176.167 310.5,165.5 Z M 287.5,166.5 C 287.833,166.5 288.167,166.5 288.5,166.5C 287.341,168.25 285.674,169.25 283.5,169.5C 284.436,168.026 285.77,167.026 287.5,166.5 Z M 217.5,190.5 C 210.718,196.064 203.718,201.398 196.5,206.5C 193.946,207.388 191.279,207.721 188.5,207.5C 197.666,201.08 207.332,195.413 217.5,190.5 Z M 178.5,199.5 C 174.465,202.857 170.132,205.857 165.5,208.5C 164.5,208.5 163.5,208.5 162.5,208.5C 167.502,204.997 172.835,201.997 178.5,199.5 Z M 287.5,205.5 C 287.027,206.906 286.027,207.573 284.5,207.5C 284.973,206.094 285.973,205.427 287.5,205.5 Z M 294.5,219.5 C 294.027,220.906 293.027,221.573 291.5,221.5C 291.973,220.094 292.973,219.427 294.5,219.5 Z M 345.5,251.5 C 330.331,261.255 314.664,270.255 298.5,278.5C 309.684,269.739 320.684,260.739 331.5,251.5C 336.355,250.953 341.022,250.953 345.5,251.5 Z M 287.5,252.5 C 287.833,252.5 288.167,252.5 288.5,252.5C 288.027,253.906 287.027,254.573 285.5,254.5C 285.833,253.5 286.5,252.833 287.5,252.5 Z M 217.5,258.5 C 217.027,259.906 216.027,260.573 214.5,260.5C 214.973,259.094 215.973,258.427 217.5,258.5 Z M 210.5,280.5 C 210.027,281.906 209.027,282.573 207.5,282.5C 207.973,281.094 208.973,280.427 210.5,280.5 Z M 210.5,296.5 C 210.027,297.906 209.027,298.573 207.5,298.5C 207.973,297.094 208.973,296.427 210.5,296.5 Z M 207.5,298.5 C 206.833,299.5 206.167,300.5 205.5,301.5C 204.167,301.5 202.833,301.5 201.5,301.5C 203.181,299.992 205.181,298.992 207.5,298.5 Z M 271.5,317.5 C 271.027,318.906 270.027,319.573 268.5,319.5C 268.973,318.094 269.973,317.427 271.5,317.5 Z"/></g>
<g><path style="opacity:0.962" fill="#faca53" d="M 240.5,12.5 C 238.891,13.8979 238.058,15.5646 238,17.5C 240.326,15.9343 242.492,14.2676 244.5,12.5C 251.022,12.1765 257.355,12.5098 263.5,13.5C 260.694,16.7279 257.694,19.7279 254.5,22.5C 259.5,20.3357 264.167,17.669 268.5,14.5C 275.777,13.5696 283.11,13.2363 290.5,13.5C 280.35,22.0732 270.016,30.4066 259.5,38.5C 254.578,38.8995 250.745,41.2328 248,45.5C 245,50.5 242,55.5 239,60.5C 227.722,84.8552 216.556,109.189 205.5,133.5C 204.833,133.5 204.5,133.833 204.5,134.5C 190.699,141.901 177.032,149.568 163.5,157.5C 169.36,145.915 175.027,134.248 180.5,122.5C 181.167,122.5 181.5,122.167 181.5,121.5C 187.053,118.898 192.053,115.564 196.5,111.5C 191.833,113.833 187.167,116.167 182.5,118.5C 190.111,99.946 198.778,81.946 208.5,64.5C 209.167,64.5 209.5,64.1667 209.5,63.5C 214.413,60.8817 218.746,57.5484 222.5,53.5C 218.272,55.0661 214.272,57.0661 210.5,59.5C 217.084,45.6016 223.584,31.6016 230,17.5C 232.55,13.8083 236.05,12.1416 240.5,12.5 Z M 240.5,12.5 C 241.833,12.5 243.167,12.5 244.5,12.5C 242.492,14.2676 240.326,15.9343 238,17.5C 238.058,15.5646 238.891,13.8979 240.5,12.5 Z M 263.5,13.5 C 265.216,13.6287 266.883,13.962 268.5,14.5C 264.167,17.669 259.5,20.3357 254.5,22.5C 257.694,19.7279 260.694,16.7279 263.5,13.5 Z M 199.5,109.5 C 199.027,110.906 198.027,111.573 196.5,111.5C 196.973,110.094 197.973,109.427 199.5,109.5 Z"/></g>
<g><path style="opacity:0.999" fill="#292826" d="M 259.5,38.5 C 259.751,40.1703 260.418,41.6703 261.5,43C 257.952,48.5936 254.785,54.427 252,60.5C 241.488,86.706 229.822,112.373 217,137.5C 213.916,144.02 209.25,149.02 203,152.5C 201.04,151.708 199.54,150.375 198.5,148.5C 201.322,144.524 203.322,140.191 204.5,135.5C 204.5,135.167 204.5,134.833 204.5,134.5C 205.167,134.5 205.5,134.167 205.5,133.5C 216.556,109.189 227.722,84.8552 239,60.5C 242,55.5 245,50.5 248,45.5C 250.745,41.2328 254.578,38.8995 259.5,38.5 Z"/></g>
<g><path style="opacity:0.051" fill="#dcb843" d="M 314.5,118.5 C 314.573,120.027 313.906,121.027 312.5,121.5C 311.984,120.242 312.65,119.242 314.5,118.5 Z"/></g>
</svg>
