<?xml version="1.0" encoding="UTF-8"?>
<!DOCTYPE svg PUBLIC "-//W3C//DTD SVG 1.1//EN" "http://www.w3.org/Graphics/SVG/1.1/DTD/svg11.dtd">
<svg xmlns="http://www.w3.org/2000/svg" version="1.1" width="512px" height="512px" style="shape-rendering:geometricPrecision; text-rendering:geometricPrecision; image-rendering:optimizeQuality; fill-rule:evenodd; clip-rule:evenodd" xmlns:xlink="http://www.w3.org/1999/xlink">
<g><path style="opacity:0.976" fill="#272626" d="M 38.5,-0.5 C 45.8333,-0.5 53.1667,-0.5 60.5,-0.5C 63.6414,0.321287 66.9748,0.821287 70.5,1C 203.842,1.63154 337.175,1.63154 470.5,1C 482.33,0.656667 492.496,4.49 501,12.5C 505.437,19.844 507.27,27.844 506.5,36.5C 505.167,38.5 505.167,40.5 506.5,42.5C 506.5,45.1667 506.5,47.8333 506.5,50.5C 505.167,52.5 505.167,54.5 506.5,56.5C 506.5,60.5 506.5,64.5 506.5,68.5C 505.167,70.5 505.167,72.5 506.5,74.5C 506.5,78.1667 506.5,81.8333 506.5,85.5C 505.167,87.5 505.167,89.5 506.5,91.5C 506.5,94.8333 506.5,98.1667 506.5,101.5C 505.167,103.5 505.167,105.5 506.5,107.5C 506.5,110.167 506.5,112.833 506.5,115.5C 505.167,117.5 505.167,119.5 506.5,121.5C 506.5,123.5 506.5,125.5 506.5,127.5C 505.167,129.167 505.167,130.833 506.5,132.5C 506.5,134.167 506.5,135.833 506.5,137.5C 505.167,139.5 505.167,141.5 506.5,143.5C 506.5,147.5 506.5,151.5 506.5,155.5C 505.167,157.167 505.167,158.833 506.5,160.5C 506.5,163.833 506.5,167.167 506.5,170.5C 505.167,172.5 505.167,174.5 506.5,176.5C 506.5,178.5 506.5,180.5 506.5,182.5C 505.167,184.5 505.167,186.5 506.5,188.5C 506.5,190.167 506.5,191.833 506.5,193.5C 505.167,195.167 505.167,196.833 506.5,198.5C 506.5,202.5 506.5,206.5 506.5,210.5C 505.167,212.5 505.167,214.5 506.5,216.5C 506.5,218.833 506.5,221.167 506.5,223.5C 505.167,225.167 505.167,226.833 506.5,228.5C 506.5,232.167 506.5,235.833 506.5,239.5C 505.167,241.5 505.167,243.5 506.5,245.5C 506.5,247.167 506.5,248.833 506.5,250.5C 505.167,252.5 505.167,254.5 506.5,256.5C 506.5,259.833 506.5,263.167 506.5,266.5C 505.167,268.5 505.167,270.5 506.5,272.5C 506.5,274.833 506.5,277.167 506.5,279.5C 505.167,281.5 505.167,283.5 506.5,285.5C 506.5,288.833 506.5,292.167 506.5,295.5C 505.167,297.5 505.167,299.5 506.5,301.5C 506.5,305.833 506.5,310.167 506.5,314.5C 505.167,316.5 505.167,318.5 506.5,320.5C 506.5,322.5 506.5,324.5 506.5,326.5C 505.167,328.167 505.167,329.833 506.5,331.5C 506.5,334.167 506.5,336.833 506.5,339.5C 505.167,341.5 505.167,343.5 506.5,345.5C 506.5,349.5 506.5,353.5 506.5,357.5C 505.167,359.167 505.167,360.833 506.5,362.5C 506.5,365.833 506.5,369.167 506.5,372.5C 505.167,374.5 505.167,376.5 506.5,378.5C 506.5,382.833 506.5,387.167 506.5,391.5C 505.167,393.5 505.167,395.5 506.5,397.5C 506.5,400.833 506.5,404.167 506.5,407.5C 505.167,409.5 505.167,411.5 506.5,413.5C 506.5,416.167 506.5,418.833 506.5,421.5C 505.167,423.5 505.167,425.5 506.5,427.5C 506.5,431.167 506.5,434.833 506.5,438.5C 505.167,440.5 505.167,442.5 506.5,444.5C 506.5,446.5 506.5,448.5 506.5,450.5C 505.167,452.5 505.167,454.5 506.5,456.5C 506.5,459.5 506.5,462.5 506.5,465.5C 505.167,467.5 505.167,469.5 506.5,471.5C 507.787,478.507 507.787,485.507 506.5,492.5C 501.652,499.084 495.319,503.417 487.5,505.5C 482.133,506.4 476.8,506.4 471.5,505.5C 469.5,504.167 467.5,504.167 465.5,505.5C 463.358,505.31 461.025,505.144 458.5,505C 455.305,502.492 451.805,501.658 448,502.5C 442.858,499.339 437.358,498.006 431.5,498.5C 429.998,497.917 428.665,497.084 427.5,496C 416.666,493.288 405.666,490.954 394.5,489C 369.641,481.452 344.307,475.119 318.5,470C 313.592,467.224 308.259,465.891 302.5,466C 292.435,460.577 287.268,452.077 287,440.5C 286.554,419.957 287.388,399.457 289.5,379C 288.874,348.335 289.207,317.668 290.5,287C 289.604,239.453 287.604,191.953 284.5,144.5C 283.955,130.722 286.788,117.722 293,105.5C 299.021,97.8182 306.521,91.9848 315.5,88C 325.341,83.6085 335.341,79.6085 345.5,76C 376.637,66.0656 407.637,55.7322 438.5,45C 433.511,44.5007 428.511,44.3341 423.5,44.5C 420.5,43.1667 417.5,43.1667 414.5,44.5C 410.167,44.5 405.833,44.5 401.5,44.5C 398.5,43.1667 395.5,43.1667 392.5,44.5C 388.5,44.5 384.5,44.5 380.5,44.5C 377.5,43.1667 374.5,43.1667 371.5,44.5C 366.5,44.5 361.5,44.5 356.5,44.5C 353.167,43.1667 349.833,43.1667 346.5,44.5C 338.5,44.5 330.5,44.5 322.5,44.5C 319.5,43.1667 316.5,43.1667 313.5,44.5C 305.833,44.5 298.167,44.5 290.5,44.5C 287.5,43.1667 284.5,43.1667 281.5,44.5C 273.5,44.5 265.5,44.5 257.5,44.5C 254.167,43.1667 250.833,43.1667 247.5,44.5C 240.833,44.5 234.167,44.5 227.5,44.5C 224.5,43.1667 221.5,43.1667 218.5,44.5C 210.833,44.5 203.167,44.5 195.5,44.5C 192.167,43.1667 188.833,43.1667 185.5,44.5C 178.833,44.5 172.167,44.5 165.5,44.5C 162.167,43.1667 158.833,43.1667 155.5,44.5C 151.5,44.5 147.5,44.5 143.5,44.5C 140.167,43.1667 136.833,43.1667 133.5,44.5C 125.833,44.5 118.167,44.5 110.5,44.5C 107.167,43.1667 103.833,43.1667 100.5,44.5C 97.5,44.5 94.5,44.5 91.5,44.5C 88.1667,43.1667 84.8333,43.1667 81.5,44.5C 77.4862,44.3345 73.4862,44.5012 69.5,45C 73.5,46.6667 77.5,48.3333 81.5,50C 111.5,59.3333 141.5,68.6667 171.5,78C 188.634,83.1432 203.467,91.9765 216,104.5C 216.436,106.847 216.936,109.181 217.5,111.5C 215.875,114.235 215.208,117.235 215.5,120.5C 215.5,122.833 215.5,125.167 215.5,127.5C 215.5,130.833 215.5,134.167 215.5,137.5C 214.167,139.833 214.167,142.167 215.5,144.5C 215.5,145.833 215.5,147.167 215.5,148.5C 214.167,151.167 214.167,153.833 215.5,156.5C 215.5,157.833 215.5,159.167 215.5,160.5C 214.167,163.167 214.167,165.833 215.5,168.5C 215.5,170.5 215.5,172.5 215.5,174.5C 214.167,176.833 214.167,179.167 215.5,181.5C 215.001,187.069 215.668,192.403 217.5,197.5C 216.533,199.762 215.866,202.095 215.5,204.5C 215.5,206.833 215.5,209.167 215.5,211.5C 215.5,213.833 215.5,216.167 215.5,218.5C 215.205,220.735 215.539,222.735 216.5,224.5C 216.929,260.708 217.595,297.041 218.5,333.5C 218.121,353.848 217.455,374.182 216.5,394.5C 216.67,396.529 217.004,398.529 217.5,400.5C 215.847,405.36 215.18,410.36 215.5,415.5C 214.527,417.948 214.194,420.615 214.5,423.5C 214.5,425.5 214.5,427.5 214.5,429.5C 212.864,433.21 212.198,437.21 212.5,441.5C 212.5,443.5 212.5,445.5 212.5,447.5C 210.918,450.876 210.251,454.542 210.5,458.5C 210.719,459.675 210.386,460.675 209.5,461.5C 206.904,462.482 204.238,463.149 201.5,463.5C 195.382,464.407 189.382,465.741 183.5,467.5C 171.123,470.678 158.79,474.011 146.5,477.5C 139.761,477.851 133.094,479.518 126.5,482.5C 116.963,485.567 107.297,488.233 97.5,490.5C 92.1471,491.414 87.1471,493.081 82.5,495.5C 69.3285,499.46 55.9952,502.793 42.5,505.5C 39.8478,505.41 37.5145,506.076 35.5,507.5C 29.8333,507.5 24.1667,507.5 18.5,507.5C 16.7857,506.262 14.7857,505.595 12.5,505.5C 5.43523,501.038 1.1019,494.704 -0.5,486.5C -0.5,332.5 -0.5,178.5 -0.5,24.5C 7.74292,8.87154 20.7429,0.53821 38.5,-0.5 Z M 399.5,7.5 C 389.838,13.6368 380.005,19.6368 370,25.5C 369.333,24.8333 369.333,24.1667 370,23.5C 374.002,18.8207 377.502,13.8207 380.5,8.5C 386.878,8.7054 393.211,8.37206 399.5,7.5 Z M 413.5,7.5 C 417.167,7.5 420.833,7.5 424.5,7.5C 419.498,11.0031 414.165,14.0031 408.5,16.5C 411.442,14.2207 413.109,11.2207 413.5,7.5 Z M 438.5,7.5 C 440.216,7.62867 441.883,7.962 443.5,8.5C 441.664,10.588 439.331,11.9213 436.5,12.5C 437.441,10.9505 438.107,9.2838 438.5,7.5 Z M 35.5,9.5 C 39.5,9.5 43.5,9.5 47.5,9.5C 41.4303,13.558 35.097,17.2247 28.5,20.5C 31.083,17.0026 33.4164,13.3359 35.5,9.5 Z M 362.5,9.5 C 354.836,14.668 346.836,19.3347 338.5,23.5C 341.243,19.0214 344.243,14.688 347.5,10.5C 352.527,10.4971 357.527,10.1637 362.5,9.5 Z M 458.5,9.5 C 459.833,9.83333 461.167,10.1667 462.5,10.5C 460.819,12.0075 458.819,13.0075 456.5,13.5C 457.6,12.3951 458.267,11.0618 458.5,9.5 Z M 82.5,10.5 C 87.1667,10.5 91.8333,10.5 96.5,10.5C 82.8335,19.0024 68.8335,27.0024 54.5,34.5C 64.1278,26.8744 73.4611,18.8744 82.5,10.5 Z M 115.5,10.5 C 120.167,10.5 124.833,10.5 129.5,10.5C 121.782,15.5302 113.782,20.1969 105.5,24.5C 108.453,19.5497 111.786,14.883 115.5,10.5 Z M 167.5,10.5 C 172.167,10.5 176.833,10.5 181.5,10.5C 173.837,15.3033 166.004,19.97 158,24.5C 157.333,23.8333 157.333,23.1667 158,22.5C 161.411,18.6006 164.578,14.6006 167.5,10.5 Z M 199.5,10.5 C 200.833,10.5 202.167,10.5 203.5,10.5C 201.337,12.0828 199.004,13.4161 196.5,14.5C 197.5,13.1667 198.5,11.8333 199.5,10.5 Z M 221.5,10.5 C 225.5,10.5 229.5,10.5 233.5,10.5C 226.996,15.2552 219.996,19.2552 212.5,22.5C 215.524,18.4815 218.524,14.4815 221.5,10.5 Z M 252.5,10.5 C 257.167,10.5 261.833,10.5 266.5,10.5C 259.095,15.2256 251.428,19.5589 243.5,23.5C 246.085,18.9092 249.085,14.5758 252.5,10.5 Z M 284.5,10.5 C 288.371,10.185 292.038,10.5184 295.5,11.5C 289.5,14.5 283.5,17.5 277.5,20.5C 279.808,17.1847 282.141,13.8514 284.5,10.5 Z M 313.5,11.5 C 318.167,11.5 322.833,11.5 327.5,11.5C 320.095,16.2256 312.428,20.5589 304.5,24.5C 307.11,19.8911 310.11,15.5578 313.5,11.5 Z M 477.5,14.5 C 478.167,14.5 478.5,14.8333 478.5,15.5C 477.486,16.6737 476.153,17.3404 474.5,17.5C 475.167,16.1667 476.167,15.1667 477.5,14.5 Z M 290.5,25.5 C 288.748,28.672 286.748,31.672 284.5,34.5C 281.5,34.5 278.5,34.5 275.5,34.5C 279.995,30.7487 284.995,27.7487 290.5,25.5 Z M 356.5,25.5 C 354.518,28.8103 352.185,31.8103 349.5,34.5C 346.5,34.5 343.5,34.5 340.5,34.5C 345.502,30.9969 350.835,27.9969 356.5,25.5 Z M 90.5,26.5 C 88.5,29.5 86.5,32.5 84.5,35.5C 81.1667,35.5 77.8333,35.5 74.5,35.5C 79.5016,31.9969 84.835,28.9969 90.5,26.5 Z M 142.5,26.5 C 140.5,29.5 138.5,32.5 136.5,35.5C 133.167,35.5 129.833,35.5 126.5,35.5C 131.502,31.9969 136.835,28.9969 142.5,26.5 Z M 227.5,26.5 C 225.853,29.4735 223.853,32.1401 221.5,34.5C 218.833,34.5 216.167,34.5 213.5,34.5C 217.833,31.331 222.5,28.6643 227.5,26.5 Z M 322.5,26.5 C 320.853,29.4735 318.853,32.1401 316.5,34.5C 313.833,34.5 311.167,34.5 308.5,34.5C 312.833,31.331 317.5,28.6643 322.5,26.5 Z M 189.5,35.5 C 186.833,35.5 184.167,35.5 181.5,35.5C 185.808,32.1816 190.474,29.6816 195.5,28C 192.906,30.0865 190.906,32.5865 189.5,35.5 Z M 256.5,28.5 C 254.833,30.5 253.167,32.5 251.5,34.5C 249.833,34.5 248.167,34.5 246.5,34.5C 249.494,32.0002 252.827,30.0002 256.5,28.5 Z M 377.5,32.5 C 376.833,33.5 376.167,34.5 375.5,35.5C 374.5,35.5 373.5,35.5 372.5,35.5C 373.899,34.1103 375.566,33.1103 377.5,32.5 Z M 445.5,32.5 C 444.5,33.8333 443.5,35.1667 442.5,36.5C 441.209,36.7373 440.209,36.404 439.5,35.5C 441.216,33.9752 443.216,32.9752 445.5,32.5 Z M 467.5,36.5 C 466.167,36.5 464.833,36.5 463.5,36.5C 465.331,34.2513 467.664,33.0846 470.5,33C 469.29,34.0391 468.29,35.2058 467.5,36.5 Z M 24.5,45.5 C 20.4851,49.5126 16.1518,53.1793 11.5,56.5C 11.5,55.1667 11.5,53.8333 11.5,52.5C 15.701,49.8998 20.0344,47.5665 24.5,45.5 Z M 457.5,49.5 C 455.046,50.2271 452.713,51.2271 450.5,52.5C 450.5,51.5 450.5,50.5 450.5,49.5C 452.84,48.914 455.007,47.914 457,46.5C 457.483,47.448 457.649,48.448 457.5,49.5 Z M 71.5,57.5 C 72.4916,57.3284 73.1583,57.6618 73.5,58.5C 72.4863,59.6737 71.153,60.3404 69.5,60.5C 70.1667,59.5 70.8333,58.5 71.5,57.5 Z M 412.5,63.5 C 395.501,74.0019 378.168,84.0019 360.5,93.5C 365.982,88.1627 371.816,83.1627 378,78.5C 379.519,76.8608 379.686,75.1942 378.5,73.5C 389.733,69.858 401.067,66.5246 412.5,63.5 Z M 99.5,67.5 C 100.5,67.5 101.5,67.5 102.5,67.5C 99.7598,69.5595 96.7598,71.2262 93.5,72.5C 94.8908,70.1097 96.8908,68.4431 99.5,67.5 Z M 458.5,72.5 C 458.5,73.5 458.5,74.5 458.5,75.5C 452.5,78.5 446.5,81.5 440.5,84.5C 446.148,80.0068 452.148,76.0068 458.5,72.5 Z M 128.5,77.5 C 130.786,77.595 132.786,78.2616 134.5,79.5C 125.167,84.5 115.833,89.5 106.5,94.5C 113.238,88.0992 120.571,82.4325 128.5,77.5 Z M 146.5,83.5 C 149.397,84.129 152.064,85.129 154.5,86.5C 140.166,95.336 125.5,103.669 110.5,111.5C 122.214,101.785 134.214,92.4513 146.5,83.5 Z M 349.5,83.5 C 338.998,90.588 327.998,96.9214 316.5,102.5C 317.63,100.685 318.296,98.6854 318.5,96.5C 328.495,91.3353 338.828,87.002 349.5,83.5 Z M 440.5,84.5 C 440.027,85.9063 439.027,86.573 437.5,86.5C 437.973,85.0937 438.973,84.427 440.5,84.5 Z M 458.5,88.5 C 458.5,89.5 458.5,90.5 458.5,91.5C 450.301,96.4322 441.968,101.099 433.5,105.5C 441.536,99.4752 449.87,93.8085 458.5,88.5 Z M 167.5,90.5 C 169.421,91.3627 171.421,92.0293 173.5,92.5C 160.501,100.669 147.168,108.335 133.5,115.5C 144.833,107.167 156.167,98.8333 167.5,90.5 Z M 106.5,94.5 C 106.027,95.9063 105.027,96.573 103.5,96.5C 103.973,95.0937 104.973,94.427 106.5,94.5 Z M 473.5,95.5 C 473.167,96.5 472.5,97.1667 471.5,97.5C 471.5,96.1667 472.167,95.5 473.5,95.5 Z M 14.5,96.5 C 13.8333,97.8333 12.8333,98.8333 11.5,99.5C 11.5,98.8333 11.5,98.1667 11.5,97.5C 12.391,96.8902 13.391,96.5569 14.5,96.5 Z M 186.5,97.5 C 188.579,97.9707 190.579,98.6373 192.5,99.5C 176.337,109.083 160.004,118.416 143.5,127.5C 157.621,117.266 171.955,107.266 186.5,97.5 Z M 458.5,105.5 C 458.5,106.833 458.5,108.167 458.5,109.5C 448.327,115.421 437.994,121.087 427.5,126.5C 437.537,119.142 447.87,112.142 458.5,105.5 Z M 199.5,108.5 C 199.433,109.959 199.766,111.292 200.5,112.5C 187.635,120.099 174.635,127.432 161.5,134.5C 173.811,125.342 186.478,116.675 199.5,108.5 Z M 110.5,111.5 C 110.027,112.906 109.027,113.573 107.5,113.5C 107.973,112.094 108.973,111.427 110.5,111.5 Z M 133.5,115.5 C 133.027,116.906 132.027,117.573 130.5,117.5C 130.973,116.094 131.973,115.427 133.5,115.5 Z M 312.5,117.5 C 309.48,120.516 306.146,123.183 302.5,125.5C 302.443,124.391 302.11,123.391 301.5,122.5C 305.017,120.576 308.684,118.909 312.5,117.5 Z M 55.5,119.5 C 52.8103,122.185 49.8103,124.518 46.5,126.5C 46.281,125.325 46.6143,124.325 47.5,123.5C 49.9553,121.703 52.622,120.37 55.5,119.5 Z M 458.5,122.5 C 458.5,123.833 458.5,125.167 458.5,126.5C 448.833,132.669 438.833,138.336 428.5,143.5C 438.463,136.513 448.463,129.513 458.5,122.5 Z M 72.5,126.5 C 72.0269,127.906 71.0269,128.573 69.5,128.5C 69.9731,127.094 70.9731,126.427 72.5,126.5 Z M 14.5,128.5 C 13.8333,129.833 12.8333,130.833 11.5,131.5C 11.5,130.833 11.5,130.167 11.5,129.5C 12.391,128.89 13.391,128.557 14.5,128.5 Z M 69.5,128.5 C 62.1609,134.601 54.6609,140.601 47,146.5C 46.7216,145.584 46.2216,144.918 45.5,144.5C 45.5,143.5 45.5,142.5 45.5,141.5C 53.517,137.138 61.517,132.805 69.5,128.5 Z M 201.5,137.5 C 201.5,138.833 201.5,140.167 201.5,141.5C 192.634,146.766 183.634,151.766 174.5,156.5C 183.287,149.933 192.287,143.6 201.5,137.5 Z M 338.5,139.5 C 338.027,140.906 337.027,141.573 335.5,141.5C 335.973,140.094 336.973,139.427 338.5,139.5 Z M 458.5,140.5 C 459.11,141.391 459.443,142.391 459.5,143.5C 451.068,148.597 442.402,153.264 433.5,157.5C 441.536,151.475 449.87,145.809 458.5,140.5 Z M 335.5,141.5 C 325.024,149.575 314.024,156.908 302.5,163.5C 302.5,162.167 302.5,160.833 302.5,159.5C 313.367,153.234 324.367,147.234 335.5,141.5 Z M 69.5,147.5 C 69.0269,148.906 68.0269,149.573 66.5,149.5C 66.9731,148.094 67.9731,147.427 69.5,147.5 Z M 66.5,149.5 C 60.3392,154.843 53.8392,159.843 47,164.5C 46.51,163.207 46.3433,161.873 46.5,160.5C 52.8727,156.313 59.5393,152.647 66.5,149.5 Z M 342.5,153.5 C 342.027,154.906 341.027,155.573 339.5,155.5C 339.973,154.094 340.973,153.427 342.5,153.5 Z M 339.5,155.5 C 327.463,164.192 315.13,172.525 302.5,180.5C 302.5,178.833 302.5,177.167 302.5,175.5C 314.833,168.833 327.167,162.167 339.5,155.5 Z M 174.5,156.5 C 174.027,157.906 173.027,158.573 171.5,158.5C 171.973,157.094 172.973,156.427 174.5,156.5 Z M 433.5,157.5 C 433.027,158.906 432.027,159.573 430.5,159.5C 430.973,158.094 431.973,157.427 433.5,157.5 Z M 75.5,161.5 C 75.0269,162.906 74.0269,163.573 72.5,163.5C 72.9731,162.094 73.9731,161.427 75.5,161.5 Z M 72.5,163.5 C 64.1902,169.99 55.5235,175.99 46.5,181.5C 46.5,180.167 46.5,178.833 46.5,177.5C 55.1936,172.821 63.8603,168.154 72.5,163.5 Z M 347.5,167.5 C 347.027,168.906 346.027,169.573 344.5,169.5C 344.973,168.094 345.973,167.427 347.5,167.5 Z M 344.5,169.5 C 330.537,179.154 316.537,188.821 302.5,198.5C 302.5,196.5 302.5,194.5 302.5,192.5C 316.5,184.833 330.5,177.167 344.5,169.5 Z M 78.5,177.5 C 78.0269,178.906 77.0269,179.573 75.5,179.5C 75.9731,178.094 76.9731,177.427 78.5,177.5 Z M 202.5,177.5 C 201.341,179.25 199.674,180.25 197.5,180.5C 198.659,178.75 200.326,177.75 202.5,177.5 Z M 75.5,179.5 C 65.8872,186.98 55.8872,193.98 45.5,200.5C 45.5,199.833 45.5,199.167 45.5,198.5C 46.404,197.791 46.7373,196.791 46.5,195.5C 56.0331,189.901 65.6997,184.567 75.5,179.5 Z M 15.5,183.5 C 14.5,185.167 13.1667,186.5 11.5,187.5C 11.5,186.5 11.5,185.5 11.5,184.5C 12.8333,184.167 14.1667,183.833 15.5,183.5 Z M 348.5,184.5 C 333.044,195.401 317.377,206.068 301.5,216.5C 301.5,214.5 301.5,212.5 301.5,210.5C 317.167,201.833 332.833,193.167 348.5,184.5 Z M 203.5,190.5 C 203.5,192.833 203.5,195.167 203.5,197.5C 185.968,207.765 168.302,217.765 150.5,227.5C 167.867,214.81 185.534,202.476 203.5,190.5 Z M 458.5,200.5 C 459.338,200.842 459.672,201.508 459.5,202.5C 454.833,204.833 450.167,207.167 445.5,209.5C 449.535,206.143 453.868,203.143 458.5,200.5 Z M 11.5,202.5 C 12.1667,202.5 12.8333,202.5 13.5,202.5C 13.1667,203.5 12.5,204.167 11.5,204.5C 11.5,203.833 11.5,203.167 11.5,202.5 Z M 342.5,205.5 C 342.027,206.906 341.027,207.573 339.5,207.5C 339.973,206.094 340.973,205.427 342.5,205.5 Z M 339.5,207.5 C 327.218,216.648 314.551,225.315 301.5,233.5C 301.5,231.833 301.5,230.167 301.5,228.5C 314.184,221.472 326.85,214.472 339.5,207.5 Z M 75.5,209.5 C 75.0269,210.906 74.0269,211.573 72.5,211.5C 72.9731,210.094 73.9731,209.427 75.5,209.5 Z M 72.5,211.5 C 64.132,217.857 55.4654,223.857 46.5,229.5C 45.596,228.791 45.2627,227.791 45.5,226.5C 54.366,221.234 63.366,216.234 72.5,211.5 Z M 459.5,215.5 C 459.5,217.5 459.5,219.5 459.5,221.5C 445.301,229.766 430.968,237.766 416.5,245.5C 430.621,235.266 444.955,225.266 459.5,215.5 Z M 203.5,219.5 C 203.5,220.167 203.5,220.833 203.5,221.5C 201.95,222.441 200.284,223.107 198.5,223.5C 199.945,221.937 201.611,220.604 203.5,219.5 Z M 198.5,223.5 C 198.027,224.906 197.027,225.573 195.5,225.5C 195.973,224.094 196.973,223.427 198.5,223.5 Z M 203.5,234.5 C 203.5,236.167 203.5,237.833 203.5,239.5C 196.403,243.93 189.069,247.93 181.5,251.5C 181.5,250.5 181.5,249.5 181.5,248.5C 188.583,243.412 195.917,238.745 203.5,234.5 Z M 459.5,234.5 C 459.5,236.167 459.5,237.833 459.5,239.5C 449.5,244.833 439.5,250.167 429.5,255.5C 439.463,248.513 449.463,241.513 459.5,234.5 Z M 94.5,252.5 C 78.7272,264.56 62.3938,275.894 45.5,286.5C 45.5,284.167 45.5,281.833 45.5,279.5C 61.994,270.754 78.3273,261.754 94.5,252.5 Z M 203.5,252.5 C 203.5,253.167 203.5,253.833 203.5,254.5C 199.983,256.424 196.316,258.091 192.5,259.5C 195.65,256.421 199.317,254.087 203.5,252.5 Z M 459.5,252.5 C 459.5,254.167 459.5,255.833 459.5,257.5C 447.738,264.596 435.738,271.262 423.5,277.5C 435.114,268.686 447.114,260.353 459.5,252.5 Z M 429.5,255.5 C 429.027,256.906 428.027,257.573 426.5,257.5C 426.973,256.094 427.973,255.427 429.5,255.5 Z M 192.5,259.5 C 192.027,260.906 191.027,261.573 189.5,261.5C 189.973,260.094 190.973,259.427 192.5,259.5 Z M 49.5,264.5 C 49.0269,265.906 48.0269,266.573 46.5,266.5C 46.5,266.167 46.5,265.833 46.5,265.5C 47.391,264.89 48.391,264.557 49.5,264.5 Z M 303.5,265.5 C 303.027,266.906 302.027,267.573 300.5,267.5C 300.5,267.167 300.5,266.833 300.5,266.5C 301.391,265.89 302.391,265.557 303.5,265.5 Z M 327.5,274.5 C 327.5,274.833 327.5,275.167 327.5,275.5C 318.833,281.167 310.167,286.833 301.5,292.5C 300.596,291.791 300.263,290.791 300.5,289.5C 309.366,284.234 318.366,279.234 327.5,274.5 Z M 14.5,276.5 C 13.8333,277.833 12.8333,278.833 11.5,279.5C 11.5,278.833 11.5,278.167 11.5,277.5C 12.391,276.89 13.391,276.557 14.5,276.5 Z M 423.5,277.5 C 423.027,278.906 422.027,279.573 420.5,279.5C 420.973,278.094 421.973,277.427 423.5,277.5 Z M 338.5,282.5 C 339.833,282.833 341.167,283.167 342.5,283.5C 328.537,293.154 314.537,302.821 300.5,312.5C 300.5,309.833 300.5,307.167 300.5,304.5C 313.502,297.668 326.168,290.335 338.5,282.5 Z M 203.5,289.5 C 203.5,291.167 203.5,292.833 203.5,294.5C 192.633,300.766 181.633,306.766 170.5,312.5C 181.201,304.476 192.201,296.81 203.5,289.5 Z M 16.5,292.5 C 14.823,294.54 13.1563,296.54 11.5,298.5C 11.5,297.167 11.5,295.833 11.5,294.5C 13.0495,293.559 14.7162,292.893 16.5,292.5 Z M 349.5,296.5 C 349.027,297.906 348.027,298.573 346.5,298.5C 346.973,297.094 347.973,296.427 349.5,296.5 Z M 346.5,298.5 C 331.52,309.326 316.187,319.659 300.5,329.5C 300.5,327.833 300.5,326.167 300.5,324.5C 315.536,315.315 330.87,306.648 346.5,298.5 Z M 88.5,299.5 C 88.0269,300.906 87.0269,301.573 85.5,301.5C 85.9731,300.094 86.9731,299.427 88.5,299.5 Z M 85.5,301.5 C 72.5205,310.992 59.1871,319.992 45.5,328.5C 45.5,327.5 45.5,326.5 45.5,325.5C 46.3636,324.312 47.3636,323.145 48.5,322C 60.7401,314.91 73.0735,308.076 85.5,301.5 Z M 203.5,306.5 C 203.167,308.5 202.833,310.5 202.5,312.5C 190.738,319.596 178.738,326.262 166.5,332.5C 178.621,323.6 190.954,314.933 203.5,306.5 Z M 50.5,307.5 C 49.6851,308.837 48.5185,309.837 47,310.5C 47.033,308.522 48.1996,307.522 50.5,307.5 Z M 458.5,309.5 C 458.5,311.167 458.5,312.833 458.5,314.5C 446.302,321.765 433.968,328.765 421.5,335.5C 433.621,326.6 445.954,317.933 458.5,309.5 Z M 16.5,311.5 C 15.5569,314.109 13.8903,316.109 11.5,317.5C 11.5,316.167 11.5,314.833 11.5,313.5C 13.0495,312.559 14.7162,311.893 16.5,311.5 Z M 170.5,312.5 C 170.027,313.906 169.027,314.573 167.5,314.5C 167.973,313.094 168.973,312.427 170.5,312.5 Z M 352.5,312.5 C 335.465,324.857 318.132,336.857 300.5,348.5C 300.5,346.167 300.5,343.833 300.5,341.5C 317.833,331.833 335.167,322.167 352.5,312.5 Z M 202.5,325.5 C 202.5,326.833 202.5,328.167 202.5,329.5C 191.462,336.352 180.129,342.686 168.5,348.5C 179.451,340.351 190.784,332.685 202.5,325.5 Z M 166.5,332.5 C 166.027,333.906 165.027,334.573 163.5,334.5C 163.973,333.094 164.973,332.427 166.5,332.5 Z M 57.5,335.5 C 57.0269,336.906 56.0269,337.573 54.5,337.5C 54.9731,336.094 55.9731,335.427 57.5,335.5 Z M 54.5,337.5 C 51.7089,339.735 48.7089,341.735 45.5,343.5C 45.5,342.833 45.5,342.167 45.5,341.5C 48.3516,339.909 51.3516,338.576 54.5,337.5 Z M 168.5,348.5 C 168.027,349.906 167.027,350.573 165.5,350.5C 165.973,349.094 166.973,348.427 168.5,348.5 Z M 202.5,352.5 C 202.5,353.833 202.5,355.167 202.5,356.5C 192.3,362.433 181.967,368.1 171.5,373.5C 181.537,366.142 191.87,359.142 202.5,352.5 Z M 79.5,360.5 C 68.5495,368.649 57.2161,376.315 45.5,383.5C 45.5,382.167 45.5,380.833 45.5,379.5C 56.8504,373.139 68.1837,366.805 79.5,360.5 Z M 458.5,364.5 C 458.5,365.5 458.5,366.5 458.5,367.5C 451.46,372.02 444.126,376.02 436.5,379.5C 443.449,374.018 450.783,369.018 458.5,364.5 Z M 353.5,368.5 C 353.027,369.906 352.027,370.573 350.5,370.5C 350.973,369.094 351.973,368.427 353.5,368.5 Z M 15.5,369.5 C 14.1363,371.191 12.803,372.858 11.5,374.5C 11.5,373.167 11.5,371.833 11.5,370.5C 12.8333,370.167 14.1667,369.833 15.5,369.5 Z M 202.5,369.5 C 202.5,371.167 202.5,372.833 202.5,374.5C 189.833,381.5 177.167,388.5 164.5,395.5C 176.811,386.342 189.478,377.675 202.5,369.5 Z M 350.5,370.5 C 334.378,382.067 318.045,393.401 301.5,404.5C 301.5,402.167 301.5,399.833 301.5,397.5C 317.673,388.246 334.006,379.246 350.5,370.5 Z M 171.5,373.5 C 171.027,374.906 170.027,375.573 168.5,375.5C 168.973,374.094 169.973,373.427 171.5,373.5 Z M 81.5,376.5 C 70.4205,385.218 58.7538,393.218 46.5,400.5C 45.8933,400.376 45.56,400.043 45.5,399.5C 45.5,398.5 45.5,397.5 45.5,396.5C 57.2622,389.404 69.2622,382.738 81.5,376.5 Z M 436.5,379.5 C 436.027,380.906 435.027,381.573 433.5,381.5C 433.973,380.094 434.973,379.427 436.5,379.5 Z M 306.5,382.5 C 306.027,383.906 305.027,384.573 303.5,384.5C 303.973,383.094 304.973,382.427 306.5,382.5 Z M 202.5,386.5 C 202.5,387.5 202.5,388.5 202.5,389.5C 197.833,391.833 193.167,394.167 188.5,396.5C 192.865,392.811 197.531,389.478 202.5,386.5 Z M 458.5,394.5 C 458.5,395.167 458.5,395.833 458.5,396.5C 456.117,398.358 453.45,399.692 450.5,400.5C 452.86,398.147 455.527,396.147 458.5,394.5 Z M 77.5,396.5 C 67.6939,404.24 57.3605,411.24 46.5,417.5C 46.6716,416.508 46.3382,415.842 45.5,415.5C 45.5,415.167 45.5,414.833 45.5,414.5C 55.9278,408.072 66.5945,402.072 77.5,396.5 Z M 186.5,397.5 C 186.027,398.906 185.027,399.573 183.5,399.5C 183.973,398.094 184.973,397.427 186.5,397.5 Z M 475.5,399.5 C 474.5,401.167 473.167,402.5 471.5,403.5C 471.5,402.833 471.5,402.167 471.5,401.5C 472.605,400.4 473.938,399.733 475.5,399.5 Z M 450.5,400.5 C 450.027,401.906 449.027,402.573 447.5,402.5C 447.973,401.094 448.973,400.427 450.5,400.5 Z M 314.5,409.5 C 314.027,410.906 313.027,411.573 311.5,411.5C 311.973,410.094 312.973,409.427 314.5,409.5 Z M 311.5,411.5 C 309.025,414.241 306.025,416.241 302.5,417.5C 302.5,416.833 302.5,416.167 302.5,415.5C 305.5,414.167 308.5,412.833 311.5,411.5 Z M 458.5,411.5 C 458.5,412.833 458.5,414.167 458.5,415.5C 452.965,418.767 447.298,421.767 441.5,424.5C 446.858,419.814 452.525,415.481 458.5,411.5 Z M 202.5,414.5 C 202.5,416.167 202.5,417.833 202.5,419.5C 194.991,423.755 187.324,427.755 179.5,431.5C 186.861,425.479 194.528,419.813 202.5,414.5 Z M 77.5,423.5 C 77.0269,424.906 76.0269,425.573 74.5,425.5C 74.9731,424.094 75.9731,423.427 77.5,423.5 Z M 74.5,425.5 C 65.5499,432.315 56.2165,438.649 46.5,444.5C 46.5,443.5 46.5,442.5 46.5,441.5C 55.4998,435.664 64.8331,430.331 74.5,425.5 Z M 347.5,426.5 C 347.027,427.906 346.027,428.573 344.5,428.5C 344.973,427.094 345.973,426.427 347.5,426.5 Z M 344.5,428.5 C 331.799,437.857 318.799,446.857 305.5,455.5C 305.5,453.833 305.5,452.167 305.5,450.5C 318.33,442.917 331.33,435.584 344.5,428.5 Z M 179.5,431.5 C 179.027,432.906 178.027,433.573 176.5,433.5C 176.973,432.094 177.973,431.427 179.5,431.5 Z M 82.5,437.5 C 82.0269,438.906 81.0269,439.573 79.5,439.5C 79.9731,438.094 80.9731,437.427 82.5,437.5 Z M 79.5,439.5 C 68.7185,447.942 57.3852,455.609 45.5,462.5C 45.5,461.833 45.5,461.167 45.5,460.5C 46.1098,459.609 46.4431,458.609 46.5,457.5C 57.367,451.234 68.367,445.234 79.5,439.5 Z M 397.5,443.5 C 386.403,452.93 374.736,461.597 362.5,469.5C 359.572,469.435 356.905,468.768 354.5,467.5C 368.833,459.5 383.167,451.5 397.5,443.5 Z M 366.5,445.5 C 358.381,451.733 350.048,457.733 341.5,463.5C 339.612,464.275 337.612,464.275 335.5,463.5C 345.334,456.746 355.667,450.746 366.5,445.5 Z M 192.5,451.5 C 191.752,453.332 190.752,454.999 189.5,456.5C 184.562,458.368 179.562,460.035 174.5,461.5C 180.17,457.663 186.17,454.33 192.5,451.5 Z M 326.5,455.5 C 326.027,456.906 325.027,457.573 323.5,457.5C 323.973,456.094 324.973,455.427 326.5,455.5 Z M 121.5,459.5 C 111.893,467.31 101.893,474.643 91.5,481.5C 87.2277,482.651 82.8943,483.651 78.5,484.5C 92.5693,475.775 106.903,467.442 121.5,459.5 Z M 413.5,465.5 C 408.573,470.302 403.24,474.635 397.5,478.5C 395.883,477.962 394.216,477.629 392.5,477.5C 399.004,472.745 406.004,468.745 413.5,465.5 Z M 140.5,466.5 C 138.393,468.727 136.06,470.727 133.5,472.5C 131.299,473.566 128.965,474.233 126.5,474.5C 130.904,471.441 135.571,468.775 140.5,466.5 Z M 59.5,468.5 C 55.1352,472.189 50.4685,475.522 45.5,478.5C 45.5,477.5 45.5,476.5 45.5,475.5C 50.1667,473.167 54.8333,470.833 59.5,468.5 Z M 428.5,473.5 C 425.064,477.057 421.397,480.391 417.5,483.5C 415.883,482.962 414.216,482.629 412.5,482.5C 417.502,478.997 422.835,475.997 428.5,473.5 Z M 21.5,487.5 C 20.2213,490.112 18.5547,492.445 16.5,494.5C 14.5956,494.262 13.2623,493.262 12.5,491.5C 15.5,490.167 18.5,488.833 21.5,487.5 Z"/></g>
<g><path style="opacity:0.97" fill="#dbdbdb" d="M 399.5,7.5 C 404.167,7.5 408.833,7.5 413.5,7.5C 413.109,11.2207 411.442,14.2207 408.5,16.5C 414.165,14.0031 419.498,11.0031 424.5,7.5C 429.167,7.5 433.833,7.5 438.5,7.5C 438.107,9.2838 437.441,10.9505 436.5,12.5C 439.331,11.9213 441.664,10.588 443.5,8.5C 448.695,8.17949 453.695,8.51283 458.5,9.5C 458.267,11.0618 457.6,12.3951 456.5,13.5C 458.819,13.0075 460.819,12.0075 462.5,10.5C 467.95,10.5828 472.95,11.9161 477.5,14.5C 476.167,15.1667 475.167,16.1667 474.5,17.5C 476.153,17.3404 477.486,16.6737 478.5,15.5C 484.242,16.249 488.242,19.249 490.5,24.5C 490.062,24.4346 489.728,24.6012 489.5,25C 491.061,25.3176 492.228,26.1509 493,27.5C 493.084,183.972 493.25,340.305 493.5,496.5C 486.167,496.5 478.833,496.5 471.5,496.5C 471.618,490.653 471.784,484.653 472,478.5C 472.833,477.667 473.667,476.833 474.5,476C 473.551,475.383 472.718,475.549 472,476.5C 471.5,467.84 471.334,459.173 471.5,450.5C 472.167,450.5 472.5,450.167 472.5,449.5C 479.388,444.669 479.054,443.669 471.5,446.5C 471.5,437.833 471.5,429.167 471.5,420.5C 473.094,419.017 474.76,417.517 476.5,416C 474.718,415.878 473.052,416.378 471.5,417.5C 471.5,412.833 471.5,408.167 471.5,403.5C 473.167,402.5 474.5,401.167 475.5,399.5C 476.29,398.206 477.29,397.039 478.5,396C 476.037,396.22 473.704,397.054 471.5,398.5C 471.226,393.737 471.559,389.07 472.5,384.5C 477.982,380.415 477.649,379.748 471.5,382.5C 471.5,378.167 471.5,373.833 471.5,369.5C 474.631,366.871 477.631,364.038 480.5,361C 477.341,361.913 474.341,363.413 471.5,365.5C 471.5,352.833 471.5,340.167 471.5,327.5C 474.209,324.792 476.542,321.792 478.5,318.5C 475.978,319.011 473.645,320.011 471.5,321.5C 471.274,316.438 471.608,311.438 472.5,306.5C 471.294,302.228 471.294,297.561 472.5,292.5C 472.607,288.476 472.607,284.143 472.5,279.5C 472.5,279.167 472.5,278.833 472.5,278.5C 474.296,277.207 475.963,275.707 477.5,274C 475.953,273.667 474.62,274.167 473.5,275.5C 472.335,267.521 472.168,259.521 473,251.5C 473.717,250.956 474.217,250.289 474.5,249.5C 474.158,248.662 473.492,248.328 472.5,248.5C 472.5,239.833 472.5,231.167 472.5,222.5C 474.6,220.502 476.6,218.335 478.5,216C 476.213,215.972 474.213,216.805 472.5,218.5C 472.333,206.495 472.5,194.495 473,182.5C 474.167,181.333 475.333,180.167 476.5,179C 475.004,178.493 473.837,178.993 473,180.5C 472.501,175.845 472.334,171.179 472.5,166.5C 475.297,164.205 477.964,161.705 480.5,159C 477.949,159.687 475.449,160.854 473,162.5C 472.333,151.167 472.333,139.833 473,128.5C 473.5,128 474,127.5 474.5,127C 472.611,123.164 471.945,118.997 472.5,114.5C 472.5,114.167 472.5,113.833 472.5,113.5C 473.167,113.5 473.5,113.167 473.5,112.5C 474.962,111.542 476.295,110.376 477.5,109C 475.213,108.972 473.213,109.805 471.5,111.5C 471.5,106.833 471.5,102.167 471.5,97.5C 472.5,97.1667 473.167,96.5 473.5,95.5C 474.167,95.5 474.5,95.1667 474.5,94.5C 475.167,94.5 475.5,94.1667 475.5,93.5C 477.066,93.0237 477.4,92.357 476.5,91.5C 475.478,91.8555 474.811,92.5222 474.5,93.5C 473.504,93.4142 472.671,93.7476 472,94.5C 471.501,89.8452 471.334,85.1785 471.5,80.5C 472.167,80.5 472.5,80.1667 472.5,79.5C 473.167,79.5 473.5,79.1667 473.5,78.5C 474.167,78.5 474.5,78.1667 474.5,77.5C 476.903,76.1648 478.236,74.4981 478.5,72.5C 476.09,74.3716 473.423,75.705 470.5,76.5C 470.231,72.0685 470.564,67.7352 471.5,63.5C 470.532,61.3926 470.198,59.0593 470.5,56.5C 470.015,51.4575 472.015,47.6242 476.5,45C 474.544,45.2218 472.71,46.0552 471,47.5C 470.505,45.5273 470.338,43.5273 470.5,41.5C 471.303,40.5768 471.47,39.5768 471,38.5C 469.698,37.9152 468.531,37.2485 467.5,36.5C 468.29,35.2058 469.29,34.0391 470.5,33C 467.664,33.0846 465.331,34.2513 463.5,36.5C 456.5,36.5 449.5,36.5 442.5,36.5C 443.5,35.1667 444.5,33.8333 445.5,32.5C 443.216,32.9752 441.216,33.9752 439.5,35.5C 418.293,36.7148 396.959,36.7148 375.5,35.5C 376.167,34.5 376.833,33.5 377.5,32.5C 375.566,33.1103 373.899,34.1103 372.5,35.5C 364.648,35.8254 356.982,35.492 349.5,34.5C 352.185,31.8103 354.518,28.8103 356.5,25.5C 350.835,27.9969 345.502,30.9969 340.5,34.5C 332.371,35.7844 324.371,35.7844 316.5,34.5C 318.853,32.1401 320.853,29.4735 322.5,26.5C 317.5,28.6643 312.833,31.331 308.5,34.5C 300.371,35.7844 292.371,35.7844 284.5,34.5C 286.748,31.672 288.748,28.672 290.5,25.5C 284.995,27.7487 279.995,30.7487 275.5,34.5C 267.359,35.7516 259.359,35.7516 251.5,34.5C 253.167,32.5 254.833,30.5 256.5,28.5C 252.827,30.0002 249.494,32.0002 246.5,34.5C 238.025,35.7553 229.692,35.7553 221.5,34.5C 223.853,32.1401 225.853,29.4735 227.5,26.5C 222.5,28.6643 217.833,31.331 213.5,34.5C 205.555,35.4368 197.555,35.7701 189.5,35.5C 190.906,32.5865 192.906,30.0865 195.5,28C 190.474,29.6816 185.808,32.1816 181.5,35.5C 166.5,35.5 151.5,35.5 136.5,35.5C 138.5,32.5 140.5,29.5 142.5,26.5C 136.835,28.9969 131.502,31.9969 126.5,35.5C 112.36,36.7893 98.3598,36.7893 84.5,35.5C 86.5,32.5 88.5,29.5 90.5,26.5C 84.835,28.9969 79.5016,31.9969 74.5,35.5C 67.557,36.4267 60.557,36.76 53.5,36.5C 53.5,36.1667 53.5,35.8333 53.5,35.5C 54.1667,35.5 54.5,35.1667 54.5,34.5C 68.8335,27.0024 82.8335,19.0024 96.5,10.5C 102.963,9.22988 109.296,9.22988 115.5,10.5C 111.786,14.883 108.453,19.5497 105.5,24.5C 113.782,20.1969 121.782,15.5302 129.5,10.5C 136.255,9.18625 142.588,9.18625 148.5,10.5C 154.963,9.22988 161.296,9.22988 167.5,10.5C 164.578,14.6006 161.411,18.6006 158,22.5C 157.333,23.1667 157.333,23.8333 158,24.5C 166.004,19.97 173.837,15.3033 181.5,10.5C 187.63,9.23381 193.63,9.23381 199.5,10.5C 198.5,11.8333 197.5,13.1667 196.5,14.5C 199.004,13.4161 201.337,12.0828 203.5,10.5C 209.63,9.23381 215.63,9.23381 221.5,10.5C 218.524,14.4815 215.524,18.4815 212.5,22.5C 219.996,19.2552 226.996,15.2552 233.5,10.5C 239.976,9.27385 246.309,9.27385 252.5,10.5C 249.085,14.5758 246.085,18.9092 243.5,23.5C 251.428,19.5589 259.095,15.2256 266.5,10.5C 272.63,9.23381 278.63,9.23381 284.5,10.5C 282.141,13.8514 279.808,17.1847 277.5,20.5C 283.5,17.5 289.5,14.5 295.5,11.5C 301.5,11.5 307.5,11.5 313.5,11.5C 310.11,15.5578 307.11,19.8911 304.5,24.5C 312.428,20.5589 320.095,16.2256 327.5,11.5C 334.109,10.5774 340.776,10.2441 347.5,10.5C 344.243,14.688 341.243,19.0214 338.5,23.5C 346.836,19.3347 354.836,14.668 362.5,9.5C 368.455,8.63651 374.455,8.30318 380.5,8.5C 377.502,13.8207 374.002,18.8207 370,23.5C 369.333,24.1667 369.333,24.8333 370,25.5C 380.005,19.6368 389.838,13.6368 399.5,7.5 Z M 413.5,7.5 C 417.167,7.5 420.833,7.5 424.5,7.5C 419.498,11.0031 414.165,14.0031 408.5,16.5C 411.442,14.2207 413.109,11.2207 413.5,7.5 Z M 362.5,9.5 C 354.836,14.668 346.836,19.3347 338.5,23.5C 341.243,19.0214 344.243,14.688 347.5,10.5C 352.527,10.4971 357.527,10.1637 362.5,9.5 Z M 115.5,10.5 C 120.167,10.5 124.833,10.5 129.5,10.5C 121.782,15.5302 113.782,20.1969 105.5,24.5C 108.453,19.5497 111.786,14.883 115.5,10.5 Z M 167.5,10.5 C 172.167,10.5 176.833,10.5 181.5,10.5C 173.837,15.3033 166.004,19.97 158,24.5C 157.333,23.8333 157.333,23.1667 158,22.5C 161.411,18.6006 164.578,14.6006 167.5,10.5 Z M 199.5,10.5 C 200.833,10.5 202.167,10.5 203.5,10.5C 201.337,12.0828 199.004,13.4161 196.5,14.5C 197.5,13.1667 198.5,11.8333 199.5,10.5 Z M 221.5,10.5 C 225.5,10.5 229.5,10.5 233.5,10.5C 226.996,15.2552 219.996,19.2552 212.5,22.5C 215.524,18.4815 218.524,14.4815 221.5,10.5 Z M 252.5,10.5 C 257.167,10.5 261.833,10.5 266.5,10.5C 259.095,15.2256 251.428,19.5589 243.5,23.5C 246.085,18.9092 249.085,14.5758 252.5,10.5 Z M 284.5,10.5 C 288.371,10.185 292.038,10.5184 295.5,11.5C 289.5,14.5 283.5,17.5 277.5,20.5C 279.808,17.1847 282.141,13.8514 284.5,10.5 Z M 313.5,11.5 C 318.167,11.5 322.833,11.5 327.5,11.5C 320.095,16.2256 312.428,20.5589 304.5,24.5C 307.11,19.8911 310.11,15.5578 313.5,11.5 Z M 290.5,25.5 C 288.748,28.672 286.748,31.672 284.5,34.5C 281.5,34.5 278.5,34.5 275.5,34.5C 279.995,30.7487 284.995,27.7487 290.5,25.5 Z M 356.5,25.5 C 354.518,28.8103 352.185,31.8103 349.5,34.5C 346.5,34.5 343.5,34.5 340.5,34.5C 345.502,30.9969 350.835,27.9969 356.5,25.5 Z M 90.5,26.5 C 88.5,29.5 86.5,32.5 84.5,35.5C 81.1667,35.5 77.8333,35.5 74.5,35.5C 79.5016,31.9969 84.835,28.9969 90.5,26.5 Z M 142.5,26.5 C 140.5,29.5 138.5,32.5 136.5,35.5C 133.167,35.5 129.833,35.5 126.5,35.5C 131.502,31.9969 136.835,28.9969 142.5,26.5 Z M 227.5,26.5 C 225.853,29.4735 223.853,32.1401 221.5,34.5C 218.833,34.5 216.167,34.5 213.5,34.5C 217.833,31.331 222.5,28.6643 227.5,26.5 Z M 322.5,26.5 C 320.853,29.4735 318.853,32.1401 316.5,34.5C 313.833,34.5 311.167,34.5 308.5,34.5C 312.833,31.331 317.5,28.6643 322.5,26.5 Z M 189.5,35.5 C 186.833,35.5 184.167,35.5 181.5,35.5C 185.808,32.1816 190.474,29.6816 195.5,28C 192.906,30.0865 190.906,32.5865 189.5,35.5 Z M 256.5,28.5 C 254.833,30.5 253.167,32.5 251.5,34.5C 249.833,34.5 248.167,34.5 246.5,34.5C 249.494,32.0002 252.827,30.0002 256.5,28.5 Z M 377.5,32.5 C 376.833,33.5 376.167,34.5 375.5,35.5C 374.5,35.5 373.5,35.5 372.5,35.5C 373.899,34.1103 375.566,33.1103 377.5,32.5 Z M 445.5,32.5 C 444.5,33.8333 443.5,35.1667 442.5,36.5C 441.209,36.7373 440.209,36.404 439.5,35.5C 441.216,33.9752 443.216,32.9752 445.5,32.5 Z M 467.5,36.5 C 466.167,36.5 464.833,36.5 463.5,36.5C 465.331,34.2513 467.664,33.0846 470.5,33C 469.29,34.0391 468.29,35.2058 467.5,36.5 Z"/></g>
<g><path style="opacity:0.981" fill="#d9d9d9" d="M 35.5,9.5 C 33.4164,13.3359 31.083,17.0026 28.5,20.5C 35.097,17.2247 41.4303,13.558 47.5,9.5C 59.3486,10.3503 71.0153,10.6836 82.5,10.5C 73.4611,18.8744 64.1278,26.8744 54.5,34.5C 53.8333,34.5 53.5,34.8333 53.5,35.5C 52.8333,35.5 52.5,35.8333 52.5,36.5C 47.4884,36.0801 42.4884,35.9134 37.5,36C 33.3057,37.4325 32.139,39.9325 34,43.5C 34.1667,47.6667 34.3333,51.8333 34.5,56C 33.0845,97.5538 32.0845,139.054 31.5,180.5C 31.4882,216.528 31.4882,252.861 31.5,289.5C 32.4838,305.089 32.8171,320.756 32.5,336.5C 32.8074,346.582 32.4741,356.582 31.5,366.5C 31.0618,366.435 30.7284,366.601 30.5,367C 32.4897,402.945 33.1564,439.112 32.5,475.5C 32.5,482.833 32.5,490.167 32.5,497.5C 28.4862,497.666 24.4862,497.499 20.5,497C 18.563,496.878 17.2297,496.045 16.5,494.5C 18.5547,492.445 20.2213,490.112 21.5,487.5C 18.5,488.833 15.5,490.167 12.5,491.5C 11.8826,491.389 11.3826,491.056 11,490.5C 10.1882,478.091 10.3548,465.758 11.5,453.5C 10.1798,445.249 10.1798,436.582 11.5,427.5C 10.1792,418.915 10.1792,409.915 11.5,400.5C 10.2297,392.217 10.2297,383.55 11.5,374.5C 12.803,372.858 14.1363,371.191 15.5,369.5C 14.1667,369.833 12.8333,370.167 11.5,370.5C 10.7769,353.1 10.7769,335.433 11.5,317.5C 13.8903,316.109 15.5569,314.109 16.5,311.5C 14.7162,311.893 13.0495,312.559 11.5,313.5C 10.2492,308.631 10.2492,303.631 11.5,298.5C 13.1563,296.54 14.823,294.54 16.5,292.5C 14.7162,292.893 13.0495,293.559 11.5,294.5C 10.2492,289.631 10.2492,284.631 11.5,279.5C 12.8333,278.833 13.8333,277.833 14.5,276.5C 13.391,276.557 12.391,276.89 11.5,277.5C 10.3536,253.174 10.3536,228.84 11.5,204.5C 12.5,204.167 13.1667,203.5 13.5,202.5C 12.8333,202.5 12.1667,202.5 11.5,202.5C 10.2492,197.631 10.2492,192.631 11.5,187.5C 13.1667,186.5 14.5,185.167 15.5,183.5C 14.1667,183.833 12.8333,184.167 11.5,184.5C 10.2186,166.903 10.2186,149.236 11.5,131.5C 12.8333,130.833 13.8333,129.833 14.5,128.5C 13.391,128.557 12.391,128.89 11.5,129.5C 11.0176,119.684 11.0176,109.684 11.5,99.5C 12.8333,98.8333 13.8333,97.8333 14.5,96.5C 13.391,96.5569 12.391,96.8902 11.5,97.5C 10.2097,88.6284 10.2097,79.6284 11.5,70.5C 10.294,66.2277 10.294,61.5611 11.5,56.5C 16.1518,53.1793 20.4851,49.5126 24.5,45.5C 20.0344,47.5665 15.701,49.8998 11.5,52.5C 10.3434,44.3437 10.1768,36.0104 11,27.5C 14.4317,15.2541 22.5984,9.25412 35.5,9.5 Z M 35.5,9.5 C 39.5,9.5 43.5,9.5 47.5,9.5C 41.4303,13.558 35.097,17.2247 28.5,20.5C 31.083,17.0026 33.4164,13.3359 35.5,9.5 Z"/></g>
<g><path style="opacity:0.256" fill="#c0c0c0" d="M 506.5,36.5 C 507.833,38.5 507.833,40.5 506.5,42.5C 505.167,40.5 505.167,38.5 506.5,36.5 Z"/></g>
<g><path style="opacity:0.63" fill="#cdcdcd" d="M 91.5,44.5 C 87.9825,47.0003 84.6491,47.0003 81.5,44.5C 84.8333,43.1667 88.1667,43.1667 91.5,44.5 Z"/></g>
<g><path style="opacity:0.638" fill="#cdcdcd" d="M 110.5,44.5 C 106.982,47.0003 103.649,47.0003 100.5,44.5C 103.833,43.1667 107.167,43.1667 110.5,44.5 Z"/></g>
<g><path style="opacity:0.633" fill="#cccccc" d="M 143.5,44.5 C 141.693,45.6148 139.693,46.2814 137.5,46.5C 135.645,46.6598 134.312,45.9931 133.5,44.5C 136.833,43.1667 140.167,43.1667 143.5,44.5 Z"/></g>
<g><path style="opacity:0.687" fill="#cecece" d="M 165.5,44.5 C 161.982,47.0003 158.649,47.0003 155.5,44.5C 158.833,43.1667 162.167,43.1667 165.5,44.5 Z"/></g>
<g><path style="opacity:0.682" fill="#cacaca" d="M 185.5,44.5 C 188.833,43.1667 192.167,43.1667 195.5,44.5C 192.094,47.0594 188.76,47.0594 185.5,44.5 Z"/></g>
<g><path style="opacity:0.628" fill="#cdcdcd" d="M 227.5,44.5 C 224.383,47.0897 221.383,47.0897 218.5,44.5C 221.5,43.1667 224.5,43.1667 227.5,44.5 Z"/></g>
<g><path style="opacity:0.684" fill="#cbcbcb" d="M 257.5,44.5 C 255.693,45.6148 253.693,46.2814 251.5,46.5C 249.645,46.6598 248.312,45.9931 247.5,44.5C 250.833,43.1667 254.167,43.1667 257.5,44.5 Z"/></g>
<g><path style="opacity:0.638" fill="#cdcdcd" d="M 290.5,44.5 C 288.843,45.5755 287.009,46.2421 285,46.5C 283.301,46.6134 282.134,45.9468 281.5,44.5C 284.5,43.1667 287.5,43.1667 290.5,44.5 Z"/></g>
<g><path style="opacity:0.64" fill="#cdcdcd" d="M 322.5,44.5 C 320.843,45.5755 319.009,46.2421 317,46.5C 315.301,46.6134 314.134,45.9468 313.5,44.5C 316.5,43.1667 319.5,43.1667 322.5,44.5 Z"/></g>
<g><path style="opacity:0.746" fill="#cccccc" d="M 356.5,44.5 C 352.982,47.0003 349.649,47.0003 346.5,44.5C 349.833,43.1667 353.167,43.1667 356.5,44.5 Z"/></g>
<g><path style="opacity:0.64" fill="#d0d0d0" d="M 380.5,44.5 C 377.383,47.0897 374.383,47.0897 371.5,44.5C 374.5,43.1667 377.5,43.1667 380.5,44.5 Z"/></g>
<g><path style="opacity:0.697" fill="#cfcfcf" d="M 401.5,44.5 C 398.383,47.0897 395.383,47.0897 392.5,44.5C 395.5,43.1667 398.5,43.1667 401.5,44.5 Z"/></g>
<g><path style="opacity:0.647" fill="#cfcfcf" d="M 423.5,44.5 C 420.383,47.0897 417.383,47.0897 414.5,44.5C 417.5,43.1667 420.5,43.1667 423.5,44.5 Z"/></g>
<g><path style="opacity:0.983" fill="#7b4d39" d="M 71.5,57.5 C 70.8333,58.5 70.1667,59.5 69.5,60.5C 71.153,60.3404 72.4863,59.6737 73.5,58.5C 82.6955,60.3414 91.3622,63.3414 99.5,67.5C 96.8908,68.4431 94.8908,70.1097 93.5,72.5C 96.7598,71.2262 99.7598,69.5595 102.5,67.5C 106.739,68.7958 110.739,70.4625 114.5,72.5C 113.817,73.6441 114.151,73.6441 115.5,72.5C 120.29,73.2038 124.623,74.8705 128.5,77.5C 120.571,82.4325 113.238,88.0992 106.5,94.5C 115.833,89.5 125.167,84.5 134.5,79.5C 138.915,79.8606 142.915,81.1939 146.5,83.5C 134.214,92.4513 122.214,101.785 110.5,111.5C 125.5,103.669 140.166,95.336 154.5,86.5C 159.165,87.0569 163.498,88.3902 167.5,90.5C 156.167,98.8333 144.833,107.167 133.5,115.5C 147.168,108.335 160.501,100.669 173.5,92.5C 178.132,93.5961 182.466,95.2628 186.5,97.5C 171.955,107.266 157.621,117.266 143.5,127.5C 160.004,118.416 176.337,109.083 192.5,99.5C 198.868,99.2567 201.201,102.257 199.5,108.5C 186.478,116.675 173.811,125.342 161.5,134.5C 174.635,127.432 187.635,120.099 200.5,112.5C 201.43,116.4 201.763,120.4 201.5,124.5C 200.167,124.833 200.167,125.167 201.5,125.5C 202.564,129.559 202.564,133.559 201.5,137.5C 192.287,143.6 183.287,149.933 174.5,156.5C 183.634,151.766 192.634,146.766 201.5,141.5C 203.145,152.958 203.812,164.625 203.5,176.5C 202.833,176.5 202.5,176.833 202.5,177.5C 202.833,177.5 203.167,177.5 203.5,177.5C 204.833,181.833 204.833,186.167 203.5,190.5C 185.534,202.476 167.867,214.81 150.5,227.5C 168.302,217.765 185.968,207.765 203.5,197.5C 204.811,204.735 204.811,212.068 203.5,219.5C 201.611,220.604 199.945,221.937 198.5,223.5C 200.284,223.107 201.95,222.441 203.5,221.5C 204.794,225.733 204.794,230.066 203.5,234.5C 195.917,238.745 188.583,243.412 181.5,248.5C 172.721,230.976 160.054,227.809 143.5,239C 132.743,249.739 131.576,261.572 140,274.5C 143.561,278.86 148.061,281.526 153.5,282.5C 155.406,284.994 157.406,284.994 159.5,282.5C 167.052,281.264 173.052,277.598 177.5,271.5C 177.435,271.938 177.601,272.272 178,272.5C 180.265,271.084 181.431,269.084 181.5,266.5C 182.833,266.167 182.833,265.833 181.5,265.5C 181.167,265.5 180.833,265.5 180.5,265.5C 181.441,260.93 181.774,256.263 181.5,251.5C 189.069,247.93 196.403,243.93 203.5,239.5C 204.736,243.701 204.736,248.035 203.5,252.5C 199.317,254.087 195.65,256.421 192.5,259.5C 196.316,258.091 199.983,256.424 203.5,254.5C 204.811,261.735 204.811,269.068 203.5,276.5C 202.167,276.833 202.167,277.167 203.5,277.5C 203.5,281.5 203.5,285.5 203.5,289.5C 192.201,296.81 181.201,304.476 170.5,312.5C 181.633,306.766 192.633,300.766 203.5,294.5C 203.5,298.5 203.5,302.5 203.5,306.5C 190.954,314.933 178.621,323.6 166.5,332.5C 178.738,326.262 190.738,319.596 202.5,312.5C 203.794,316.733 203.794,321.066 202.5,325.5C 190.784,332.685 179.451,340.351 168.5,348.5C 180.129,342.686 191.462,336.352 202.5,329.5C 203.812,337.068 203.812,344.735 202.5,352.5C 191.87,359.142 181.537,366.142 171.5,373.5C 181.967,368.1 192.3,362.433 202.5,356.5C 202.5,360.833 202.5,365.167 202.5,369.5C 189.478,377.675 176.811,386.342 164.5,395.5C 177.167,388.5 189.833,381.5 202.5,374.5C 202.5,378.5 202.5,382.5 202.5,386.5C 197.531,389.478 192.865,392.811 188.5,396.5C 193.167,394.167 197.833,391.833 202.5,389.5C 202.5,397.833 202.5,406.167 202.5,414.5C 194.528,419.813 186.861,425.479 179.5,431.5C 187.324,427.755 194.991,423.755 202.5,419.5C 202.5,423.833 202.5,428.167 202.5,432.5C 202.062,432.435 201.728,432.601 201.5,433C 202.771,435.554 203.438,438.387 203.5,441.5C 203.333,444.167 203.167,446.833 203,449.5C 198.839,452.497 194.339,454.83 189.5,456.5C 190.752,454.999 191.752,453.332 192.5,451.5C 186.17,454.33 180.17,457.663 174.5,461.5C 161.912,466.568 148.912,470.568 135.5,473.5C 134.584,473.457 133.917,473.124 133.5,472.5C 136.06,470.727 138.393,468.727 140.5,466.5C 135.571,468.775 130.904,471.441 126.5,474.5C 115.355,476.965 104.188,479.632 93,482.5C 92.2352,482.43 91.7352,482.097 91.5,481.5C 101.893,474.643 111.893,467.31 121.5,459.5C 106.903,467.442 92.5693,475.775 78.5,484.5C 77.5084,484.328 76.8417,484.662 76.5,485.5C 66.0699,488.218 55.7366,491.218 45.5,494.5C 46.628,491.115 46.628,487.781 45.5,484.5C 45.5,482.5 45.5,480.5 45.5,478.5C 50.4685,475.522 55.1352,472.189 59.5,468.5C 54.8333,470.833 50.1667,473.167 45.5,475.5C 44.2741,471.178 44.2741,466.845 45.5,462.5C 57.3852,455.609 68.7185,447.942 79.5,439.5C 68.367,445.234 57.367,451.234 46.5,457.5C 45.2463,453.152 45.2463,448.818 46.5,444.5C 56.2165,438.649 65.5499,432.315 74.5,425.5C 64.8331,430.331 55.4998,435.664 46.5,441.5C 46.4357,433.629 46.4357,425.629 46.5,417.5C 57.3605,411.24 67.6939,404.24 77.5,396.5C 66.5945,402.072 55.9278,408.072 45.5,414.5C 44.8712,409.318 44.8712,404.318 45.5,399.5C 45.56,400.043 45.8933,400.376 46.5,400.5C 58.7538,393.218 70.4205,385.218 81.5,376.5C 69.2622,382.738 57.2622,389.404 45.5,396.5C 45.5,396.167 45.5,395.833 45.5,395.5C 46.8333,393.5 46.8333,391.5 45.5,389.5C 45.5,387.5 45.5,385.5 45.5,383.5C 57.2161,376.315 68.5495,368.649 79.5,360.5C 68.1837,366.805 56.8504,373.139 45.5,379.5C 44.9267,367.653 44.9267,355.653 45.5,343.5C 48.7089,341.735 51.7089,339.735 54.5,337.5C 51.3516,338.576 48.3516,339.909 45.5,341.5C 45.5,340.5 45.5,339.5 45.5,338.5C 46.8333,336.5 46.8333,334.5 45.5,332.5C 45.5,331.167 45.5,329.833 45.5,328.5C 59.1871,319.992 72.5205,310.992 85.5,301.5C 73.0735,308.076 60.7401,314.91 48.5,322C 47.3636,323.145 46.3636,324.312 45.5,325.5C 44.4983,312.646 44.4983,299.646 45.5,286.5C 62.3938,275.894 78.7272,264.56 94.5,252.5C 78.3273,261.754 61.994,270.754 45.5,279.5C 44.5877,275.429 44.5877,271.429 45.5,267.5C 46.1667,267.5 46.5,267.167 46.5,266.5C 48.0269,266.573 49.0269,265.906 49.5,264.5C 48.391,264.557 47.391,264.89 46.5,265.5C 44.6541,259.69 44.3208,253.69 45.5,247.5C 45.607,241.821 45.607,236.154 45.5,230.5C 46.1667,230.5 46.5,230.167 46.5,229.5C 55.4654,223.857 64.132,217.857 72.5,211.5C 63.366,216.234 54.366,221.234 45.5,226.5C 44.8672,217.918 44.8672,209.251 45.5,200.5C 55.8872,193.98 65.8872,186.98 75.5,179.5C 65.6997,184.567 56.0331,189.901 46.5,195.5C 45.2216,190.802 45.2216,186.135 46.5,181.5C 55.5235,175.99 64.1902,169.99 72.5,163.5C 63.8603,168.154 55.1936,172.821 46.5,177.5C 45.5184,174.038 45.185,170.371 45.5,166.5C 45.2053,164.265 45.5386,162.265 46.5,160.5C 45.5509,155.26 45.2175,149.927 45.5,144.5C 46.2216,144.918 46.7216,145.584 47,146.5C 54.6609,140.601 62.1609,134.601 69.5,128.5C 61.517,132.805 53.517,137.138 45.5,141.5C 44.8054,136.917 44.8054,132.251 45.5,127.5C 46.1667,127.5 46.5,127.167 46.5,126.5C 45.3065,126.03 44.6399,125.03 44.5,123.5C 45.8333,117.833 45.8333,112.167 44.5,106.5C 45.0686,101.644 45.7353,96.8108 46.5,92C 45.8079,82.0117 45.1412,72.0117 44.5,62C 45.0293,57.1502 45.6959,52.3169 46.5,47.5C 55.0348,50.6104 63.3681,53.9437 71.5,57.5 Z M 99.5,67.5 C 100.5,67.5 101.5,67.5 102.5,67.5C 99.7598,69.5595 96.7598,71.2262 93.5,72.5C 94.8908,70.1097 96.8908,68.4431 99.5,67.5 Z M 106.5,94.5 C 106.027,95.9063 105.027,96.573 103.5,96.5C 103.973,95.0937 104.973,94.427 106.5,94.5 Z M 110.5,111.5 C 110.027,112.906 109.027,113.573 107.5,113.5C 107.973,112.094 108.973,111.427 110.5,111.5 Z M 133.5,115.5 C 133.027,116.906 132.027,117.573 130.5,117.5C 130.973,116.094 131.973,115.427 133.5,115.5 Z M 55.5,119.5 C 52.8103,122.185 49.8103,124.518 46.5,126.5C 46.281,125.325 46.6143,124.325 47.5,123.5C 49.9553,121.703 52.622,120.37 55.5,119.5 Z M 72.5,126.5 C 72.0269,127.906 71.0269,128.573 69.5,128.5C 69.9731,127.094 70.9731,126.427 72.5,126.5 Z M 69.5,147.5 C 69.0269,148.906 68.0269,149.573 66.5,149.5C 66.9731,148.094 67.9731,147.427 69.5,147.5 Z M 66.5,149.5 C 60.3392,154.843 53.8392,159.843 47,164.5C 46.51,163.207 46.3433,161.873 46.5,160.5C 52.8727,156.313 59.5393,152.647 66.5,149.5 Z M 174.5,156.5 C 174.027,157.906 173.027,158.573 171.5,158.5C 171.973,157.094 172.973,156.427 174.5,156.5 Z M 75.5,161.5 C 75.0269,162.906 74.0269,163.573 72.5,163.5C 72.9731,162.094 73.9731,161.427 75.5,161.5 Z M 78.5,177.5 C 78.0269,178.906 77.0269,179.573 75.5,179.5C 75.9731,178.094 76.9731,177.427 78.5,177.5 Z M 202.5,177.5 C 201.341,179.25 199.674,180.25 197.5,180.5C 198.659,178.75 200.326,177.75 202.5,177.5 Z M 75.5,209.5 C 75.0269,210.906 74.0269,211.573 72.5,211.5C 72.9731,210.094 73.9731,209.427 75.5,209.5 Z M 198.5,223.5 C 198.027,224.906 197.027,225.573 195.5,225.5C 195.973,224.094 196.973,223.427 198.5,223.5 Z M 192.5,259.5 C 192.027,260.906 191.027,261.573 189.5,261.5C 189.973,260.094 190.973,259.427 192.5,259.5 Z M 88.5,299.5 C 88.0269,300.906 87.0269,301.573 85.5,301.5C 85.9731,300.094 86.9731,299.427 88.5,299.5 Z M 50.5,307.5 C 48.1996,307.522 47.033,308.522 47,310.5C 48.5185,309.837 49.6851,308.837 50.5,307.5 Z M 170.5,312.5 C 170.027,313.906 169.027,314.573 167.5,314.5C 167.973,313.094 168.973,312.427 170.5,312.5 Z M 166.5,332.5 C 166.027,333.906 165.027,334.573 163.5,334.5C 163.973,333.094 164.973,332.427 166.5,332.5 Z M 57.5,335.5 C 57.0269,336.906 56.0269,337.573 54.5,337.5C 54.9731,336.094 55.9731,335.427 57.5,335.5 Z M 168.5,348.5 C 168.027,349.906 167.027,350.573 165.5,350.5C 165.973,349.094 166.973,348.427 168.5,348.5 Z M 171.5,373.5 C 171.027,374.906 170.027,375.573 168.5,375.5C 168.973,374.094 169.973,373.427 171.5,373.5 Z M 186.5,397.5 C 186.027,398.906 185.027,399.573 183.5,399.5C 183.973,398.094 184.973,397.427 186.5,397.5 Z M 77.5,423.5 C 77.0269,424.906 76.0269,425.573 74.5,425.5C 74.9731,424.094 75.9731,423.427 77.5,423.5 Z M 179.5,431.5 C 179.027,432.906 178.027,433.573 176.5,433.5C 176.973,432.094 177.973,431.427 179.5,431.5 Z M 82.5,437.5 C 82.0269,438.906 81.0269,439.573 79.5,439.5C 79.9731,438.094 80.9731,437.427 82.5,437.5 Z"/></g>
<g><path style="opacity:0.983" fill="#7b4c38" d="M 450.5,49.5 C 450.5,50.5 450.5,51.5 450.5,52.5C 452.713,51.2271 455.046,50.2271 457.5,49.5C 458.492,56.9818 458.825,64.6484 458.5,72.5C 452.148,76.0068 446.148,80.0068 440.5,84.5C 446.5,81.5 452.5,78.5 458.5,75.5C 458.5,79.8333 458.5,84.1667 458.5,88.5C 449.87,93.8085 441.536,99.4752 433.5,105.5C 441.968,101.099 450.301,96.4322 458.5,91.5C 459.797,96.0665 459.797,100.733 458.5,105.5C 447.87,112.142 437.537,119.142 427.5,126.5C 437.994,121.087 448.327,115.421 458.5,109.5C 459.794,113.733 459.794,118.066 458.5,122.5C 448.463,129.513 438.463,136.513 428.5,143.5C 438.833,138.336 448.833,132.669 458.5,126.5C 459.797,131.066 459.797,135.733 458.5,140.5C 449.87,145.809 441.536,151.475 433.5,157.5C 442.402,153.264 451.068,148.597 459.5,143.5C 459.82,162.576 459.487,181.576 458.5,200.5C 453.868,203.143 449.535,206.143 445.5,209.5C 450.167,207.167 454.833,204.833 459.5,202.5C 459.5,206.833 459.5,211.167 459.5,215.5C 444.955,225.266 430.621,235.266 416.5,245.5C 430.968,237.766 445.301,229.766 459.5,221.5C 459.5,225.833 459.5,230.167 459.5,234.5C 449.463,241.513 439.463,248.513 429.5,255.5C 439.5,250.167 449.5,244.833 459.5,239.5C 459.5,243.833 459.5,248.167 459.5,252.5C 447.114,260.353 435.114,268.686 423.5,277.5C 435.738,271.262 447.738,264.596 459.5,257.5C 459.83,275.008 459.497,292.341 458.5,309.5C 445.954,317.933 433.621,326.6 421.5,335.5C 433.968,328.765 446.302,321.765 458.5,314.5C 459.794,318.733 459.794,323.066 458.5,327.5C 459.79,339.453 459.79,351.786 458.5,364.5C 450.783,369.018 443.449,374.018 436.5,379.5C 444.126,376.02 451.46,372.02 458.5,367.5C 459.182,376.263 459.182,385.263 458.5,394.5C 455.527,396.147 452.86,398.147 450.5,400.5C 453.45,399.692 456.117,398.358 458.5,396.5C 459.8,401.4 459.8,406.4 458.5,411.5C 452.525,415.481 446.858,419.814 441.5,424.5C 447.298,421.767 452.965,418.767 458.5,415.5C 459.816,424.735 459.816,434.068 458.5,443.5C 458.062,443.435 457.728,443.601 457.5,444C 459.477,460.595 460.144,477.428 459.5,494.5C 455.856,493.685 452.189,492.852 448.5,492C 447.944,491.617 447.611,491.117 447.5,490.5C 437.105,489.399 427.105,487.066 417.5,483.5C 421.397,480.391 425.064,477.057 428.5,473.5C 422.835,475.997 417.502,478.997 412.5,482.5C 407.272,481.611 402.272,480.278 397.5,478.5C 403.24,474.635 408.573,470.302 413.5,465.5C 406.004,468.745 399.004,472.745 392.5,477.5C 382.857,475.353 373.19,473.186 363.5,471C 362.944,470.617 362.611,470.117 362.5,469.5C 374.736,461.597 386.403,452.93 397.5,443.5C 383.167,451.5 368.833,459.5 354.5,467.5C 350.753,467.608 347.086,467.108 343.5,466C 342.244,465.583 341.577,464.75 341.5,463.5C 350.048,457.733 358.381,451.733 366.5,445.5C 355.667,450.746 345.334,456.746 335.5,463.5C 331.447,462.987 327.447,462.154 323.5,461C 322.748,460.329 322.414,459.496 322.5,458.5C 323.167,458.5 323.5,458.167 323.5,457.5C 322.508,457.328 321.842,457.662 321.5,458.5C 320.508,458.328 319.842,458.662 319.5,459.5C 314.46,459.077 309.793,457.744 305.5,455.5C 318.799,446.857 331.799,437.857 344.5,428.5C 331.33,435.584 318.33,442.917 305.5,450.5C 304.125,443.711 303.458,436.711 303.5,429.5C 303.938,429.565 304.272,429.399 304.5,429C 302.623,425.506 301.956,421.673 302.5,417.5C 306.025,416.241 309.025,414.241 311.5,411.5C 308.5,412.833 305.5,414.167 302.5,415.5C 301.518,412.038 301.185,408.371 301.5,404.5C 318.045,393.401 334.378,382.067 350.5,370.5C 334.006,379.246 317.673,388.246 301.5,397.5C 300.839,395.866 300.506,394.033 300.5,392C 300.658,389.551 301.325,387.384 302.5,385.5C 303.167,385.5 303.5,385.167 303.5,384.5C 302.5,384.5 301.5,384.5 300.5,384.5C 300.5,380.833 300.5,377.167 300.5,373.5C 301.833,373.167 301.833,372.833 300.5,372.5C 300.5,368.833 300.5,365.167 300.5,361.5C 299.306,357.563 299.306,353.229 300.5,348.5C 318.132,336.857 335.465,324.857 352.5,312.5C 335.167,322.167 317.833,331.833 300.5,341.5C 299.209,337.601 299.209,333.601 300.5,329.5C 316.187,319.659 331.52,309.326 346.5,298.5C 330.87,306.648 315.536,315.315 300.5,324.5C 299.209,320.601 299.209,316.601 300.5,312.5C 314.537,302.821 328.537,293.154 342.5,283.5C 343.609,283.443 344.609,283.11 345.5,282.5C 346.315,284.908 347.981,285.741 350.5,285C 355.167,282.333 359.833,279.667 364.5,277C 366.553,275.322 366.887,273.489 365.5,271.5C 369.752,263.271 370.585,254.604 368,245.5C 359.74,231.647 348.573,228.813 334.5,237C 327.179,241.638 323.179,248.304 322.5,257C 323.059,263.174 324.726,269.008 327.5,274.5C 318.366,279.234 309.366,284.234 300.5,289.5C 300.5,282.167 300.5,274.833 300.5,267.5C 302.027,267.573 303.027,266.906 303.5,265.5C 302.391,265.557 301.391,265.89 300.5,266.5C 300.19,255.419 300.523,244.419 301.5,233.5C 314.551,225.315 327.218,216.648 339.5,207.5C 326.85,214.472 314.184,221.472 301.5,228.5C 301.5,224.5 301.5,220.5 301.5,216.5C 317.377,206.068 333.044,195.401 348.5,184.5C 332.833,193.167 317.167,201.833 301.5,210.5C 301.237,206.4 301.57,202.4 302.5,198.5C 316.537,188.821 330.537,179.154 344.5,169.5C 330.5,177.167 316.5,184.833 302.5,192.5C 301.209,188.601 301.209,184.601 302.5,180.5C 315.13,172.525 327.463,164.192 339.5,155.5C 327.167,162.167 314.833,168.833 302.5,175.5C 301.274,171.633 301.274,167.633 302.5,163.5C 314.024,156.908 325.024,149.575 335.5,141.5C 324.367,147.234 313.367,153.234 302.5,159.5C 301.181,148.265 301.181,136.931 302.5,125.5C 306.146,123.183 309.48,120.516 312.5,117.5C 308.684,118.909 305.017,120.576 301.5,122.5C 301.334,116.824 301.501,111.157 302,105.5C 307.364,101.416 312.864,98.4162 318.5,96.5C 318.296,98.6854 317.63,100.685 316.5,102.5C 327.998,96.9214 338.998,90.588 349.5,83.5C 350.492,83.6716 351.158,83.3382 351.5,82.5C 352.492,82.6716 353.158,82.3382 353.5,81.5C 361.446,77.629 369.78,74.9624 378.5,73.5C 379.686,75.1942 379.519,76.8608 378,78.5C 371.816,83.1627 365.982,88.1627 360.5,93.5C 378.168,84.0019 395.501,74.0019 412.5,63.5C 413.492,63.6716 414.158,63.3382 414.5,62.5C 426.359,57.7692 438.359,53.4359 450.5,49.5 Z M 440.5,84.5 C 440.027,85.9063 439.027,86.573 437.5,86.5C 437.973,85.0937 438.973,84.427 440.5,84.5 Z M 338.5,139.5 C 338.027,140.906 337.027,141.573 335.5,141.5C 335.973,140.094 336.973,139.427 338.5,139.5 Z M 342.5,153.5 C 342.027,154.906 341.027,155.573 339.5,155.5C 339.973,154.094 340.973,153.427 342.5,153.5 Z M 433.5,157.5 C 433.027,158.906 432.027,159.573 430.5,159.5C 430.973,158.094 431.973,157.427 433.5,157.5 Z M 347.5,167.5 C 347.027,168.906 346.027,169.573 344.5,169.5C 344.973,168.094 345.973,167.427 347.5,167.5 Z M 342.5,205.5 C 342.027,206.906 341.027,207.573 339.5,207.5C 339.973,206.094 340.973,205.427 342.5,205.5 Z M 429.5,255.5 C 429.027,256.906 428.027,257.573 426.5,257.5C 426.973,256.094 427.973,255.427 429.5,255.5 Z M 423.5,277.5 C 423.027,278.906 422.027,279.573 420.5,279.5C 420.973,278.094 421.973,277.427 423.5,277.5 Z M 349.5,296.5 C 349.027,297.906 348.027,298.573 346.5,298.5C 346.973,297.094 347.973,296.427 349.5,296.5 Z M 353.5,368.5 C 353.027,369.906 352.027,370.573 350.5,370.5C 350.973,369.094 351.973,368.427 353.5,368.5 Z M 436.5,379.5 C 436.027,380.906 435.027,381.573 433.5,381.5C 433.973,380.094 434.973,379.427 436.5,379.5 Z M 306.5,382.5 C 306.027,383.906 305.027,384.573 303.5,384.5C 303.973,383.094 304.973,382.427 306.5,382.5 Z M 450.5,400.5 C 450.027,401.906 449.027,402.573 447.5,402.5C 447.973,401.094 448.973,400.427 450.5,400.5 Z M 314.5,409.5 C 314.027,410.906 313.027,411.573 311.5,411.5C 311.973,410.094 312.973,409.427 314.5,409.5 Z M 347.5,426.5 C 347.027,427.906 346.027,428.573 344.5,428.5C 344.973,427.094 345.973,426.427 347.5,426.5 Z M 326.5,455.5 C 326.027,456.906 325.027,457.573 323.5,457.5C 323.973,456.094 324.973,455.427 326.5,455.5 Z"/></g>
<g><path style="opacity:1" fill="#655149" d="M 470.5,41.5 C 470.338,43.5273 470.505,45.5273 471,47.5C 472.71,46.0552 474.544,45.2218 476.5,45C 472.015,47.6242 470.015,51.4575 470.5,56.5C 469.167,51.5 469.167,46.5 470.5,41.5 Z"/></g>
<g><path style="opacity:0.318" fill="#bfbfbf" d="M 506.5,50.5 C 507.833,52.5 507.833,54.5 506.5,56.5C 505.167,54.5 505.167,52.5 506.5,50.5 Z"/></g>
<g><path style="opacity:0.253" fill="#bfbfbf" d="M 506.5,68.5 C 507.833,70.5 507.833,72.5 506.5,74.5C 505.167,72.5 505.167,70.5 506.5,68.5 Z"/></g>
<g><path style="opacity:0.122" fill="#805540" d="M 474.5,77.5 C 473.833,77.5 473.5,77.8333 473.5,78.5C 471.821,78.7148 470.821,78.0481 470.5,76.5C 473.423,75.705 476.09,74.3716 478.5,72.5C 478.236,74.4981 476.903,76.1648 474.5,77.5 Z"/></g>
<g><path style="opacity:0.26" fill="#bfbfbf" d="M 506.5,85.5 C 507.833,87.5 507.833,89.5 506.5,91.5C 505.167,89.5 505.167,87.5 506.5,85.5 Z"/></g>
<g><path style="opacity:0.047" fill="#865d4a" d="M 475.5,93.5 C 475.167,93.5 474.833,93.5 474.5,93.5C 474.811,92.5222 475.478,91.8555 476.5,91.5C 477.4,92.357 477.066,93.0237 475.5,93.5 Z"/></g>
<g><path style="opacity:0.247" fill="#bfbfbf" d="M 506.5,101.5 C 507.742,103.611 507.742,105.611 506.5,107.5C 505.167,105.5 505.167,103.5 506.5,101.5 Z"/></g>
<g><path style="opacity:0.788" fill="#845c48" d="M 473.5,112.5 C 472.508,112.672 471.842,112.338 471.5,111.5C 473.213,109.805 475.213,108.972 477.5,109C 476.295,110.376 474.962,111.542 473.5,112.5 Z"/></g>
<g><path style="opacity:0.257" fill="#bfbfbf" d="M 506.5,115.5 C 507.833,117.5 507.833,119.5 506.5,121.5C 505.167,119.5 505.167,117.5 506.5,115.5 Z"/></g>
<g><path style="opacity:0.805" fill="#7b4c39" d="M 215.5,120.5 C 218.034,122.916 218.034,125.25 215.5,127.5C 215.5,125.167 215.5,122.833 215.5,120.5 Z"/></g>
<g><path style="opacity:0.249" fill="#c4c4c4" d="M 506.5,127.5 C 507.833,129.167 507.833,130.833 506.5,132.5C 505.167,130.833 505.167,129.167 506.5,127.5 Z"/></g>
<g><path style="opacity:1" fill="#796d68" d="M 472.5,114.5 C 471.945,118.997 472.611,123.164 474.5,127C 474,127.5 473.5,128 473,128.5C 472.333,139.833 472.333,151.167 473,162.5C 475.449,160.854 477.949,159.687 480.5,159C 477.964,161.705 475.297,164.205 472.5,166.5C 471.202,149.027 471.202,131.693 472.5,114.5 Z"/></g>
<g><path style="opacity:0.832" fill="#724a38" d="M 215.5,137.5 C 218.034,139.75 218.034,142.084 215.5,144.5C 214.167,142.167 214.167,139.833 215.5,137.5 Z"/></g>
<g><path style="opacity:0.306" fill="#bebebe" d="M 506.5,137.5 C 507.833,139.5 507.833,141.5 506.5,143.5C 505.167,141.5 505.167,139.5 506.5,137.5 Z"/></g>
<g><path style="opacity:0.842" fill="#774938" d="M 215.5,148.5 C 218.148,151.122 218.148,153.789 215.5,156.5C 214.167,153.833 214.167,151.167 215.5,148.5 Z"/></g>
<g><path style="opacity:0.325" fill="#c3c3c3" d="M 506.5,155.5 C 507.833,157.167 507.833,158.833 506.5,160.5C 505.167,158.833 505.167,157.167 506.5,155.5 Z"/></g>
<g><path style="opacity:0.81" fill="#754c37" d="M 215.5,160.5 C 218.148,163.122 218.148,165.789 215.5,168.5C 214.167,165.833 214.167,163.167 215.5,160.5 Z"/></g>
<g><path style="opacity:0.248" fill="#bdbdbd" d="M 506.5,170.5 C 507.833,172.5 507.833,174.5 506.5,176.5C 505.167,174.5 505.167,172.5 506.5,170.5 Z"/></g>
<g><path style="opacity:0.823" fill="#724a34" d="M 215.5,174.5 C 216.947,175.134 217.613,176.301 217.5,178C 217.613,179.699 216.947,180.866 215.5,181.5C 214.167,179.167 214.167,176.833 215.5,174.5 Z"/></g>
<g><path style="opacity:1" fill="#6d615c" d="M 45.5,166.5 C 45.185,170.371 45.5184,174.038 46.5,177.5C 46.5,178.833 46.5,180.167 46.5,181.5C 45.2216,186.135 45.2216,190.802 46.5,195.5C 46.7373,196.791 46.404,197.791 45.5,198.5C 44.1667,187.833 44.1667,177.167 45.5,166.5 Z"/></g>
<g><path style="opacity:0.318" fill="#bdbdbd" d="M 506.5,182.5 C 507.742,184.611 507.742,186.611 506.5,188.5C 505.167,186.5 505.167,184.5 506.5,182.5 Z"/></g>
<g><path style="opacity:0.246" fill="#c1c1c1" d="M 506.5,193.5 C 507.833,195.167 507.833,196.833 506.5,198.5C 505.167,196.833 505.167,195.167 506.5,193.5 Z"/></g>
<g><path style="opacity:0.842" fill="#7b4e38" d="M 215.5,204.5 C 218.034,206.75 218.034,209.084 215.5,211.5C 215.5,209.167 215.5,206.833 215.5,204.5 Z"/></g>
<g><path style="opacity:0.233" fill="#bdbdbd" d="M 506.5,210.5 C 507.833,212.5 507.833,214.5 506.5,216.5C 505.167,214.5 505.167,212.5 506.5,210.5 Z"/></g>
<g><path style="opacity:1" fill="#855a48" d="M 472.5,222.5 C 472.5,221.167 472.5,219.833 472.5,218.5C 474.213,216.805 476.213,215.972 478.5,216C 476.6,218.335 474.6,220.502 472.5,222.5 Z"/></g>
<g><path style="opacity:0.492" fill="#794d39" d="M 215.5,218.5 C 217.729,220.099 218.062,222.099 216.5,224.5C 215.539,222.735 215.205,220.735 215.5,218.5 Z"/></g>
<g><path style="opacity:0.307" fill="#c6c6c6" d="M 506.5,223.5 C 507.833,225.167 507.833,226.833 506.5,228.5C 505.167,226.833 505.167,225.167 506.5,223.5 Z"/></g>
<g><path style="opacity:0.999" fill="#282726" d="M 181.5,248.5 C 181.5,249.5 181.5,250.5 181.5,251.5C 181.774,256.263 181.441,260.93 180.5,265.5C 179.5,267.5 178.5,269.5 177.5,271.5C 173.052,277.598 167.052,281.264 159.5,282.5C 157.5,282.5 155.5,282.5 153.5,282.5C 148.061,281.526 143.561,278.86 140,274.5C 131.576,261.572 132.743,249.739 143.5,239C 160.054,227.809 172.721,230.976 181.5,248.5 Z"/></g>
<g><path style="opacity:0.998" fill="#282726" d="M 365.5,271.5 C 360.596,278.287 353.929,281.954 345.5,282.5C 344.609,283.11 343.609,283.443 342.5,283.5C 341.167,283.167 339.833,282.833 338.5,282.5C 334.705,280.432 331.039,278.099 327.5,275.5C 327.5,275.167 327.5,274.833 327.5,274.5C 324.726,269.008 323.059,263.174 322.5,257C 323.179,248.304 327.179,241.638 334.5,237C 348.573,228.813 359.74,231.647 368,245.5C 370.585,254.604 369.752,263.271 365.5,271.5 Z"/></g>
<g><path style="opacity:0.231" fill="#bbbbbb" d="M 506.5,239.5 C 507.833,241.5 507.833,243.5 506.5,245.5C 505.167,243.5 505.167,241.5 506.5,239.5 Z"/></g>
<g><path style="opacity:1" fill="#f0b330" d="M 154.5,240.5 C 163.016,241.18 167.849,245.847 169,254.5C 170.104,260.226 169.104,265.56 166,270.5C 162.662,273.318 158.829,274.151 154.5,273C 145.235,262.028 145.235,251.194 154.5,240.5 Z"/></g>
<g><path style="opacity:1" fill="#f2b530" d="M 356.5,257.5 C 355.522,257.811 354.855,258.478 354.5,259.5C 354.846,260.696 355.346,260.696 356,259.5C 356.49,260.793 356.657,262.127 356.5,263.5C 355.031,272.568 350.031,275.401 341.5,272C 339.84,270.512 338.84,268.679 338.5,266.5C 340.114,264.544 341.781,262.544 343.5,260.5C 343.333,260.167 343.167,259.833 343,259.5C 341.007,260.914 338.84,261.914 336.5,262.5C 333.8,254.005 335.8,246.838 342.5,241C 349.397,240.539 353.897,243.706 356,250.5C 356.497,252.81 356.663,255.143 356.5,257.5 Z"/></g>
<g><path style="opacity:1" fill="#7d726d" d="M 45.5,230.5 C 45.607,236.154 45.607,241.821 45.5,247.5C 44.1667,241.833 44.1667,236.167 45.5,230.5 Z"/></g>
<g><path style="opacity:0.236" fill="#bdbdbd" d="M 506.5,250.5 C 507.833,252.5 507.833,254.5 506.5,256.5C 505.167,254.5 505.167,252.5 506.5,250.5 Z"/></g>
<g><path style="opacity:1" fill="#8e6731" d="M 356.5,257.5 C 357.742,259.611 357.742,261.611 356.5,263.5C 356.657,262.127 356.49,260.793 356,259.5C 355.346,260.696 354.846,260.696 354.5,259.5C 354.855,258.478 355.522,257.811 356.5,257.5 Z"/></g>
<g><path style="opacity:1" fill="#868686" d="M 31.5,180.5 C 32.8333,216.833 32.8333,253.167 31.5,289.5C 31.4882,252.861 31.4882,216.528 31.5,180.5 Z"/></g>
<g><path style="opacity:1" fill="#635854" d="M 472.5,249.5 C 473.167,249.5 473.833,249.5 474.5,249.5C 474.217,250.289 473.717,250.956 473,251.5C 472.168,259.521 472.335,267.521 473.5,275.5C 474.62,274.167 475.953,273.667 477.5,274C 475.963,275.707 474.296,277.207 472.5,278.5C 471.19,268.803 471.19,259.137 472.5,249.5 Z"/></g>
<g><path style="opacity:1" fill="#8b5a38" d="M 338.5,266.5 C 337.655,265.329 336.989,263.995 336.5,262.5C 338.84,261.914 341.007,260.914 343,259.5C 343.167,259.833 343.333,260.167 343.5,260.5C 341.781,262.544 340.114,264.544 338.5,266.5 Z"/></g>
<g><path style="opacity:0.867" fill="#dfa630" d="M 180.5,265.5 C 180.833,265.5 181.167,265.5 181.5,265.5C 181.5,265.833 181.5,266.167 181.5,266.5C 181.431,269.084 180.265,271.084 178,272.5C 177.601,272.272 177.435,271.938 177.5,271.5C 178.5,269.5 179.5,267.5 180.5,265.5 Z"/></g>
<g><path style="opacity:0.289" fill="#bcbcbc" d="M 506.5,266.5 C 507.833,268.5 507.833,270.5 506.5,272.5C 505.167,270.5 505.167,268.5 506.5,266.5 Z"/></g>
<g><path style="opacity:0.963" fill="#794b38" d="M 327.5,275.5 C 331.039,278.099 334.705,280.432 338.5,282.5C 326.168,290.335 313.502,297.668 300.5,304.5C 298.977,300.388 299.311,296.388 301.5,292.5C 310.167,286.833 318.833,281.167 327.5,275.5 Z"/></g>
<g><path style="opacity:1" fill="#e4a931" d="M 365.5,271.5 C 366.887,273.489 366.553,275.322 364.5,277C 359.833,279.667 355.167,282.333 350.5,285C 347.981,285.741 346.315,284.908 345.5,282.5C 353.929,281.954 360.596,278.287 365.5,271.5 Z"/></g>
<g><path style="opacity:1" fill="#a1a1a1" d="M 506.5,279.5 C 507.833,281.5 507.833,283.5 506.5,285.5C 505.167,283.5 505.167,281.5 506.5,279.5 Z"/></g>
<g><path style="opacity:1" fill="#c39031" d="M 153.5,282.5 C 155.5,282.5 157.5,282.5 159.5,282.5C 157.406,284.994 155.406,284.994 153.5,282.5 Z"/></g>
<g><path style="opacity:1" fill="#747372" d="M 472.5,279.5 C 472.607,284.143 472.607,288.476 472.5,292.5C 471.167,288.167 471.167,283.833 472.5,279.5 Z"/></g>
<g><path style="opacity:0.242" fill="#bdbdbd" d="M 506.5,295.5 C 507.833,297.5 507.833,299.5 506.5,301.5C 505.167,299.5 505.167,297.5 506.5,295.5 Z"/></g>
<g><path style="opacity:0.284" fill="#bdbdbd" d="M 506.5,314.5 C 507.833,316.5 507.833,318.5 506.5,320.5C 505.167,318.5 505.167,316.5 506.5,314.5 Z"/></g>
<g><path style="opacity:0.984" fill="#7c5240" d="M 478.5,318.5 C 476.542,321.792 474.209,324.792 471.5,327.5C 471.5,325.5 471.5,323.5 471.5,321.5C 473.645,320.011 475.978,319.011 478.5,318.5 Z"/></g>
<g><path style="opacity:0.303" fill="#bfbfbf" d="M 506.5,326.5 C 507.833,328.167 507.833,329.833 506.5,331.5C 505.167,329.833 505.167,328.167 506.5,326.5 Z"/></g>
<g><path style="opacity:1" fill="#a09692" d="M 45.5,332.5 C 46.8333,334.5 46.8333,336.5 45.5,338.5C 44.1667,336.5 44.1667,334.5 45.5,332.5 Z"/></g>
<g><path style="opacity:0.271" fill="#bcbcbc" d="M 506.5,339.5 C 507.833,341.5 507.833,343.5 506.5,345.5C 505.167,343.5 505.167,341.5 506.5,339.5 Z"/></g>
<g><path style="opacity:1" fill="#595757" d="M 32.5,336.5 C 33.494,346.319 33.8274,356.319 33.5,366.5C 32.8333,366.5 32.1667,366.5 31.5,366.5C 32.4741,356.582 32.8074,346.582 32.5,336.5 Z"/></g>
<g><path style="opacity:1" fill="#a6a6a6" d="M 506.5,357.5 C 507.833,359.167 507.833,360.833 506.5,362.5C 505.167,360.833 505.167,359.167 506.5,357.5 Z"/></g>
<g><path style="opacity:1" fill="#825744" d="M 471.5,369.5 C 471.5,368.167 471.5,366.833 471.5,365.5C 474.341,363.413 477.341,361.913 480.5,361C 477.631,364.038 474.631,366.871 471.5,369.5 Z"/></g>
<g><path style="opacity:0.295" fill="#c3c3c3" d="M 506.5,372.5 C 507.742,374.611 507.742,376.611 506.5,378.5C 505.167,376.5 505.167,374.5 506.5,372.5 Z"/></g>
<g><path style="opacity:0.625" fill="#7f5240" d="M 472.5,384.5 C 471.662,384.158 471.328,383.492 471.5,382.5C 477.649,379.748 477.982,380.415 472.5,384.5 Z"/></g>
<g><path style="opacity:1" fill="#a09793" d="M 45.5,389.5 C 46.8333,391.5 46.8333,393.5 45.5,395.5C 44.1667,393.5 44.1667,391.5 45.5,389.5 Z"/></g>
<g><path style="opacity:0.303" fill="#c3c3c3" d="M 506.5,391.5 C 507.742,393.611 507.742,395.611 506.5,397.5C 505.167,395.5 505.167,393.5 506.5,391.5 Z"/></g>
<g><path style="opacity:0.922" fill="#845845" d="M 475.5,399.5 C 473.938,399.733 472.605,400.4 471.5,401.5C 471.5,400.5 471.5,399.5 471.5,398.5C 473.704,397.054 476.037,396.22 478.5,396C 477.29,397.039 476.29,398.206 475.5,399.5 Z"/></g>
<g><path style="opacity:0.295" fill="#bebebe" d="M 506.5,407.5 C 507.833,409.5 507.833,411.5 506.5,413.5C 505.167,411.5 505.167,409.5 506.5,407.5 Z"/></g>
<g><path style="opacity:0.86" fill="#784b38" d="M 215.5,415.5 C 218.127,418.377 217.794,421.044 214.5,423.5C 214.194,420.615 214.527,417.948 215.5,415.5 Z"/></g>
<g><path style="opacity:0.49" fill="#835845" d="M 471.5,420.5 C 471.5,419.5 471.5,418.5 471.5,417.5C 473.052,416.378 474.718,415.878 476.5,416C 474.76,417.517 473.094,419.017 471.5,420.5 Z"/></g>
<g><path style="opacity:1" fill="#8f8f8f" d="M 31.5,366.5 C 32.1667,366.5 32.8333,366.5 33.5,366.5C 33.8318,403.004 33.4984,439.337 32.5,475.5C 33.1564,439.112 32.4897,402.945 30.5,367C 30.7284,366.601 31.0618,366.435 31.5,366.5 Z"/></g>
<g><path style="opacity:0.288" fill="#bdbdbd" d="M 506.5,421.5 C 507.833,423.5 507.833,425.5 506.5,427.5C 505.167,425.5 505.167,423.5 506.5,421.5 Z"/></g>
<g><path style="opacity:0.855" fill="#744837" d="M 214.5,429.5 C 216.439,430.014 217.439,431.347 217.5,433.5C 216.6,436.716 214.933,439.382 212.5,441.5C 212.198,437.21 212.864,433.21 214.5,429.5 Z"/></g>
<g><path style="opacity:1" fill="#776c68" d="M 45.5,415.5 C 46.3382,415.842 46.6716,416.508 46.5,417.5C 46.4357,425.629 46.4357,433.629 46.5,441.5C 46.5,442.5 46.5,443.5 46.5,444.5C 45.2463,448.818 45.2463,453.152 46.5,457.5C 46.4431,458.609 46.1098,459.609 45.5,460.5C 44.1667,445.5 44.1667,430.5 45.5,415.5 Z"/></g>
<g><path style="opacity:1" fill="#a2a2a2" d="M 506.5,438.5 C 507.833,440.5 507.833,442.5 506.5,444.5C 505.167,442.5 505.167,440.5 506.5,438.5 Z"/></g>
<g><path style="opacity:0.098" fill="#80563e" d="M 472.5,449.5 C 472.167,449.5 471.833,449.5 471.5,449.5C 471.5,448.5 471.5,447.5 471.5,446.5C 479.054,443.669 479.388,444.669 472.5,449.5 Z"/></g>
<g><path style="opacity:0.915" fill="#794d38" d="M 212.5,447.5 C 215.695,447.513 217.362,449.18 217.5,452.5C 216.2,455.658 213.867,457.658 210.5,458.5C 210.251,454.542 210.918,450.876 212.5,447.5 Z"/></g>
<g><path style="opacity:0.284" fill="#c2c2c2" d="M 506.5,450.5 C 507.742,452.611 507.742,454.611 506.5,456.5C 505.167,454.5 505.167,452.5 506.5,450.5 Z"/></g>
<g><path style="opacity:0.912" fill="#764a37" d="M 201.5,463.5 C 196.846,468.322 191.179,470.489 184.5,470C 183.748,469.329 183.414,468.496 183.5,467.5C 189.382,465.741 195.382,464.407 201.5,463.5 Z"/></g>
<g><path style="opacity:0.228" fill="#bcbcbc" d="M 506.5,465.5 C 507.833,467.5 507.833,469.5 506.5,471.5C 505.167,469.5 505.167,467.5 506.5,465.5 Z"/></g>
<g><path style="opacity:0.878" fill="#744937" d="M 146.5,477.5 C 142.194,479.988 137.861,482.488 133.5,485C 130.519,485.838 128.186,485.005 126.5,482.5C 133.094,479.518 139.761,477.851 146.5,477.5 Z"/></g>
<g><path style="opacity:0.997" fill="#827c7a" d="M 45.5,484.5 C 46.628,487.781 46.628,491.115 45.5,494.5C 44.1667,491.167 44.1667,487.833 45.5,484.5 Z"/></g>
<g><path style="opacity:0.766" fill="#d7d7d7" d="M 506.5,492.5 C 507.99,495.212 507.656,497.712 505.5,500C 501.5,502.333 497.5,504.667 493.5,507C 491.011,507.941 489.011,507.441 487.5,505.5C 495.319,503.417 501.652,499.084 506.5,492.5 Z"/></g>
<g><path style="opacity:0.89" fill="#734837" d="M 97.5,490.5 C 93.2847,494.786 88.2847,496.453 82.5,495.5C 87.1471,493.081 92.1471,491.414 97.5,490.5 Z"/></g>
<g><path style="opacity:0.788" fill="#949494" d="M 465.5,505.5 C 467.5,504.167 469.5,504.167 471.5,505.5C 469.549,506.641 467.549,506.641 465.5,505.5 Z"/></g>
<g><path style="opacity:0.31" fill="#cacaca" d="M 12.5,505.5 C 14.7857,505.595 16.7857,506.262 18.5,507.5C 16.1016,507.741 14.1016,507.074 12.5,505.5 Z"/></g>
<g><path style="opacity:0.352" fill="#d2d2d2" d="M 42.5,505.5 C 40.5615,507.163 38.2282,507.829 35.5,507.5C 37.5145,506.076 39.8478,505.41 42.5,505.5 Z"/></g>
</svg>
