<?xml version="1.0" encoding="UTF-8"?>
<!DOCTYPE svg PUBLIC "-//W3C//DTD SVG 1.1//EN" "http://www.w3.org/Graphics/SVG/1.1/DTD/svg11.dtd">
<svg xmlns="http://www.w3.org/2000/svg" version="1.1" width="512px" height="512px" style="shape-rendering:geometricPrecision; text-rendering:geometricPrecision; image-rendering:optimizeQuality; fill-rule:evenodd; clip-rule:evenodd" xmlns:xlink="http://www.w3.org/1999/xlink">
<g><path style="opacity:0.716" fill="#c8d1d8" d="M 378.5,5.5 C 375.833,5.5 373.167,5.5 370.5,5.5C 373.243,2.94054 375.91,2.94054 378.5,5.5 Z"/></g>
<g><path style="opacity:0.965" fill="#262626" d="M 370.5,5.5 C 373.167,5.5 375.833,5.5 378.5,5.5C 391.376,6.8766 398.376,14.0433 399.5,27C 398.182,93.1587 398.182,159.325 399.5,225.5C 413.557,223.922 427.557,224.422 441.5,227C 456.542,232.078 462.209,242.411 458.5,258C 469.404,257.138 480.071,258.471 490.5,262C 503.944,268.62 510.61,279.454 510.5,294.5C 509.167,354.167 509.167,413.833 510.5,473.5C 510.435,488.053 503.769,498.22 490.5,504C 481.119,507.309 471.453,509.143 461.5,509.5C 431.862,507.957 402.195,507.29 372.5,507.5C 262.627,508.769 152.794,508.769 43,507.5C 34.8668,506.37 26.7002,505.537 18.5,505C 11.9452,501.445 7.11189,496.279 4,489.5C 1.57502,481.692 0.408355,473.692 0.5,465.5C 1.12485,451.505 1.62485,437.505 2,423.5C 5.56027,405.275 16.7269,395.775 35.5,395C 59.1625,395.476 82.8292,395.809 106.5,396C 111.083,395.438 115.417,394.105 119.5,392C 120.126,391.25 120.626,390.416 121,389.5C 121.167,386.167 121.333,382.833 121.5,379.5C 117.891,364.055 120.724,350.055 130,337.5C 142.971,327.755 157.638,323.755 174,325.5C 190.034,326.041 206.034,327.041 222,328.5C 227.309,328.086 232.809,327.753 238.5,327.5C 239.114,313.123 240.281,298.79 242,284.5C 244.057,270.777 251.89,262.61 265.5,260C 274.124,258.869 282.79,258.202 291.5,258C 288.24,243.854 293.24,233.854 306.5,228C 310.988,226.189 315.654,225.189 320.5,225C 330.828,224.5 341.161,224.334 351.5,224.5C 351.5,199.167 351.5,173.833 351.5,148.5C 349.365,146.631 346.698,145.964 343.5,146.5C 336.833,146.5 330.167,146.5 323.5,146.5C 320.167,145.167 316.833,145.167 313.5,146.5C 307.178,147.014 300.845,147.347 294.5,147.5C 292.265,147.205 290.265,147.539 288.5,148.5C 275.818,148.882 263.152,149.548 250.5,150.5C 242.025,150.182 233.692,149.015 225.5,147C 220.311,145.142 217.311,141.476 216.5,136C 217.346,130.805 219.179,125.972 222,121.5C 231.014,108.478 241.514,96.6444 253.5,86C 243.322,76.4883 233.822,66.3217 225,55.5C 219.625,48.7548 217.125,41.0881 217.5,32.5C 219.137,30.5248 220.804,28.5248 222.5,26.5C 222.973,25.0937 223.973,24.427 225.5,24.5C 229.084,24.0246 232.417,23.0246 235.5,21.5C 252.494,20.219 269.494,20.219 286.5,21.5C 288.5,22.8333 290.5,22.8333 292.5,21.5C 299.465,22.3409 306.465,22.6743 313.5,22.5C 316.625,23.4794 319.958,23.8128 323.5,23.5C 329.833,23.5 336.167,23.5 342.5,23.5C 346.122,23.678 349.456,23.0114 352.5,21.5C 355.688,12.9773 361.688,7.644 370.5,5.5 Z M 237.5,28.5 C 238.833,28.5 240.167,28.5 241.5,28.5C 240.341,30.2503 238.674,31.2503 236.5,31.5C 236.263,30.209 236.596,29.209 237.5,28.5 Z M 261.5,28.5 C 265.167,28.5 268.833,28.5 272.5,28.5C 267.335,32.5863 261.668,35.9196 255.5,38.5C 257.075,34.9219 259.075,31.5886 261.5,28.5 Z M 292.5,28.5 C 295.833,28.5 299.167,28.5 302.5,28.5C 295.996,33.2552 288.996,37.2552 281.5,40.5C 285.167,36.5 288.833,32.5 292.5,28.5 Z M 322.5,28.5 C 325.833,28.5 329.167,28.5 332.5,28.5C 323.429,34.2252 314.096,39.5585 304.5,44.5C 310.203,38.7954 316.203,33.4621 322.5,28.5 Z M 351.5,29.5 C 351.5,31.5 351.5,33.5 351.5,35.5C 341.816,40.8615 332.15,46.1949 322.5,51.5C 331.59,43.4498 341.256,36.1165 351.5,29.5 Z M 239.5,42.5 C 238.248,44.0009 237.248,45.6675 236.5,47.5C 235.094,47.0269 234.427,46.0269 234.5,44.5C 236.05,43.5592 237.716,42.8925 239.5,42.5 Z M 351.5,50.5 C 351.5,52.1667 351.5,53.8333 351.5,55.5C 341.5,60.8333 331.5,66.1667 321.5,71.5C 331.142,64.0104 341.142,57.0104 351.5,50.5 Z M 254.5,51.5 C 252.167,54.1667 249.833,56.8333 247.5,59.5C 246.167,58.8333 245.167,57.8333 244.5,56.5C 247.85,54.8039 251.183,53.1373 254.5,51.5 Z M 270.5,59.5 C 266.485,63.5126 262.152,67.1793 257.5,70.5C 256.833,69.5 256.167,68.5 255.5,67.5C 260.368,64.5662 265.368,61.8995 270.5,59.5 Z M 351.5,69.5 C 351.5,69.8333 351.5,70.1667 351.5,70.5C 350.609,71.1098 349.609,71.4431 348.5,71.5C 348.973,70.0937 349.973,69.427 351.5,69.5 Z M 272.5,75.5 C 270.54,77.1563 268.54,78.823 266.5,80.5C 265.662,80.1583 265.328,79.4916 265.5,78.5C 267.713,77.2271 270.046,76.2271 272.5,75.5 Z M 274.5,91.5 C 263.526,99.989 252.193,107.989 240.5,115.5C 243.547,112.455 246.213,109.122 248.5,105.5C 257.167,100.833 265.833,96.1667 274.5,91.5 Z M 387.5,91.5 C 387.5,92.1667 387.5,92.8333 387.5,93.5C 386.833,93.5 386.167,93.5 385.5,93.5C 385.833,92.5 386.5,91.8333 387.5,91.5 Z M 261.5,118.5 C 261.027,119.906 260.027,120.573 258.5,120.5C 258.973,119.094 259.973,118.427 261.5,118.5 Z M 314.5,118.5 C 305.686,126.404 296.686,134.07 287.5,141.5C 283.167,141.5 278.833,141.5 274.5,141.5C 287.499,133.331 300.832,125.665 314.5,118.5 Z M 258.5,120.5 C 250.132,126.857 241.465,132.857 232.5,138.5C 231.5,138.167 230.833,137.5 230.5,136.5C 239.5,130.664 248.833,125.331 258.5,120.5 Z M 273.5,127.5 C 266.985,132.259 260.652,137.259 254.5,142.5C 252.167,142.5 249.833,142.5 247.5,142.5C 255.832,136.998 264.499,131.998 273.5,127.5 Z M 325.5,130.5 C 325.027,131.906 324.027,132.573 322.5,132.5C 322.973,131.094 323.973,130.427 325.5,130.5 Z M 351.5,130.5 C 351.5,131.167 351.5,131.833 351.5,132.5C 348.862,135.474 346.195,138.474 343.5,141.5C 339.833,141.5 336.167,141.5 332.5,141.5C 338.634,137.596 344.968,133.929 351.5,130.5 Z M 322.5,132.5 C 319.806,135.86 316.806,138.86 313.5,141.5C 311.167,141.5 308.833,141.5 306.5,141.5C 311.502,137.997 316.835,134.997 322.5,132.5 Z M 396.5,232.5 C 399.833,232.5 403.167,232.5 406.5,232.5C 403.506,235 400.173,237 396.5,238.5C 396.5,236.5 396.5,234.5 396.5,232.5 Z M 423.5,234.5 C 425.698,234.875 427.698,235.542 429.5,236.5C 422.816,240.195 416.15,243.862 409.5,247.5C 414.167,243.167 418.833,238.833 423.5,234.5 Z M 337.5,235.5 C 341.167,235.5 344.833,235.5 348.5,235.5C 341.532,240.322 334.199,244.656 326.5,248.5C 329.768,243.893 333.435,239.559 337.5,235.5 Z M 384.5,241.5 C 385.919,242.451 387.585,242.784 389.5,242.5C 384.006,246.082 378.339,249.415 372.5,252.5C 376.079,248.377 380.079,244.71 384.5,241.5 Z M 441.5,243.5 C 442.833,244.167 443.833,245.167 444.5,246.5C 440.299,249.1 435.966,251.434 431.5,253.5C 434.5,249.833 437.833,246.5 441.5,243.5 Z M 304.5,256.5 C 304.5,255.5 304.5,254.5 304.5,253.5C 306.017,253.489 307.184,252.823 308,251.5C 307.923,253.772 306.757,255.438 304.5,256.5 Z M 457.5,268.5 C 460.33,268.963 462.997,269.629 465.5,270.5C 462.651,272.85 459.485,274.85 456,276.5C 453.881,273.354 454.381,270.687 457.5,268.5 Z M 329.5,269.5 C 331.167,269.5 332.833,269.5 334.5,269.5C 324.833,275.669 314.833,281.336 304.5,286.5C 306.237,284.45 308.237,282.617 310.5,281C 317.23,277.643 323.563,273.81 329.5,269.5 Z M 292.5,270.5 C 292.833,270.5 293.167,270.5 293.5,270.5C 293.751,272.17 294.418,273.67 295.5,275C 290.271,278.113 284.938,280.947 279.5,283.5C 283.5,278.833 287.833,274.5 292.5,270.5 Z M 480.5,273.5 C 482.574,274.514 484.574,275.514 486.5,276.5C 450.834,297.669 414.834,318.336 378.5,338.5C 412.5,316.833 446.5,295.167 480.5,273.5 Z M 347.5,338.5 C 378.851,318.4 410.351,298.4 442,278.5C 442.346,280.218 442.846,281.885 443.5,283.5C 411.771,302.363 379.771,320.696 347.5,338.5 Z M 418.5,279.5 C 418.027,280.906 417.027,281.573 415.5,281.5C 415.973,280.094 416.973,279.427 418.5,279.5 Z M 385.5,285.5 C 386.665,283.584 388.332,282.751 390.5,283C 389.09,284.372 387.423,285.205 385.5,285.5 Z M 329.5,284.5 C 330.708,285.234 332.041,285.567 333.5,285.5C 305.665,302.588 277.331,318.921 248.5,334.5C 249.5,332.5 250.5,330.5 251.5,328.5C 277.473,313.845 303.473,299.179 329.5,284.5 Z M 358.5,284.5 C 359.708,285.234 361.041,285.567 362.5,285.5C 343.5,297.003 324.166,308.003 304.5,318.5C 322.127,306.68 340.127,295.347 358.5,284.5 Z M 383.5,286.5 C 383.027,287.906 382.027,288.573 380.5,288.5C 380.973,287.094 381.973,286.427 383.5,286.5 Z M 258.5,289.5 C 257.5,291.167 256.167,292.5 254.5,293.5C 254.5,292.833 254.5,292.167 254.5,291.5C 255.605,290.4 256.938,289.733 258.5,289.5 Z M 496.5,294.5 C 496.5,296.5 496.5,298.5 496.5,300.5C 468.301,316.765 439.968,332.765 411.5,348.5C 439.628,330.264 467.961,312.264 496.5,294.5 Z M 266.5,303.5 C 262.485,307.513 258.152,311.179 253.5,314.5C 253.5,313.167 253.5,311.833 253.5,310.5C 257.701,307.9 262.034,305.566 266.5,303.5 Z M 496.5,312.5 C 496.5,313.833 496.5,315.167 496.5,316.5C 476.797,328.352 456.797,339.685 436.5,350.5C 456.154,337.337 476.154,324.67 496.5,312.5 Z M 304.5,318.5 C 303.341,320.25 301.674,321.25 299.5,321.5C 300.659,319.75 302.326,318.75 304.5,318.5 Z M 299.5,321.5 C 299.027,322.906 298.027,323.573 296.5,323.5C 296.973,322.094 297.973,321.427 299.5,321.5 Z M 171.5,336.5 C 174.833,336.5 178.167,336.5 181.5,336.5C 174.996,341.255 167.996,345.255 160.5,348.5C 164.167,344.5 167.833,340.5 171.5,336.5 Z M 200.5,337.5 C 202.292,337.366 203.958,337.699 205.5,338.5C 199.43,342.558 193.097,346.225 186.5,349.5C 190.872,345.126 195.539,341.126 200.5,337.5 Z M 226.5,337.5 C 232.158,338.768 237.825,338.768 243.5,337.5C 193.664,367.255 143.331,396.255 92.5,424.5C 100.654,417.924 108.987,411.591 117.5,405.5C 127.339,405.763 133.006,401.096 134.5,391.5C 165.449,373.863 196.115,355.863 226.5,337.5 Z M 347.5,338.5 C 346.341,340.25 344.674,341.25 342.5,341.5C 343.659,339.75 345.326,338.75 347.5,338.5 Z M 378.5,338.5 C 377.341,340.25 375.674,341.25 373.5,341.5C 374.659,339.75 376.326,338.75 378.5,338.5 Z M 373.5,341.5 C 373.027,342.906 372.027,343.573 370.5,343.5C 370.973,342.094 371.973,341.427 373.5,341.5 Z M 411.5,348.5 C 411.027,349.906 410.027,350.573 408.5,350.5C 408.973,349.094 409.973,348.427 411.5,348.5 Z M 436.5,350.5 C 435.341,352.25 433.674,353.25 431.5,353.5C 432.659,351.75 434.326,350.75 436.5,350.5 Z M 496.5,350.5 C 496.5,353.167 496.5,355.833 496.5,358.5C 471.662,372.753 446.662,386.753 421.5,400.5C 446.291,383.598 471.291,366.932 496.5,350.5 Z M 431.5,353.5 C 431.027,354.906 430.027,355.573 428.5,355.5C 428.973,354.094 429.973,353.427 431.5,353.5 Z M 134.5,357.5 C 135.167,357.5 135.833,357.5 136.5,357.5C 136.167,358.5 135.5,359.167 134.5,359.5C 134.5,358.833 134.5,358.167 134.5,357.5 Z M 140.5,372.5 C 138.909,374.633 136.909,376.299 134.5,377.5C 134.5,376.833 134.5,376.167 134.5,375.5C 136.517,374.471 138.517,373.471 140.5,372.5 Z M 496.5,382.5 C 496.5,384.833 496.5,387.167 496.5,389.5C 477.635,400.432 458.635,411.099 439.5,421.5C 458.203,408.142 477.203,395.142 496.5,382.5 Z M 421.5,400.5 C 421.027,401.906 420.027,402.573 418.5,402.5C 418.973,401.094 419.973,400.427 421.5,400.5 Z M 496.5,401.5 C 496.5,402.167 496.5,402.833 496.5,403.5C 494.313,404.758 491.98,405.758 489.5,406.5C 491.531,404.478 493.865,402.811 496.5,401.5 Z M 47.5,403.5 C 40.7023,407.895 33.7023,411.728 26.5,415C 29.0509,411.956 31.3842,408.789 33.5,405.5C 38.1502,404.74 42.8169,404.074 47.5,403.5 Z M 65.5,404.5 C 68.7131,404.19 71.7131,404.523 74.5,405.5C 66.483,409.862 58.483,414.195 50.5,418.5C 55.5,413.833 60.5,409.167 65.5,404.5 Z M 92.5,406.5 C 93.5,406.5 94.5,406.5 95.5,406.5C 92.7598,408.56 89.7598,410.226 86.5,411.5C 88.4602,409.844 90.4602,408.177 92.5,406.5 Z M 496.5,415.5 C 496.5,416.167 496.5,416.833 496.5,417.5C 495.167,417.833 493.833,418.167 492.5,418.5C 493.436,417.026 494.77,416.026 496.5,415.5 Z M 187.5,425.5 C 186.341,427.25 184.674,428.25 182.5,428.5C 183.659,426.75 185.326,425.75 187.5,425.5 Z M 218.5,425.5 C 218.027,426.906 217.027,427.573 215.5,427.5C 215.973,426.094 216.973,425.427 218.5,425.5 Z M 182.5,428.5 C 146.206,451.986 109.54,474.986 72.5,497.5C 69.1667,497.5 65.8333,497.5 62.5,497.5C 102.166,473.998 142.166,450.998 182.5,428.5 Z M 213.5,428.5 C 177.372,451.736 141.039,474.736 104.5,497.5C 100.833,497.5 97.1667,497.5 93.5,497.5C 133.166,473.998 173.166,450.998 213.5,428.5 Z M 18.5,432.5 C 17.5,434.167 16.1667,435.5 14.5,436.5C 14.5,435.5 14.5,434.5 14.5,433.5C 15.8333,433.167 17.1667,432.833 18.5,432.5 Z M 95.5,435.5 C 94.3406,437.25 92.674,438.25 90.5,438.5C 91.6594,436.75 93.326,435.75 95.5,435.5 Z M 90.5,438.5 C 66.3715,454.069 42.0382,469.403 17.5,484.5C 17.1667,483.167 16.8333,481.833 16.5,480.5C 40.8692,465.982 65.5358,451.982 90.5,438.5 Z M 247.5,438.5 C 246.341,440.25 244.674,441.25 242.5,441.5C 243.659,439.75 245.326,438.75 247.5,438.5 Z M 340.5,440.5 C 340.027,441.906 339.027,442.573 337.5,442.5C 337.973,441.094 338.973,440.427 340.5,440.5 Z M 242.5,441.5 C 213.457,460.527 184.124,479.194 154.5,497.5C 151.5,497.5 148.5,497.5 145.5,497.5C 177.335,478.079 209.668,459.412 242.5,441.5 Z M 337.5,442.5 C 310.128,461.193 282.461,479.526 254.5,497.5C 250.167,497.5 245.833,497.5 241.5,497.5C 273.166,478.664 305.166,460.331 337.5,442.5 Z M 256.5,450.5 C 256.027,451.906 255.027,452.573 253.5,452.5C 253.973,451.094 254.973,450.427 256.5,450.5 Z M 253.5,452.5 C 230.123,467.861 206.456,482.861 182.5,497.5C 180.167,497.5 177.833,497.5 175.5,497.5C 200.978,481.709 226.978,466.709 253.5,452.5 Z M 374.5,452.5 C 352.537,467.487 330.537,482.487 308.5,497.5C 304.5,497.5 300.5,497.5 296.5,497.5C 322.165,481.998 348.165,466.998 374.5,452.5 Z M 496.5,453.5 C 496.5,455.167 496.5,456.833 496.5,458.5C 490.965,461.767 485.298,464.767 479.5,467.5C 484.579,462.085 490.246,457.418 496.5,453.5 Z M 33.5,454.5 C 33.0269,455.906 32.0269,456.573 30.5,456.5C 30.9731,455.094 31.9731,454.427 33.5,454.5 Z M 30.5,456.5 C 25.4734,460.853 20.14,464.853 14.5,468.5C 14.5,467.167 14.5,465.833 14.5,464.5C 19.8333,461.833 25.1667,459.167 30.5,456.5 Z M 496.5,474.5 C 496.5,475.833 496.5,477.167 496.5,478.5C 494.833,479.167 493.167,479.833 491.5,480.5C 493.196,478.475 494.863,476.475 496.5,474.5 Z M 453.5,475.5 C 445.167,482.833 436.833,490.167 428.5,497.5C 424.167,497.5 419.833,497.5 415.5,497.5C 427.832,489.665 440.498,482.332 453.5,475.5 Z M 52.5,476.5 C 52.0269,477.906 51.0269,478.573 49.5,478.5C 49.9731,477.094 50.9731,476.427 52.5,476.5 Z M 47.5,479.5 C 40.0407,484.735 32.374,489.735 24.5,494.5C 24.1667,493.833 23.8333,493.167 23.5,492.5C 31.527,488.154 39.527,483.821 47.5,479.5 Z M 461.5,497.5 C 457.5,497.5 453.5,497.5 449.5,497.5C 457.604,492.274 465.937,487.274 474.5,482.5C 474.833,482.667 475.167,482.833 475.5,483C 470.603,487.729 465.936,492.562 461.5,497.5 Z M 60.5,485.5 C 60.0269,486.906 59.0269,487.573 57.5,487.5C 57.9731,486.094 58.9731,485.427 60.5,485.5 Z M 348.5,486.5 C 348.027,487.906 347.027,488.573 345.5,488.5C 345.973,487.094 346.973,486.427 348.5,486.5 Z M 55.5,488.5 C 50.8333,491.833 46.1667,495.167 41.5,498.5C 40.5,498.5 39.5,498.5 38.5,498.5C 43.6649,494.414 49.3315,491.08 55.5,488.5 Z M 345.5,488.5 C 341.465,491.857 337.132,494.857 332.5,497.5C 331.5,497.5 330.5,497.5 329.5,497.5C 334.502,493.997 339.835,490.997 345.5,488.5 Z M 367.5,489.5 C 364.048,492.399 360.382,495.066 356.5,497.5C 355.5,497.5 354.5,497.5 353.5,497.5C 357.833,494.331 362.5,491.664 367.5,489.5 Z"/></g>
<g><path style="opacity:0.995" fill="#c2ccd4" d="M 382.5,25.5 C 382.062,25.4346 381.728,25.6012 381.5,26C 382.667,26.5 383.5,27.3333 384,28.5C 385.74,38.9358 386.907,49.4358 387.5,60C 387.378,70.3481 387.378,80.8481 387.5,91.5C 386.5,91.8333 385.833,92.5 385.5,93.5C 386.167,93.5 386.833,93.5 387.5,93.5C 387.753,111.927 387.086,130.26 385.5,148.5C 384.167,149.167 384.167,149.833 385.5,150.5C 384.775,175.523 384.775,200.523 385.5,225.5C 381.003,226.055 376.836,225.389 373,223.5C 372.601,223.728 372.435,224.062 372.5,224.5C 369.904,225.265 367.237,225.599 364.5,225.5C 364.5,202.5 364.5,179.5 364.5,156.5C 365.833,156.167 365.833,155.833 364.5,155.5C 364.186,142.783 364.519,130.117 365.5,117.5C 365.03,116.537 364.363,116.537 363.5,117.5C 363.5,112.5 363.5,107.5 363.5,102.5C 364.962,101.542 366.295,100.376 367.5,99C 365.934,98.7003 364.601,99.2003 363.5,100.5C 363.218,77.4812 363.718,54.4812 365,31.5C 365.5,31 366,30.5 366.5,30C 365.198,25.2183 365.198,20.385 366.5,15.5C 371.496,9.87901 375.996,10.2123 380,16.5C 381.549,19.3117 382.382,22.3117 382.5,25.5 Z"/></g>
<g><path style="opacity:0.821" fill="#d4342c" d="M 323.5,23.5 C 319.958,23.8128 316.625,23.4794 313.5,22.5C 317.322,19.5039 320.656,19.8373 323.5,23.5 Z"/></g>
<g><path style="opacity:0.699" fill="#d2342c" d="M 352.5,21.5 C 349.456,23.0114 346.122,23.678 342.5,23.5C 345.288,20.4777 348.621,19.811 352.5,21.5 Z"/></g>
<g><path style="opacity:1" fill="#c43129" d="M 235.5,21.5 C 232.417,23.0246 229.084,24.0246 225.5,24.5C 227.1,23.3556 228.767,22.1889 230.5,21C 232.387,20.2204 234.054,20.3871 235.5,21.5 Z"/></g>
<g><path style="opacity:1" fill="#a3312b" d="M 292.5,21.5 C 290.5,22.8333 288.5,22.8333 286.5,21.5C 288.389,20.2584 290.389,20.2584 292.5,21.5 Z"/></g>
<g><path style="opacity:0.561" fill="#c7352f" d="M 222.5,26.5 C 220.804,28.5248 219.137,30.5248 217.5,32.5C 217.368,28.9678 219.034,26.9678 222.5,26.5 Z"/></g>
<g><path style="opacity:0.97" fill="#d6332b" d="M 237.5,28.5 C 236.596,29.209 236.263,30.209 236.5,31.5C 238.674,31.2503 240.341,30.2503 241.5,28.5C 248.309,27.2676 254.976,27.2676 261.5,28.5C 259.075,31.5886 257.075,34.9219 255.5,38.5C 261.668,35.9196 267.335,32.5863 272.5,28.5C 279.309,27.2676 285.976,27.2676 292.5,28.5C 288.833,32.5 285.167,36.5 281.5,40.5C 288.996,37.2552 295.996,33.2552 302.5,28.5C 309.309,27.2676 315.976,27.2676 322.5,28.5C 316.203,33.4621 310.203,38.7954 304.5,44.5C 314.096,39.5585 323.429,34.2252 332.5,28.5C 335.95,27.9138 339.45,27.5804 343,27.5C 346.252,27.5191 349.085,28.1858 351.5,29.5C 341.256,36.1165 331.59,43.4498 322.5,51.5C 332.15,46.1949 341.816,40.8615 351.5,35.5C 351.5,40.5 351.5,45.5 351.5,50.5C 341.142,57.0104 331.142,64.0104 321.5,71.5C 331.5,66.1667 341.5,60.8333 351.5,55.5C 351.5,60.1667 351.5,64.8333 351.5,69.5C 349.973,69.427 348.973,70.0937 348.5,71.5C 349.609,71.4431 350.609,71.1098 351.5,70.5C 351.5,81.1667 351.5,91.8333 351.5,102.5C 350.167,102.833 350.167,103.167 351.5,103.5C 351.5,112.5 351.5,121.5 351.5,130.5C 344.968,133.929 338.634,137.596 332.5,141.5C 326.037,142.77 319.704,142.77 313.5,141.5C 316.806,138.86 319.806,135.86 322.5,132.5C 316.835,134.997 311.502,137.997 306.5,141.5C 300.024,142.726 293.691,142.726 287.5,141.5C 296.686,134.07 305.686,126.404 314.5,118.5C 300.832,125.665 287.499,133.331 274.5,141.5C 267.891,142.423 261.224,142.756 254.5,142.5C 260.652,137.259 266.985,132.259 273.5,127.5C 264.499,131.998 255.832,136.998 247.5,142.5C 243.753,142.608 240.086,142.108 236.5,141C 234.68,140.8 233.347,139.966 232.5,138.5C 241.465,132.857 250.132,126.857 258.5,120.5C 248.833,125.331 239.5,130.664 230.5,136.5C 229.12,136.038 228.453,135.038 228.5,133.5C 228.899,131.803 229.399,130.137 230,128.5C 232.955,123.713 236.455,119.38 240.5,115.5C 252.193,107.989 263.526,99.989 274.5,91.5C 265.833,96.1667 257.167,100.833 248.5,105.5C 253.833,99.3309 258.999,92.9976 264,86.5C 265.559,84.7834 266.392,82.7834 266.5,80.5C 268.54,78.823 270.54,77.1563 272.5,75.5C 270.046,76.2271 267.713,77.2271 265.5,78.5C 264.761,78.631 264.094,78.4643 263.5,78C 261.666,75.3367 259.666,72.8367 257.5,70.5C 262.152,67.1793 266.485,63.5126 270.5,59.5C 265.368,61.8995 260.368,64.5662 255.5,67.5C 251.833,65.8333 249.167,63.1667 247.5,59.5C 249.833,56.8333 252.167,54.1667 254.5,51.5C 251.183,53.1373 247.85,54.8039 244.5,56.5C 240.435,54.7671 237.768,51.7671 236.5,47.5C 237.248,45.6675 238.248,44.0009 239.5,42.5C 237.716,42.8925 236.05,43.5592 234.5,44.5C 232.665,43.8777 231.498,42.5444 231,40.5C 229.805,36.2486 229.305,31.9152 229.5,27.5C 232.385,27.1936 235.052,27.5269 237.5,28.5 Z M 237.5,28.5 C 238.833,28.5 240.167,28.5 241.5,28.5C 240.341,30.2503 238.674,31.2503 236.5,31.5C 236.263,30.209 236.596,29.209 237.5,28.5 Z M 261.5,28.5 C 265.167,28.5 268.833,28.5 272.5,28.5C 267.335,32.5863 261.668,35.9196 255.5,38.5C 257.075,34.9219 259.075,31.5886 261.5,28.5 Z M 292.5,28.5 C 295.833,28.5 299.167,28.5 302.5,28.5C 295.996,33.2552 288.996,37.2552 281.5,40.5C 285.167,36.5 288.833,32.5 292.5,28.5 Z M 322.5,28.5 C 325.833,28.5 329.167,28.5 332.5,28.5C 323.429,34.2252 314.096,39.5585 304.5,44.5C 310.203,38.7954 316.203,33.4621 322.5,28.5 Z M 261.5,118.5 C 261.027,119.906 260.027,120.573 258.5,120.5C 258.973,119.094 259.973,118.427 261.5,118.5 Z M 314.5,118.5 C 305.686,126.404 296.686,134.07 287.5,141.5C 283.167,141.5 278.833,141.5 274.5,141.5C 287.499,133.331 300.832,125.665 314.5,118.5 Z M 273.5,127.5 C 266.985,132.259 260.652,137.259 254.5,142.5C 252.167,142.5 249.833,142.5 247.5,142.5C 255.832,136.998 264.499,131.998 273.5,127.5 Z M 325.5,130.5 C 325.027,131.906 324.027,132.573 322.5,132.5C 322.973,131.094 323.973,130.427 325.5,130.5 Z M 322.5,132.5 C 319.806,135.86 316.806,138.86 313.5,141.5C 311.167,141.5 308.833,141.5 306.5,141.5C 311.502,137.997 316.835,134.997 322.5,132.5 Z"/></g>
<g><path style="opacity:1" fill="#d53c34" d="M 363.5,102.5 C 363.5,101.833 363.5,101.167 363.5,100.5C 364.601,99.2003 365.934,98.7003 367.5,99C 366.295,100.376 364.962,101.542 363.5,102.5 Z"/></g>
<g><path style="opacity:0.893" fill="#ca332b" d="M 351.5,132.5 C 351.5,135.833 351.5,139.167 351.5,142.5C 348.615,142.806 345.948,142.473 343.5,141.5C 346.195,138.474 348.862,135.474 351.5,132.5 Z"/></g>
<g><path style="opacity:1" fill="#7f8286" d="M 364.5,155.5 C 363.505,143.011 363.171,130.344 363.5,117.5C 364.363,116.537 365.03,116.537 365.5,117.5C 364.519,130.117 364.186,142.783 364.5,155.5 Z"/></g>
<g><path style="opacity:0.941" fill="#c8342d" d="M 323.5,146.5 C 319.911,148.948 316.578,148.948 313.5,146.5C 316.833,145.167 320.167,145.167 323.5,146.5 Z"/></g>
<g><path style="opacity:0.764" fill="#cc3229" d="M 343.5,146.5 C 346.698,145.964 349.365,146.631 351.5,148.5C 349.143,148.663 346.81,148.497 344.5,148C 343.944,147.617 343.611,147.117 343.5,146.5 Z"/></g>
<g><path style="opacity:0.965" fill="#d93027" d="M 288.5,148.5 C 290.265,147.539 292.265,147.205 294.5,147.5C 293.828,148.267 292.995,148.934 292,149.5C 290.989,148.663 289.822,148.33 288.5,148.5 Z"/></g>
<g><path style="opacity:0.968" fill="#104b71" d="M 392.5,232.5 C 389.126,234.874 386.459,237.874 384.5,241.5C 380.079,244.71 376.079,248.377 372.5,252.5C 378.339,249.415 384.006,246.082 389.5,242.5C 389.833,242.5 390.167,242.5 390.5,242.5C 391.167,242.5 391.5,242.167 391.5,241.5C 391.833,241.5 392.167,241.5 392.5,241.5C 393.167,241.5 393.5,241.167 393.5,240.5C 394.167,240.167 394.833,239.833 395.5,239.5C 396.167,239.5 396.5,239.167 396.5,238.5C 400.173,237 403.506,235 406.5,232.5C 412.43,232.128 418.097,232.795 423.5,234.5C 418.833,238.833 414.167,243.167 409.5,247.5C 416.15,243.862 422.816,240.195 429.5,236.5C 435.112,236.299 439.112,238.632 441.5,243.5C 437.833,246.5 434.5,249.833 431.5,253.5C 435.966,251.434 440.299,249.1 444.5,246.5C 446.017,248.462 446.684,250.795 446.5,253.5C 446.46,255.429 446.127,257.262 445.5,259C 413.747,259.43 382.08,259.263 350.5,258.5C 335.215,259.469 319.881,259.802 304.5,259.5C 304.5,258.5 304.5,257.5 304.5,256.5C 306.757,255.438 307.923,253.772 308,251.5C 307.184,252.823 306.017,253.489 304.5,253.5C 303.295,246.749 304.962,240.915 309.5,236C 311.034,235.077 312.701,234.577 314.5,234.5C 322.138,235.399 329.804,235.732 337.5,235.5C 333.435,239.559 329.768,243.893 326.5,248.5C 334.199,244.656 341.532,240.322 348.5,235.5C 363.039,233.252 377.706,232.252 392.5,232.5 Z M 396.5,232.5 C 399.833,232.5 403.167,232.5 406.5,232.5C 403.506,235 400.173,237 396.5,238.5C 396.5,236.5 396.5,234.5 396.5,232.5 Z M 337.5,235.5 C 341.167,235.5 344.833,235.5 348.5,235.5C 341.532,240.322 334.199,244.656 326.5,248.5C 329.768,243.893 333.435,239.559 337.5,235.5 Z M 384.5,241.5 C 385.919,242.451 387.585,242.784 389.5,242.5C 384.006,246.082 378.339,249.415 372.5,252.5C 376.079,248.377 380.079,244.71 384.5,241.5 Z"/></g>
<g><path style="opacity:0.933" fill="#c0cbd3" d="M 392.5,232.5 C 393.833,232.5 395.167,232.5 396.5,232.5C 396.5,234.5 396.5,236.5 396.5,238.5C 395.833,238.5 395.5,238.833 395.5,239.5C 394.833,239.833 394.167,240.167 393.5,240.5C 392.833,240.5 392.5,240.833 392.5,241.5C 392.167,241.5 391.833,241.5 391.5,241.5C 390.833,241.5 390.5,241.833 390.5,242.5C 390.167,242.5 389.833,242.5 389.5,242.5C 387.585,242.784 385.919,242.451 384.5,241.5C 386.459,237.874 389.126,234.874 392.5,232.5 Z"/></g>
<g><path style="opacity:0.932" fill="#104b70" d="M 368.5,267.5 C 377.318,266.507 386.318,266.173 395.5,266.5C 384.998,273.588 373.998,279.921 362.5,285.5C 361.041,285.567 359.708,285.234 358.5,284.5C 366.425,278.527 374.759,273.027 383.5,268C 378.511,267.501 373.511,267.334 368.5,267.5 Z"/></g>
<g><path style="opacity:0.974" fill="#125990" d="M 395.5,266.5 C 412.503,266.333 429.503,266.5 446.5,267C 450.356,267.177 454.023,267.677 457.5,268.5C 454.381,270.687 453.881,273.354 456,276.5C 459.485,274.85 462.651,272.85 465.5,270.5C 470.831,270.421 475.831,271.421 480.5,273.5C 446.5,295.167 412.5,316.833 378.5,338.5C 414.834,318.336 450.834,297.669 486.5,276.5C 490.67,277.826 493.837,280.492 496,284.5C 496.498,287.817 496.665,291.15 496.5,294.5C 467.961,312.264 439.628,330.264 411.5,348.5C 439.968,332.765 468.301,316.765 496.5,300.5C 496.5,304.5 496.5,308.5 496.5,312.5C 476.154,324.67 456.154,337.337 436.5,350.5C 456.797,339.685 476.797,328.352 496.5,316.5C 496.5,327.833 496.5,339.167 496.5,350.5C 471.291,366.932 446.291,383.598 421.5,400.5C 446.662,386.753 471.662,372.753 496.5,358.5C 496.5,366.5 496.5,374.5 496.5,382.5C 477.203,395.142 458.203,408.142 439.5,421.5C 458.635,411.099 477.635,400.432 496.5,389.5C 496.5,393.5 496.5,397.5 496.5,401.5C 493.865,402.811 491.531,404.478 489.5,406.5C 491.98,405.758 494.313,404.758 496.5,403.5C 496.5,407.5 496.5,411.5 496.5,415.5C 494.77,416.026 493.436,417.026 492.5,418.5C 493.833,418.167 495.167,417.833 496.5,417.5C 496.5,429.5 496.5,441.5 496.5,453.5C 490.246,457.418 484.579,462.085 479.5,467.5C 485.298,464.767 490.965,461.767 496.5,458.5C 496.5,463.833 496.5,469.167 496.5,474.5C 494.863,476.475 493.196,478.475 491.5,480.5C 493.167,479.833 494.833,479.167 496.5,478.5C 494.608,491.487 486.941,497.987 473.5,498C 469.311,498.812 465.311,498.645 461.5,497.5C 465.936,492.562 470.603,487.729 475.5,483C 475.167,482.833 474.833,482.667 474.5,482.5C 465.937,487.274 457.604,492.274 449.5,497.5C 442.358,498.738 435.358,498.738 428.5,497.5C 436.833,490.167 445.167,482.833 453.5,475.5C 440.498,482.332 427.832,489.665 415.5,497.5C 395.62,498.498 375.954,498.498 356.5,497.5C 360.382,495.066 364.048,492.399 367.5,489.5C 362.5,491.664 357.833,494.331 353.5,497.5C 346.371,498.777 339.371,498.777 332.5,497.5C 337.132,494.857 341.465,491.857 345.5,488.5C 339.835,490.997 334.502,493.997 329.5,497.5C 322.358,498.738 315.358,498.738 308.5,497.5C 330.537,482.487 352.537,467.487 374.5,452.5C 348.165,466.998 322.165,481.998 296.5,497.5C 289.371,498.777 282.371,498.777 275.5,497.5C 268.358,498.738 261.358,498.738 254.5,497.5C 282.461,479.526 310.128,461.193 337.5,442.5C 305.166,460.331 273.166,478.664 241.5,497.5C 221.561,498.494 201.895,498.494 182.5,497.5C 206.456,482.861 230.123,467.861 253.5,452.5C 226.978,466.709 200.978,481.709 175.5,497.5C 168.358,498.738 161.358,498.738 154.5,497.5C 184.124,479.194 213.457,460.527 242.5,441.5C 209.668,459.412 177.335,478.079 145.5,497.5C 138.358,498.738 131.358,498.738 124.5,497.5C 117.704,498.774 111.037,498.774 104.5,497.5C 141.039,474.736 177.372,451.736 213.5,428.5C 173.166,450.998 133.166,473.998 93.5,497.5C 86.3709,498.777 79.3709,498.777 72.5,497.5C 109.54,474.986 146.206,451.986 182.5,428.5C 142.166,450.998 102.166,473.998 62.5,497.5C 55.557,498.427 48.557,498.76 41.5,498.5C 46.1667,495.167 50.8333,491.833 55.5,488.5C 49.3315,491.08 43.6649,494.414 38.5,498.5C 33.0937,499.26 28.427,497.927 24.5,494.5C 32.374,489.735 40.0407,484.735 47.5,479.5C 39.527,483.821 31.527,488.154 23.5,492.5C 20.0789,491.027 18.0789,488.361 17.5,484.5C 42.0382,469.403 66.3715,454.069 90.5,438.5C 65.5358,451.982 40.8692,465.982 16.5,480.5C 15.0109,476.764 14.3442,472.764 14.5,468.5C 20.14,464.853 25.4734,460.853 30.5,456.5C 25.1667,459.167 19.8333,461.833 14.5,464.5C 13.2641,460.299 13.2641,455.965 14.5,451.5C 17.1667,451.167 17.1667,450.833 14.5,450.5C 14.5,445.833 14.5,441.167 14.5,436.5C 16.1667,435.5 17.5,434.167 18.5,432.5C 17.1667,432.833 15.8333,433.167 14.5,433.5C 13.4207,418.958 19.754,409.625 33.5,405.5C 31.3842,408.789 29.0509,411.956 26.5,415C 33.7023,411.728 40.7023,407.895 47.5,403.5C 53.69,403.177 59.69,403.51 65.5,404.5C 60.5,409.167 55.5,413.833 50.5,418.5C 58.483,414.195 66.483,409.862 74.5,405.5C 75.2646,405.077 76.0979,404.743 77,404.5C 82.3128,405.098 87.4794,405.765 92.5,406.5C 90.4602,408.177 88.4602,409.844 86.5,411.5C 89.7598,410.226 92.7598,408.56 95.5,406.5C 102.876,406.726 110.209,406.392 117.5,405.5C 108.987,411.591 100.654,417.924 92.5,424.5C 143.331,396.255 193.664,367.255 243.5,337.5C 244.492,337.672 245.158,337.338 245.5,336.5C 246.492,336.672 247.158,336.338 247.5,335.5C 248.167,335.5 248.5,335.167 248.5,334.5C 277.331,318.921 305.665,302.588 333.5,285.5C 344.498,280.003 355.165,274.003 365.5,267.5C 366.5,267.5 367.5,267.5 368.5,267.5C 373.511,267.334 378.511,267.501 383.5,268C 374.759,273.027 366.425,278.527 358.5,284.5C 340.127,295.347 322.127,306.68 304.5,318.5C 324.166,308.003 343.5,297.003 362.5,285.5C 373.998,279.921 384.998,273.588 395.5,266.5 Z M 347.5,338.5 C 379.771,320.696 411.771,302.363 443.5,283.5C 442.846,281.885 442.346,280.218 442,278.5C 410.351,298.4 378.851,318.4 347.5,338.5 Z M 418.5,279.5 C 418.027,280.906 417.027,281.573 415.5,281.5C 415.973,280.094 416.973,279.427 418.5,279.5 Z M 385.5,285.5 C 387.423,285.205 389.09,284.372 390.5,283C 388.332,282.751 386.665,283.584 385.5,285.5 Z M 358.5,284.5 C 359.708,285.234 361.041,285.567 362.5,285.5C 343.5,297.003 324.166,308.003 304.5,318.5C 322.127,306.68 340.127,295.347 358.5,284.5 Z M 383.5,286.5 C 383.027,287.906 382.027,288.573 380.5,288.5C 380.973,287.094 381.973,286.427 383.5,286.5 Z M 304.5,318.5 C 303.341,320.25 301.674,321.25 299.5,321.5C 300.659,319.75 302.326,318.75 304.5,318.5 Z M 299.5,321.5 C 299.027,322.906 298.027,323.573 296.5,323.5C 296.973,322.094 297.973,321.427 299.5,321.5 Z M 347.5,338.5 C 346.341,340.25 344.674,341.25 342.5,341.5C 343.659,339.75 345.326,338.75 347.5,338.5 Z M 378.5,338.5 C 377.341,340.25 375.674,341.25 373.5,341.5C 374.659,339.75 376.326,338.75 378.5,338.5 Z M 373.5,341.5 C 373.027,342.906 372.027,343.573 370.5,343.5C 370.973,342.094 371.973,341.427 373.5,341.5 Z M 411.5,348.5 C 411.027,349.906 410.027,350.573 408.5,350.5C 408.973,349.094 409.973,348.427 411.5,348.5 Z M 436.5,350.5 C 435.341,352.25 433.674,353.25 431.5,353.5C 432.659,351.75 434.326,350.75 436.5,350.5 Z M 431.5,353.5 C 431.027,354.906 430.027,355.573 428.5,355.5C 428.973,354.094 429.973,353.427 431.5,353.5 Z M 421.5,400.5 C 421.027,401.906 420.027,402.573 418.5,402.5C 418.973,401.094 419.973,400.427 421.5,400.5 Z M 65.5,404.5 C 68.7131,404.19 71.7131,404.523 74.5,405.5C 66.483,409.862 58.483,414.195 50.5,418.5C 55.5,413.833 60.5,409.167 65.5,404.5 Z M 92.5,406.5 C 93.5,406.5 94.5,406.5 95.5,406.5C 92.7598,408.56 89.7598,410.226 86.5,411.5C 88.4602,409.844 90.4602,408.177 92.5,406.5 Z M 187.5,425.5 C 186.341,427.25 184.674,428.25 182.5,428.5C 183.659,426.75 185.326,425.75 187.5,425.5 Z M 218.5,425.5 C 218.027,426.906 217.027,427.573 215.5,427.5C 215.973,426.094 216.973,425.427 218.5,425.5 Z M 182.5,428.5 C 146.206,451.986 109.54,474.986 72.5,497.5C 69.1667,497.5 65.8333,497.5 62.5,497.5C 102.166,473.998 142.166,450.998 182.5,428.5 Z M 213.5,428.5 C 177.372,451.736 141.039,474.736 104.5,497.5C 100.833,497.5 97.1667,497.5 93.5,497.5C 133.166,473.998 173.166,450.998 213.5,428.5 Z M 95.5,435.5 C 94.3406,437.25 92.674,438.25 90.5,438.5C 91.6594,436.75 93.326,435.75 95.5,435.5 Z M 247.5,438.5 C 246.341,440.25 244.674,441.25 242.5,441.5C 243.659,439.75 245.326,438.75 247.5,438.5 Z M 340.5,440.5 C 340.027,441.906 339.027,442.573 337.5,442.5C 337.973,441.094 338.973,440.427 340.5,440.5 Z M 242.5,441.5 C 213.457,460.527 184.124,479.194 154.5,497.5C 151.5,497.5 148.5,497.5 145.5,497.5C 177.335,478.079 209.668,459.412 242.5,441.5 Z M 337.5,442.5 C 310.128,461.193 282.461,479.526 254.5,497.5C 250.167,497.5 245.833,497.5 241.5,497.5C 273.166,478.664 305.166,460.331 337.5,442.5 Z M 256.5,450.5 C 256.027,451.906 255.027,452.573 253.5,452.5C 253.973,451.094 254.973,450.427 256.5,450.5 Z M 253.5,452.5 C 230.123,467.861 206.456,482.861 182.5,497.5C 180.167,497.5 177.833,497.5 175.5,497.5C 200.978,481.709 226.978,466.709 253.5,452.5 Z M 374.5,452.5 C 352.537,467.487 330.537,482.487 308.5,497.5C 304.5,497.5 300.5,497.5 296.5,497.5C 322.165,481.998 348.165,466.998 374.5,452.5 Z M 33.5,454.5 C 33.0269,455.906 32.0269,456.573 30.5,456.5C 30.9731,455.094 31.9731,454.427 33.5,454.5 Z M 453.5,475.5 C 445.167,482.833 436.833,490.167 428.5,497.5C 424.167,497.5 419.833,497.5 415.5,497.5C 427.832,489.665 440.498,482.332 453.5,475.5 Z M 52.5,476.5 C 52.0269,477.906 51.0269,478.573 49.5,478.5C 49.9731,477.094 50.9731,476.427 52.5,476.5 Z M 461.5,497.5 C 457.5,497.5 453.5,497.5 449.5,497.5C 457.604,492.274 465.937,487.274 474.5,482.5C 474.833,482.667 475.167,482.833 475.5,483C 470.603,487.729 465.936,492.562 461.5,497.5 Z M 60.5,485.5 C 60.0269,486.906 59.0269,487.573 57.5,487.5C 57.9731,486.094 58.9731,485.427 60.5,485.5 Z M 348.5,486.5 C 348.027,487.906 347.027,488.573 345.5,488.5C 345.973,487.094 346.973,486.427 348.5,486.5 Z M 55.5,488.5 C 50.8333,491.833 46.1667,495.167 41.5,498.5C 40.5,498.5 39.5,498.5 38.5,498.5C 43.6649,494.414 49.3315,491.08 55.5,488.5 Z M 345.5,488.5 C 341.465,491.857 337.132,494.857 332.5,497.5C 331.5,497.5 330.5,497.5 329.5,497.5C 334.502,493.997 339.835,490.997 345.5,488.5 Z M 367.5,489.5 C 364.048,492.399 360.382,495.066 356.5,497.5C 355.5,497.5 354.5,497.5 353.5,497.5C 357.833,494.331 362.5,491.664 367.5,489.5 Z"/></g>
<g><path style="opacity:0.968" fill="#12598f" d="M 345.5,268.5 C 348.518,268.335 351.518,268.502 354.5,269C 345.767,273.691 337.434,278.857 329.5,284.5C 303.473,299.179 277.473,313.845 251.5,328.5C 252.167,323.833 252.833,319.167 253.5,314.5C 258.152,311.179 262.485,307.513 266.5,303.5C 262.034,305.566 257.701,307.9 253.5,310.5C 253.214,304.741 253.548,299.075 254.5,293.5C 256.167,292.5 257.5,291.167 258.5,289.5C 256.938,289.733 255.605,290.4 254.5,291.5C 253.693,281.612 257.693,274.445 266.5,270C 275.343,269.176 284.01,269.343 292.5,270.5C 287.833,274.5 283.5,278.833 279.5,283.5C 284.938,280.947 290.271,278.113 295.5,275C 294.418,273.67 293.751,272.17 293.5,270.5C 305.42,269.521 317.42,269.188 329.5,269.5C 323.563,273.81 317.23,277.643 310.5,281C 308.237,282.617 306.237,284.45 304.5,286.5C 314.833,281.336 324.833,275.669 334.5,269.5C 338.099,268.656 341.766,268.323 345.5,268.5 Z M 329.5,269.5 C 331.167,269.5 332.833,269.5 334.5,269.5C 324.833,275.669 314.833,281.336 304.5,286.5C 306.237,284.45 308.237,282.617 310.5,281C 317.23,277.643 323.563,273.81 329.5,269.5 Z M 292.5,270.5 C 292.833,270.5 293.167,270.5 293.5,270.5C 293.751,272.17 294.418,273.67 295.5,275C 290.271,278.113 284.938,280.947 279.5,283.5C 283.5,278.833 287.833,274.5 292.5,270.5 Z"/></g>
<g><path style="opacity:0.913" fill="#104b70" d="M 345.5,268.5 C 351.979,267.509 358.646,267.176 365.5,267.5C 355.165,274.003 344.498,280.003 333.5,285.5C 332.041,285.567 330.708,285.234 329.5,284.5C 337.434,278.857 345.767,273.691 354.5,269C 351.518,268.502 348.518,268.335 345.5,268.5 Z"/></g>
<g><path style="opacity:0.97" fill="#125990" d="M 171.5,336.5 C 167.833,340.5 164.167,344.5 160.5,348.5C 167.996,345.255 174.996,341.255 181.5,336.5C 187.863,336.407 194.196,336.74 200.5,337.5C 195.539,341.126 190.872,345.126 186.5,349.5C 193.097,346.225 199.43,342.558 205.5,338.5C 212.443,337.573 219.443,337.24 226.5,337.5C 196.115,355.863 165.449,373.863 134.5,391.5C 134.5,386.833 134.5,382.167 134.5,377.5C 136.909,376.299 138.909,374.633 140.5,372.5C 138.517,373.471 136.517,374.471 134.5,375.5C 133.198,370.266 133.198,364.933 134.5,359.5C 135.5,359.167 136.167,358.5 136.5,357.5C 135.833,357.5 135.167,357.5 134.5,357.5C 134.464,350.41 137.464,344.91 143.5,341C 152.469,336.167 161.802,334.667 171.5,336.5 Z M 171.5,336.5 C 174.833,336.5 178.167,336.5 181.5,336.5C 174.996,341.255 167.996,345.255 160.5,348.5C 164.167,344.5 167.833,340.5 171.5,336.5 Z M 200.5,337.5 C 202.292,337.366 203.958,337.699 205.5,338.5C 199.43,342.558 193.097,346.225 186.5,349.5C 190.872,345.126 195.539,341.126 200.5,337.5 Z"/></g>
</svg>
