<?xml version="1.0" encoding="UTF-8"?>
<!DOCTYPE svg PUBLIC "-//W3C//DTD SVG 1.1//EN" "http://www.w3.org/Graphics/SVG/1.1/DTD/svg11.dtd">
<svg xmlns="http://www.w3.org/2000/svg" version="1.1" width="512px" height="512px" style="shape-rendering:geometricPrecision; text-rendering:geometricPrecision; image-rendering:optimizeQuality; fill-rule:evenodd; clip-rule:evenodd" xmlns:xlink="http://www.w3.org/1999/xlink">
<g><path style="opacity:0.976" fill="#282727" d="M 446.5,481.5 C 443.936,484.28 441.603,487.28 439.5,490.5C 433.52,497.661 425.853,501.994 416.5,503.5C 412.829,503.757 409.495,504.757 406.5,506.5C 388.888,508.304 371.221,509.304 353.5,509.5C 315.659,508.715 277.826,507.715 240,506.5C 218.647,506.74 197.313,507.073 176,507.5C 165.394,504.856 154.727,504.856 144,507.5C 142.072,507.067 140.239,506.4 138.5,505.5C 121.763,507.447 105.096,508.114 88.5,507.5C 84.1339,506.879 80.1339,505.379 76.5,503C 74.0087,499.51 71.1754,496.343 68,493.5C 60.3483,464.769 57.1817,435.436 58.5,405.5C 59.561,363.825 60.8943,322.158 62.5,280.5C 61.4388,219.503 61.2722,158.503 62,97.5C 66.1243,84.9803 74.6243,76.8136 87.5,73C 105.676,71.7409 123.843,71.2409 142,71.5C 146.39,73.9673 150.89,74.134 155.5,72C 159.158,63.0182 165.825,57.6849 175.5,56C 181.717,56.0637 187.717,55.0637 193.5,53C 195.709,51.1266 197.542,48.96 199,46.5C 205.749,26.2505 219.249,12.9171 239.5,6.5C 241.598,7.48448 243.598,7.15115 245.5,5.5C 267.778,1.77364 286.611,8.10697 302,24.5C 306.626,30.4191 309.626,37.0858 311,44.5C 313.596,48.3901 317.096,51.2234 321.5,53C 328.123,54.5483 334.789,55.8816 341.5,57C 349.507,59.1723 354.173,64.339 355.5,72.5C 374.099,71.7665 392.599,71.4332 411,71.5C 418.949,72.8524 426.783,74.6858 434.5,77C 447.024,85.8858 452.691,98.0524 451.5,113.5C 448.862,152.611 447.528,191.778 447.5,231C 448.424,296.034 450.424,361.034 453.5,426C 454.777,445.016 452.444,463.516 446.5,481.5 Z M 247.5,12.5 C 250.5,12.5 253.5,12.5 256.5,12.5C 250.43,16.558 244.097,20.2247 237.5,23.5C 240.833,19.8333 244.167,16.1667 247.5,12.5 Z M 270.5,16.5 C 271.492,16.3284 272.158,16.6618 272.5,17.5C 248.664,32.2548 224.331,46.2548 199.5,59.5C 202.139,57.5272 204.473,55.1939 206.5,52.5C 228.072,40.9285 249.406,28.9285 270.5,16.5 Z M 294.5,39.5 C 295.338,39.8417 295.672,40.5084 295.5,41.5C 294.609,42.1098 293.609,42.4431 292.5,42.5C 292.932,41.2905 293.599,40.2905 294.5,39.5 Z M 252.5,45.5 C 259.361,46.5245 263.528,50.5245 265,57.5C 265.667,60.5 265.667,63.5 265,66.5C 262.014,72.9688 257.514,74.1355 251.5,70C 245.451,64.6053 243.951,58.1053 247,50.5C 248.73,48.5981 250.563,46.9314 252.5,45.5 Z M 300.5,50.5 C 300.5,50.8333 300.5,51.1667 300.5,51.5C 293.003,56.0831 285.337,60.4164 277.5,64.5C 277.5,63.8333 277.5,63.1667 277.5,62.5C 285.324,58.755 292.991,54.755 300.5,50.5 Z M 308.5,58.5 C 309.605,59.6005 310.938,60.2671 312.5,60.5C 305.328,65.5894 297.661,69.9227 289.5,73.5C 295.652,68.2591 301.985,63.2591 308.5,58.5 Z M 199.5,59.5 C 192.646,64.1846 185.48,68.5179 178,72.5C 178.575,69.3368 179.742,66.3368 181.5,63.5C 187.796,63.4256 193.796,62.0923 199.5,59.5 Z M 326.5,64.5 C 328.621,64.3253 330.621,64.6586 332.5,65.5C 324.168,71.0019 315.501,76.0019 306.5,80.5C 312.854,74.8171 319.52,69.4838 326.5,64.5 Z M 234.5,69.5 C 235.401,70.2905 236.068,71.2905 236.5,72.5C 232.728,74.9339 228.728,76.9339 224.5,78.5C 227.833,75.5 231.167,72.5 234.5,69.5 Z M 105.5,78.5 C 100.335,82.5863 94.6685,85.9196 88.5,88.5C 90.2417,85.3566 92.2417,82.3566 94.5,79.5C 98.1185,78.7564 101.785,78.423 105.5,78.5 Z M 388.5,78.5 C 391.167,78.5 393.833,78.5 396.5,78.5C 383.7,86.4039 370.7,94.0706 357.5,101.5C 356.662,101.158 356.328,100.492 356.5,99.5C 367.546,92.9839 378.212,85.9839 388.5,78.5 Z M 123.5,79.5 C 124.5,79.5 125.5,79.5 126.5,79.5C 125.486,80.6737 124.153,81.3404 122.5,81.5C 122.833,80.8333 123.167,80.1667 123.5,79.5 Z M 144.5,80.5 C 148.329,79.931 151.663,80.5977 154.5,82.5C 143.15,88.8614 131.816,95.1947 120.5,101.5C 128.5,94.5 136.5,87.5 144.5,80.5 Z M 413.5,80.5 C 415.698,80.8751 417.698,81.5418 419.5,82.5C 406.833,90.1667 394.167,97.8333 381.5,105.5C 378.833,105.833 376.167,106.167 373.5,106.5C 386.541,97.4733 399.874,88.8067 413.5,80.5 Z M 430.5,88.5 C 431.6,89.6049 432.267,90.9382 432.5,92.5C 423.833,97.5 415.167,102.5 406.5,107.5C 405.005,107.011 403.671,106.345 402.5,105.5C 411.833,99.8333 421.167,94.1667 430.5,88.5 Z M 436.5,102.5 C 436.5,103.5 436.5,104.5 436.5,105.5C 429.337,109.247 422.337,113.247 415.5,117.5C 415.167,116.833 414.833,116.167 414.5,115.5C 421.531,110.651 428.865,106.318 436.5,102.5 Z M 90.5,112.5 C 85.5729,117.302 80.2396,121.635 74.5,125.5C 74.5,123.833 74.5,122.167 74.5,120.5C 79.8333,117.833 85.1667,115.167 90.5,112.5 Z M 393.5,115.5 C 377.994,124.42 362.328,133.087 346.5,141.5C 346.833,140.833 347.167,140.167 347.5,139.5C 349.027,139.573 350.027,138.906 350.5,137.5C 351.492,137.672 352.158,137.338 352.5,136.5C 354.027,136.573 355.027,135.906 355.5,134.5C 357.027,134.573 358.027,133.906 358.5,132.5C 359.492,132.672 360.158,132.338 360.5,131.5C 362.027,131.573 363.027,130.906 363.5,129.5C 365.027,129.573 366.027,128.906 366.5,127.5C 368.674,127.25 370.341,126.25 371.5,124.5C 373.027,124.573 374.027,123.906 374.5,122.5C 377.704,121.617 380.371,119.95 382.5,117.5C 385.429,116.412 388.263,115.079 391,113.5C 392.301,113.639 393.134,114.305 393.5,115.5 Z M 402.5,123.5 C 402.5,124.167 402.5,124.833 402.5,125.5C 397.167,128.167 391.833,130.833 386.5,133.5C 391.489,129.669 396.822,126.336 402.5,123.5 Z M 436.5,128.5 C 436.5,129.167 436.5,129.833 436.5,130.5C 431.833,132.833 427.167,135.167 422.5,137.5C 426.79,134.015 431.457,131.015 436.5,128.5 Z M 384.5,134.5 C 384.027,135.906 383.027,136.573 381.5,136.5C 381.973,135.094 382.973,134.427 384.5,134.5 Z M 420.5,138.5 C 420.027,139.906 419.027,140.573 417.5,140.5C 417.973,139.094 418.973,138.427 420.5,138.5 Z M 344.5,141.5 C 345.167,141.5 345.833,141.5 346.5,141.5C 345.341,143.25 343.674,144.25 341.5,144.5C 342.306,143.272 343.306,142.272 344.5,141.5 Z M 435.5,142.5 C 436.434,143.568 436.768,144.901 436.5,146.5C 429.342,149.912 422.342,153.578 415.5,157.5C 415.5,156.5 415.5,155.5 415.5,154.5C 422.167,150.5 428.833,146.5 435.5,142.5 Z M 339.5,145.5 C 339.027,146.906 338.027,147.573 336.5,147.5C 336.973,146.094 337.973,145.427 339.5,145.5 Z M 77.5,150.5 C 77.0269,151.906 76.0269,152.573 74.5,152.5C 74.5,152.167 74.5,151.833 74.5,151.5C 75.391,150.89 76.391,150.557 77.5,150.5 Z M 95.5,153.5 C 95.5,154.167 95.5,154.833 95.5,155.5C 88.5,160.167 81.5,164.833 74.5,169.5C 74.5,168.167 74.5,166.833 74.5,165.5C 81.3372,161.247 88.3372,157.247 95.5,153.5 Z M 436.5,157.5 C 436.5,159.5 436.5,161.5 436.5,163.5C 429.658,167.422 422.658,171.088 415.5,174.5C 415.5,173.167 415.5,171.833 415.5,170.5C 422.668,166.417 429.668,162.084 436.5,157.5 Z M 436.5,175.5 C 436.721,178.279 436.388,180.946 435.5,183.5C 428.833,187.167 422.167,190.833 415.5,194.5C 415.5,192.167 415.5,189.833 415.5,187.5C 422.5,183.5 429.5,179.5 436.5,175.5 Z M 402.5,180.5 C 402.5,181.5 402.5,182.5 402.5,183.5C 396.5,186.5 390.5,189.5 384.5,192.5C 390.205,188.141 396.205,184.141 402.5,180.5 Z M 95.5,181.5 C 95.5,182.833 95.5,184.167 95.5,185.5C 88.3604,189.572 81.3604,193.905 74.5,198.5C 74.5,196.833 74.5,195.167 74.5,193.5C 81.5,189.5 88.5,185.5 95.5,181.5 Z M 436.5,194.5 C 436.5,196.167 436.5,197.833 436.5,199.5C 429.337,203.247 422.337,207.247 415.5,211.5C 415.5,210.167 415.5,208.833 415.5,207.5C 422.332,202.916 429.332,198.583 436.5,194.5 Z M 95.5,199.5 C 95.5,200.167 95.5,200.833 95.5,201.5C 88.3604,205.572 81.3604,209.905 74.5,214.5C 74.5,213.167 74.5,211.833 74.5,210.5C 81.3423,206.578 88.3423,202.912 95.5,199.5 Z M 402.5,199.5 C 402.5,200.5 402.5,201.5 402.5,202.5C 390.993,209.088 379.326,215.421 367.5,221.5C 378.653,213.419 390.32,206.086 402.5,199.5 Z M 402.5,215.5 C 402.5,216.833 402.5,218.167 402.5,219.5C 386.833,228.167 371.167,236.833 355.5,245.5C 370.961,235.264 386.628,225.264 402.5,215.5 Z M 367.5,221.5 C 366.341,223.25 364.674,224.25 362.5,224.5C 362.5,224.167 362.5,223.833 362.5,223.5C 364.05,222.559 365.716,221.893 367.5,221.5 Z M 436.5,223.5 C 436.5,224.833 436.5,226.167 436.5,227.5C 429.337,231.247 422.337,235.247 415.5,239.5C 415.5,238.167 415.5,236.833 415.5,235.5C 422.5,231.5 429.5,227.5 436.5,223.5 Z M 91.5,227.5 C 91.0269,228.906 90.0269,229.573 88.5,229.5C 88.9731,228.094 89.9731,227.427 91.5,227.5 Z M 86.5,230.5 C 82.8811,233.65 78.8811,236.316 74.5,238.5C 74.5,237.833 74.5,237.167 74.5,236.5C 78.5266,234.487 82.5266,232.487 86.5,230.5 Z M 436.5,239.5 C 436.5,241.167 436.5,242.833 436.5,244.5C 429.342,247.912 422.342,251.578 415.5,255.5C 415.5,254.167 415.5,252.833 415.5,251.5C 422.5,247.5 429.5,243.5 436.5,239.5 Z M 351.5,246.5 C 352.167,246.5 352.833,246.5 353.5,246.5C 353.027,247.906 352.027,248.573 350.5,248.5C 350.833,247.833 351.167,247.167 351.5,246.5 Z M 94.5,249.5 C 95.3382,249.842 95.6716,250.508 95.5,251.5C 88.6676,256.084 81.6676,260.417 74.5,264.5C 74.5,263.167 74.5,261.833 74.5,260.5C 81.1667,256.833 87.8333,253.167 94.5,249.5 Z M 436.5,255.5 C 436.5,256.833 436.5,258.167 436.5,259.5C 429.5,263.5 422.5,267.5 415.5,271.5C 415.5,270.5 415.5,269.5 415.5,268.5C 422.668,264.417 429.668,260.084 436.5,255.5 Z M 131.5,262.5 C 131.027,263.906 130.027,264.573 128.5,264.5C 128.973,263.094 129.973,262.427 131.5,262.5 Z M 95.5,264.5 C 95.634,266.292 95.3007,267.958 94.5,269.5C 87.8333,273.5 81.1667,277.5 74.5,281.5C 74.5,279.833 74.5,278.167 74.5,276.5C 81.3372,272.247 88.3372,268.247 95.5,264.5 Z M 128.5,264.5 C 127.341,266.25 125.674,267.25 123.5,267.5C 124.659,265.75 126.326,264.75 128.5,264.5 Z M 123.5,267.5 C 118.709,271.068 113.709,274.402 108.5,277.5C 108.5,276.833 108.5,276.167 108.5,275.5C 113.368,272.566 118.368,269.9 123.5,267.5 Z M 436.5,271.5 C 436.5,272.5 436.5,273.5 436.5,274.5C 429.663,278.753 422.663,282.753 415.5,286.5C 415.5,285.5 415.5,284.5 415.5,283.5C 422.635,279.765 429.635,275.765 436.5,271.5 Z M 95.5,281.5 C 95.5,283.167 95.5,284.833 95.5,286.5C 88.3646,290.235 81.3646,294.235 74.5,298.5C 74.5,296.833 74.5,295.167 74.5,293.5C 81.5,289.5 88.5,285.5 95.5,281.5 Z M 119.5,285.5 C 118.341,287.25 116.674,288.25 114.5,288.5C 115.659,286.75 117.326,285.75 119.5,285.5 Z M 114.5,288.5 C 112.882,290.316 110.882,291.649 108.5,292.5C 108.5,291.833 108.5,291.167 108.5,290.5C 110.5,289.833 112.5,289.167 114.5,288.5 Z M 436.5,297.5 C 436.5,298.5 436.5,299.5 436.5,300.5C 429.658,304.422 422.658,308.088 415.5,311.5C 415.5,310.833 415.5,310.167 415.5,309.5C 422.635,305.765 429.635,301.765 436.5,297.5 Z M 95.5,298.5 C 95.5,299.5 95.5,300.5 95.5,301.5C 88.5,305.5 81.5,309.5 74.5,313.5C 74.5,312.5 74.5,311.5 74.5,310.5C 81.5,306.5 88.5,302.5 95.5,298.5 Z M 436.5,322.5 C 436.5,324.5 436.5,326.5 436.5,328.5C 429.14,332.512 421.806,336.512 414.5,340.5C 414.5,339.167 414.5,337.833 414.5,336.5C 421.833,331.833 429.167,327.167 436.5,322.5 Z M 95.5,324.5 C 95.5,325.167 95.5,325.833 95.5,326.5C 94.8333,326.5 94.1667,326.5 93.5,326.5C 93.8333,325.5 94.5,324.833 95.5,324.5 Z M 91.5,327.5 C 90.3406,329.25 88.674,330.25 86.5,330.5C 87.6594,328.75 89.326,327.75 91.5,327.5 Z M 86.5,330.5 C 82.8811,333.65 78.8811,336.316 74.5,338.5C 74.5,337.833 74.5,337.167 74.5,336.5C 78.2717,334.066 82.2717,332.066 86.5,330.5 Z M 95.5,338.5 C 95.5,339.5 95.5,340.5 95.5,341.5C 88.3324,345.583 81.3324,349.916 74.5,354.5C 74.366,352.708 74.6993,351.042 75.5,349.5C 82.1667,345.833 88.8333,342.167 95.5,338.5 Z M 436.5,340.5 C 436.5,342.5 436.5,344.5 436.5,346.5C 429.663,350.753 422.663,354.753 415.5,358.5C 415.5,356.833 415.5,355.167 415.5,353.5C 422.332,348.916 429.332,344.583 436.5,340.5 Z M 95.5,354.5 C 95.5,355.833 95.5,357.167 95.5,358.5C 88.6676,363.084 81.6676,367.417 74.5,371.5C 74.5,369.5 74.5,367.5 74.5,365.5C 81.6577,362.088 88.6577,358.422 95.5,354.5 Z M 436.5,358.5 C 436.5,360.167 436.5,361.833 436.5,363.5C 429.833,367.167 423.167,370.833 416.5,374.5C 416.5,373.5 416.5,372.5 416.5,371.5C 423.167,367.167 429.833,362.833 436.5,358.5 Z M 146.5,361.5 C 146.5,362.167 146.5,362.833 146.5,363.5C 133.833,371.167 121.167,378.833 108.5,386.5C 108.433,385.041 108.766,383.708 109.5,382.5C 121.996,375.753 134.329,368.753 146.5,361.5 Z M 402.5,362.5 C 402.5,363.5 402.5,364.5 402.5,365.5C 392.967,371.099 383.3,376.433 373.5,381.5C 382.874,374.807 392.54,368.474 402.5,362.5 Z M 117.5,363.5 C 116.341,365.25 114.674,366.25 112.5,366.5C 113.659,364.75 115.326,363.75 117.5,363.5 Z M 112.5,366.5 C 111.564,367.974 110.23,368.974 108.5,369.5C 108.5,368.833 108.5,368.167 108.5,367.5C 109.833,367.167 111.167,366.833 112.5,366.5 Z M 95.5,371.5 C 95.5,373.833 95.5,376.167 95.5,378.5C 88.5,382.5 81.5,386.5 74.5,390.5C 74.5,388.167 74.5,385.833 74.5,383.5C 81.3372,379.247 88.3372,375.247 95.5,371.5 Z M 436.5,375.5 C 436.5,376.167 436.5,376.833 436.5,377.5C 430.738,381.262 424.738,384.596 418.5,387.5C 424.119,383.017 430.119,379.017 436.5,375.5 Z M 95.5,391.5 C 95.5,392.833 95.5,394.167 95.5,395.5C 88.5171,399.472 81.5171,403.472 74.5,407.5C 74.5,405.833 74.5,404.167 74.5,402.5C 81.3423,398.578 88.3423,394.912 95.5,391.5 Z M 95.5,419.5 C 95.5,420.833 95.5,422.167 95.5,423.5C 88.3646,427.235 81.3646,431.235 74.5,435.5C 74.5,434.167 74.5,432.833 74.5,431.5C 81.5,427.5 88.5,423.5 95.5,419.5 Z M 95.5,435.5 C 94.962,437.117 94.6287,438.784 94.5,440.5C 87.5886,444.075 80.9219,448.075 74.5,452.5C 74.5,450.833 74.5,449.167 74.5,447.5C 81.5,443.5 88.5,439.5 95.5,435.5 Z M 436.5,435.5 C 436.5,435.833 436.5,436.167 436.5,436.5C 435.609,437.11 434.609,437.443 433.5,437.5C 433.973,436.094 434.973,435.427 436.5,435.5 Z M 433.5,437.5 C 433.027,438.906 432.027,439.573 430.5,439.5C 430.973,438.094 431.973,437.427 433.5,437.5 Z M 257.5,443.5 C 247.212,450.984 236.546,457.984 225.5,464.5C 223.585,464.784 221.919,464.451 220.5,463.5C 232.833,456.833 245.167,450.167 257.5,443.5 Z M 94.5,452.5 C 94.5,453.833 94.5,455.167 94.5,456.5C 87.3646,460.235 80.3646,464.235 73.5,468.5C 73.5,467.167 73.5,465.833 73.5,464.5C 80.6628,460.753 87.6628,456.753 94.5,452.5 Z M 261.5,459.5 C 260.341,461.25 258.674,462.25 256.5,462.5C 257.659,460.75 259.326,459.75 261.5,459.5 Z M 256.5,462.5 C 256.167,463.5 255.5,464.167 254.5,464.5C 253.833,464.5 253.167,464.5 252.5,464.5C 253.514,463.326 254.847,462.66 256.5,462.5 Z M 435.5,463.5 C 435.5,464.167 435.5,464.833 435.5,465.5C 434.609,466.11 433.609,466.443 432.5,466.5C 433.167,465.167 434.167,464.167 435.5,463.5 Z M 97.5,466.5 C 98.5,466.833 99.1667,467.5 99.5,468.5C 91.5275,473.155 83.5275,477.822 75.5,482.5C 75.5,481.5 75.5,480.5 75.5,479.5C 82.7978,475.181 90.1311,470.848 97.5,466.5 Z M 130.5,473.5 C 131.239,473.369 131.906,473.536 132.5,474C 119.436,482.191 106.436,490.358 93.5,498.5C 92.0048,498.011 90.6715,497.345 89.5,496.5C 103.301,489.099 116.968,481.432 130.5,473.5 Z M 174.5,473.5 C 176.415,473.216 178.081,473.549 179.5,474.5C 166.294,482.598 153.294,490.931 140.5,499.5C 136.833,499.5 133.167,499.5 129.5,499.5C 144.329,490.584 159.329,481.917 174.5,473.5 Z M 204.5,473.5 C 206.833,473.5 209.167,473.5 211.5,473.5C 198.5,482.167 185.5,490.833 172.5,499.5C 168.5,499.5 164.5,499.5 160.5,499.5C 174.884,490.47 189.551,481.803 204.5,473.5 Z M 236.5,473.5 C 237.791,473.263 238.791,473.596 239.5,474.5C 226.454,482.35 213.787,490.683 201.5,499.5C 198.287,499.81 195.287,499.477 192.5,498.5C 207.167,490.167 221.833,481.833 236.5,473.5 Z M 255.5,479.5 C 255.027,480.906 254.027,481.573 252.5,481.5C 252.973,480.094 253.973,479.427 255.5,479.5 Z M 252.5,481.5 C 243.833,487.5 235.167,493.5 226.5,499.5C 224.5,499.5 222.5,499.5 220.5,499.5C 230.835,492.997 241.502,486.997 252.5,481.5 Z M 390.5,487.5 C 386.167,491.5 381.833,495.5 377.5,499.5C 374.833,499.5 372.167,499.5 369.5,499.5C 376.004,494.745 383.004,490.745 390.5,487.5 Z M 415.5,488.5 C 412.098,491.895 409.098,495.562 406.5,499.5C 403.167,499.5 399.833,499.5 396.5,499.5C 402.57,495.442 408.903,491.775 415.5,488.5 Z M 340.5,489.5 C 336.5,492.833 332.5,496.167 328.5,499.5C 326.585,499.784 324.919,499.451 323.5,498.5C 329.035,495.233 334.702,492.233 340.5,489.5 Z"/></g>
<g><path style="opacity:0.776" fill="#8a8990" d="M 245.5,5.5 C 243.598,7.15115 241.598,7.48448 239.5,6.5C 241.379,5.65859 243.379,5.32526 245.5,5.5 Z"/></g>
<g><path style="opacity:0.969" fill="#cdcbd9" d="M 247.5,12.5 C 244.167,16.1667 240.833,19.8333 237.5,23.5C 244.097,20.2247 250.43,16.558 256.5,12.5C 261.783,12.1673 266.45,13.5007 270.5,16.5C 249.406,28.9285 228.072,40.9285 206.5,52.5C 211.762,44.9811 216.262,36.9811 220,28.5C 227.014,19.4115 236.181,14.0782 247.5,12.5 Z M 247.5,12.5 C 250.5,12.5 253.5,12.5 256.5,12.5C 250.43,16.558 244.097,20.2247 237.5,23.5C 240.833,19.8333 244.167,16.1667 247.5,12.5 Z"/></g>
<g><path style="opacity:0.992" fill="#cdcbd8" d="M 272.5,17.5 C 283.54,21.2062 290.873,28.5396 294.5,39.5C 293.599,40.2905 292.932,41.2905 292.5,42.5C 293.609,42.4431 294.609,42.1098 295.5,41.5C 297.924,44.0078 299.59,47.0078 300.5,50.5C 292.991,54.755 285.324,58.755 277.5,62.5C 277.817,57.3284 277.151,52.3284 275.5,47.5C 276.557,46.794 276.224,46.4607 274.5,46.5C 264.215,38.1158 253.215,37.2825 241.5,44C 233.588,50.7879 231.255,59.2879 234.5,69.5C 231.167,72.5 227.833,75.5 224.5,78.5C 228.728,76.9339 232.728,74.9339 236.5,72.5C 239.149,74.14 241.816,75.8067 244.5,77.5C 244.489,79.0174 243.823,80.1841 242.5,81C 236.167,86 229.833,91 223.5,96C 224.908,96.3152 226.241,95.9819 227.5,95C 234.027,90.5721 240.693,86.4055 247.5,82.5C 248.167,82.5 248.5,82.1667 248.5,81.5C 249.167,81.1667 249.833,80.8333 250.5,80.5C 251.167,80.5 251.5,80.1667 251.5,79.5C 263.569,80.062 272.236,75.062 277.5,64.5C 285.337,60.4164 293.003,56.0831 300.5,51.5C 303.764,53.0941 306.431,55.4275 308.5,58.5C 301.985,63.2591 295.652,68.2591 289.5,73.5C 297.661,69.9227 305.328,65.5894 312.5,60.5C 317.271,61.8557 321.937,63.189 326.5,64.5C 319.52,69.4838 312.854,74.8171 306.5,80.5C 315.501,76.0019 324.168,71.0019 332.5,65.5C 336.954,65.9532 339.954,68.2865 341.5,72.5C 326.688,81.9249 327.021,82.5916 342.5,74.5C 344.023,77.6297 344.689,80.963 344.5,84.5C 340.041,87.787 335.708,91.287 331.5,95C 335.993,93.4203 340.326,91.2537 344.5,88.5C 344.666,92.8461 344.499,97.1794 344,101.5C 343.167,102.333 342.333,103.167 341.5,104C 344.815,109.805 343.815,114.805 338.5,119C 327.07,123.756 315.07,125.922 302.5,125.5C 307.597,122.252 312.597,118.752 317.5,115C 310.642,117.432 304.309,120.932 298.5,125.5C 290.16,125.666 281.827,125.5 273.5,125C 274.672,124.581 275.672,123.915 276.5,123C 274.58,122.785 272.914,123.452 271.5,125C 256.645,125.602 241.979,125.102 227.5,123.5C 230.649,123.789 233.649,123.289 236.5,122C 240.653,118.425 244.986,115.091 249.5,112C 251.141,110.871 252.141,109.371 252.5,107.5C 249.984,107.755 247.65,108.589 245.5,110C 237.936,114.274 230.602,118.774 223.5,123.5C 215.648,123.825 207.982,123.492 200.5,122.5C 213.641,115.43 226.308,107.596 238.5,99C 238.167,98.8333 237.833,98.6667 237.5,98.5C 224.269,106.275 211.269,114.275 198.5,122.5C 191.451,123.648 184.451,123.982 177.5,123.5C 184.31,117.531 191.31,111.698 198.5,106C 197.092,105.685 195.759,106.018 194.5,107C 187.437,111.193 180.437,115.359 173.5,119.5C 170.799,116.765 169.132,113.431 168.5,109.5C 174.333,106.412 179.667,102.578 184.5,98C 178.674,100.246 173.007,103.08 167.5,106.5C 167.276,102.821 166.942,99.1545 166.5,95.5C 177.34,88.9105 187.673,81.5772 197.5,73.5C 196.21,72.5923 194.877,72.759 193.5,74C 184.799,79.684 175.799,84.8507 166.5,89.5C 165.706,79.8227 168.373,71.3227 174.5,64C 176.895,62.4022 179.228,62.2355 181.5,63.5C 179.742,66.3368 178.575,69.3368 178,72.5C 185.48,68.5179 192.646,64.1846 199.5,59.5C 224.331,46.2548 248.664,32.2548 272.5,17.5 Z M 252.5,45.5 C 250.563,46.9314 248.73,48.5981 247,50.5C 243.951,58.1053 245.451,64.6053 251.5,70C 257.514,74.1355 262.014,72.9688 265,66.5C 265.667,63.5 265.667,60.5 265,57.5C 263.528,50.5245 259.361,46.5245 252.5,45.5 Z M 234.5,69.5 C 235.401,70.2905 236.068,71.2905 236.5,72.5C 232.728,74.9339 228.728,76.9339 224.5,78.5C 227.833,75.5 231.167,72.5 234.5,69.5 Z"/></g>
<g><path style="opacity:0.971" fill="#282828" d="M 274.5,46.5 C 274.5,47.1667 274.833,47.5 275.5,47.5C 277.151,52.3284 277.817,57.3284 277.5,62.5C 277.5,63.1667 277.5,63.8333 277.5,64.5C 272.236,75.062 263.569,80.062 251.5,79.5C 251.167,79.5 250.833,79.5 250.5,79.5C 248.297,79.3964 246.297,78.7298 244.5,77.5C 241.816,75.8067 239.149,74.14 236.5,72.5C 236.068,71.2905 235.401,70.2905 234.5,69.5C 231.255,59.2879 233.588,50.7879 241.5,44C 253.215,37.2825 264.215,38.1158 274.5,46.5 Z M 252.5,45.5 C 250.563,46.9314 248.73,48.5981 247,50.5C 243.951,58.1053 245.451,64.6053 251.5,70C 257.514,74.1355 262.014,72.9688 265,66.5C 265.667,63.5 265.667,60.5 265,57.5C 263.528,50.5245 259.361,46.5245 252.5,45.5 Z"/></g>
<g><path style="opacity:1" fill="#7c4e3e" d="M 166.5,95.5 C 166.5,93.5 166.5,91.5 166.5,89.5C 175.799,84.8507 184.799,79.684 193.5,74C 194.877,72.759 196.21,72.5923 197.5,73.5C 187.673,81.5772 177.34,88.9105 166.5,95.5 Z"/></g>
<g><path style="opacity:1" fill="#875e53" d="M 341.5,72.5 C 341.833,73.1667 342.167,73.8333 342.5,74.5C 327.021,82.5916 326.688,81.9249 341.5,72.5 Z"/></g>
<g><path style="opacity:0.971" fill="#754534" d="M 105.5,78.5 C 111.69,78.1771 117.69,78.5104 123.5,79.5C 123.167,80.1667 122.833,80.8333 122.5,81.5C 124.153,81.3404 125.486,80.6737 126.5,79.5C 132.69,79.1771 138.69,79.5104 144.5,80.5C 136.5,87.5 128.5,94.5 120.5,101.5C 131.816,95.1947 143.15,88.8614 154.5,82.5C 155.492,90.3159 155.826,98.3159 155.5,106.5C 142.163,106.333 128.829,106.5 115.5,107C 105.29,107.229 98.4566,112.062 95,121.5C 95.1957,132.149 95.3624,142.816 95.5,153.5C 88.3372,157.247 81.3372,161.247 74.5,165.5C 73.2641,161.299 73.2641,156.965 74.5,152.5C 76.0269,152.573 77.0269,151.906 77.5,150.5C 76.391,150.557 75.391,150.89 74.5,151.5C 73.7667,143.102 73.7667,134.435 74.5,125.5C 80.2396,121.635 85.5729,117.302 90.5,112.5C 85.1667,115.167 79.8333,117.833 74.5,120.5C 73.1123,111.946 73.2789,103.28 75,94.5C 78.501,85.4883 85.001,80.4883 94.5,79.5C 92.2417,82.3566 90.2417,85.3566 88.5,88.5C 94.6685,85.9196 100.335,82.5863 105.5,78.5 Z M 123.5,79.5 C 124.5,79.5 125.5,79.5 126.5,79.5C 125.486,80.6737 124.153,81.3404 122.5,81.5C 122.833,80.8333 123.167,80.1667 123.5,79.5 Z"/></g>
<g><path style="opacity:0.891" fill="#7d4f41" d="M 244.5,77.5 C 246.297,78.7298 248.297,79.3964 250.5,79.5C 250.5,79.8333 250.5,80.1667 250.5,80.5C 249.833,80.8333 249.167,81.1667 248.5,81.5C 247.833,81.5 247.5,81.8333 247.5,82.5C 240.693,86.4055 234.027,90.5721 227.5,95C 226.241,95.9819 224.908,96.3152 223.5,96C 229.833,91 236.167,86 242.5,81C 243.823,80.1841 244.489,79.0174 244.5,77.5 Z"/></g>
<g><path style="opacity:0.964" fill="#764535" d="M 388.5,78.5 C 378.212,85.9839 367.546,92.9839 356.5,99.5C 355.509,93.021 355.176,86.3543 355.5,79.5C 366.499,79.1275 377.499,78.7942 388.5,78.5 Z"/></g>
<g><path style="opacity:0.95" fill="#764635" d="M 396.5,78.5 C 402.43,78.1282 408.097,78.7949 413.5,80.5C 399.874,88.8067 386.541,97.4733 373.5,106.5C 367.545,107.363 361.545,107.697 355.5,107.5C 355.259,105.114 355.925,103.114 357.5,101.5C 370.7,94.0706 383.7,86.4039 396.5,78.5 Z"/></g>
<g><path style="opacity:0.952" fill="#754534" d="M 419.5,82.5 C 424.128,82.8067 427.795,84.8067 430.5,88.5C 421.167,94.1667 411.833,99.8333 402.5,105.5C 395.612,105.722 388.612,105.722 381.5,105.5C 394.167,97.8333 406.833,90.1667 419.5,82.5 Z"/></g>
<g><path style="opacity:1" fill="#815447" d="M 344.5,84.5 C 344.5,85.8333 344.5,87.1667 344.5,88.5C 340.326,91.2537 335.993,93.4203 331.5,95C 335.708,91.287 340.041,87.787 344.5,84.5 Z"/></g>
<g><path style="opacity:0.949" fill="#754534" d="M 432.5,92.5 C 435.917,94.8127 437.251,98.146 436.5,102.5C 428.865,106.318 421.531,110.651 414.5,115.5C 412.167,112.5 409.5,109.833 406.5,107.5C 415.167,102.5 423.833,97.5 432.5,92.5 Z"/></g>
<g><path style="opacity:1" fill="#7c4f41" d="M 168.5,109.5 C 167.89,108.609 167.557,107.609 167.5,106.5C 173.007,103.08 178.674,100.246 184.5,98C 179.667,102.578 174.333,106.412 168.5,109.5 Z"/></g>
<g><path style="opacity:1" fill="#815548" d="M 252.5,107.5 C 252.369,106.624 252.702,105.957 253.5,105.5C 256.827,103.593 260.16,102.093 263.5,101C 260.333,103.5 257.167,106 254,108.5C 253.617,107.944 253.117,107.611 252.5,107.5 Z"/></g>
<g><path style="opacity:0.948" fill="#754534" d="M 436.5,105.5 C 437.812,113.068 437.812,120.735 436.5,128.5C 431.457,131.015 426.79,134.015 422.5,137.5C 421.508,137.328 420.842,137.662 420.5,138.5C 418.973,138.427 417.973,139.094 417.5,140.5C 416.833,140.5 416.167,140.5 415.5,140.5C 415.5,132.833 415.5,125.167 415.5,117.5C 422.337,113.247 429.337,109.247 436.5,105.5 Z"/></g>
<g><path style="opacity:1" fill="#e7e6f0" d="M 252.5,107.5 C 252.141,109.371 251.141,110.871 249.5,112C 244.986,115.091 240.653,118.425 236.5,122C 233.649,123.289 230.649,123.789 227.5,123.5C 226.167,123.5 224.833,123.5 223.5,123.5C 230.602,118.774 237.936,114.274 245.5,110C 247.65,108.589 249.984,107.755 252.5,107.5 Z"/></g>
<g><path style="opacity:1" fill="#7c4d3e" d="M 177.5,123.5 C 175.833,122.5 174.5,121.167 173.5,119.5C 180.437,115.359 187.437,111.193 194.5,107C 195.759,106.018 197.092,105.685 198.5,106C 191.31,111.698 184.31,117.531 177.5,123.5 Z"/></g>
<g><path style="opacity:1" fill="#e6e4ed" d="M 382.5,117.5 C 379.296,118.383 376.629,120.05 374.5,122.5C 372.973,122.427 371.973,123.094 371.5,124.5C 369.326,124.75 367.659,125.75 366.5,127.5C 364.973,127.427 363.973,128.094 363.5,129.5C 361.973,129.427 360.973,130.094 360.5,131.5C 360.158,132.338 359.492,132.672 358.5,132.5C 356.973,132.427 355.973,133.094 355.5,134.5C 353.973,134.427 352.973,135.094 352.5,136.5C 352.158,137.338 351.492,137.672 350.5,137.5C 348.973,137.427 347.973,138.094 347.5,139.5C 345.973,139.427 344.973,140.094 344.5,141.5C 343.306,142.272 342.306,143.272 341.5,144.5C 343.674,144.25 345.341,143.25 346.5,141.5C 362.328,133.087 377.994,124.42 393.5,115.5C 398.567,114.215 401.567,116.215 402.5,121.5C 393.621,126.099 385.288,131.432 377.5,137.5C 374.296,138.383 371.629,140.05 369.5,142.5C 366.296,143.383 363.629,145.05 361.5,147.5C 361.833,148.833 362.167,148.833 362.5,147.5C 362.833,147.5 363.167,147.5 363.5,147.5C 364.167,147.5 364.5,147.167 364.5,146.5C 365.167,146.167 365.833,145.833 366.5,145.5C 367.167,145.5 367.5,145.167 367.5,144.5C 367.833,144.5 368.167,144.5 368.5,144.5C 369.167,144.5 369.5,144.167 369.5,143.5C 370.492,143.672 371.158,143.338 371.5,142.5C 372.167,142.5 372.5,142.167 372.5,141.5C 372.833,141.5 373.167,141.5 373.5,141.5C 374.167,141.5 374.5,141.167 374.5,140.5C 375.492,140.672 376.158,140.338 376.5,139.5C 377.167,139.5 377.5,139.167 377.5,138.5C 378.492,138.672 379.158,138.338 379.5,137.5C 380.492,137.672 381.158,137.338 381.5,136.5C 383.027,136.573 384.027,135.906 384.5,134.5C 385.492,134.672 386.158,134.338 386.5,133.5C 391.833,130.833 397.167,128.167 402.5,125.5C 402.5,129.167 402.5,132.833 402.5,136.5C 397.895,138.471 393.562,140.971 389.5,144C 393.476,142.518 397.476,140.685 401.5,138.5C 402.484,141.428 402.817,144.428 402.5,147.5C 402.5,147.833 402.5,148.167 402.5,148.5C 401.833,148.5 401.5,148.833 401.5,149.5C 400.833,149.5 400.5,149.833 400.5,150.5C 400.167,150.5 399.833,150.5 399.5,150.5C 398.508,150.328 397.842,150.662 397.5,151.5C 396.833,151.5 396.5,151.833 396.5,152.5C 395.833,152.5 395.5,152.833 395.5,153.5C 394.508,153.328 393.842,153.662 393.5,154.5C 393.167,154.5 392.833,154.5 392.5,154.5C 391.167,155.5 389.833,156.5 388.5,157.5C 387.833,157.5 387.5,157.833 387.5,158.5C 369.293,168.763 351.627,179.763 334.5,191.5C 330.561,193.446 326.894,195.779 323.5,198.5C 321.938,198.733 320.605,199.4 319.5,200.5C 316.025,202.407 312.691,204.574 309.5,207C 311.76,207.044 313.76,206.211 315.5,204.5C 316.107,204.624 316.44,204.957 316.5,205.5C 308.118,213.384 300.618,222.05 294,231.5C 282.085,248.995 270.418,266.662 259,284.5C 253.047,292.788 246.714,300.788 240,308.5C 233.244,301.239 226.078,294.572 218.5,288.5C 219.957,286.215 221.957,284.382 224.5,283C 221.902,283.126 219.569,284.126 217.5,286C 213.644,286.177 209.977,286.677 206.5,287.5C 196.033,289.902 188.366,295.902 183.5,305.5C 176.194,309.822 168.861,314.155 161.5,318.5C 160.831,316.369 160.165,314.369 159.5,312.5C 159.5,310.5 159.5,308.5 159.5,306.5C 165.282,303.225 170.948,299.725 176.5,296C 170.674,298.246 165.007,301.08 159.5,304.5C 159.5,303.167 159.5,301.833 159.5,300.5C 159.335,297.482 159.502,294.482 160,291.5C 175.579,280.959 191.412,270.793 207.5,261C 190.997,269.592 174.664,278.759 158.5,288.5C 158.61,281.812 158.276,275.145 157.5,268.5C 157.833,266.833 158.167,265.167 158.5,263.5C 163.755,260.378 163.589,260.045 158,262.5C 157.501,257.845 157.334,253.179 157.5,248.5C 164.945,244.273 172.278,239.773 179.5,235C 172.134,238.519 164.8,242.352 157.5,246.5C 156.88,236.929 157.88,227.596 160.5,218.5C 165.81,215.844 170.81,212.677 175.5,209C 170.314,210.926 165.314,213.426 160.5,216.5C 161.434,212.627 162.934,208.961 165,205.5C 166.857,202.8 169.357,201.134 172.5,200.5C 177.179,200.334 181.845,200.501 186.5,201C 185.984,203.033 186.65,203.033 188.5,201C 192.821,200.501 197.154,200.334 201.5,200.5C 223.185,201.898 244.851,201.731 266.5,200C 270.752,200.262 274.085,198.762 276.5,195.5C 276.471,193.971 275.804,192.804 274.5,192C 242.202,191.099 209.868,190.433 177.5,190C 164.802,191.506 154.802,197.339 147.5,207.5C 134.861,214.822 122.194,222.155 109.5,229.5C 108.513,226.232 108.18,222.898 108.5,219.5C 128.138,206.01 147.804,192.51 167.5,179C 166.092,178.685 164.759,179.018 163.5,180C 145.664,190.752 127.664,201.252 109.5,211.5C 108.513,208.232 108.18,204.898 108.5,201.5C 108.5,201.167 108.5,200.833 108.5,200.5C 117.784,195.186 126.784,189.353 135.5,183C 126.334,187.254 117.334,192.087 108.5,197.5C 109.833,189.833 109.833,182.167 108.5,174.5C 108.646,170.044 108.646,165.378 108.5,160.5C 115.335,154.501 122.335,148.668 129.5,143C 122.821,146.107 116.154,149.607 109.5,153.5C 108.509,149.555 108.176,145.555 108.5,141.5C 108.5,141.167 108.5,140.833 108.5,140.5C 110.63,138.873 112.63,137.04 114.5,135C 112.744,134.86 111.078,135.36 109.5,136.5C 108.504,130.202 108.17,123.868 108.5,117.5C 110.052,114.888 112.386,113.555 115.5,113.5C 113.996,117.478 112.83,121.478 112,125.5C 118.815,121.851 125.315,117.851 131.5,113.5C 136.797,114.275 142.13,114.608 147.5,114.5C 143.037,119.465 138.37,124.298 133.5,129C 141.333,125.412 149,121.245 156.5,116.5C 157.447,120.383 159.447,123.717 162.5,126.5C 158.361,130.468 154.027,134.301 149.5,138C 149.833,138.167 150.167,138.333 150.5,138.5C 155.5,135.667 160.5,132.833 165.5,130C 166.793,129.51 168.127,129.343 169.5,129.5C 175.876,131.016 182.376,131.683 189,131.5C 202.423,129.961 215.923,129.295 229.5,129.5C 225.072,132.891 220.406,136.058 215.5,139C 214.304,139.654 214.304,140.154 215.5,140.5C 220.964,137.532 226.297,134.366 231.5,131C 235.486,130.501 239.486,130.334 243.5,130.5C 245.833,130.5 248.167,130.5 250.5,130.5C 251.598,131.397 251.598,132.23 250.5,133C 237.167,142 223.833,151 210.5,160C 209.304,160.654 209.304,161.154 210.5,161.5C 227.728,151.726 244.728,141.726 261.5,131.5C 267.804,132.26 274.137,132.593 280.5,132.5C 268.071,141.225 255.405,149.725 242.5,158C 241.304,158.654 241.304,159.154 242.5,159.5C 257.611,150.377 272.944,141.711 288.5,133.5C 294.842,133.334 301.175,133.5 307.5,134C 292.003,144.25 276.336,154.25 260.5,164C 259.304,164.654 259.304,165.154 260.5,165.5C 279.23,154.474 297.896,143.474 316.5,132.5C 327.995,131.461 338.662,127.961 348.5,122C 350.53,120.104 352.197,117.937 353.5,115.5C 357.445,114.509 361.445,114.176 365.5,114.5C 359.338,118.47 353.004,122.303 346.5,126C 345.304,126.654 345.304,127.154 346.5,127.5C 353.805,123.502 360.805,119.168 367.5,114.5C 374.064,112.786 380.73,112.286 387.5,113C 385.76,114.517 384.094,116.017 382.5,117.5 Z M 384.5,134.5 C 384.027,135.906 383.027,136.573 381.5,136.5C 381.973,135.094 382.973,134.427 384.5,134.5 Z M 344.5,141.5 C 345.167,141.5 345.833,141.5 346.5,141.5C 345.341,143.25 343.674,144.25 341.5,144.5C 342.306,143.272 343.306,142.272 344.5,141.5 Z M 339.5,145.5 C 339.027,146.906 338.027,147.573 336.5,147.5C 336.973,146.094 337.973,145.427 339.5,145.5 Z"/></g>
<g><path style="opacity:1" fill="#7b4b3b" d="M 115.5,113.5 C 120.833,113.5 126.167,113.5 131.5,113.5C 125.315,117.851 118.815,121.851 112,125.5C 112.83,121.478 113.996,117.478 115.5,113.5 Z"/></g>
<g><path style="opacity:1" fill="#7e5040" d="M 147.5,114.5 C 151.012,113.945 154.012,114.612 156.5,116.5C 149,121.245 141.333,125.412 133.5,129C 138.37,124.298 143.037,119.465 147.5,114.5 Z"/></g>
<g><path style="opacity:1" fill="#7f5243" d="M 200.5,122.5 C 199.833,122.5 199.167,122.5 198.5,122.5C 211.269,114.275 224.269,106.275 237.5,98.5C 237.833,98.6667 238.167,98.8333 238.5,99C 226.308,107.596 213.641,115.43 200.5,122.5 Z"/></g>
<g><path style="opacity:1" fill="#815446" d="M 302.5,125.5 C 301.167,125.5 299.833,125.5 298.5,125.5C 304.309,120.932 310.642,117.432 317.5,115C 312.597,118.752 307.597,122.252 302.5,125.5 Z"/></g>
<g><path style="opacity:1" fill="#7c6c6a" d="M 108.5,117.5 C 108.17,123.868 108.504,130.202 109.5,136.5C 111.078,135.36 112.744,134.86 114.5,135C 112.63,137.04 110.63,138.873 108.5,140.5C 107.252,132.692 107.252,125.025 108.5,117.5 Z"/></g>
<g><path style="opacity:0.094" fill="#815a41" d="M 382.5,117.5 C 380.371,119.95 377.704,121.617 374.5,122.5C 376.629,120.05 379.296,118.383 382.5,117.5 Z"/></g>
<g><path style="opacity:0.043" fill="#794b38" d="M 374.5,122.5 C 374.027,123.906 373.027,124.573 371.5,124.5C 371.973,123.094 372.973,122.427 374.5,122.5 Z"/></g>
<g><path style="opacity:1" fill="#99756b" d="M 365.5,114.5 C 366.167,114.5 366.833,114.5 367.5,114.5C 360.805,119.168 353.805,123.502 346.5,127.5C 345.304,127.154 345.304,126.654 346.5,126C 353.004,122.303 359.338,118.47 365.5,114.5 Z"/></g>
<g><path style="opacity:0.086" fill="#825844" d="M 371.5,124.5 C 370.341,126.25 368.674,127.25 366.5,127.5C 367.659,125.75 369.326,124.75 371.5,124.5 Z"/></g>
<g><path style="opacity:1" fill="#7e5244" d="M 162.5,126.5 C 165.018,127.264 167.351,128.264 169.5,129.5C 168.127,129.343 166.793,129.51 165.5,130C 160.5,132.833 155.5,135.667 150.5,138.5C 150.167,138.333 149.833,138.167 149.5,138C 154.027,134.301 158.361,130.468 162.5,126.5 Z"/></g>
<g><path style="opacity:0.031" fill="#814c43" d="M 366.5,127.5 C 366.027,128.906 365.027,129.573 363.5,129.5C 363.973,128.094 364.973,127.427 366.5,127.5 Z"/></g>
<g><path style="opacity:0.129" fill="#7c4f3d" d="M 402.5,121.5 C 402.5,122.167 402.5,122.833 402.5,123.5C 396.822,126.336 391.489,129.669 386.5,133.5C 385.508,133.328 384.842,133.662 384.5,134.5C 382.973,134.427 381.973,135.094 381.5,136.5C 380.508,136.328 379.842,136.662 379.5,137.5C 378.833,137.5 378.167,137.5 377.5,137.5C 385.288,131.432 393.621,126.099 402.5,121.5 Z"/></g>
<g><path style="opacity:0.004" fill="#472f27" d="M 363.5,129.5 C 363.027,130.906 362.027,131.573 360.5,131.5C 360.973,130.094 361.973,129.427 363.5,129.5 Z"/></g>
<g><path style="opacity:1" fill="#815345" d="M 250.5,130.5 C 254.119,131.244 257.785,131.577 261.5,131.5C 244.728,141.726 227.728,151.726 210.5,161.5C 209.304,161.154 209.304,160.654 210.5,160C 223.833,151 237.167,142 250.5,133C 251.598,132.23 251.598,131.397 250.5,130.5 Z"/></g>
<g><path style="opacity:0.951" fill="#774634" d="M 436.5,130.5 C 436.763,134.6 436.43,138.6 435.5,142.5C 428.833,146.5 422.167,150.5 415.5,154.5C 415.5,150.167 415.5,145.833 415.5,141.5C 416.492,141.672 417.158,141.338 417.5,140.5C 419.027,140.573 420.027,139.906 420.5,138.5C 421.492,138.672 422.158,138.338 422.5,137.5C 427.167,135.167 431.833,132.833 436.5,130.5 Z"/></g>
<g><path style="opacity:1" fill="#7e5142" d="M 280.5,132.5 C 283.167,132.5 285.833,132.5 288.5,132.5C 288.5,132.833 288.5,133.167 288.5,133.5C 272.944,141.711 257.611,150.377 242.5,159.5C 241.304,159.154 241.304,158.654 242.5,158C 255.405,149.725 268.071,141.225 280.5,132.5 Z"/></g>
<g><path style="opacity:1" fill="#82594c" d="M 288.5,133.5 C 288.5,133.167 288.5,132.833 288.5,132.5C 297.833,132.5 307.167,132.5 316.5,132.5C 297.896,143.474 279.23,154.474 260.5,165.5C 259.304,165.154 259.304,164.654 260.5,164C 276.336,154.25 292.003,144.25 307.5,134C 301.175,133.5 294.842,133.334 288.5,133.5 Z"/></g>
<g><path style="opacity:0.031" fill="#834f48" d="M 358.5,132.5 C 358.027,133.906 357.027,134.573 355.5,134.5C 355.973,133.094 356.973,132.427 358.5,132.5 Z"/></g>
<g><path style="opacity:1" fill="#845f54" d="M 229.5,129.5 C 234.363,129.181 239.03,129.514 243.5,130.5C 239.486,130.334 235.486,130.501 231.5,131C 226.297,134.366 220.964,137.532 215.5,140.5C 214.304,140.154 214.304,139.654 215.5,139C 220.406,136.058 225.072,132.891 229.5,129.5 Z"/></g>
<g><path style="opacity:0.004" fill="#483029" d="M 355.5,134.5 C 355.027,135.906 354.027,136.573 352.5,136.5C 352.973,135.094 353.973,134.427 355.5,134.5 Z"/></g>
<g><path style="opacity:0.027" fill="#7f5740" d="M 350.5,137.5 C 350.027,138.906 349.027,139.573 347.5,139.5C 347.973,138.094 348.973,137.427 350.5,137.5 Z"/></g>
<g><path style="opacity:1" fill="#896960" d="M 402.5,136.5 C 403.787,140.268 403.787,143.935 402.5,147.5C 402.817,144.428 402.484,141.428 401.5,138.5C 397.476,140.685 393.476,142.518 389.5,144C 393.562,140.971 397.895,138.471 402.5,136.5 Z"/></g>
<g><path style="opacity:0.004" fill="#4a332c" d="M 347.5,139.5 C 347.167,140.167 346.833,140.833 346.5,141.5C 345.833,141.5 345.167,141.5 344.5,141.5C 344.973,140.094 345.973,139.427 347.5,139.5 Z"/></g>
<g><path style="opacity:0.11" fill="#7d4f41" d="M 377.5,137.5 C 377.5,137.833 377.5,138.167 377.5,138.5C 376.833,138.5 376.5,138.833 376.5,139.5C 375.508,139.328 374.842,139.662 374.5,140.5C 373.833,140.5 373.5,140.833 373.5,141.5C 373.167,141.5 372.833,141.5 372.5,141.5C 371.833,141.5 371.5,141.833 371.5,142.5C 370.833,142.5 370.167,142.5 369.5,142.5C 371.629,140.05 374.296,138.383 377.5,137.5 Z"/></g>
<g><path style="opacity:0.384" fill="#794e3f" d="M 369.5,142.5 C 369.5,142.833 369.5,143.167 369.5,143.5C 368.833,143.5 368.5,143.833 368.5,144.5C 368.167,144.5 367.833,144.5 367.5,144.5C 366.833,144.5 366.5,144.833 366.5,145.5C 365.833,145.833 365.167,146.167 364.5,146.5C 363.833,146.5 363.5,146.833 363.5,147.5C 363.167,147.5 362.833,147.5 362.5,147.5C 362.167,147.5 361.833,147.5 361.5,147.5C 363.629,145.05 366.296,143.383 369.5,142.5 Z"/></g>
<g><path style="opacity:0.946" fill="#754534" d="M 436.5,146.5 C 436.5,150.167 436.5,153.833 436.5,157.5C 429.668,162.084 422.668,166.417 415.5,170.5C 415.5,166.167 415.5,161.833 415.5,157.5C 422.342,153.578 429.342,149.912 436.5,146.5 Z"/></g>
<g><path style="opacity:1" fill="#7f5649" d="M 108.5,141.5 C 108.176,145.555 108.509,149.555 109.5,153.5C 116.154,149.607 122.821,146.107 129.5,143C 122.335,148.668 115.335,154.501 108.5,160.5C 107.45,154.007 107.45,147.674 108.5,141.5 Z"/></g>
<g><path style="opacity:0.949" fill="#7c4d3d" d="M 402.5,148.5 C 402.5,150.5 402.5,152.5 402.5,154.5C 381.3,166.596 360.3,178.929 339.5,191.5C 337.833,191.5 336.167,191.5 334.5,191.5C 351.627,179.763 369.293,168.763 387.5,158.5C 388.167,158.5 388.5,158.167 388.5,157.5C 389.833,156.5 391.167,155.5 392.5,154.5C 392.833,155.833 393.167,155.833 393.5,154.5C 393.842,153.662 394.508,153.328 395.5,153.5C 396.167,153.5 396.5,153.167 396.5,152.5C 396.5,151.833 396.833,151.5 397.5,151.5C 397.842,150.662 398.508,150.328 399.5,150.5C 399.833,151.833 400.167,151.833 400.5,150.5C 401.167,150.5 401.5,150.167 401.5,149.5C 401.5,148.833 401.833,148.5 402.5,148.5 Z"/></g>
<g><path style="opacity:0.051" fill="#7e5544" d="M 356.5,150.5 C 356.5,150.833 356.5,151.167 356.5,151.5C 355.609,152.11 354.609,152.443 353.5,152.5C 353.973,151.094 354.973,150.427 356.5,150.5 Z"/></g>
<g><path style="opacity:1" fill="#a68882" d="M 326.5,152.5 C 326.842,151.662 327.508,151.328 328.5,151.5C 328.5,152.167 328.833,152.5 329.5,152.5C 328.599,154.727 326.933,155.727 324.5,155.5C 324.5,154.833 324.167,154.5 323.5,154.5C 323.842,153.662 324.508,153.328 325.5,153.5C 325.833,154.833 326.167,154.833 326.5,153.5C 327.833,153.167 327.833,152.833 326.5,152.5 Z"/></g>
<g><path style="opacity:0.956" fill="#754534" d="M 95.5,155.5 C 95.5,164.167 95.5,172.833 95.5,181.5C 88.5,185.5 81.5,189.5 74.5,193.5C 74.1666,185.667 74.1666,177.667 74.5,169.5C 81.5,164.833 88.5,160.167 95.5,155.5 Z"/></g>
<g><path style="opacity:0.99" fill="#e6e4ed" d="M 402.5,154.5 C 402.5,158.167 402.5,161.833 402.5,165.5C 385.462,175.346 368.795,185.68 352.5,196.5C 348.158,194.613 343.825,192.946 339.5,191.5C 360.3,178.929 381.3,166.596 402.5,154.5 Z"/></g>
<g><path style="opacity:0.992" fill="#b09490" d="M 353.5,152.5 C 352.323,154.032 350.989,155.532 349.5,157C 348.207,157.49 346.873,157.657 345.5,157.5C 347.629,155.05 350.296,153.383 353.5,152.5 Z"/></g>
<g><path style="opacity:0.302" fill="#8a5d53" d="M 321.5,155.5 C 321.5,156.167 321.833,156.5 322.5,156.5C 321.71,157.401 320.71,158.068 319.5,158.5C 319.427,156.973 320.094,155.973 321.5,155.5 Z"/></g>
<g><path style="opacity:0.157" fill="#a3817a" d="M 345.5,157.5 C 344.495,159.562 342.829,160.396 340.5,160C 341.91,158.628 343.577,157.795 345.5,157.5 Z"/></g>
<g><path style="opacity:0.935" fill="#764534" d="M 436.5,163.5 C 436.5,167.5 436.5,171.5 436.5,175.5C 429.5,179.5 422.5,183.5 415.5,187.5C 415.5,183.167 415.5,178.833 415.5,174.5C 422.658,171.088 429.658,167.422 436.5,163.5 Z"/></g>
<g><path style="opacity:0.965" fill="#7f5345" d="M 402.5,165.5 C 403.678,170.312 403.678,174.979 402.5,179.5C 402.665,176.15 402.498,172.817 402,169.5C 385.724,178.719 369.558,188.052 353.5,197.5C 352.833,197.5 352.5,197.167 352.5,196.5C 368.795,185.68 385.462,175.346 402.5,165.5 Z"/></g>
<g><path style="opacity:0.827" fill="#a3847c" d="M 318.5,157.5 C 318.5,158.167 318.833,158.5 319.5,158.5C 313.023,163.403 306.023,167.236 298.5,170C 305.317,166.005 311.984,161.838 318.5,157.5 Z"/></g>
<g><path style="opacity:0.971" fill="#e7e5ee" d="M 402.5,179.5 C 402.5,179.833 402.5,180.167 402.5,180.5C 396.205,184.141 390.205,188.141 384.5,192.5C 383.508,192.328 382.842,192.662 382.5,193.5C 381.833,193.5 381.5,193.833 381.5,194.5C 380.508,194.328 379.842,194.662 379.5,195.5C 378.833,195.5 378.5,195.833 378.5,196.5C 378.167,196.5 377.833,196.5 377.5,196.5C 376.833,196.5 376.5,196.833 376.5,197.5C 375.508,197.328 374.842,197.662 374.5,198.5C 373.833,198.5 373.5,198.833 373.5,199.5C 373.167,199.5 372.833,199.5 372.5,199.5C 371.833,199.5 371.5,199.833 371.5,200.5C 370.833,200.833 370.167,201.167 369.5,201.5C 368.833,201.5 368.5,201.833 368.5,202.5C 366.004,203.58 363.67,204.914 361.5,206.5C 358.862,203.526 356.195,200.526 353.5,197.5C 369.558,188.052 385.724,178.719 402,169.5C 402.498,172.817 402.665,176.15 402.5,179.5 Z"/></g>
<g><path style="opacity:0.932" fill="#794c3c" d="M 402.5,183.5 C 403.597,188.321 403.597,192.987 402.5,197.5C 402.817,194.428 402.484,191.428 401.5,188.5C 388.535,195.497 375.869,202.831 363.5,210.5C 362.655,209.329 361.989,207.995 361.5,206.5C 363.67,204.914 366.004,203.58 368.5,202.5C 369.167,202.5 369.5,202.167 369.5,201.5C 370.167,201.167 370.833,200.833 371.5,200.5C 372.167,200.5 372.5,200.167 372.5,199.5C 372.833,199.5 373.167,199.5 373.5,199.5C 374.167,199.5 374.5,199.167 374.5,198.5C 375.492,198.672 376.158,198.338 376.5,197.5C 377.167,197.5 377.5,197.167 377.5,196.5C 377.833,196.5 378.167,196.5 378.5,196.5C 379.167,196.5 379.5,196.167 379.5,195.5C 380.492,195.672 381.158,195.338 381.5,194.5C 382.167,194.5 382.5,194.167 382.5,193.5C 383.492,193.672 384.158,193.338 384.5,192.5C 390.5,189.5 396.5,186.5 402.5,183.5 Z"/></g>
<g><path style="opacity:0.945" fill="#764634" d="M 435.5,183.5 C 436.482,186.962 436.815,190.629 436.5,194.5C 429.332,198.583 422.332,202.916 415.5,207.5C 415.5,203.167 415.5,198.833 415.5,194.5C 422.167,190.833 428.833,187.167 435.5,183.5 Z"/></g>
<g><path style="opacity:0.945" fill="#754534" d="M 95.5,185.5 C 95.5,190.167 95.5,194.833 95.5,199.5C 88.3423,202.912 81.3423,206.578 74.5,210.5C 73.2092,206.601 73.2092,202.601 74.5,198.5C 81.3604,193.905 88.3604,189.572 95.5,185.5 Z"/></g>
<g><path style="opacity:1" fill="#747276" d="M 108.5,174.5 C 109.833,182.167 109.833,189.833 108.5,197.5C 107.167,189.833 107.167,182.167 108.5,174.5 Z"/></g>
<g><path style="opacity:0.95" fill="#7d5041" d="M 108.5,219.5 C 108.5,218.833 108.5,218.167 108.5,217.5C 109.833,217.167 109.833,216.833 108.5,216.5C 107.381,211.347 107.381,206.347 108.5,201.5C 108.18,204.898 108.513,208.232 109.5,211.5C 127.664,201.252 145.664,190.752 163.5,180C 164.759,179.018 166.092,178.685 167.5,179C 147.804,192.51 128.138,206.01 108.5,219.5 Z"/></g>
<g><path style="opacity:0.972" fill="#e7e5ef" d="M 402.5,197.5 C 402.5,198.167 402.5,198.833 402.5,199.5C 390.32,206.086 378.653,213.419 367.5,221.5C 365.716,221.893 364.05,222.559 362.5,223.5C 363.295,219.215 363.628,214.881 363.5,210.5C 375.869,202.831 388.535,195.497 401.5,188.5C 402.484,191.428 402.817,194.428 402.5,197.5 Z"/></g>
<g><path style="opacity:1" fill="#282828" d="M 201.5,200.5 C 191.833,199.167 182.167,199.167 172.5,200.5C 169.357,201.134 166.857,202.8 165,205.5C 162.934,208.961 161.434,212.627 160.5,216.5C 160.5,217.167 160.5,217.833 160.5,218.5C 157.88,227.596 156.88,236.929 157.5,246.5C 157.5,247.167 157.5,247.833 157.5,248.5C 157.334,253.179 157.501,257.845 158,262.5C 163.589,260.045 163.755,260.378 158.5,263.5C 158.167,265.167 157.833,266.833 157.5,268.5C 158.276,275.145 158.61,281.812 158.5,288.5C 158.183,292.702 158.517,296.702 159.5,300.5C 159.5,301.833 159.5,303.167 159.5,304.5C 159.5,305.167 159.5,305.833 159.5,306.5C 159.5,308.5 159.5,310.5 159.5,312.5C 159.552,316.198 159.886,319.865 160.5,323.5C 160.5,328.167 160.5,332.833 160.5,337.5C 160.5,338.167 160.5,338.833 160.5,339.5C 160.331,344.181 159.998,348.848 159.5,353.5C 159.5,353.833 159.5,354.167 159.5,354.5C 159.167,355.833 158.833,357.167 158.5,358.5C 157.617,363.103 157.283,367.77 157.5,372.5C 157.833,373.167 158.167,373.833 158.5,374.5C 158.932,389.264 166.599,396.597 181.5,396.5C 188.5,397.833 195.5,397.833 202.5,396.5C 214.251,396.32 225.917,395.654 237.5,394.5C 248.419,395.477 259.419,395.81 270.5,395.5C 286.518,396.138 302.518,397.138 318.5,398.5C 331.02,400.585 340.853,396.585 348,386.5C 351.413,376.107 352.913,365.44 352.5,354.5C 352.5,353.167 352.5,351.833 352.5,350.5C 353.664,344.651 353.664,338.651 352.5,332.5C 352.5,327.833 352.5,323.167 352.5,318.5C 352.5,317.5 352.5,316.5 352.5,315.5C 352.5,311.167 352.5,306.833 352.5,302.5C 352.5,294.833 352.5,287.167 352.5,279.5C 355.95,275.959 359.783,275.625 364,278.5C 364.499,283.155 364.666,287.821 364.5,292.5C 364.187,296.042 364.521,299.375 365.5,302.5C 365.5,303.833 365.5,305.167 365.5,306.5C 365.5,307.833 365.5,309.167 365.5,310.5C 365.182,315.032 365.515,319.366 366.5,323.5C 366.5,325.167 366.5,326.833 366.5,328.5C 366.5,332.833 366.5,337.167 366.5,341.5C 366.5,342.833 366.5,344.167 366.5,345.5C 365.905,359.612 363.571,373.445 359.5,387C 359.57,387.765 359.903,388.265 360.5,388.5C 360.5,388.833 360.5,389.167 360.5,389.5C 356.844,393.964 352.844,398.131 348.5,402C 341.983,405.638 334.983,407.638 327.5,408C 320.167,408.667 312.833,408.667 305.5,408C 288.198,406.312 270.864,405.145 253.5,404.5C 243.916,403.527 234.25,403.194 224.5,403.5C 218.31,403.177 212.31,403.51 206.5,404.5C 201.438,404.274 196.438,404.608 191.5,405.5C 190.833,405.5 190.167,405.5 189.5,405.5C 181.833,405.5 174.167,405.5 166.5,405.5C 153.932,402.936 147.599,395.269 147.5,382.5C 147.5,381.5 147.5,380.5 147.5,379.5C 147.5,375.167 147.5,370.833 147.5,366.5C 147.737,365.209 147.404,364.209 146.5,363.5C 146.5,362.833 146.5,362.167 146.5,361.5C 147.797,356.733 147.797,352.066 146.5,347.5C 146.5,347.167 146.5,346.833 146.5,346.5C 146.5,342.167 146.5,337.833 146.5,333.5C 146.5,331.5 146.5,329.5 146.5,327.5C 146.5,323.5 146.5,319.5 146.5,315.5C 146.5,314.5 146.5,313.5 146.5,312.5C 146.5,308.167 146.5,303.833 146.5,299.5C 146.5,298.167 146.5,296.833 146.5,295.5C 146.5,287.5 146.5,279.5 146.5,271.5C 146.5,270.833 146.5,270.167 146.5,269.5C 146.5,265.167 146.5,260.833 146.5,256.5C 146.5,255.833 146.5,255.167 146.5,254.5C 146.5,254.167 146.5,253.833 146.5,253.5C 146.5,253.167 146.5,252.833 146.5,252.5C 147.494,243.348 147.827,234.015 147.5,224.5C 147.5,219.833 147.5,215.167 147.5,210.5C 147.5,209.5 147.5,208.5 147.5,207.5C 154.802,197.339 164.802,191.506 177.5,190C 209.868,190.433 242.202,191.099 274.5,192C 275.804,192.804 276.471,193.971 276.5,195.5C 274.085,198.762 270.752,200.262 266.5,200C 244.851,201.731 223.185,201.898 201.5,200.5 Z"/></g>
<g><path style="opacity:1" fill="#282928" d="M 334.5,191.5 C 336.167,191.5 337.833,191.5 339.5,191.5C 343.825,192.946 348.158,194.613 352.5,196.5C 352.5,197.167 352.833,197.5 353.5,197.5C 356.195,200.526 358.862,203.526 361.5,206.5C 361.989,207.995 362.655,209.329 363.5,210.5C 363.628,214.881 363.295,219.215 362.5,223.5C 362.5,223.833 362.5,224.167 362.5,224.5C 361.833,224.5 361.5,224.833 361.5,225.5C 354.814,233.525 348.481,241.859 342.5,250.5C 341.599,251.29 340.932,252.29 340.5,253.5C 340.5,253.833 340.5,254.167 340.5,254.5C 339.167,256.167 337.833,257.833 336.5,259.5C 312.764,291.961 289.264,324.628 266,357.5C 260.588,365.202 253.255,369.535 244,370.5C 240.254,370.675 236.754,369.842 233.5,368C 226.646,364.408 220.313,360.075 214.5,355C 207.937,348.605 201.603,342.105 195.5,335.5C 195.167,334.5 194.5,333.833 193.5,333.5C 191.055,330.79 188.722,327.956 186.5,325C 185.552,324.517 184.552,324.351 183.5,324.5C 183.611,323.883 183.944,323.383 184.5,323C 183.331,320.993 182.665,318.827 182.5,316.5C 182.323,312.766 182.656,309.099 183.5,305.5C 188.366,295.902 196.033,289.902 206.5,287.5C 210.6,287.237 214.6,287.57 218.5,288.5C 226.078,294.572 233.244,301.239 240,308.5C 246.714,300.788 253.047,292.788 259,284.5C 270.418,266.662 282.085,248.995 294,231.5C 300.618,222.05 308.118,213.384 316.5,205.5C 317.833,204.833 318.833,203.833 319.5,202.5C 321.167,201.5 322.5,200.167 323.5,198.5C 326.894,195.779 330.561,193.446 334.5,191.5 Z"/></g>
<g><path style="opacity:1" fill="#7f5142" d="M 108.5,200.5 C 108.5,199.5 108.5,198.5 108.5,197.5C 117.334,192.087 126.334,187.254 135.5,183C 126.784,189.353 117.784,195.186 108.5,200.5 Z"/></g>
<g><path style="opacity:1" fill="#aba9af" d="M 172.5,200.5 C 182.167,199.167 191.833,199.167 201.5,200.5C 197.154,200.334 192.821,200.501 188.5,201C 186.65,203.033 185.984,203.033 186.5,201C 181.845,200.501 177.179,200.334 172.5,200.5 Z"/></g>
<g><path style="opacity:1" fill="#43995a" d="M 323.5,198.5 C 322.5,200.167 321.167,201.5 319.5,202.5C 319.5,201.833 319.5,201.167 319.5,200.5C 320.605,199.4 321.938,198.733 323.5,198.5 Z"/></g>
<g><path style="opacity:0.952" fill="#764634" d="M 436.5,199.5 C 436.5,207.5 436.5,215.5 436.5,223.5C 429.5,227.5 422.5,231.5 415.5,235.5C 415.5,227.5 415.5,219.5 415.5,211.5C 422.337,207.247 429.337,203.247 436.5,199.5 Z"/></g>
<g><path style="opacity:0.972" fill="#754534" d="M 95.5,201.5 C 95.5,209.167 95.5,216.833 95.5,224.5C 94.8333,224.5 94.5,224.833 94.5,225.5C 93.8333,225.5 93.5,225.833 93.5,226.5C 92.5084,226.328 91.8417,226.662 91.5,227.5C 89.9731,227.427 88.9731,228.094 88.5,229.5C 87.5084,229.328 86.8417,229.662 86.5,230.5C 82.5266,232.487 78.5266,234.487 74.5,236.5C 73.189,229.265 73.189,221.932 74.5,214.5C 81.3604,209.905 88.3604,205.572 95.5,201.5 Z"/></g>
<g><path style="opacity:1" fill="#39c76b" d="M 312.5,274.5 C 292.67,285.581 273.003,296.914 253.5,308.5C 278.536,272.617 304.203,237.117 330.5,202C 342.767,200.947 349.601,206.447 351,218.5C 338.304,237.345 325.47,256.012 312.5,274.5 Z"/></g>
<g><path style="opacity:1" fill="#e4e2eb" d="M 402.5,202.5 C 402.793,206.437 402.46,210.27 401.5,214C 384.598,224.608 367.931,235.442 351.5,246.5C 349.973,246.427 348.973,247.094 348.5,248.5C 347.167,248.5 346.5,249.167 346.5,250.5C 345.833,250.5 345.5,250.833 345.5,251.5C 344.833,251.5 344.167,251.5 343.5,251.5C 342.833,251.5 342.5,251.167 342.5,250.5C 348.481,241.859 354.814,233.525 361.5,225.5C 362.167,225.5 362.5,225.167 362.5,224.5C 364.674,224.25 366.341,223.25 367.5,221.5C 379.326,215.421 390.993,209.088 402.5,202.5 Z"/></g>
<g><path style="opacity:1" fill="#876356" d="M 319.5,200.5 C 319.5,201.167 319.5,201.833 319.5,202.5C 318.833,203.833 317.833,204.833 316.5,205.5C 316.44,204.957 316.107,204.624 315.5,204.5C 313.76,206.211 311.76,207.044 309.5,207C 312.691,204.574 316.025,202.407 319.5,200.5 Z"/></g>
<g><path style="opacity:1" fill="#7d5042" d="M 147.5,207.5 C 147.5,208.5 147.5,209.5 147.5,210.5C 134.641,219.093 121.641,227.427 108.5,235.5C 107.441,230.009 107.441,224.675 108.5,219.5C 108.18,222.898 108.513,226.232 109.5,229.5C 122.194,222.155 134.861,214.822 147.5,207.5 Z"/></g>
<g><path style="opacity:1" fill="#e6e4ed" d="M 147.5,210.5 C 147.5,215.167 147.5,219.833 147.5,224.5C 134.555,231.606 121.722,238.939 109,246.5C 108.502,243.183 108.335,239.85 108.5,236.5C 108.5,236.167 108.5,235.833 108.5,235.5C 121.641,227.427 134.641,219.093 147.5,210.5 Z"/></g>
<g><path style="opacity:1" fill="#8b6155" d="M 160.5,218.5 C 160.5,217.833 160.5,217.167 160.5,216.5C 165.314,213.426 170.314,210.926 175.5,209C 170.81,212.677 165.81,215.844 160.5,218.5 Z"/></g>
<g><path style="opacity:1" fill="#7e5649" d="M 147.5,224.5 C 147.827,234.015 147.494,243.348 146.5,252.5C 146.831,244.472 146.498,236.472 145.5,228.5C 133.149,236.526 120.816,244.526 108.5,252.5C 107.441,247.009 107.441,241.675 108.5,236.5C 108.335,239.85 108.502,243.183 109,246.5C 121.722,238.939 134.555,231.606 147.5,224.5 Z"/></g>
<g><path style="opacity:0.973" fill="#754534" d="M 94.5,225.5 C 94.8333,225.5 95.1667,225.5 95.5,225.5C 95.8005,233.586 95.4672,241.586 94.5,249.5C 87.8333,253.167 81.1667,256.833 74.5,260.5C 73.189,253.265 73.189,245.932 74.5,238.5C 78.8811,236.316 82.8811,233.65 86.5,230.5C 87.4916,230.672 88.1583,230.338 88.5,229.5C 90.0269,229.573 91.0269,228.906 91.5,227.5C 92.4916,227.672 93.1583,227.338 93.5,226.5C 94.1667,226.5 94.5,226.167 94.5,225.5 Z"/></g>
<g><path style="opacity:0.838" fill="#7b4e3e" d="M 402.5,219.5 C 403.726,223.633 403.726,227.633 402.5,231.5C 402.817,228.428 402.484,225.428 401.5,222.5C 379.941,235.11 358.275,247.443 336.5,259.5C 337.833,257.833 339.167,256.167 340.5,254.5C 341.833,254.167 341.833,253.833 340.5,253.5C 340.932,252.29 341.599,251.29 342.5,250.5C 342.5,251.167 342.833,251.5 343.5,251.5C 344.167,252.833 344.833,252.833 345.5,251.5C 346.167,251.5 346.5,251.167 346.5,250.5C 346.5,249.167 347.167,248.5 348.5,248.5C 349.167,249.833 349.833,249.833 350.5,248.5C 352.027,248.573 353.027,247.906 353.5,246.5C 354.492,246.672 355.158,246.338 355.5,245.5C 371.167,236.833 386.833,228.167 402.5,219.5 Z"/></g>
<g><path style="opacity:0.942" fill="#764634" d="M 436.5,227.5 C 436.5,231.5 436.5,235.5 436.5,239.5C 429.5,243.5 422.5,247.5 415.5,251.5C 415.5,247.5 415.5,243.5 415.5,239.5C 422.337,235.247 429.337,231.247 436.5,227.5 Z"/></g>
<g><path style="opacity:0.986" fill="#e5e3ec" d="M 146.5,252.5 C 146.5,252.833 146.5,253.167 146.5,253.5C 145.833,253.5 145.5,253.833 145.5,254.5C 145.167,254.5 144.833,254.5 144.5,254.5C 143.833,254.5 143.5,254.833 143.5,255.5C 142.833,255.5 142.5,255.833 142.5,256.5C 142.167,256.5 141.833,256.5 141.5,256.5C 140.833,256.5 140.5,256.833 140.5,257.5C 140.167,257.5 139.833,257.5 139.5,257.5C 138.833,257.5 138.5,257.833 138.5,258.5C 137.508,258.328 136.842,258.662 136.5,259.5C 135.833,259.5 135.5,259.833 135.5,260.5C 134.508,260.328 133.842,260.662 133.5,261.5C 132.508,261.328 131.842,261.662 131.5,262.5C 129.973,262.427 128.973,263.094 128.5,264.5C 126.326,264.75 124.659,265.75 123.5,267.5C 118.368,269.9 113.368,272.566 108.5,275.5C 108.335,271.818 108.501,268.152 109,264.5C 109.5,264 110,263.5 110.5,263C 108.638,259.851 107.971,256.351 108.5,252.5C 120.816,244.526 133.149,236.526 145.5,228.5C 146.498,236.472 146.831,244.472 146.5,252.5 Z"/></g>
<g><path style="opacity:0.555" fill="#7b4f3f" d="M 402.5,202.5 C 403.794,206.733 403.794,211.066 402.5,215.5C 386.628,225.264 370.961,235.264 355.5,245.5C 354.508,245.328 353.842,245.662 353.5,246.5C 352.833,246.5 352.167,246.5 351.5,246.5C 367.931,235.442 384.598,224.608 401.5,214C 402.46,210.27 402.793,206.437 402.5,202.5 Z"/></g>
<g><path style="opacity:1" fill="#805243" d="M 402.5,232.5 C 402.5,233.833 402.5,235.167 402.5,236.5C 402.5,236.833 402.5,237.167 402.5,237.5C 378.392,251.057 354.392,264.89 330.5,279C 329.241,279.982 327.908,280.315 326.5,280C 351.693,263.905 377.027,248.072 402.5,232.5 Z"/></g>
<g><path style="opacity:1" fill="#e6e5ee" d="M 402.5,231.5 C 402.5,231.833 402.5,232.167 402.5,232.5C 377.027,248.072 351.693,263.905 326.5,280C 327.908,280.315 329.241,279.982 330.5,279C 354.392,264.89 378.392,251.057 402.5,237.5C 402.071,242.978 402.071,248.311 402.5,253.5C 402.387,255.641 401.72,257.475 400.5,259C 402.344,261.804 403.011,264.97 402.5,268.5C 402.5,268.833 402.5,269.167 402.5,269.5C 389.851,277.14 377.184,284.806 364.5,292.5C 364.666,287.821 364.499,283.155 364,278.5C 359.783,275.625 355.95,275.959 352.5,279.5C 351.833,286.678 351.167,294.011 350.5,301.5C 348.032,302.803 345.699,304.303 343.5,306C 346.534,305.188 349.534,304.021 352.5,302.5C 352.5,306.833 352.5,311.167 352.5,315.5C 339.055,323.394 325.722,331.56 312.5,340C 314.598,339.968 316.598,339.301 318.5,338C 329.725,331.224 341.058,324.724 352.5,318.5C 352.5,323.167 352.5,327.833 352.5,332.5C 333.721,344.062 315.054,355.895 296.5,368C 297.908,368.315 299.241,367.982 300.5,367C 317.173,356.661 334.173,346.828 351.5,337.5C 352.492,341.783 352.826,346.116 352.5,350.5C 343.32,356.837 333.987,363.004 324.5,369C 333.866,364.482 343.199,359.649 352.5,354.5C 352.913,365.44 351.413,376.107 348,386.5C 340.853,396.585 331.02,400.585 318.5,398.5C 302.518,397.138 286.518,396.138 270.5,395.5C 260.675,394.67 250.675,394.17 240.5,394C 242.167,393 243.833,392 245.5,391C 246.696,390.346 246.696,389.846 245.5,389.5C 242.769,391.192 240.102,392.858 237.5,394.5C 225.917,395.654 214.251,396.32 202.5,396.5C 195.252,396.404 188.252,396.404 181.5,396.5C 166.599,396.597 158.932,389.264 158.5,374.5C 166.611,369.941 174.611,365.107 182.5,360C 173.98,363.593 165.647,367.76 157.5,372.5C 157.283,367.77 157.617,363.103 158.5,358.5C 170.973,351.095 183.307,343.428 195.5,335.5C 201.603,342.105 207.937,348.605 214.5,355C 220.313,360.075 226.646,364.408 233.5,368C 236.754,369.842 240.254,370.675 244,370.5C 253.255,369.535 260.588,365.202 266,357.5C 289.264,324.628 312.764,291.961 336.5,259.5C 358.275,247.443 379.941,235.11 401.5,222.5C 402.484,225.428 402.817,228.428 402.5,231.5 Z"/></g>
<g><path style="opacity:0.976" fill="#85594b" d="M 157.5,248.5 C 157.5,247.833 157.5,247.167 157.5,246.5C 164.8,242.352 172.134,238.519 179.5,235C 172.278,239.773 164.945,244.273 157.5,248.5 Z"/></g>
<g><path style="opacity:0.934" fill="#754534" d="M 436.5,244.5 C 437.787,248.065 437.787,251.732 436.5,255.5C 429.668,260.084 422.668,264.417 415.5,268.5C 415.5,264.167 415.5,259.833 415.5,255.5C 422.342,251.578 429.342,247.912 436.5,244.5 Z"/></g>
<g><path style="opacity:0.039" fill="#7f4f3b" d="M 351.5,246.5 C 351.167,247.167 350.833,247.833 350.5,248.5C 349.833,248.5 349.167,248.5 348.5,248.5C 348.973,247.094 349.973,246.427 351.5,246.5 Z"/></g>
<g><path style="opacity:1" fill="#828084" d="M 402.5,236.5 C 403.833,247.167 403.833,257.833 402.5,268.5C 403.011,264.97 402.344,261.804 400.5,259C 401.72,257.475 402.387,255.641 402.5,253.5C 402.071,248.311 402.071,242.978 402.5,237.5C 402.5,237.167 402.5,236.833 402.5,236.5 Z"/></g>
<g><path style="opacity:0.96" fill="#754534" d="M 95.5,251.5 C 95.5,255.833 95.5,260.167 95.5,264.5C 88.3372,268.247 81.3372,272.247 74.5,276.5C 73.2092,272.601 73.2092,268.601 74.5,264.5C 81.6676,260.417 88.6676,256.084 95.5,251.5 Z"/></g>
<g><path style="opacity:1" fill="#e6e4ed" d="M 146.5,256.5 C 146.5,260.833 146.5,265.167 146.5,269.5C 145.167,270.167 143.833,270.833 142.5,271.5C 141.833,271.5 141.5,271.833 141.5,272.5C 140.833,272.833 140.167,273.167 139.5,273.5C 138.833,273.5 138.5,273.833 138.5,274.5C 138.167,274.5 137.833,274.5 137.5,274.5C 136.833,274.5 136.5,274.833 136.5,275.5C 136.167,275.5 135.833,275.5 135.5,275.5C 134.833,275.5 134.5,275.833 134.5,276.5C 133.833,276.5 133.5,276.833 133.5,277.5C 133.167,277.5 132.833,277.5 132.5,277.5C 131.833,277.5 131.5,277.833 131.5,278.5C 130.508,278.328 129.842,278.662 129.5,279.5C 128.508,279.328 127.842,279.662 127.5,280.5C 126.833,280.5 126.5,280.833 126.5,281.5C 125.508,281.328 124.842,281.662 124.5,282.5C 123.508,282.328 122.842,282.662 122.5,283.5C 121.833,283.5 121.5,283.833 121.5,284.5C 120.508,284.328 119.842,284.662 119.5,285.5C 117.326,285.75 115.659,286.75 114.5,288.5C 112.5,289.167 110.5,289.833 108.5,290.5C 108.5,286.833 108.5,283.167 108.5,279.5C 121.167,271.833 133.833,264.167 146.5,256.5 Z"/></g>
<g><path style="opacity:0.938" fill="#744534" d="M 436.5,259.5 C 437.791,263.399 437.791,267.399 436.5,271.5C 429.635,275.765 422.635,279.765 415.5,283.5C 415.5,279.5 415.5,275.5 415.5,271.5C 422.5,267.5 429.5,263.5 436.5,259.5 Z"/></g>
<g><path style="opacity:1" fill="#7e5649" d="M 402.5,269.5 C 403.678,274.312 403.678,278.979 402.5,283.5C 402.82,280.102 402.487,276.768 401.5,273.5C 389.584,280.374 377.751,287.374 366,294.5C 365.503,297.146 365.336,299.813 365.5,302.5C 364.521,299.375 364.187,296.042 364.5,292.5C 377.184,284.806 389.851,277.14 402.5,269.5 Z"/></g>
<g><path style="opacity:0.947" fill="#744434" d="M 94.5,269.5 C 95.4834,273.298 95.8168,277.298 95.5,281.5C 88.5,285.5 81.5,289.5 74.5,293.5C 73.2092,289.601 73.2092,285.601 74.5,281.5C 81.1667,277.5 87.8333,273.5 94.5,269.5 Z"/></g>
<g><path style="opacity:0.715" fill="#7c4d3c" d="M 144.5,254.5 C 144.833,254.5 145.167,254.5 145.5,254.5C 145.833,254.5 146.167,254.5 146.5,254.5C 146.5,255.167 146.5,255.833 146.5,256.5C 133.833,264.167 121.167,271.833 108.5,279.5C 108.5,278.833 108.5,278.167 108.5,277.5C 113.709,274.402 118.709,271.068 123.5,267.5C 125.674,267.25 127.341,266.25 128.5,264.5C 130.027,264.573 131.027,263.906 131.5,262.5C 132.492,262.672 133.158,262.338 133.5,261.5C 134.492,261.672 135.158,261.338 135.5,260.5C 136.167,260.5 136.5,260.167 136.5,259.5C 137.492,259.672 138.158,259.338 138.5,258.5C 139.167,258.5 139.5,258.167 139.5,257.5C 139.833,257.5 140.167,257.5 140.5,257.5C 141.167,257.5 141.5,257.167 141.5,256.5C 141.833,256.5 142.167,256.5 142.5,256.5C 143.167,256.5 143.5,256.167 143.5,255.5C 144.167,255.5 144.5,255.167 144.5,254.5 Z"/></g>
<g><path style="opacity:1" fill="#e6e3ec" d="M 402.5,283.5 C 389.999,290.916 377.665,298.583 365.5,306.5C 365.5,305.167 365.5,303.833 365.5,302.5C 365.336,299.813 365.503,297.146 366,294.5C 377.751,287.374 389.584,280.374 401.5,273.5C 402.487,276.768 402.82,280.102 402.5,283.5 Z"/></g>
<g><path style="opacity:0.957" fill="#754534" d="M 436.5,274.5 C 437.812,282.068 437.812,289.735 436.5,297.5C 429.635,301.765 422.635,305.765 415.5,309.5C 415.5,301.833 415.5,294.167 415.5,286.5C 422.663,282.753 429.663,278.753 436.5,274.5 Z"/></g>
<g><path style="opacity:1" fill="#e3e5ed" d="M 312.5,274.5 C 309.006,280.815 305.006,286.815 300.5,292.5C 276.98,305.179 253.814,318.512 231,332.5C 232.449,328.518 234.616,324.852 237.5,321.5C 240.425,321.54 243.091,320.707 245.5,319C 247.647,315.031 250.313,311.531 253.5,308.5C 273.003,296.914 292.67,285.581 312.5,274.5 Z"/></g>
<g><path style="opacity:1" fill="#82584a" d="M 159.5,300.5 C 158.517,296.702 158.183,292.702 158.5,288.5C 174.664,278.759 190.997,269.592 207.5,261C 191.412,270.793 175.579,280.959 160,291.5C 159.502,294.482 159.335,297.482 159.5,300.5 Z"/></g>
<g><path style="opacity:1" fill="#7d5041" d="M 402.5,283.5 C 403.559,288.991 403.559,294.325 402.5,299.5C 402.82,296.102 402.487,292.768 401.5,289.5C 389.472,296.512 377.472,303.512 365.5,310.5C 365.5,309.167 365.5,307.833 365.5,306.5C 377.665,298.583 389.999,290.916 402.5,283.5 Z"/></g>
<g><path style="opacity:0.992" fill="#e6e4ed" d="M 146.5,271.5 C 146.5,279.5 146.5,287.5 146.5,295.5C 133.833,302.833 121.167,310.167 108.5,317.5C 108.177,313.774 108.511,310.107 109.5,306.5C 113.25,304.637 116.583,302.303 119.5,299.5C 115.91,300.628 112.577,302.295 109.5,304.5C 108.516,301.572 108.183,298.572 108.5,295.5C 108.5,295.167 108.5,294.833 108.5,294.5C 121.167,286.833 133.833,279.167 146.5,271.5 Z"/></g>
<g><path style="opacity:1" fill="#71665f" d="M 218.5,288.5 C 214.6,287.57 210.6,287.237 206.5,287.5C 209.977,286.677 213.644,286.177 217.5,286C 219.569,284.126 221.902,283.126 224.5,283C 221.957,284.382 219.957,286.215 218.5,288.5 Z"/></g>
<g><path style="opacity:0.948" fill="#744534" d="M 95.5,286.5 C 95.5,290.5 95.5,294.5 95.5,298.5C 88.5,302.5 81.5,306.5 74.5,310.5C 73.2092,306.601 73.2092,302.601 74.5,298.5C 81.3646,294.235 88.3646,290.235 95.5,286.5 Z"/></g>
<g><path style="opacity:0.524" fill="#7d4f40" d="M 146.5,269.5 C 146.5,270.167 146.5,270.833 146.5,271.5C 133.833,279.167 121.167,286.833 108.5,294.5C 108.5,293.833 108.5,293.167 108.5,292.5C 110.882,291.649 112.882,290.316 114.5,288.5C 116.674,288.25 118.341,287.25 119.5,285.5C 120.492,285.672 121.158,285.338 121.5,284.5C 122.167,284.5 122.5,284.167 122.5,283.5C 123.492,283.672 124.158,283.338 124.5,282.5C 125.492,282.672 126.158,282.338 126.5,281.5C 127.167,281.5 127.5,281.167 127.5,280.5C 128.492,280.672 129.158,280.338 129.5,279.5C 130.492,279.672 131.158,279.338 131.5,278.5C 132.167,278.5 132.5,278.167 132.5,277.5C 132.833,277.5 133.167,277.5 133.5,277.5C 134.167,277.5 134.5,277.167 134.5,276.5C 135.167,276.5 135.5,276.167 135.5,275.5C 135.833,275.5 136.167,275.5 136.5,275.5C 137.167,275.5 137.5,275.167 137.5,274.5C 137.833,274.5 138.167,274.5 138.5,274.5C 139.167,274.5 139.5,274.167 139.5,273.5C 140.167,273.167 140.833,272.833 141.5,272.5C 142.167,272.5 142.5,272.167 142.5,271.5C 143.833,270.833 145.167,270.167 146.5,269.5 Z"/></g>
<g><path style="opacity:1" fill="#e3e1ea" d="M 402.5,299.5 C 390.205,307.141 378.205,315.141 366.5,323.5C 365.515,319.366 365.182,315.032 365.5,310.5C 377.472,303.512 389.472,296.512 401.5,289.5C 402.487,292.768 402.82,296.102 402.5,299.5 Z"/></g>
<g><path style="opacity:1" fill="#3cc76d" d="M 300.5,292.5 C 294.556,301.777 288.222,310.777 281.5,319.5C 279.068,320.75 276.734,322.25 274.5,324C 275.819,324.195 277.153,324.028 278.5,323.5C 268.453,336.722 257.453,349.222 245.5,361C 243.465,361.599 241.799,361.099 240.5,359.5C 244.271,356.232 247.938,352.732 251.5,349C 246.19,351.111 241.19,353.944 236.5,357.5C 232.949,355.889 229.949,353.556 227.5,350.5C 236.225,344.621 244.559,338.121 252.5,331C 250.402,331.032 248.402,331.699 246.5,333C 238.806,337.512 231.139,342.012 223.5,346.5C 220.5,344.167 217.833,341.5 215.5,338.5C 218.236,335.006 220.403,331.34 222,327.5C 218.717,329.891 215.217,331.891 211.5,333.5C 208.833,331.5 206.5,329.167 204.5,326.5C 207.178,323.477 206.512,322.81 202.5,324.5C 191.909,315.868 191.909,307.035 202.5,298C 205.014,296.748 207.68,296.248 210.5,296.5C 206.465,302.332 207.465,302.999 213.5,298.5C 216.075,299.568 218.242,301.235 220,303.5C 224.359,311.024 230.192,317.024 237.5,321.5C 234.616,324.852 232.449,328.518 231,332.5C 253.814,318.512 276.98,305.179 300.5,292.5 Z"/></g>
<g><path style="opacity:0.964" fill="#7a4b3b" d="M 146.5,295.5 C 146.5,296.833 146.5,298.167 146.5,299.5C 133.833,307.5 121.167,315.5 108.5,323.5C 108.5,321.5 108.5,319.5 108.5,317.5C 121.167,310.167 133.833,302.833 146.5,295.5 Z"/></g>
<g><path style="opacity:1" fill="#807474" d="M 352.5,279.5 C 352.5,287.167 352.5,294.833 352.5,302.5C 349.534,304.021 346.534,305.188 343.5,306C 345.699,304.303 348.032,302.803 350.5,301.5C 351.167,294.011 351.833,286.678 352.5,279.5 Z"/></g>
<g><path style="opacity:1" fill="#9b7970" d="M 119.5,299.5 C 121.253,297.777 123.253,296.277 125.5,295C 126.759,294.018 128.092,293.685 129.5,294C 126.594,296.619 123.261,298.453 119.5,299.5 Z"/></g>
<g><path style="opacity:1" fill="#c3dbd2" d="M 210.5,296.5 C 211.71,296.932 212.71,297.599 213.5,298.5C 207.465,302.999 206.465,302.332 210.5,296.5 Z"/></g>
<g><path style="opacity:1" fill="#7b4d3d" d="M 402.5,299.5 C 403.379,306.001 403.379,312.334 402.5,318.5C 402.82,315.102 402.487,311.768 401.5,308.5C 389.643,314.926 377.976,321.592 366.5,328.5C 366.5,326.833 366.5,325.167 366.5,323.5C 378.205,315.141 390.205,307.141 402.5,299.5 Z"/></g>
<g><path style="opacity:0.97" fill="#754534" d="M 436.5,300.5 C 437.811,307.735 437.811,315.068 436.5,322.5C 429.167,327.167 421.833,331.833 414.5,336.5C 414.227,328.112 414.56,319.779 415.5,311.5C 422.658,308.088 429.658,304.422 436.5,300.5 Z"/></g>
<g><path style="opacity:1" fill="#e5e3ed" d="M 146.5,299.5 C 146.5,303.833 146.5,308.167 146.5,312.5C 134.059,319.223 121.726,326.223 109.5,333.5C 108.516,330.572 108.183,327.572 108.5,324.5C 108.5,324.167 108.5,323.833 108.5,323.5C 121.167,315.5 133.833,307.5 146.5,299.5 Z"/></g>
<g><path style="opacity:1" fill="#8a6053" d="M 159.5,306.5 C 159.5,305.833 159.5,305.167 159.5,304.5C 165.007,301.08 170.674,298.246 176.5,296C 170.948,299.725 165.282,303.225 159.5,306.5 Z"/></g>
<g><path style="opacity:0.949" fill="#754534" d="M 95.5,301.5 C 95.5,309.167 95.5,316.833 95.5,324.5C 94.5,324.833 93.8333,325.5 93.5,326.5C 92.5084,326.328 91.8417,326.662 91.5,327.5C 89.326,327.75 87.6594,328.75 86.5,330.5C 82.2717,332.066 78.2717,334.066 74.5,336.5C 73.8158,329.071 73.8158,321.405 74.5,313.5C 81.5,309.5 88.5,305.5 95.5,301.5 Z"/></g>
<g><path style="opacity:1" fill="#7f6660" d="M 108.5,295.5 C 108.183,298.572 108.516,301.572 109.5,304.5C 112.577,302.295 115.91,300.628 119.5,299.5C 116.583,302.303 113.25,304.637 109.5,306.5C 108.511,310.107 108.177,313.774 108.5,317.5C 107.167,310.167 107.167,302.833 108.5,295.5 Z"/></g>
<g><path style="opacity:1" fill="#7c5245" d="M 183.5,305.5 C 182.656,309.099 182.323,312.766 182.5,316.5C 181.691,314.708 181.191,312.708 181,310.5C 174.392,315.219 167.559,319.552 160.5,323.5C 159.886,319.865 159.552,316.198 159.5,312.5C 160.165,314.369 160.831,316.369 161.5,318.5C 168.861,314.155 176.194,309.822 183.5,305.5 Z"/></g>
<g><path style="opacity:0.986" fill="#e7e5ee" d="M 402.5,318.5 C 402.5,318.833 402.5,319.167 402.5,319.5C 401.508,319.328 400.842,319.662 400.5,320.5C 399.833,320.5 399.5,320.833 399.5,321.5C 399.167,321.5 398.833,321.5 398.5,321.5C 397.833,321.5 397.5,321.833 397.5,322.5C 396.833,322.833 396.167,323.167 395.5,323.5C 394.833,323.5 394.5,323.833 394.5,324.5C 385.167,330.167 375.833,335.833 366.5,341.5C 366.5,337.167 366.5,332.833 366.5,328.5C 377.976,321.592 389.643,314.926 401.5,308.5C 402.487,311.768 402.82,315.102 402.5,318.5 Z"/></g>
<g><path style="opacity:0.999" fill="#e5e4ed" d="M 182.5,316.5 C 182.665,318.827 183.331,320.993 184.5,323C 183.944,323.383 183.611,323.883 183.5,324.5C 175.698,328.568 168.032,332.902 160.5,337.5C 160.5,332.833 160.5,328.167 160.5,323.5C 167.559,319.552 174.392,315.219 181,310.5C 181.191,312.708 181.691,314.708 182.5,316.5 Z"/></g>
<g><path style="opacity:1" fill="#7f5345" d="M 146.5,312.5 C 146.5,313.5 146.5,314.5 146.5,315.5C 133.851,323.14 121.184,330.806 108.5,338.5C 107.403,333.679 107.403,329.013 108.5,324.5C 108.183,327.572 108.516,330.572 109.5,333.5C 121.726,326.223 134.059,319.223 146.5,312.5 Z"/></g>
<g><path style="opacity:0.974" fill="#e7e6ef" d="M 146.5,315.5 C 146.5,319.5 146.5,323.5 146.5,327.5C 138.5,332.167 130.5,336.833 122.5,341.5C 121.833,341.5 121.5,341.833 121.5,342.5C 121.167,342.5 120.833,342.5 120.5,342.5C 119.833,342.5 119.5,342.833 119.5,343.5C 118.833,343.833 118.167,344.167 117.5,344.5C 116.833,344.5 116.5,344.833 116.5,345.5C 116.167,345.5 115.833,345.5 115.5,345.5C 114.833,345.5 114.5,345.833 114.5,346.5C 113.833,346.5 113.5,346.833 113.5,347.5C 113.167,347.5 112.833,347.5 112.5,347.5C 111.833,347.5 111.5,347.833 111.5,348.5C 111.167,348.5 110.833,348.5 110.5,348.5C 109.833,348.5 109.5,348.833 109.5,349.5C 109.167,349.5 108.833,349.5 108.5,349.5C 108.5,345.833 108.5,342.167 108.5,338.5C 121.184,330.806 133.851,323.14 146.5,315.5 Z"/></g>
<g><path style="opacity:0.957" fill="#7a4d3d" d="M 400.5,320.5 C 401.167,320.5 401.833,320.5 402.5,320.5C 403.619,325.653 403.619,330.653 402.5,335.5C 402.82,332.102 402.487,328.768 401.5,325.5C 389.969,332.431 378.302,339.098 366.5,345.5C 366.5,344.167 366.5,342.833 366.5,341.5C 375.833,335.833 385.167,330.167 394.5,324.5C 395.167,324.5 395.5,324.167 395.5,323.5C 396.167,323.167 396.833,322.833 397.5,322.5C 398.167,322.5 398.5,322.167 398.5,321.5C 398.833,321.5 399.167,321.5 399.5,321.5C 400.167,321.5 400.5,321.167 400.5,320.5 Z"/></g>
<g><path style="opacity:1" fill="#aad4be" d="M 281.5,319.5 C 280.5,320.833 279.5,322.167 278.5,323.5C 277.153,324.028 275.819,324.195 274.5,324C 276.734,322.25 279.068,320.75 281.5,319.5 Z"/></g>
<g><path style="opacity:1" fill="#e2dfe8" d="M 183.5,324.5 C 184.552,324.351 185.552,324.517 186.5,325C 188.722,327.956 191.055,330.79 193.5,333.5C 189.465,335.848 185.465,338.182 181.5,340.5C 179.632,341.263 177.965,342.263 176.5,343.5C 175.508,343.328 174.842,343.662 174.5,344.5C 174.5,344.833 174.5,345.167 174.5,345.5C 174.167,345.5 173.833,345.5 173.5,345.5C 172.508,345.328 171.842,345.662 171.5,346.5C 170.508,346.328 169.842,346.662 169.5,347.5C 169.5,347.833 169.5,348.167 169.5,348.5C 169.167,348.5 168.833,348.5 168.5,348.5C 167.833,348.5 167.5,348.833 167.5,349.5C 166.833,349.5 166.5,349.833 166.5,350.5C 165.508,350.328 164.842,350.662 164.5,351.5C 163.508,351.328 162.842,351.662 162.5,352.5C 161.833,352.5 161.5,352.833 161.5,353.5C 160.833,353.5 160.167,353.5 159.5,353.5C 159.998,348.848 160.331,344.181 160.5,339.5C 168.374,334.735 176.041,329.735 183.5,324.5 Z"/></g>
<g><path style="opacity:1" fill="#a4c5b5" d="M 204.5,326.5 C 203.5,326.167 202.833,325.5 202.5,324.5C 206.512,322.81 207.178,323.477 204.5,326.5 Z"/></g>
<g><path style="opacity:0.937" fill="#764535" d="M 93.5,326.5 C 94.1667,326.5 94.8333,326.5 95.5,326.5C 95.5,330.5 95.5,334.5 95.5,338.5C 88.8333,342.167 82.1667,345.833 75.5,349.5C 74.5184,346.038 74.185,342.371 74.5,338.5C 78.8811,336.316 82.8811,333.65 86.5,330.5C 88.674,330.25 90.3406,329.25 91.5,327.5C 92.4916,327.672 93.1583,327.338 93.5,326.5 Z"/></g>
<g><path style="opacity:0.939" fill="#794a39" d="M 146.5,327.5 C 146.5,329.5 146.5,331.5 146.5,333.5C 133.833,341.167 121.167,348.833 108.5,356.5C 108.5,354.5 108.5,352.5 108.5,350.5C 109.167,350.5 109.5,350.167 109.5,349.5C 110.167,349.5 110.5,349.167 110.5,348.5C 110.833,348.5 111.167,348.5 111.5,348.5C 112.167,348.5 112.5,348.167 112.5,347.5C 112.833,347.5 113.167,347.5 113.5,347.5C 114.167,347.5 114.5,347.167 114.5,346.5C 115.167,346.5 115.5,346.167 115.5,345.5C 115.833,345.5 116.167,345.5 116.5,345.5C 117.167,345.5 117.5,345.167 117.5,344.5C 118.167,344.167 118.833,343.833 119.5,343.5C 120.167,343.5 120.5,343.167 120.5,342.5C 120.833,342.5 121.167,342.5 121.5,342.5C 122.167,342.5 122.5,342.167 122.5,341.5C 130.5,336.833 138.5,332.167 146.5,327.5 Z"/></g>
<g><path style="opacity:0.932" fill="#754534" d="M 436.5,328.5 C 437.791,332.399 437.791,336.399 436.5,340.5C 429.332,344.583 422.332,348.916 415.5,353.5C 414.515,349.366 414.182,345.032 414.5,340.5C 421.806,336.512 429.14,332.512 436.5,328.5 Z"/></g>
<g><path style="opacity:1" fill="#d8dfe3" d="M 215.5,338.5 C 213.413,337.415 212.08,335.749 211.5,333.5C 215.217,331.891 218.717,329.891 222,327.5C 220.403,331.34 218.236,335.006 215.5,338.5 Z"/></g>
<g><path style="opacity:1" fill="#85594b" d="M 352.5,315.5 C 352.5,316.5 352.5,317.5 352.5,318.5C 341.058,324.724 329.725,331.224 318.5,338C 316.598,339.301 314.598,339.968 312.5,340C 325.722,331.56 339.055,323.394 352.5,315.5 Z"/></g>
<g><path style="opacity:1" fill="#8c6357" d="M 183.5,324.5 C 176.041,329.735 168.374,334.735 160.5,339.5C 160.5,338.833 160.5,338.167 160.5,337.5C 168.032,332.902 175.698,328.568 183.5,324.5 Z"/></g>
<g><path style="opacity:1" fill="#815648" d="M 352.5,332.5 C 353.664,338.651 353.664,344.651 352.5,350.5C 352.826,346.116 352.492,341.783 351.5,337.5C 334.173,346.828 317.173,356.661 300.5,367C 299.241,367.982 297.908,368.315 296.5,368C 315.054,355.895 333.721,344.062 352.5,332.5 Z"/></g>
<g><path style="opacity:0.973" fill="#e7e6f0" d="M 146.5,333.5 C 146.5,337.833 146.5,342.167 146.5,346.5C 142.7,348.234 139.034,350.234 135.5,352.5C 134.833,352.5 134.5,352.833 134.5,353.5C 134.167,353.5 133.833,353.5 133.5,353.5C 132.833,353.5 132.5,353.833 132.5,354.5C 131.833,354.5 131.5,354.833 131.5,355.5C 131.167,355.5 130.833,355.5 130.5,355.5C 129.833,355.5 129.5,355.833 129.5,356.5C 129.167,356.5 128.833,356.5 128.5,356.5C 127.833,356.5 127.5,356.833 127.5,357.5C 126.508,357.328 125.842,357.662 125.5,358.5C 124.833,358.5 124.5,358.833 124.5,359.5C 123.508,359.328 122.842,359.662 122.5,360.5C 121.508,360.328 120.842,360.662 120.5,361.5C 119.833,361.5 119.5,361.833 119.5,362.5C 118.508,362.328 117.842,362.662 117.5,363.5C 115.326,363.75 113.659,364.75 112.5,366.5C 111.167,366.833 109.833,367.167 108.5,367.5C 108.5,363.833 108.5,360.167 108.5,356.5C 121.167,348.833 133.833,341.167 146.5,333.5 Z"/></g>
<g><path style="opacity:0.813" fill="#7c4e40" d="M 193.5,333.5 C 194.5,333.833 195.167,334.5 195.5,335.5C 183.307,343.428 170.973,351.095 158.5,358.5C 158.833,357.167 159.167,355.833 159.5,354.5C 160.492,354.672 161.158,354.338 161.5,353.5C 162.167,353.5 162.5,353.167 162.5,352.5C 163.492,352.672 164.158,352.338 164.5,351.5C 165.492,351.672 166.158,351.338 166.5,350.5C 167.167,350.5 167.5,350.167 167.5,349.5C 167.5,348.833 167.833,348.5 168.5,348.5C 168.833,349.833 169.167,349.833 169.5,348.5C 170.833,348.167 170.833,347.833 169.5,347.5C 169.842,346.662 170.508,346.328 171.5,346.5C 171.842,345.662 172.508,345.328 173.5,345.5C 173.833,346.833 174.167,346.833 174.5,345.5C 175.833,345.167 175.833,344.833 174.5,344.5C 174.842,343.662 175.508,343.328 176.5,343.5C 177.965,342.263 179.632,341.263 181.5,340.5C 185.465,338.182 189.465,335.848 193.5,333.5 Z"/></g>
<g><path style="opacity:1" fill="#dfe6ea" d="M 227.5,350.5 C 225.833,349.5 224.5,348.167 223.5,346.5C 231.139,342.012 238.806,337.512 246.5,333C 248.402,331.699 250.402,331.032 252.5,331C 244.559,338.121 236.225,344.621 227.5,350.5 Z"/></g>
<g><path style="opacity:1" fill="#8a5f53" d="M 402.5,335.5 C 402.5,336.167 402.5,336.833 402.5,337.5C 396.779,341.434 390.779,344.6 384.5,347C 390.384,342.943 396.384,339.11 402.5,335.5 Z"/></g>
<g><path style="opacity:0.999" fill="#e5e3ed" d="M 402.5,335.5 C 396.384,339.11 390.384,342.943 384.5,347C 390.779,344.6 396.779,341.434 402.5,337.5C 402.5,344.833 402.5,352.167 402.5,359.5C 388.115,368.686 374.115,378.353 360.5,388.5C 359.903,388.265 359.57,387.765 359.5,387C 363.571,373.445 365.905,359.612 366.5,345.5C 378.302,339.098 389.969,332.431 401.5,325.5C 402.487,328.768 402.82,332.102 402.5,335.5 Z"/></g>
<g><path style="opacity:0.94" fill="#754534" d="M 95.5,341.5 C 95.5,345.833 95.5,350.167 95.5,354.5C 88.6577,358.422 81.6577,362.088 74.5,365.5C 73.2134,361.935 73.2134,358.268 74.5,354.5C 81.3324,349.916 88.3324,345.583 95.5,341.5 Z"/></g>
<g><path style="opacity:0.941" fill="#754534" d="M 436.5,346.5 C 437.791,350.399 437.791,354.399 436.5,358.5C 429.833,362.833 423.167,367.167 416.5,371.5C 415.515,367.366 415.182,363.032 415.5,358.5C 422.663,354.753 429.663,350.753 436.5,346.5 Z"/></g>
<g><path style="opacity:1" fill="#dbd6dd" d="M 146.5,347.5 C 147.797,352.066 147.797,356.733 146.5,361.5C 134.329,368.753 121.996,375.753 109.5,382.5C 108.518,379.038 108.185,375.371 108.5,371.5C 121.512,363.997 134.179,355.997 146.5,347.5 Z"/></g>
<g><path style="opacity:1" fill="#d4e3e1" d="M 240.5,359.5 C 238.847,359.34 237.514,358.674 236.5,357.5C 241.19,353.944 246.19,351.111 251.5,349C 247.938,352.732 244.271,356.232 240.5,359.5 Z"/></g>
<g><path style="opacity:1" fill="#835648" d="M 352.5,350.5 C 352.5,351.833 352.5,353.167 352.5,354.5C 343.199,359.649 333.866,364.482 324.5,369C 333.987,363.004 343.32,356.837 352.5,350.5 Z"/></g>
<g><path style="opacity:0.946" fill="#754534" d="M 95.5,358.5 C 95.5,362.833 95.5,367.167 95.5,371.5C 88.3372,375.247 81.3372,379.247 74.5,383.5C 73.2092,379.601 73.2092,375.601 74.5,371.5C 81.6676,367.417 88.6676,363.084 95.5,358.5 Z"/></g>
<g><path style="opacity:0.724" fill="#7c4e3d" d="M 146.5,346.5 C 146.5,346.833 146.5,347.167 146.5,347.5C 134.179,355.997 121.512,363.997 108.5,371.5C 108.5,370.833 108.5,370.167 108.5,369.5C 110.23,368.974 111.564,367.974 112.5,366.5C 114.674,366.25 116.341,365.25 117.5,363.5C 118.492,363.672 119.158,363.338 119.5,362.5C 120.167,362.5 120.5,362.167 120.5,361.5C 121.492,361.672 122.158,361.338 122.5,360.5C 123.492,360.672 124.158,360.338 124.5,359.5C 125.167,359.5 125.5,359.167 125.5,358.5C 126.492,358.672 127.158,358.338 127.5,357.5C 128.167,357.5 128.5,357.167 128.5,356.5C 128.833,356.5 129.167,356.5 129.5,356.5C 130.167,356.5 130.5,356.167 130.5,355.5C 130.833,355.5 131.167,355.5 131.5,355.5C 132.167,355.5 132.5,355.167 132.5,354.5C 133.167,354.5 133.5,354.167 133.5,353.5C 133.833,353.5 134.167,353.5 134.5,353.5C 135.167,353.5 135.5,353.167 135.5,352.5C 139.034,350.234 142.7,348.234 146.5,346.5 Z"/></g>
<g><path style="opacity:0.883" fill="#784a39" d="M 146.5,363.5 C 147.404,364.209 147.737,365.209 147.5,366.5C 134.5,374.5 121.5,382.5 108.5,390.5C 108.5,389.167 108.5,387.833 108.5,386.5C 121.167,378.833 133.833,371.167 146.5,363.5 Z"/></g>
<g><path style="opacity:0.941" fill="#764634" d="M 436.5,363.5 C 437.791,367.399 437.791,371.399 436.5,375.5C 430.119,379.017 424.119,383.017 418.5,387.5C 417.833,387.5 417.167,387.5 416.5,387.5C 416.5,383.167 416.5,378.833 416.5,374.5C 423.167,370.833 429.833,367.167 436.5,363.5 Z"/></g>
<g><path style="opacity:0.999" fill="#e6e4ee" d="M 402.5,365.5 C 402.5,369.5 402.5,373.5 402.5,377.5C 390.546,384.817 378.879,392.651 367.5,401C 368.908,401.315 370.241,400.982 371.5,400C 379.362,394.904 387.362,390.071 395.5,385.5C 396.167,385.5 396.5,385.167 396.5,384.5C 397.167,384.167 397.833,383.833 398.5,383.5C 399.167,383.5 399.5,383.167 399.5,382.5C 399.833,382.5 400.167,382.5 400.5,382.5C 401.167,382.5 401.5,382.167 401.5,381.5C 401.833,381.5 402.167,381.5 402.5,381.5C 402.5,385.5 402.5,389.5 402.5,393.5C 393.021,399.744 383.688,406.244 374.5,413C 375.908,413.315 377.241,412.982 378.5,412C 386.389,406.893 394.389,402.059 402.5,397.5C 402.5,404.833 402.5,412.167 402.5,419.5C 397.661,423.501 392.661,427.334 387.5,431C 392.66,429.087 397.66,426.587 402.5,423.5C 402.5,428.167 402.5,432.833 402.5,437.5C 399.333,440.498 396,443.331 392.5,446C 395.632,445.101 398.632,443.601 401.5,441.5C 402.498,449.472 402.831,457.472 402.5,465.5C 396.833,465.5 391.167,465.5 385.5,465.5C 387.371,462.939 389.371,460.439 391.5,458C 386.474,459.682 381.808,462.182 377.5,465.5C 371.833,465.5 366.167,465.5 360.5,465.5C 365.996,459.171 371.996,453.337 378.5,448C 367.637,452.768 357.304,458.601 347.5,465.5C 341.833,465.5 336.167,465.5 330.5,465.5C 338.021,458.485 346.021,451.985 354.5,446C 342.797,451.69 331.464,458.19 320.5,465.5C 308.833,465.5 297.167,465.5 285.5,465.5C 297.258,456.776 309.258,448.276 321.5,440C 322.696,439.346 322.696,438.846 321.5,438.5C 306.104,447.526 290.77,456.526 275.5,465.5C 269.833,465.5 264.167,465.5 258.5,465.5C 272.778,455.888 286.778,445.888 300.5,435.5C 282.832,444.998 265.499,454.998 248.5,465.5C 242.833,465.5 237.167,465.5 231.5,465.5C 253.58,449.281 276.247,433.781 299.5,419C 300.696,418.346 300.696,417.846 299.5,417.5C 290.461,422.896 281.461,428.229 272.5,433.5C 271.29,433.932 270.29,434.599 269.5,435.5C 268.508,435.328 267.842,435.662 267.5,436.5C 266.833,436.5 266.5,436.833 266.5,437.5C 265.833,437.5 265.5,437.833 265.5,438.5C 265.167,438.5 264.833,438.5 264.5,438.5C 263.508,438.328 262.842,438.662 262.5,439.5C 262.5,439.833 262.5,440.167 262.5,440.5C 261.508,440.328 260.842,440.662 260.5,441.5C 259.833,441.5 259.5,441.833 259.5,442.5C 258.508,442.328 257.842,442.662 257.5,443.5C 245.167,450.167 232.833,456.833 220.5,463.5C 216.891,465.044 213.057,465.71 209,465.5C 199.916,465.079 190.749,465.079 181.5,465.5C 189.933,459.775 198.6,454.275 207.5,449C 208.696,448.346 208.696,447.846 207.5,447.5C 197.198,453.164 187.198,459.164 177.5,465.5C 171.833,465.5 166.167,465.5 160.5,465.5C 189.995,445.585 219.662,425.918 249.5,406.5C 251.153,406.34 252.486,405.674 253.5,404.5C 270.864,405.145 288.198,406.312 305.5,408C 312.833,408.667 320.167,408.667 327.5,408C 334.983,407.638 341.983,405.638 348.5,402C 352.844,398.131 356.844,393.964 360.5,389.5C 361.167,389.5 361.5,389.167 361.5,388.5C 361.833,388.5 362.167,388.5 362.5,388.5C 363.167,388.5 363.5,388.167 363.5,387.5C 364.167,387.5 364.5,387.167 364.5,386.5C 364.833,386.5 365.167,386.5 365.5,386.5C 366.167,386.5 366.5,386.167 366.5,385.5C 366.833,385.5 367.167,385.5 367.5,385.5C 368.167,385.5 368.5,385.167 368.5,384.5C 369.492,384.672 370.158,384.338 370.5,383.5C 371.167,383.5 371.5,383.167 371.5,382.5C 372.492,382.672 373.158,382.338 373.5,381.5C 383.3,376.433 392.967,371.099 402.5,365.5 Z M 257.5,443.5 C 247.212,450.984 236.546,457.984 225.5,464.5C 223.585,464.784 221.919,464.451 220.5,463.5C 232.833,456.833 245.167,450.167 257.5,443.5 Z M 261.5,459.5 C 260.341,461.25 258.674,462.25 256.5,462.5C 257.659,460.75 259.326,459.75 261.5,459.5 Z M 256.5,462.5 C 256.167,463.5 255.5,464.167 254.5,464.5C 253.833,464.5 253.167,464.5 252.5,464.5C 253.514,463.326 254.847,462.66 256.5,462.5 Z"/></g>
<g><path style="opacity:1" fill="#e5e3ec" d="M 147.5,366.5 C 147.5,370.833 147.5,375.167 147.5,379.5C 134.365,386.568 121.365,393.901 108.5,401.5C 108.5,397.833 108.5,394.167 108.5,390.5C 121.5,382.5 134.5,374.5 147.5,366.5 Z"/></g>
<g><path style="opacity:1" fill="#84594b" d="M 158.5,374.5 C 158.167,373.833 157.833,373.167 157.5,372.5C 165.647,367.76 173.98,363.593 182.5,360C 174.611,365.107 166.611,369.941 158.5,374.5 Z"/></g>
<g><path style="opacity:0.946" fill="#754534" d="M 95.5,378.5 C 95.5,382.833 95.5,387.167 95.5,391.5C 88.3423,394.912 81.3423,398.578 74.5,402.5C 73.2737,398.633 73.2737,394.633 74.5,390.5C 81.5,386.5 88.5,382.5 95.5,378.5 Z"/></g>
<g><path style="opacity:0.975" fill="#764534" d="M 436.5,377.5 C 437.811,396.519 437.811,415.852 436.5,435.5C 434.973,435.427 433.973,436.094 433.5,437.5C 434.609,437.443 435.609,437.11 436.5,436.5C 436.804,445.584 436.471,454.584 435.5,463.5C 434.167,464.167 433.167,465.167 432.5,466.5C 433.609,466.443 434.609,466.11 435.5,465.5C 436.661,473.028 436.495,480.695 435,488.5C 432.532,493.989 428.365,497.489 422.5,499C 417.177,499.499 411.844,499.666 406.5,499.5C 409.098,495.562 412.098,491.895 415.5,488.5C 408.903,491.775 402.57,495.442 396.5,499.5C 390.167,499.5 383.833,499.5 377.5,499.5C 381.833,495.5 386.167,491.5 390.5,487.5C 383.004,490.745 376.004,494.745 369.5,499.5C 362.833,499.5 356.167,499.5 349.5,499.5C 348.833,498.167 348.167,498.167 347.5,499.5C 341.167,499.5 334.833,499.5 328.5,499.5C 332.5,496.167 336.5,492.833 340.5,489.5C 334.702,492.233 329.035,495.233 323.5,498.5C 291.097,499.143 258.764,499.477 226.5,499.5C 235.167,493.5 243.833,487.5 252.5,481.5C 241.502,486.997 230.835,492.997 220.5,499.5C 214.167,499.5 207.833,499.5 201.5,499.5C 213.787,490.683 226.454,482.35 239.5,474.5C 240.289,474.217 240.956,473.717 241.5,473C 249.677,472.177 257.677,472.344 265.5,473.5C 310.792,472.677 356.126,472.177 401.5,472C 403.5,471.333 405.5,470.667 407.5,470C 411.306,461.549 413.806,452.716 415,443.5C 416.03,425.118 416.863,406.785 417.5,388.5C 418.167,388.5 418.5,388.167 418.5,387.5C 424.738,384.596 430.738,381.262 436.5,377.5 Z M 433.5,437.5 C 433.027,438.906 432.027,439.573 430.5,439.5C 430.973,438.094 431.973,437.427 433.5,437.5 Z M 255.5,479.5 C 255.027,480.906 254.027,481.573 252.5,481.5C 252.973,480.094 253.973,479.427 255.5,479.5 Z M 252.5,481.5 C 243.833,487.5 235.167,493.5 226.5,499.5C 224.5,499.5 222.5,499.5 220.5,499.5C 230.835,492.997 241.502,486.997 252.5,481.5 Z M 390.5,487.5 C 386.167,491.5 381.833,495.5 377.5,499.5C 374.833,499.5 372.167,499.5 369.5,499.5C 376.004,494.745 383.004,490.745 390.5,487.5 Z M 415.5,488.5 C 412.098,491.895 409.098,495.562 406.5,499.5C 403.167,499.5 399.833,499.5 396.5,499.5C 402.57,495.442 408.903,491.775 415.5,488.5 Z M 340.5,489.5 C 336.5,492.833 332.5,496.167 328.5,499.5C 326.585,499.784 324.919,499.451 323.5,498.5C 329.035,495.233 334.702,492.233 340.5,489.5 Z"/></g>
<g><path style="opacity:1" fill="#7e5040" d="M 147.5,379.5 C 147.5,380.5 147.5,381.5 147.5,382.5C 134.361,390.238 121.361,398.238 108.5,406.5C 108.5,404.833 108.5,403.167 108.5,401.5C 121.365,393.901 134.365,386.568 147.5,379.5 Z"/></g>
<g><path style="opacity:0.575" fill="#7b4d3d" d="M 402.5,359.5 C 402.5,360.5 402.5,361.5 402.5,362.5C 392.54,368.474 382.874,374.807 373.5,381.5C 372.508,381.328 371.842,381.662 371.5,382.5C 370.833,382.5 370.5,382.833 370.5,383.5C 369.508,383.328 368.842,383.662 368.5,384.5C 367.833,384.5 367.5,384.833 367.5,385.5C 367.167,385.5 366.833,385.5 366.5,385.5C 365.833,385.5 365.5,385.833 365.5,386.5C 365.167,386.5 364.833,386.5 364.5,386.5C 363.833,386.5 363.5,386.833 363.5,387.5C 362.833,387.5 362.5,387.833 362.5,388.5C 362.167,388.5 361.833,388.5 361.5,388.5C 361.167,388.5 360.833,388.5 360.5,388.5C 374.115,378.353 388.115,368.686 402.5,359.5 Z"/></g>
<g><path style="opacity:0.999" fill="#e7e5ef" d="M 147.5,382.5 C 147.599,395.269 153.932,402.936 166.5,405.5C 147.365,415.901 128.365,426.568 109.5,437.5C 108.864,427.196 108.53,416.863 108.5,406.5C 121.361,398.238 134.361,390.238 147.5,382.5 Z"/></g>
<g><path style="opacity:0.902" fill="#7f5243" d="M 402.5,377.5 C 402.5,378.5 402.5,379.5 402.5,380.5C 401.833,380.5 401.5,380.833 401.5,381.5C 400.833,381.5 400.5,381.833 400.5,382.5C 400.167,382.5 399.833,382.5 399.5,382.5C 398.833,382.5 398.5,382.833 398.5,383.5C 397.833,383.833 397.167,384.167 396.5,384.5C 395.833,384.5 395.5,384.833 395.5,385.5C 387.362,390.071 379.362,394.904 371.5,400C 370.241,400.982 368.908,401.315 367.5,401C 378.879,392.651 390.546,384.817 402.5,377.5 Z"/></g>
<g><path style="opacity:1" fill="#867e7f" d="M 270.5,395.5 C 259.419,395.81 248.419,395.477 237.5,394.5C 240.102,392.858 242.769,391.192 245.5,389.5C 246.696,389.846 246.696,390.346 245.5,391C 243.833,392 242.167,393 240.5,394C 250.675,394.17 260.675,394.67 270.5,395.5 Z"/></g>
<g><path style="opacity:0.942" fill="#744534" d="M 95.5,395.5 C 95.5,403.5 95.5,411.5 95.5,419.5C 88.5,423.5 81.5,427.5 74.5,431.5C 74.1666,423.667 74.1666,415.667 74.5,407.5C 81.5171,403.472 88.5171,399.472 95.5,395.5 Z"/></g>
<g><path style="opacity:1" fill="#727074" d="M 202.5,396.5 C 195.5,397.833 188.5,397.833 181.5,396.5C 188.252,396.404 195.252,396.404 202.5,396.5 Z"/></g>
<g><path style="opacity:0.933" fill="#825546" d="M 402.5,393.5 C 402.5,394.833 402.5,396.167 402.5,397.5C 394.389,402.059 386.389,406.893 378.5,412C 377.241,412.982 375.908,413.315 374.5,413C 383.688,406.244 393.021,399.744 402.5,393.5 Z"/></g>
<g><path style="opacity:1" fill="#afa8ac" d="M 224.5,404.5 C 224.5,404.167 224.5,403.833 224.5,403.5C 234.25,403.194 243.916,403.527 253.5,404.5C 252.486,405.674 251.153,406.34 249.5,406.5C 249.611,405.883 249.944,405.383 250.5,405C 241.84,404.5 233.173,404.334 224.5,404.5 Z"/></g>
<g><path style="opacity:1" fill="#e5e3ec" d="M 206.5,404.5 C 210.514,404.334 214.514,404.501 218.5,405C 185.833,424 153.167,443 120.5,462C 118.35,463.411 116.016,464.245 113.5,464.5C 111.086,463.089 109.419,461.089 108.5,458.5C 136.372,441.069 164.039,423.403 191.5,405.5C 196.438,404.608 201.438,404.274 206.5,404.5 Z"/></g>
<g><path style="opacity:1" fill="#7b4d3e" d="M 206.5,404.5 C 212.31,403.51 218.31,403.177 224.5,403.5C 224.5,403.833 224.5,404.167 224.5,404.5C 193.025,424.407 161.692,444.573 130.5,465C 131.448,465.483 132.448,465.649 133.5,465.5C 131.19,466.164 128.69,466.497 126,466.5C 121.573,466.606 117.406,465.94 113.5,464.5C 116.016,464.245 118.35,463.411 120.5,462C 153.167,443 185.833,424 218.5,405C 214.514,404.501 210.514,404.334 206.5,404.5 Z"/></g>
<g><path style="opacity:1" fill="#e6e4ed" d="M 224.5,404.5 C 233.173,404.334 241.84,404.5 250.5,405C 249.944,405.383 249.611,405.883 249.5,406.5C 215.165,425.665 181.165,445.332 147.5,465.5C 142.833,465.5 138.167,465.5 133.5,465.5C 132.448,465.649 131.448,465.483 130.5,465C 161.692,444.573 193.025,424.407 224.5,404.5 Z"/></g>
<g><path style="opacity:1" fill="#e5e2ec" d="M 166.5,405.5 C 174.167,405.5 181.833,405.5 189.5,405.5C 162.202,421.485 134.869,437.485 107.5,453.5C 106.213,449.935 106.213,446.268 107.5,442.5C 127.438,430.555 147.105,418.221 166.5,405.5 Z"/></g>
<g><path style="opacity:1" fill="#7e4f40" d="M 189.5,405.5 C 190.167,405.5 190.833,405.5 191.5,405.5C 164.039,423.403 136.372,441.069 108.5,458.5C 107.699,456.958 107.366,455.292 107.5,453.5C 134.869,437.485 162.202,421.485 189.5,405.5 Z"/></g>
<g><path style="opacity:1" fill="#767479" d="M 108.5,406.5 C 108.53,416.863 108.864,427.196 109.5,437.5C 109.158,438.338 108.492,438.672 107.5,438.5C 107.172,427.654 107.506,416.987 108.5,406.5 Z"/></g>
<g><path style="opacity:0.999" fill="#7c4e3e" d="M 249.5,406.5 C 219.662,425.918 189.995,445.585 160.5,465.5C 156.167,465.5 151.833,465.5 147.5,465.5C 181.165,445.332 215.165,425.665 249.5,406.5 Z"/></g>
<g><path style="opacity:0.948" fill="#744534" d="M 95.5,423.5 C 95.5,427.5 95.5,431.5 95.5,435.5C 88.5,439.5 81.5,443.5 74.5,447.5C 73.2092,443.601 73.2092,439.601 74.5,435.5C 81.3646,431.235 88.3646,427.235 95.5,423.5 Z"/></g>
<g><path style="opacity:1" fill="#815445" d="M 166.5,405.5 C 147.105,418.221 127.438,430.555 107.5,442.5C 107.5,441.167 107.5,439.833 107.5,438.5C 108.492,438.672 109.158,438.338 109.5,437.5C 128.365,426.568 147.365,415.901 166.5,405.5 Z"/></g>
<g><path style="opacity:1" fill="#84584a" d="M 402.5,419.5 C 402.5,420.833 402.5,422.167 402.5,423.5C 397.66,426.587 392.66,429.087 387.5,431C 392.661,427.334 397.661,423.501 402.5,419.5 Z"/></g>
<g><path style="opacity:1" fill="#9f7e77" d="M 300.5,435.5 C 302.603,432.875 305.27,431.375 308.5,431C 306.183,433.157 303.516,434.657 300.5,435.5 Z"/></g>
<g><path style="opacity:0.95" fill="#764534" d="M 94.5,440.5 C 94.5,444.5 94.5,448.5 94.5,452.5C 87.6628,456.753 80.6628,460.753 73.5,464.5C 73.2367,460.4 73.5701,456.4 74.5,452.5C 80.9219,448.075 87.5886,444.075 94.5,440.5 Z"/></g>
<g><path style="opacity:0.81" fill="#7d4f3f" d="M 231.5,465.5 C 229.265,465.795 227.265,465.461 225.5,464.5C 236.546,457.984 247.212,450.984 257.5,443.5C 258.492,443.672 259.158,443.338 259.5,442.5C 260.167,442.5 260.5,442.167 260.5,441.5C 261.492,441.672 262.158,441.338 262.5,440.5C 263.833,440.167 263.833,439.833 262.5,439.5C 262.842,438.662 263.508,438.328 264.5,438.5C 264.833,439.833 265.167,439.833 265.5,438.5C 266.167,438.5 266.5,438.167 266.5,437.5C 266.5,436.833 266.833,436.5 267.5,436.5C 267.842,435.662 268.508,435.328 269.5,435.5C 270.29,434.599 271.29,433.932 272.5,433.5C 281.461,428.229 290.461,422.896 299.5,417.5C 300.696,417.846 300.696,418.346 299.5,419C 276.247,433.781 253.58,449.281 231.5,465.5 Z"/></g>
<g><path style="opacity:0.929" fill="#7d4f40" d="M 285.5,465.5 C 282.167,465.5 278.833,465.5 275.5,465.5C 290.77,456.526 306.104,447.526 321.5,438.5C 322.696,438.846 322.696,439.346 321.5,440C 309.258,448.276 297.258,456.776 285.5,465.5 Z"/></g>
<g><path style="opacity:1" fill="#807170" d="M 402.5,437.5 C 403.765,446.974 403.765,456.308 402.5,465.5C 402.831,457.472 402.498,449.472 401.5,441.5C 398.632,443.601 395.632,445.101 392.5,446C 396,443.331 399.333,440.498 402.5,437.5 Z"/></g>
<g><path style="opacity:1" fill="#7b4d3d" d="M 360.5,465.5 C 356.167,465.5 351.833,465.5 347.5,465.5C 357.304,458.601 367.637,452.768 378.5,448C 371.996,453.337 365.996,459.171 360.5,465.5 Z"/></g>
<g><path style="opacity:1" fill="#7e5041" d="M 330.5,465.5 C 327.167,465.5 323.833,465.5 320.5,465.5C 331.464,458.19 342.797,451.69 354.5,446C 346.021,451.985 338.021,458.485 330.5,465.5 Z"/></g>
<g><path style="opacity:0.735" fill="#7c4e3f" d="M 300.5,435.5 C 286.778,445.888 272.778,455.888 258.5,465.5C 256.901,465.768 255.568,465.434 254.5,464.5C 255.5,464.167 256.167,463.5 256.5,462.5C 254.847,462.66 253.514,463.326 252.5,464.5C 251.167,464.833 249.833,465.167 248.5,465.5C 265.499,454.998 282.832,444.998 300.5,435.5 Z M 261.5,459.5 C 260.341,461.25 258.674,462.25 256.5,462.5C 257.659,460.75 259.326,459.75 261.5,459.5 Z M 256.5,462.5 C 256.167,463.5 255.5,464.167 254.5,464.5C 253.833,464.5 253.167,464.5 252.5,464.5C 253.514,463.326 254.847,462.66 256.5,462.5 Z"/></g>
<g><path style="opacity:0.949" fill="#764634" d="M 94.5,456.5 C 95.8699,459.619 96.8699,462.952 97.5,466.5C 90.1311,470.848 82.7978,475.181 75.5,479.5C 74.7784,479.082 74.2784,478.416 74,477.5C 73.502,474.518 73.3354,471.518 73.5,468.5C 80.3646,464.235 87.3646,460.235 94.5,456.5 Z"/></g>
<g><path style="opacity:1" fill="#855a4d" d="M 181.5,465.5 C 180.167,465.5 178.833,465.5 177.5,465.5C 187.198,459.164 197.198,453.164 207.5,447.5C 208.696,447.846 208.696,448.346 207.5,449C 198.6,454.275 189.933,459.775 181.5,465.5 Z"/></g>
<g><path style="opacity:1" fill="#7c4f40" d="M 385.5,465.5 C 382.833,465.5 380.167,465.5 377.5,465.5C 381.808,462.182 386.474,459.682 391.5,458C 389.371,460.439 387.371,462.939 385.5,465.5 Z"/></g>
<g><path style="opacity:0.96" fill="#764534" d="M 99.5,468.5 C 101.998,469.912 104.664,471.079 107.5,472C 115.159,472.5 122.826,472.666 130.5,472.5C 130.5,472.833 130.5,473.167 130.5,473.5C 116.968,481.432 103.301,489.099 89.5,496.5C 82.5352,494.202 77.8686,489.535 75.5,482.5C 83.5275,477.822 91.5275,473.155 99.5,468.5 Z"/></g>
<g><path style="opacity:0.968" fill="#764635" d="M 130.5,473.5 C 130.5,473.167 130.5,472.833 130.5,472.5C 145.343,472.171 160.01,472.504 174.5,473.5C 159.329,481.917 144.329,490.584 129.5,499.5C 118.503,500.175 107.503,500.342 96.5,500C 95.2625,499.768 94.2625,499.268 93.5,498.5C 106.436,490.358 119.436,482.191 132.5,474C 131.906,473.536 131.239,473.369 130.5,473.5 Z"/></g>
<g><path style="opacity:0.957" fill="#754534" d="M 204.5,473.5 C 189.551,481.803 174.884,490.47 160.5,499.5C 153.833,499.5 147.167,499.5 140.5,499.5C 153.294,490.931 166.294,482.598 179.5,474.5C 180.473,474.013 181.473,473.513 182.5,473C 190.012,472.178 197.345,472.345 204.5,473.5 Z"/></g>
<g><path style="opacity:0.946" fill="#764534" d="M 236.5,473.5 C 221.833,481.833 207.167,490.167 192.5,498.5C 185.922,499.46 179.255,499.793 172.5,499.5C 185.5,490.833 198.5,482.167 211.5,473.5C 219.962,472.213 228.295,472.213 236.5,473.5 Z"/></g>
<g><path style="opacity:0.869" fill="#714333" d="M 446.5,481.5 C 446.815,486.522 444.481,489.522 439.5,490.5C 441.603,487.28 443.936,484.28 446.5,481.5 Z"/></g>
<g><path style="opacity:0.69" fill="#6e4335" d="M 416.5,503.5 C 413.827,506.843 410.494,507.843 406.5,506.5C 409.495,504.757 412.829,503.757 416.5,503.5 Z"/></g>
</svg>
