<?xml version="1.0" encoding="UTF-8"?>
<!DOCTYPE svg PUBLIC "-//W3C//DTD SVG 1.1//EN" "http://www.w3.org/Graphics/SVG/1.1/DTD/svg11.dtd">
<svg xmlns="http://www.w3.org/2000/svg" version="1.1" width="512px" height="512px" style="shape-rendering:geometricPrecision; text-rendering:geometricPrecision; image-rendering:optimizeQuality; fill-rule:evenodd; clip-rule:evenodd" xmlns:xlink="http://www.w3.org/1999/xlink">
<g><path style="opacity:0.965" fill="#262727" d="M 251.5,4.5 C 253.5,5.83333 255.5,5.83333 257.5,4.5C 264.822,5.03752 272.155,5.37085 279.5,5.5C 280.312,6.99309 281.645,7.65976 283.5,7.5C 284.726,7.48046 285.726,7.14713 286.5,6.5C 291.777,7.49298 297.11,8.15965 302.5,8.5C 303.879,10.5969 305.545,10.9302 307.5,9.5C 401.543,28.0395 464.043,82.7061 495,173.5C 503.761,202.923 507.594,232.923 506.5,263.5C 505.167,265.5 505.167,267.5 506.5,269.5C 505.887,274.535 505.221,279.535 504.5,284.5C 503.167,286.167 503.167,287.833 504.5,289.5C 503.631,291.717 503.298,294.05 503.5,296.5C 501.539,298.32 501.206,300.32 502.5,302.5C 501.294,307.864 499.961,313.197 498.5,318.5C 497.566,319.568 497.232,320.901 497.5,322.5C 469.717,421.728 405.384,481.895 304.5,503C 291.545,504.573 278.545,505.407 265.5,505.5C 263.167,505.5 260.833,505.5 258.5,505.5C 252.167,505.5 245.833,505.5 239.5,505.5C 237.393,504.532 235.059,504.198 232.5,504.5C 158.449,500.894 98.6152,470.228 53,412.5C 25.6941,373.863 10.1941,330.863 6.5,283.5C 6.79472,281.265 6.46138,279.265 5.5,277.5C 5.5,274.5 5.5,271.5 5.5,268.5C 5.5,266.5 5.5,264.5 5.5,262.5C 5.5,260.167 5.5,257.833 5.5,255.5C 5.5,252.833 5.5,250.167 5.5,247.5C 5.5,245.833 5.5,244.167 5.5,242.5C 6.47307,240.052 6.8064,237.385 6.5,234.5C 6.92719,230.176 7.26052,225.842 7.5,221.5C 9.31173,219.287 9.64507,216.953 8.5,214.5C 9.23411,213.292 9.56745,211.959 9.5,210.5C 10.531,208.039 11.1977,205.373 11.5,202.5C 11.5751,199.794 11.9084,197.127 12.5,194.5C 14.1628,192.562 14.8294,190.228 14.5,187.5C 15.3234,184.539 15.99,181.539 16.5,178.5C 18.4414,176.684 19.1081,174.684 18.5,172.5C 20.5,167.167 22.5,161.833 24.5,156.5C 25.6737,155.486 26.3404,154.153 26.5,152.5C 49.8234,95.3451 89.1567,53.1784 144.5,26C 178.607,11.212 214.273,4.0453 251.5,4.5 Z M 252.5,15.5 C 255.833,15.5 259.167,15.5 262.5,15.5C 239.5,29.3357 216.167,42.6691 192.5,55.5C 212.205,41.8077 232.205,28.4744 252.5,15.5 Z M 223.5,16.5 C 225.5,16.5 227.5,16.5 229.5,16.5C 218.763,23.2249 207.763,29.5583 196.5,35.5C 205.325,28.9207 214.325,22.5873 223.5,16.5 Z M 282.5,16.5 C 284.167,16.5 285.833,16.5 287.5,16.5C 270.501,27.0019 253.168,37.0019 235.5,46.5C 250.65,35.7543 266.317,25.7543 282.5,16.5 Z M 320.5,22.5 C 321.167,22.5 321.833,22.5 322.5,22.5C 316.83,26.337 310.83,29.6704 304.5,32.5C 309.489,28.6692 314.822,25.3359 320.5,22.5 Z M 346.5,30.5 C 348.751,31.6948 351.085,32.6948 353.5,33.5C 315.168,56.3352 276.501,78.6685 237.5,100.5C 273.664,76.9173 309.997,53.5839 346.5,30.5 Z M 304.5,32.5 C 303.341,34.2503 301.674,35.2503 299.5,35.5C 300.659,33.7497 302.326,32.7497 304.5,32.5 Z M 364.5,38.5 C 365.167,38.5 365.5,38.8333 365.5,39.5C 365.158,40.3382 364.492,40.6716 363.5,40.5C 363.833,39.8333 364.167,39.1667 364.5,38.5 Z M 376.5,45.5 C 377.167,45.5 377.5,45.8333 377.5,46.5C 366.004,53.4162 354.337,60.0828 342.5,66.5C 353.299,58.715 364.632,51.715 376.5,45.5 Z M 235.5,46.5 C 234.341,48.2503 232.674,49.2503 230.5,49.5C 231.659,47.7497 233.326,46.7497 235.5,46.5 Z M 387.5,52.5 C 389.027,52.427 390.027,53.0937 390.5,54.5C 370.74,66.2614 350.74,77.5948 330.5,88.5C 349.295,76.2639 368.295,64.2639 387.5,52.5 Z M 192.5,55.5 C 192.027,56.9063 191.027,57.573 189.5,57.5C 189.973,56.0937 190.973,55.427 192.5,55.5 Z M 399.5,60.5 C 401.525,62.1964 403.525,63.863 405.5,65.5C 360.635,91.4315 315.635,117.098 270.5,142.5C 313.331,114.917 356.331,87.5836 399.5,60.5 Z M 340.5,67.5 C 340.027,68.9063 339.027,69.573 337.5,69.5C 337.973,68.0937 338.973,67.427 340.5,67.5 Z M 429.5,87.5 C 430.5,88.8333 431.5,90.1667 432.5,91.5C 398.995,110.753 365.329,129.753 331.5,148.5C 363.823,127.669 396.489,107.336 429.5,87.5 Z M 328.5,89.5 C 328.027,90.9063 327.027,91.573 325.5,91.5C 325.973,90.0937 326.973,89.427 328.5,89.5 Z M 438.5,99.5 C 440.587,100.585 441.92,102.251 442.5,104.5C 394.969,132.098 347.302,159.431 299.5,186.5C 345.562,157.112 391.896,128.112 438.5,99.5 Z M 235.5,101.5 C 235.027,102.906 234.027,103.573 232.5,103.5C 232.973,102.094 233.973,101.427 235.5,101.5 Z M 70.5,105.5 C 70.0269,106.906 69.0269,107.573 67.5,107.5C 67.9731,106.094 68.9731,105.427 70.5,105.5 Z M 67.5,107.5 C 65.0246,110.241 62.0246,112.241 58.5,113.5C 59.1098,112.609 59.4431,111.609 59.5,110.5C 62.1667,109.5 64.8333,108.5 67.5,107.5 Z M 93.5,107.5 C 92.3406,109.25 90.674,110.25 88.5,110.5C 89.6594,108.75 91.326,107.75 93.5,107.5 Z M 88.5,110.5 C 74.0529,121.231 59.0529,131.231 43.5,140.5C 44.2271,138.046 45.2271,135.713 46.5,133.5C 60.5,125.833 74.5,118.167 88.5,110.5 Z M 75.5,135.5 C 75.0269,136.906 74.0269,137.573 72.5,137.5C 72.9731,136.094 73.9731,135.427 75.5,135.5 Z M 70.5,138.5 C 59.0411,146.948 47.0411,154.615 34.5,161.5C 34.8333,160.167 35.1667,158.833 35.5,157.5C 47.3264,151.421 58.9931,145.088 70.5,138.5 Z M 464.5,138.5 C 465.5,140.5 466.5,142.5 467.5,144.5C 424.662,169.086 381.662,193.42 338.5,217.5C 380.127,190.68 422.127,164.347 464.5,138.5 Z M 270.5,142.5 C 269.341,144.25 267.674,145.25 265.5,145.5C 266.659,143.75 268.326,142.75 270.5,142.5 Z M 331.5,148.5 C 330.341,150.25 328.674,151.25 326.5,151.5C 327.659,149.75 329.326,148.75 331.5,148.5 Z M 324.5,152.5 C 324.027,153.906 323.027,154.573 321.5,154.5C 321.973,153.094 322.973,152.427 324.5,152.5 Z M 471.5,153.5 C 471.833,154.167 472.167,154.833 472.5,155.5C 459.167,162.833 445.833,170.167 432.5,177.5C 444.99,168.751 457.99,160.751 471.5,153.5 Z M 120.5,161.5 C 120.027,162.906 119.027,163.573 117.5,163.5C 117.973,162.094 118.973,161.427 120.5,161.5 Z M 117.5,163.5 C 116.341,165.25 114.674,166.25 112.5,166.5C 113.659,164.75 115.326,163.75 117.5,163.5 Z M 475.5,165.5 C 475.027,166.906 474.027,167.573 472.5,167.5C 472.973,166.094 473.973,165.427 475.5,165.5 Z M 112.5,166.5 C 82.0153,186.913 51.0153,206.58 19.5,225.5C 20.3686,223.283 20.702,220.95 20.5,218.5C 50.9273,200.738 81.594,183.405 112.5,166.5 Z M 432.5,177.5 C 432.027,178.906 431.027,179.573 429.5,179.5C 429.973,178.094 430.973,177.427 432.5,177.5 Z M 483.5,184.5 C 483.5,185.5 483.5,186.5 483.5,187.5C 470.833,195.167 458.167,202.833 445.5,210.5C 444.833,210.167 444.167,209.833 443.5,209.5C 456.797,201.181 470.131,192.847 483.5,184.5 Z M 299.5,186.5 C 298.341,188.25 296.674,189.25 294.5,189.5C 295.659,187.75 297.326,186.75 299.5,186.5 Z M 32.5,188.5 C 32.0269,189.906 31.0269,190.573 29.5,190.5C 29.9731,189.094 30.9731,188.427 32.5,188.5 Z M 29.5,190.5 C 28.5637,191.974 27.2303,192.974 25.5,193.5C 25.5,193.167 25.5,192.833 25.5,192.5C 26.5137,191.326 27.847,190.66 29.5,190.5 Z M 147.5,206.5 C 147.027,207.906 146.027,208.573 144.5,208.5C 144.973,207.094 145.973,206.427 147.5,206.5 Z M 144.5,208.5 C 143.341,210.25 141.674,211.25 139.5,211.5C 139.167,211.5 138.833,211.5 138.5,211.5C 140.181,209.992 142.181,208.992 144.5,208.5 Z M 488.5,208.5 C 488.5,208.833 488.5,209.167 488.5,209.5C 484.299,212.1 479.966,214.434 475.5,216.5C 479.323,213.084 483.657,210.418 488.5,208.5 Z M 338.5,217.5 C 337.341,219.25 335.674,220.25 333.5,220.5C 334.659,218.75 336.326,217.75 338.5,217.5 Z M 473.5,217.5 C 473.027,218.906 472.027,219.573 470.5,219.5C 470.973,218.094 471.973,217.427 473.5,217.5 Z M 333.5,220.5 C 333.027,221.906 332.027,222.573 330.5,222.5C 330.973,221.094 331.973,220.427 333.5,220.5 Z M 490.5,220.5 C 490.833,221.833 491.167,223.167 491.5,224.5C 482.366,229.234 473.366,234.234 464.5,239.5C 464.443,238.391 464.11,237.391 463.5,236.5C 472.5,231.167 481.5,225.833 490.5,220.5 Z M 48.5,234.5 C 48.0269,235.906 47.0269,236.573 45.5,236.5C 45.9731,235.094 46.9731,234.427 48.5,234.5 Z M 43.5,237.5 C 35.3727,243.069 27.0393,248.402 18.5,253.5C 18.5,252.833 18.5,252.167 18.5,251.5C 26.699,246.568 35.0323,241.901 43.5,237.5 Z M 493.5,246.5 C 493.5,248.167 493.5,249.833 493.5,251.5C 483.967,257.099 474.3,262.433 464.5,267.5C 464.833,266.167 465.167,264.833 465.5,263.5C 474.528,257.32 483.862,251.653 493.5,246.5 Z M 46.5,249.5 C 46.5,250.167 46.5,250.833 46.5,251.5C 37.6373,257.097 28.6373,262.43 19.5,267.5C 19.5,266.833 19.5,266.167 19.5,265.5C 28.2994,259.93 37.2994,254.596 46.5,249.5 Z M 171.5,253.5 C 170.341,255.25 168.674,256.25 166.5,256.5C 167.659,254.75 169.326,253.75 171.5,253.5 Z M 166.5,256.5 C 164.371,258.95 161.704,260.617 158.5,261.5C 158.5,261.167 158.5,260.833 158.5,260.5C 160.883,258.642 163.55,257.308 166.5,256.5 Z M 493.5,263.5 C 493.5,264.5 493.5,265.5 493.5,266.5C 482.833,272.167 472.167,277.833 461.5,283.5C 471.794,276.347 482.461,269.68 493.5,263.5 Z M 46.5,264.5 C 46.5,266.5 46.5,268.5 46.5,270.5C 38.1028,276.222 29.4361,281.555 20.5,286.5C 20.5,284.167 20.5,281.833 20.5,279.5C 29.1667,274.5 37.8333,269.5 46.5,264.5 Z M 492.5,278.5 C 492.5,280.833 492.5,283.167 492.5,285.5C 458.74,305.261 424.74,324.595 390.5,343.5C 424.125,321.348 458.125,299.681 492.5,278.5 Z M 461.5,283.5 C 461.027,284.906 460.027,285.573 458.5,285.5C 458.973,284.094 459.973,283.427 461.5,283.5 Z M 63.5,298.5 C 63.8333,299.5 64.5,300.167 65.5,300.5C 53.3706,308.403 41.0373,316.07 28.5,323.5C 27.7659,322.292 27.4326,320.959 27.5,319.5C 39.1364,312.01 51.1364,305.01 63.5,298.5 Z M 99.5,298.5 C 98.3406,300.25 96.674,301.25 94.5,301.5C 95.6594,299.75 97.326,298.75 99.5,298.5 Z M 187.5,298.5 C 186.341,300.25 184.674,301.25 182.5,301.5C 183.659,299.75 185.326,298.75 187.5,298.5 Z M 182.5,301.5 C 139.511,328.998 96.1774,355.998 52.5,382.5C 51.2632,381.035 50.2632,379.368 49.5,377.5C 93.6979,351.902 138.031,326.569 182.5,301.5 Z M 77.5,306.5 C 79.4214,307.363 81.4214,308.029 83.5,308.5C 67.1241,319.527 50.4574,330.194 33.5,340.5C 32.4336,338.299 31.767,335.965 31.5,333.5C 47.1977,324.989 62.531,315.989 77.5,306.5 Z M 487.5,312.5 C 487.167,314.5 486.833,316.5 486.5,318.5C 461.15,332.861 435.816,347.195 410.5,361.5C 435.651,344.421 461.317,328.087 487.5,312.5 Z M 482.5,333.5 C 481.637,335.421 480.971,337.421 480.5,339.5C 461.833,349.833 443.167,360.167 424.5,370.5C 443.293,357.385 462.626,345.052 482.5,333.5 Z M 390.5,343.5 C 390.027,344.906 389.027,345.573 387.5,345.5C 387.973,344.094 388.973,343.427 390.5,343.5 Z M 474.5,354.5 C 473.833,356.5 473.167,358.5 472.5,360.5C 458.5,368.167 444.5,375.833 430.5,383.5C 445.13,373.847 459.797,364.18 474.5,354.5 Z M 105.5,364.5 C 105.027,365.906 104.027,366.573 102.5,366.5C 102.973,365.094 103.973,364.427 105.5,364.5 Z M 100.5,367.5 C 100.027,368.906 99.0269,369.573 97.5,369.5C 97.9731,368.094 98.9731,367.427 100.5,367.5 Z M 97.5,369.5 C 85.0098,378.249 72.0098,386.249 58.5,393.5C 58.1667,392.833 57.8333,392.167 57.5,391.5C 70.5965,383.737 83.9298,376.404 97.5,369.5 Z M 422.5,371.5 C 422.027,372.906 421.027,373.573 419.5,373.5C 419.973,372.094 420.973,371.427 422.5,371.5 Z M 463.5,377.5 C 463.267,379.062 462.6,380.395 461.5,381.5C 455.127,385.687 448.461,389.353 441.5,392.5C 448.796,387.513 456.13,382.513 463.5,377.5 Z M 144.5,380.5 C 144.027,381.906 143.027,382.573 141.5,382.5C 141.973,381.094 142.973,380.427 144.5,380.5 Z M 139.5,383.5 C 138.341,385.25 136.674,386.25 134.5,386.5C 135.659,384.75 137.326,383.75 139.5,383.5 Z M 134.5,386.5 C 133.341,388.25 131.674,389.25 129.5,389.5C 130.659,387.75 132.326,386.75 134.5,386.5 Z M 129.5,389.5 C 112.833,400.167 96.1667,410.833 79.5,421.5C 78.5987,420.71 77.9321,419.71 77.5,418.5C 94.8504,408.805 112.184,399.139 129.5,389.5 Z M 195.5,390.5 C 195.027,391.906 194.027,392.573 192.5,392.5C 192.973,391.094 193.973,390.427 195.5,390.5 Z M 190.5,393.5 C 189.341,395.25 187.674,396.25 185.5,396.5C 186.659,394.75 188.326,393.75 190.5,393.5 Z M 185.5,396.5 C 159.206,413.653 132.539,430.32 105.5,446.5C 104.5,445.833 103.5,445.167 102.5,444.5C 129.668,427.746 157.335,411.746 185.5,396.5 Z M 232.5,396.5 C 232.027,397.906 231.027,398.573 229.5,398.5C 229.973,397.094 230.973,396.427 232.5,396.5 Z M 69.5,399.5 C 69.0269,400.906 68.0269,401.573 66.5,401.5C 66.9731,400.094 67.9731,399.427 69.5,399.5 Z M 227.5,399.5 C 194.54,420.986 161.207,441.986 127.5,462.5C 125.632,461.737 123.965,460.737 122.5,459.5C 157.365,439.235 192.365,419.235 227.5,399.5 Z M 66.5,401.5 C 66.1667,402.5 65.5,403.167 64.5,403.5C 64.5,403.167 64.5,402.833 64.5,402.5C 64.8417,401.662 65.5084,401.328 66.5,401.5 Z M 273.5,404.5 C 273.027,405.906 272.027,406.573 270.5,406.5C 270.973,405.094 271.973,404.427 273.5,404.5 Z M 445.5,405.5 C 443.807,408.184 442.14,410.851 440.5,413.5C 431.167,418.5 421.833,423.5 412.5,428.5C 423.219,420.451 434.219,412.784 445.5,405.5 Z M 270.5,406.5 C 233.039,430.736 195.372,454.736 157.5,478.5C 155.085,477.695 152.751,476.695 150.5,475.5C 190.166,451.998 230.166,428.998 270.5,406.5 Z M 118.5,421.5 C 118.027,422.906 117.027,423.573 115.5,423.5C 115.973,422.094 116.973,421.427 118.5,421.5 Z M 115.5,423.5 C 108.77,428.222 101.77,432.555 94.5,436.5C 93.8333,436.5 93.5,436.167 93.5,435.5C 100.597,431.07 107.931,427.07 115.5,423.5 Z M 281.5,430.5 C 280.341,432.25 278.674,433.25 276.5,433.5C 277.659,431.75 279.326,430.75 281.5,430.5 Z M 276.5,433.5 C 247.833,452.167 219.167,470.833 190.5,489.5C 187.833,488.833 185.167,488.167 182.5,487.5C 213.499,468.998 244.832,450.998 276.5,433.5 Z M 186.5,440.5 C 185.341,442.25 183.674,443.25 181.5,443.5C 182.659,441.75 184.326,440.75 186.5,440.5 Z M 181.5,443.5 C 167.843,452.665 153.843,461.331 139.5,469.5C 138.508,469.672 137.842,469.338 137.5,468.5C 151.834,459.664 166.5,451.331 181.5,443.5 Z M 286.5,445.5 C 285.341,447.25 283.674,448.25 281.5,448.5C 282.659,446.75 284.326,445.75 286.5,445.5 Z M 281.5,448.5 C 258.707,463.735 235.707,478.735 212.5,493.5C 210.097,493.552 207.764,493.219 205.5,492.5C 230.498,477.332 255.832,462.665 281.5,448.5 Z M 357.5,453.5 C 339.833,466.167 322.167,478.833 304.5,491.5C 299.196,492.384 293.863,493.051 288.5,493.5C 311.001,479.412 334.001,466.079 357.5,453.5 Z M 293.5,458.5 C 293.027,459.906 292.027,460.573 290.5,460.5C 290.973,459.094 291.973,458.427 293.5,458.5 Z M 290.5,460.5 C 272.5,472.5 254.5,484.5 236.5,496.5C 234.194,496.007 231.861,495.674 229.5,495.5C 249.336,483.078 269.67,471.412 290.5,460.5 Z M 299.5,471.5 C 299.027,472.906 298.027,473.573 296.5,473.5C 296.973,472.094 297.973,471.427 299.5,471.5 Z M 296.5,473.5 C 285.167,481.167 273.833,488.833 262.5,496.5C 260.5,496.5 258.5,496.5 256.5,496.5C 269.499,488.331 282.832,480.665 296.5,473.5 Z"/></g>
<g><path style="opacity:0.973" fill="#4e9caf" d="M 257.5,4.5 C 255.5,5.83333 253.5,5.83333 251.5,4.5C 253.5,3.16667 255.5,3.16667 257.5,4.5 Z"/></g>
<g><path style="opacity:1" fill="#4b8ea0" d="M 279.5,5.5 C 281.95,5.29803 284.283,5.63137 286.5,6.5C 285.726,7.14713 284.726,7.48046 283.5,7.5C 281.645,7.65976 280.312,6.99309 279.5,5.5 Z"/></g>
<g><path style="opacity:0.565" fill="#51a1b7" d="M 302.5,8.5 C 304.292,8.36596 305.958,8.69929 307.5,9.5C 305.545,10.9302 303.879,10.5969 302.5,8.5 Z"/></g>
<g><path style="opacity:0.986" fill="#63d9f8" d="M 252.5,15.5 C 232.205,28.4744 212.205,41.8077 192.5,55.5C 216.167,42.6691 239.5,29.3357 262.5,15.5C 265.616,14.9246 268.783,14.5913 272,14.5C 275.805,14.3037 279.305,14.9704 282.5,16.5C 266.317,25.7543 250.65,35.7543 235.5,46.5C 253.168,37.0019 270.501,27.0019 287.5,16.5C 291.514,16.3345 295.514,16.5012 299.5,17C 301.727,17.121 303.56,17.9544 305,19.5C 305.399,19.2716 305.565,18.9382 305.5,18.5C 310.237,18.8806 314.904,19.7139 319.5,21C 320.056,21.3826 320.389,21.8826 320.5,22.5C 314.822,25.3359 309.489,28.6692 304.5,32.5C 310.83,29.6704 316.83,26.337 322.5,22.5C 330.901,24.2595 338.901,26.9262 346.5,30.5C 309.997,53.5839 273.664,76.9173 237.5,100.5C 276.501,78.6685 315.168,56.3352 353.5,33.5C 357.593,34.3824 361.26,36.049 364.5,38.5C 364.167,39.1667 363.833,39.8333 363.5,40.5C 364.492,40.6716 365.158,40.3382 365.5,39.5C 369.933,40.2145 373.6,42.2145 376.5,45.5C 364.632,51.715 353.299,58.715 342.5,66.5C 354.337,60.0828 366.004,53.4162 377.5,46.5C 381.86,47.0044 385.193,49.0044 387.5,52.5C 368.295,64.2639 349.295,76.2639 330.5,88.5C 350.74,77.5948 370.74,66.2614 390.5,54.5C 391.552,54.3505 392.552,54.5172 393.5,55C 395.763,56.617 397.763,58.4503 399.5,60.5C 356.331,87.5836 313.331,114.917 270.5,142.5C 315.635,117.098 360.635,91.4315 405.5,65.5C 407.595,66.412 409.595,67.5787 411.5,69C 412.823,69.8159 413.489,70.9826 413.5,72.5C 412.817,73.6441 413.151,73.6441 414.5,72.5C 419.5,77.5 424.5,82.5 429.5,87.5C 396.489,107.336 363.823,127.669 331.5,148.5C 365.329,129.753 398.995,110.753 432.5,91.5C 435.687,93.3438 437.687,96.0105 438.5,99.5C 391.896,128.112 345.562,157.112 299.5,186.5C 297.326,186.75 295.659,187.75 294.5,189.5C 293.508,189.328 292.842,189.662 292.5,190.5C 291.833,190.5 291.5,190.833 291.5,191.5C 290.508,191.328 289.842,191.662 289.5,192.5C 288.508,192.328 287.842,192.662 287.5,193.5C 286.833,193.5 286.5,193.833 286.5,194.5C 286.167,194.5 285.833,194.5 285.5,194.5C 284.833,194.5 284.5,194.833 284.5,195.5C 284.167,195.5 283.833,195.5 283.5,195.5C 282.833,195.5 282.5,195.833 282.5,196.5C 281.833,196.5 281.5,196.833 281.5,197.5C 281.167,197.5 280.833,197.5 280.5,197.5C 279.833,197.5 279.5,197.833 279.5,198.5C 278.833,198.5 278.5,198.833 278.5,199.5C 278.167,199.5 277.833,199.5 277.5,199.5C 276.833,199.5 276.5,199.833 276.5,200.5C 275.167,200.5 274.5,201.167 274.5,202.5C 243.126,193.999 219.96,203.999 205,232.5C 198.631,250.707 199.131,268.707 206.5,286.5C 205.833,286.5 205.5,286.833 205.5,287.5C 204.833,287.5 204.5,287.833 204.5,288.5C 203.508,288.328 202.842,288.662 202.5,289.5C 202.167,289.5 201.833,289.5 201.5,289.5C 200.833,289.5 200.5,289.833 200.5,290.5C 199.833,290.5 199.5,290.833 199.5,291.5C 199.167,291.5 198.833,291.5 198.5,291.5C 197.833,291.5 197.5,291.833 197.5,292.5C 197.167,292.5 196.833,292.5 196.5,292.5C 195.833,292.5 195.5,292.833 195.5,293.5C 194.833,293.5 194.5,293.833 194.5,294.5C 193.508,294.328 192.842,294.662 192.5,295.5C 191.508,295.328 190.842,295.662 190.5,296.5C 189.833,296.5 189.5,296.833 189.5,297.5C 188.508,297.328 187.842,297.662 187.5,298.5C 185.326,298.75 183.659,299.75 182.5,301.5C 138.031,326.569 93.6979,351.902 49.5,377.5C 45.5833,372.005 42.4166,366.005 40,359.5C 38.5699,356.647 37.7366,353.647 37.5,350.5C 35.2149,347.665 33.8816,344.332 33.5,340.5C 50.4574,330.194 67.1241,319.527 83.5,308.5C 101.566,311.92 118.566,309.086 134.5,300C 147.432,290.314 155.432,277.481 158.5,261.5C 161.704,260.617 164.371,258.95 166.5,256.5C 163.55,257.308 160.883,258.642 158.5,260.5C 160.179,240.888 153.846,224.555 139.5,211.5C 141.674,211.25 143.341,210.25 144.5,208.5C 142.181,208.992 140.181,209.992 138.5,211.5C 119.843,200.753 100.177,198.586 79.5,205C 67.0064,210.994 57.673,220.161 51.5,232.5C 50.8333,232.5 50.5,232.833 50.5,233.5C 49.5084,233.328 48.8417,233.662 48.5,234.5C 46.9731,234.427 45.9731,235.094 45.5,236.5C 44.5084,236.328 43.8417,236.662 43.5,237.5C 35.0323,241.901 26.699,246.568 18.5,251.5C 18.5,247.5 18.5,243.5 18.5,239.5C 19.8333,239.167 19.8333,238.833 18.5,238.5C 18.2941,234.102 18.6274,229.768 19.5,225.5C 51.0153,206.58 82.0153,186.913 112.5,166.5C 81.594,183.405 50.9273,200.738 20.5,218.5C 20.4713,212.591 21.138,206.758 22.5,201C 22.8386,198.133 23.8386,195.633 25.5,193.5C 27.2303,192.974 28.5637,191.974 29.5,190.5C 27.847,190.66 26.5137,191.326 25.5,192.5C 25.1744,187.771 26.1744,183.104 28.5,178.5C 29.8333,178.167 29.8333,177.833 28.5,177.5C 29.5253,171.752 31.5253,166.419 34.5,161.5C 47.0411,154.615 59.0411,146.948 70.5,138.5C 58.9931,145.088 47.3264,151.421 35.5,157.5C 36.7472,151.674 39.0805,146.341 42.5,141.5C 43.1667,141.5 43.5,141.167 43.5,140.5C 59.0529,131.231 74.0529,121.231 88.5,110.5C 74.5,118.167 60.5,125.833 46.5,133.5C 48.9412,126.407 52.6079,120.074 57.5,114.5C 58.1667,114.5 58.5,114.167 58.5,113.5C 62.0246,112.241 65.0246,110.241 67.5,107.5C 64.8333,108.5 62.1667,109.5 59.5,110.5C 99.6191,54.4221 154.286,23.0888 223.5,16.5C 214.325,22.5873 205.325,28.9207 196.5,35.5C 207.763,29.5583 218.763,23.2249 229.5,16.5C 237.205,14.3483 244.871,14.0149 252.5,15.5 Z M 252.5,15.5 C 255.833,15.5 259.167,15.5 262.5,15.5C 239.5,29.3357 216.167,42.6691 192.5,55.5C 212.205,41.8077 232.205,28.4744 252.5,15.5 Z M 223.5,16.5 C 225.5,16.5 227.5,16.5 229.5,16.5C 218.763,23.2249 207.763,29.5583 196.5,35.5C 205.325,28.9207 214.325,22.5873 223.5,16.5 Z M 282.5,16.5 C 284.167,16.5 285.833,16.5 287.5,16.5C 270.501,27.0019 253.168,37.0019 235.5,46.5C 250.65,35.7543 266.317,25.7543 282.5,16.5 Z M 320.5,22.5 C 321.167,22.5 321.833,22.5 322.5,22.5C 316.83,26.337 310.83,29.6704 304.5,32.5C 309.489,28.6692 314.822,25.3359 320.5,22.5 Z M 304.5,32.5 C 303.341,34.2503 301.674,35.2503 299.5,35.5C 300.659,33.7497 302.326,32.7497 304.5,32.5 Z M 235.5,46.5 C 234.341,48.2503 232.674,49.2503 230.5,49.5C 231.659,47.7497 233.326,46.7497 235.5,46.5 Z M 192.5,55.5 C 192.027,56.9063 191.027,57.573 189.5,57.5C 189.973,56.0937 190.973,55.427 192.5,55.5 Z M 340.5,67.5 C 340.027,68.9063 339.027,69.573 337.5,69.5C 337.973,68.0937 338.973,67.427 340.5,67.5 Z M 328.5,89.5 C 328.027,90.9063 327.027,91.573 325.5,91.5C 325.973,90.0937 326.973,89.427 328.5,89.5 Z M 235.5,101.5 C 235.027,102.906 234.027,103.573 232.5,103.5C 232.973,102.094 233.973,101.427 235.5,101.5 Z M 70.5,105.5 C 70.0269,106.906 69.0269,107.573 67.5,107.5C 67.9731,106.094 68.9731,105.427 70.5,105.5 Z M 93.5,107.5 C 92.3406,109.25 90.674,110.25 88.5,110.5C 89.6594,108.75 91.326,107.75 93.5,107.5 Z M 75.5,135.5 C 75.0269,136.906 74.0269,137.573 72.5,137.5C 72.9731,136.094 73.9731,135.427 75.5,135.5 Z M 270.5,142.5 C 269.341,144.25 267.674,145.25 265.5,145.5C 266.659,143.75 268.326,142.75 270.5,142.5 Z M 331.5,148.5 C 330.341,150.25 328.674,151.25 326.5,151.5C 327.659,149.75 329.326,148.75 331.5,148.5 Z M 324.5,152.5 C 324.027,153.906 323.027,154.573 321.5,154.5C 321.973,153.094 322.973,152.427 324.5,152.5 Z M 120.5,161.5 C 120.027,162.906 119.027,163.573 117.5,163.5C 117.973,162.094 118.973,161.427 120.5,161.5 Z M 117.5,163.5 C 116.341,165.25 114.674,166.25 112.5,166.5C 113.659,164.75 115.326,163.75 117.5,163.5 Z M 32.5,188.5 C 32.0269,189.906 31.0269,190.573 29.5,190.5C 29.9731,189.094 30.9731,188.427 32.5,188.5 Z M 147.5,206.5 C 147.027,207.906 146.027,208.573 144.5,208.5C 144.973,207.094 145.973,206.427 147.5,206.5 Z M 144.5,208.5 C 143.341,210.25 141.674,211.25 139.5,211.5C 139.167,211.5 138.833,211.5 138.5,211.5C 140.181,209.992 142.181,208.992 144.5,208.5 Z M 48.5,234.5 C 48.0269,235.906 47.0269,236.573 45.5,236.5C 45.9731,235.094 46.9731,234.427 48.5,234.5 Z M 171.5,253.5 C 170.341,255.25 168.674,256.25 166.5,256.5C 167.659,254.75 169.326,253.75 171.5,253.5 Z"/></g>
<g><path style="opacity:0.985" fill="#63d9f8" d="M 442.5,104.5 C 445.468,106.477 447.802,109.144 449.5,112.5C 448.761,112.369 448.094,112.536 447.5,113C 449.329,113.273 450.829,114.107 452,115.5C 456.715,122.935 460.882,130.602 464.5,138.5C 422.127,164.347 380.127,190.68 338.5,217.5C 381.662,193.42 424.662,169.086 467.5,144.5C 469.974,146.898 471.308,149.898 471.5,153.5C 457.99,160.751 444.99,168.751 432.5,177.5C 445.833,170.167 459.167,162.833 472.5,155.5C 474.607,158.057 475.941,161.057 476.5,164.5C 475.833,164.5 475.5,164.833 475.5,165.5C 477.335,166.122 478.502,167.456 479,169.5C 480.81,174.429 482.31,179.429 483.5,184.5C 470.131,192.847 456.797,201.181 443.5,209.5C 425.823,198.856 407.156,196.69 387.5,203C 368.503,211.783 357.336,226.616 354,247.5C 350.736,273.128 359.903,292.628 381.5,306C 384.598,307.228 387.598,308.394 390.5,309.5C 390.833,310.833 391.167,310.833 391.5,309.5C 418.328,314.978 440.328,307.312 457.5,286.5C 458.167,286.5 458.5,286.167 458.5,285.5C 460.027,285.573 461.027,284.906 461.5,283.5C 472.167,277.833 482.833,272.167 493.5,266.5C 493.763,270.6 493.43,274.6 492.5,278.5C 458.125,299.681 424.125,321.348 390.5,343.5C 424.74,324.595 458.74,305.261 492.5,285.5C 491.796,294.732 490.129,303.732 487.5,312.5C 461.317,328.087 435.651,344.421 410.5,361.5C 435.816,347.195 461.15,332.861 486.5,318.5C 485.668,323.672 484.335,328.672 482.5,333.5C 462.626,345.052 443.293,357.385 424.5,370.5C 443.167,360.167 461.833,349.833 480.5,339.5C 479.266,344.883 477.266,349.883 474.5,354.5C 459.797,364.18 445.13,373.847 430.5,383.5C 444.5,375.833 458.5,368.167 472.5,360.5C 470.26,366.65 467.26,372.316 463.5,377.5C 456.13,382.513 448.796,387.513 441.5,392.5C 448.461,389.353 455.127,385.687 461.5,381.5C 458.052,389.613 453.385,396.947 447.5,403.5C 446.833,403.5 446.5,403.833 446.5,404.5C 445.833,404.5 445.5,404.833 445.5,405.5C 434.219,412.784 423.219,420.451 412.5,428.5C 421.833,423.5 431.167,418.5 440.5,413.5C 404.779,456.034 359.446,482.034 304.5,491.5C 322.167,478.833 339.833,466.167 357.5,453.5C 334.001,466.079 311.001,479.412 288.5,493.5C 279.981,495.457 271.314,496.457 262.5,496.5C 273.833,488.833 285.167,481.167 296.5,473.5C 282.832,480.665 269.499,488.331 256.5,496.5C 249.833,496.5 243.167,496.5 236.5,496.5C 254.5,484.5 272.5,472.5 290.5,460.5C 269.67,471.412 249.336,483.078 229.5,495.5C 224.489,495.666 219.489,495.499 214.5,495C 213.584,494.722 212.918,494.222 212.5,493.5C 235.707,478.735 258.707,463.735 281.5,448.5C 255.832,462.665 230.498,477.332 205.5,492.5C 200.106,492.876 195.106,491.876 190.5,489.5C 219.167,470.833 247.833,452.167 276.5,433.5C 244.832,450.998 213.499,468.998 182.5,487.5C 173.554,485.854 165.22,482.854 157.5,478.5C 195.372,454.736 233.039,430.736 270.5,406.5C 230.166,428.998 190.166,451.998 150.5,475.5C 146.067,474.786 142.4,472.786 139.5,469.5C 153.843,461.331 167.843,452.665 181.5,443.5C 166.5,451.331 151.834,459.664 137.5,468.5C 133.361,467.665 130.028,465.665 127.5,462.5C 161.207,441.986 194.54,420.986 227.5,399.5C 192.365,419.235 157.365,439.235 122.5,459.5C 118.738,457.587 115.071,455.421 111.5,453C 109.101,451.02 107.101,448.853 105.5,446.5C 132.539,430.32 159.206,413.653 185.5,396.5C 157.335,411.746 129.668,427.746 102.5,444.5C 98.8116,442.812 96.1449,440.145 94.5,436.5C 101.77,432.555 108.77,428.222 115.5,423.5C 107.931,427.07 100.597,431.07 93.5,435.5C 87.8333,431.833 83.1667,427.167 79.5,421.5C 96.1667,410.833 112.833,400.167 129.5,389.5C 112.184,399.139 94.8504,408.805 77.5,418.5C 75.9826,418.489 74.8159,417.823 74,416.5C 71.0019,412.008 67.8352,407.675 64.5,403.5C 65.5,403.167 66.1667,402.5 66.5,401.5C 65.5084,401.328 64.8417,401.662 64.5,402.5C 61.7589,400.025 59.7589,397.025 58.5,393.5C 72.0098,386.249 85.0098,378.249 97.5,369.5C 83.9298,376.404 70.5965,383.737 57.5,391.5C 54.5947,389.244 52.928,386.244 52.5,382.5C 96.1774,355.998 139.511,328.998 182.5,301.5C 184.674,301.25 186.341,300.25 187.5,298.5C 188.492,298.672 189.158,298.338 189.5,297.5C 190.167,297.5 190.5,297.167 190.5,296.5C 191.492,296.672 192.158,296.338 192.5,295.5C 193.492,295.672 194.158,295.338 194.5,294.5C 195.167,294.5 195.5,294.167 195.5,293.5C 195.5,292.833 195.833,292.5 196.5,292.5C 196.833,293.833 197.167,293.833 197.5,292.5C 198.167,292.5 198.5,292.167 198.5,291.5C 198.833,291.5 199.167,291.5 199.5,291.5C 200.167,291.5 200.5,291.167 200.5,290.5C 200.5,289.833 200.833,289.5 201.5,289.5C 201.833,290.833 202.167,290.833 202.5,289.5C 202.842,288.662 203.508,288.328 204.5,288.5C 205.167,288.5 205.5,288.167 205.5,287.5C 205.5,286.833 205.833,286.5 206.5,286.5C 220.172,305.683 238.838,313.516 262.5,310C 289.715,306.12 305.882,290.62 311,263.5C 314.643,233.42 302.476,213.087 274.5,202.5C 274.5,201.167 275.167,200.5 276.5,200.5C 277.167,200.5 277.5,200.167 277.5,199.5C 277.833,199.5 278.167,199.5 278.5,199.5C 279.167,199.5 279.5,199.167 279.5,198.5C 280.167,198.5 280.5,198.167 280.5,197.5C 280.833,197.5 281.167,197.5 281.5,197.5C 282.167,197.5 282.5,197.167 282.5,196.5C 282.5,195.833 282.833,195.5 283.5,195.5C 283.833,196.833 284.167,196.833 284.5,195.5C 285.167,195.5 285.5,195.167 285.5,194.5C 285.833,194.5 286.167,194.5 286.5,194.5C 287.167,194.5 287.5,194.167 287.5,193.5C 288.492,193.672 289.158,193.338 289.5,192.5C 290.492,192.672 291.158,192.338 291.5,191.5C 292.167,191.5 292.5,191.167 292.5,190.5C 293.492,190.672 294.158,190.338 294.5,189.5C 296.674,189.25 298.341,188.25 299.5,186.5C 347.302,159.431 394.969,132.098 442.5,104.5 Z M 475.5,165.5 C 475.027,166.906 474.027,167.573 472.5,167.5C 472.973,166.094 473.973,165.427 475.5,165.5 Z M 432.5,177.5 C 432.027,178.906 431.027,179.573 429.5,179.5C 429.973,178.094 430.973,177.427 432.5,177.5 Z M 338.5,217.5 C 337.341,219.25 335.674,220.25 333.5,220.5C 334.659,218.75 336.326,217.75 338.5,217.5 Z M 333.5,220.5 C 333.027,221.906 332.027,222.573 330.5,222.5C 330.973,221.094 331.973,220.427 333.5,220.5 Z M 461.5,283.5 C 461.027,284.906 460.027,285.573 458.5,285.5C 458.973,284.094 459.973,283.427 461.5,283.5 Z M 390.5,343.5 C 390.027,344.906 389.027,345.573 387.5,345.5C 387.973,344.094 388.973,343.427 390.5,343.5 Z M 105.5,364.5 C 105.027,365.906 104.027,366.573 102.5,366.5C 102.973,365.094 103.973,364.427 105.5,364.5 Z M 100.5,367.5 C 100.027,368.906 99.0269,369.573 97.5,369.5C 97.9731,368.094 98.9731,367.427 100.5,367.5 Z M 422.5,371.5 C 422.027,372.906 421.027,373.573 419.5,373.5C 419.973,372.094 420.973,371.427 422.5,371.5 Z M 144.5,380.5 C 144.027,381.906 143.027,382.573 141.5,382.5C 141.973,381.094 142.973,380.427 144.5,380.5 Z M 139.5,383.5 C 138.341,385.25 136.674,386.25 134.5,386.5C 135.659,384.75 137.326,383.75 139.5,383.5 Z M 134.5,386.5 C 133.341,388.25 131.674,389.25 129.5,389.5C 130.659,387.75 132.326,386.75 134.5,386.5 Z M 195.5,390.5 C 195.027,391.906 194.027,392.573 192.5,392.5C 192.973,391.094 193.973,390.427 195.5,390.5 Z M 190.5,393.5 C 189.341,395.25 187.674,396.25 185.5,396.5C 186.659,394.75 188.326,393.75 190.5,393.5 Z M 232.5,396.5 C 232.027,397.906 231.027,398.573 229.5,398.5C 229.973,397.094 230.973,396.427 232.5,396.5 Z M 69.5,399.5 C 69.0269,400.906 68.0269,401.573 66.5,401.5C 66.9731,400.094 67.9731,399.427 69.5,399.5 Z M 273.5,404.5 C 273.027,405.906 272.027,406.573 270.5,406.5C 270.973,405.094 271.973,404.427 273.5,404.5 Z M 118.5,421.5 C 118.027,422.906 117.027,423.573 115.5,423.5C 115.973,422.094 116.973,421.427 118.5,421.5 Z M 281.5,430.5 C 280.341,432.25 278.674,433.25 276.5,433.5C 277.659,431.75 279.326,430.75 281.5,430.5 Z M 186.5,440.5 C 185.341,442.25 183.674,443.25 181.5,443.5C 182.659,441.75 184.326,440.75 186.5,440.5 Z M 286.5,445.5 C 285.341,447.25 283.674,448.25 281.5,448.5C 282.659,446.75 284.326,445.75 286.5,445.5 Z M 293.5,458.5 C 293.027,459.906 292.027,460.573 290.5,460.5C 290.973,459.094 291.973,458.427 293.5,458.5 Z M 299.5,471.5 C 299.027,472.906 298.027,473.573 296.5,473.5C 296.973,472.094 297.973,471.427 299.5,471.5 Z M 296.5,473.5 C 285.167,481.167 273.833,488.833 262.5,496.5C 260.5,496.5 258.5,496.5 256.5,496.5C 269.499,488.331 282.832,480.665 296.5,473.5 Z"/></g>
<g><path style="opacity:0.98" fill="#59bad3" d="M 26.5,152.5 C 26.3404,154.153 25.6737,155.486 24.5,156.5C 24.2291,154.62 24.8958,153.287 26.5,152.5 Z"/></g>
<g><path style="opacity:0.649" fill="#5fc9e6" d="M 18.5,172.5 C 19.1081,174.684 18.4414,176.684 16.5,178.5C 16.0535,175.99 16.7202,173.99 18.5,172.5 Z"/></g>
<g><path style="opacity:0.62" fill="#61cce7" d="M 14.5,187.5 C 14.8294,190.228 14.1628,192.562 12.5,194.5C 10.7471,191.429 11.4138,189.096 14.5,187.5 Z"/></g>
<g><path style="opacity:0.972" fill="#63d8f7" d="M 483.5,187.5 C 485.067,188.681 485.901,190.347 486,192.5C 487.288,197.773 488.122,203.106 488.5,208.5C 483.657,210.418 479.323,213.084 475.5,216.5C 479.966,214.434 484.299,212.1 488.5,209.5C 489.117,209.611 489.617,209.944 490,210.5C 490.498,213.817 490.665,217.15 490.5,220.5C 481.5,225.833 472.5,231.167 463.5,236.5C 459.551,226.528 453.551,217.861 445.5,210.5C 458.167,202.833 470.833,195.167 483.5,187.5 Z M 473.5,217.5 C 473.027,218.906 472.027,219.573 470.5,219.5C 470.973,218.094 471.973,217.427 473.5,217.5 Z"/></g>
<g><path style="opacity:0.998" fill="#272829" d="M 443.5,209.5 C 444.167,209.833 444.833,210.167 445.5,210.5C 453.551,217.861 459.551,226.528 463.5,236.5C 464.11,237.391 464.443,238.391 464.5,239.5C 465.166,247.483 465.499,255.483 465.5,263.5C 465.167,264.833 464.833,266.167 464.5,267.5C 462.168,273.495 459.835,279.495 457.5,285.5C 457.5,285.833 457.5,286.167 457.5,286.5C 440.328,307.312 418.328,314.978 391.5,309.5C 391.167,309.5 390.833,309.5 390.5,309.5C 387.598,308.394 384.598,307.228 381.5,306C 359.903,292.628 350.736,273.128 354,247.5C 357.336,226.616 368.503,211.783 387.5,203C 407.156,196.69 425.823,198.856 443.5,209.5 Z"/></g>
<g><path style="opacity:1" fill="#272829" d="M 274.5,202.5 C 302.476,213.087 314.643,233.42 311,263.5C 305.882,290.62 289.715,306.12 262.5,310C 238.838,313.516 220.172,305.683 206.5,286.5C 199.131,268.707 198.631,250.707 205,232.5C 219.96,203.999 243.126,193.999 274.5,202.5 Z"/></g>
<g><path style="opacity:0.997" fill="#27292a" d="M 138.5,211.5 C 138.833,211.5 139.167,211.5 139.5,211.5C 153.846,224.555 160.179,240.888 158.5,260.5C 158.5,260.833 158.5,261.167 158.5,261.5C 155.432,277.481 147.432,290.314 134.5,300C 118.566,309.086 101.566,311.92 83.5,308.5C 81.4214,308.029 79.4214,307.363 77.5,306.5C 73.5388,304.519 69.5388,302.519 65.5,300.5C 64.5,300.167 63.8333,299.5 63.5,298.5C 55.7652,290.353 50.0985,281.02 46.5,270.5C 46.5,268.5 46.5,266.5 46.5,264.5C 46.5,260.167 46.5,255.833 46.5,251.5C 46.5,250.833 46.5,250.167 46.5,249.5C 47.7441,244.037 49.4108,238.704 51.5,233.5C 51.5,233.167 51.5,232.833 51.5,232.5C 57.673,220.161 67.0064,210.994 79.5,205C 100.177,198.586 119.843,200.753 138.5,211.5 Z M 99.5,298.5 C 98.3406,300.25 96.674,301.25 94.5,301.5C 95.6594,299.75 97.326,298.75 99.5,298.5 Z"/></g>
<g><path style="opacity:0.714" fill="#5dc7e3" d="M 11.5,202.5 C 11.1977,205.373 10.531,208.039 9.5,210.5C 7.76518,207.161 8.43184,204.494 11.5,202.5 Z"/></g>
<g><path style="opacity:0.997" fill="#35b1c6" d="M 134.5,224.5 C 99.3153,250.744 100.315,252.077 137.5,228.5C 147.65,244.228 149.15,260.894 142,278.5C 135.05,293.063 123.55,301.396 107.5,303.5C 112.926,296.57 118.926,290.07 125.5,284C 124.423,283.53 123.423,283.697 122.5,284.5C 121.833,284.5 121.5,284.833 121.5,285.5C 120.167,286.167 118.833,286.833 117.5,287.5C 116.833,287.5 116.5,287.833 116.5,288.5C 116.167,288.5 115.833,288.5 115.5,288.5C 114.833,288.5 114.5,288.833 114.5,289.5C 113.833,289.5 113.5,289.833 113.5,290.5C 113.167,290.5 112.833,290.5 112.5,290.5C 111.833,290.5 111.5,290.833 111.5,291.5C 111.167,291.5 110.833,291.5 110.5,291.5C 109.833,291.5 109.5,291.833 109.5,292.5C 108.833,292.5 108.5,292.833 108.5,293.5C 108.167,293.5 107.833,293.5 107.5,293.5C 106.833,293.5 106.5,293.833 106.5,294.5C 105.508,294.328 104.842,294.662 104.5,295.5C 103.508,295.328 102.842,295.662 102.5,296.5C 101.833,296.5 101.5,296.833 101.5,297.5C 100.508,297.328 99.8417,297.662 99.5,298.5C 97.326,298.75 95.6594,299.75 94.5,301.5C 93.5084,301.328 92.8417,301.662 92.5,302.5C 76.5581,297.891 66.2247,287.558 61.5,271.5C 69.6714,264.833 78.0047,258.333 86.5,252C 77.8007,256.185 69.134,260.685 60.5,265.5C 56.4252,249.293 59.2585,234.293 69,220.5C 80.9808,208.944 95.1474,205.111 111.5,209C 120.989,211.688 128.656,216.854 134.5,224.5 Z M 99.5,298.5 C 98.3406,300.25 96.674,301.25 94.5,301.5C 95.6594,299.75 97.326,298.75 99.5,298.5 Z"/></g>
<g><path style="opacity:0.971" fill="#60d4f3" d="M 262.5,209.5 C 251.704,216.226 240.704,222.393 229.5,228C 235.043,221.961 240.376,215.795 245.5,209.5C 251.136,208.21 256.802,208.21 262.5,209.5 Z"/></g>
<g><path style="opacity:1" fill="#34b0c5" d="M 432.5,217.5 C 423.016,224.416 413.683,231.582 404.5,239C 415.704,233.393 426.704,227.226 437.5,220.5C 442.948,224.721 446.948,230.055 449.5,236.5C 439.061,244.429 428.727,252.595 418.5,261C 419.908,261.315 421.241,260.982 422.5,260C 431.335,254.415 440.335,249.081 449.5,244C 450.337,242.989 450.67,241.822 450.5,240.5C 456.831,259.982 452.831,277.149 438.5,292C 432.905,296.464 426.571,299.297 419.5,300.5C 422.998,296.169 426.998,292.336 431.5,289C 424.027,292.41 416.693,296.41 409.5,301C 410.793,301.49 412.127,301.657 413.5,301.5C 397.277,304.06 384.61,298.393 375.5,284.5C 377.255,283.928 378.922,283.094 380.5,282C 388.833,275 397.167,268 405.5,261C 393.972,266.1 382.972,272.267 372.5,279.5C 369.278,273.296 367.278,266.629 366.5,259.5C 373.32,254.247 379.987,248.747 386.5,243C 379.804,246.136 373.137,249.636 366.5,253.5C 367.954,220.884 384.954,206.384 417.5,210C 421.637,210.934 425.637,212.268 429.5,214C 431.063,214.759 432.063,215.926 432.5,217.5 Z"/></g>
<g><path style="opacity:1" fill="#36b1c7" d="M 245.5,209.5 C 240.376,215.795 235.043,221.961 229.5,228C 240.704,222.393 251.704,216.226 262.5,209.5C 276.163,212.166 286.496,219.499 293.5,231.5C 292.448,231.351 291.448,231.517 290.5,232C 281.458,240.045 272.124,247.711 262.5,255C 272.147,250.002 281.814,244.668 291.5,239C 293.439,238.092 294.439,236.592 294.5,234.5C 296.662,238.14 298.162,242.14 299,246.5C 302.282,266.077 296.449,282.244 281.5,295C 263.803,305.248 246.47,304.914 229.5,294C 224.974,289.765 221.308,284.932 218.5,279.5C 227.67,271.834 237.003,264.334 246.5,257C 236.137,261.685 226.137,267.185 216.5,273.5C 207.812,251.676 211.812,232.509 228.5,216C 233.62,212.35 239.287,210.183 245.5,209.5 Z"/></g>
<g><path style="opacity:0.873" fill="#5cc7e0" d="M 8.5,214.5 C 9.64507,216.953 9.31173,219.287 7.5,221.5C 5.91389,218.784 6.24723,216.45 8.5,214.5 Z"/></g>
<g><path style="opacity:0.989" fill="#60d6f4" d="M 432.5,217.5 C 434.933,217.273 436.599,218.273 437.5,220.5C 426.704,227.226 415.704,233.393 404.5,239C 413.683,231.582 423.016,224.416 432.5,217.5 Z"/></g>
<g><path style="opacity:0.967" fill="#63d8f7" d="M 491.5,224.5 C 492.815,231.629 493.482,238.963 493.5,246.5C 483.862,251.653 474.528,257.32 465.5,263.5C 465.499,255.483 465.166,247.483 464.5,239.5C 473.366,234.234 482.366,229.234 491.5,224.5 Z"/></g>
<g><path style="opacity:1" fill="#60d6f4" d="M 134.5,224.5 C 135.974,225.436 136.974,226.77 137.5,228.5C 100.315,252.077 99.3153,250.744 134.5,224.5 Z"/></g>
<g><path style="opacity:1" fill="#60d6f4" d="M 293.5,231.5 C 294.11,232.391 294.443,233.391 294.5,234.5C 294.439,236.592 293.439,238.092 291.5,239C 281.814,244.668 272.147,250.002 262.5,255C 272.124,247.711 281.458,240.045 290.5,232C 291.448,231.517 292.448,231.351 293.5,231.5 Z"/></g>
<g><path style="opacity:0.809" fill="#61d3f1" d="M 6.5,234.5 C 6.8064,237.385 6.47307,240.052 5.5,242.5C 3.89799,239.466 4.23132,236.799 6.5,234.5 Z"/></g>
<g><path style="opacity:0.961" fill="#63d8f7" d="M 50.5,233.5 C 50.8333,233.5 51.1667,233.5 51.5,233.5C 49.4108,238.704 47.7441,244.037 46.5,249.5C 37.2994,254.596 28.2994,259.93 19.5,265.5C 18.5166,261.702 18.1832,257.702 18.5,253.5C 27.0393,248.402 35.3727,243.069 43.5,237.5C 44.4916,237.672 45.1583,237.338 45.5,236.5C 47.0269,236.573 48.0269,235.906 48.5,234.5C 49.4916,234.672 50.1583,234.338 50.5,233.5 Z"/></g>
<g><path style="opacity:1" fill="#60d6f4" d="M 449.5,236.5 C 450.234,237.708 450.567,239.041 450.5,240.5C 450.67,241.822 450.337,242.989 449.5,244C 440.335,249.081 431.335,254.415 422.5,260C 421.241,260.982 419.908,261.315 418.5,261C 428.727,252.595 439.061,244.429 449.5,236.5 Z"/></g>
<g><path style="opacity:0.846" fill="#65dcf9" d="M 5.5,247.5 C 5.5,250.167 5.5,252.833 5.5,255.5C 2.83333,252.833 2.83333,250.167 5.5,247.5 Z"/></g>
<g><path style="opacity:0.872" fill="#61d7f5" d="M 366.5,259.5 C 366.5,257.5 366.5,255.5 366.5,253.5C 373.137,249.636 379.804,246.136 386.5,243C 379.987,248.747 373.32,254.247 366.5,259.5 Z"/></g>
<g><path style="opacity:0.971" fill="#63d9f7" d="M 493.5,251.5 C 493.5,255.5 493.5,259.5 493.5,263.5C 482.461,269.68 471.794,276.347 461.5,283.5C 459.973,283.427 458.973,284.094 458.5,285.5C 458.167,285.5 457.833,285.5 457.5,285.5C 459.835,279.495 462.168,273.495 464.5,267.5C 474.3,262.433 483.967,257.099 493.5,251.5 Z"/></g>
<g><path style="opacity:0.97" fill="#63d8f7" d="M 46.5,251.5 C 46.5,255.833 46.5,260.167 46.5,264.5C 37.8333,269.5 29.1667,274.5 20.5,279.5C 18.6442,275.676 18.3108,271.676 19.5,267.5C 28.6373,262.43 37.6373,257.097 46.5,251.5 Z"/></g>
<g><path style="opacity:1" fill="#5fd6f4" d="M 61.5,271.5 C 61.1667,269.5 60.8333,267.5 60.5,265.5C 69.134,260.685 77.8007,256.185 86.5,252C 78.0047,258.333 69.6714,264.833 61.5,271.5 Z"/></g>
<g><path style="opacity:1" fill="#60d5f3" d="M 218.5,279.5 C 217.27,277.703 216.604,275.703 216.5,273.5C 226.137,267.185 236.137,261.685 246.5,257C 237.003,264.334 227.67,271.834 218.5,279.5 Z"/></g>
<g><path style="opacity:0.937" fill="#5fdcfa" d="M 5.5,262.5 C 5.5,264.5 5.5,266.5 5.5,268.5C 2.83333,266.5 2.83333,264.5 5.5,262.5 Z"/></g>
<g><path style="opacity:1" fill="#61d7f5" d="M 375.5,284.5 C 374.263,283.035 373.263,281.368 372.5,279.5C 382.972,272.267 393.972,266.1 405.5,261C 397.167,268 388.833,275 380.5,282C 378.922,283.094 377.255,283.928 375.5,284.5 Z"/></g>
<g><path style="opacity:1" fill="#55b1c7" d="M 506.5,263.5 C 507.833,265.5 507.833,267.5 506.5,269.5C 505.167,267.5 505.167,265.5 506.5,263.5 Z"/></g>
<g><path style="opacity:0.743" fill="#62d9f6" d="M 5.5,277.5 C 6.46138,279.265 6.79472,281.265 6.5,283.5C 4.53893,281.68 4.2056,279.68 5.5,277.5 Z"/></g>
<g><path style="opacity:0.97" fill="#63d8f7" d="M 46.5,270.5 C 50.0985,281.02 55.7652,290.353 63.5,298.5C 51.1364,305.01 39.1364,312.01 27.5,319.5C 24.7061,312.885 23.0394,305.885 22.5,298.5C 22.9382,298.565 23.2716,298.399 23.5,298C 21.1839,294.615 20.1839,290.782 20.5,286.5C 29.4361,281.555 38.1028,276.222 46.5,270.5 Z"/></g>
<g><path style="opacity:0.957" fill="#62d9f7" d="M 107.5,303.5 C 102.706,304.097 98.3727,303.43 94.5,301.5C 96.674,301.25 98.3406,300.25 99.5,298.5C 100.492,298.672 101.158,298.338 101.5,297.5C 102.167,297.5 102.5,297.167 102.5,296.5C 103.492,296.672 104.158,296.338 104.5,295.5C 105.492,295.672 106.158,295.338 106.5,294.5C 107.167,294.5 107.5,294.167 107.5,293.5C 107.833,293.5 108.167,293.5 108.5,293.5C 109.167,293.5 109.5,293.167 109.5,292.5C 110.167,292.5 110.5,292.167 110.5,291.5C 110.833,291.5 111.167,291.5 111.5,291.5C 112.167,291.5 112.5,291.167 112.5,290.5C 112.833,290.5 113.167,290.5 113.5,290.5C 114.167,290.5 114.5,290.167 114.5,289.5C 115.167,289.5 115.5,289.167 115.5,288.5C 115.833,288.5 116.167,288.5 116.5,288.5C 117.167,288.5 117.5,288.167 117.5,287.5C 118.833,286.833 120.167,286.167 121.5,285.5C 122.167,285.5 122.5,285.167 122.5,284.5C 123.423,283.697 124.423,283.53 125.5,284C 118.926,290.07 112.926,296.57 107.5,303.5 Z"/></g>
<g><path style="opacity:0.992" fill="#50a0b4" d="M 504.5,284.5 C 505.72,286.05 505.72,287.716 504.5,289.5C 503.167,287.833 503.167,286.167 504.5,284.5 Z"/></g>
<g><path style="opacity:1" fill="#60d6f4" d="M 419.5,300.5 C 417.621,301.341 415.621,301.675 413.5,301.5C 412.127,301.657 410.793,301.49 409.5,301C 416.693,296.41 424.027,292.41 431.5,289C 426.998,292.336 422.998,296.169 419.5,300.5 Z"/></g>
<g><path style="opacity:0.968" fill="#63d9f8" d="M 65.5,300.5 C 69.5388,302.519 73.5388,304.519 77.5,306.5C 62.531,315.989 47.1977,324.989 31.5,333.5C 29.5902,330.548 28.5902,327.214 28.5,323.5C 41.0373,316.07 53.3706,308.403 65.5,300.5 Z"/></g>
<g><path style="opacity:0.38" fill="#51a1b5" d="M 503.5,296.5 C 503.675,298.621 503.341,300.621 502.5,302.5C 501.206,300.32 501.539,298.32 503.5,296.5 Z"/></g>
<g><path style="opacity:0.192" fill="#5fc9e8" d="M 498.5,318.5 C 499.471,319.962 499.138,321.295 497.5,322.5C 497.232,320.901 497.566,319.568 498.5,318.5 Z"/></g>
<g><path style="opacity:0.649" fill="#5ec8e4" d="M 232.5,504.5 C 235.059,504.198 237.393,504.532 239.5,505.5C 236.784,507.086 234.45,506.753 232.5,504.5 Z"/></g>
<g><path style="opacity:0.825" fill="#65d8f8" d="M 258.5,505.5 C 260.833,505.5 263.167,505.5 265.5,505.5C 263.084,508.034 260.75,508.034 258.5,505.5 Z"/></g>
</svg>
