<?xml version="1.0" encoding="UTF-8"?>
<!DOCTYPE svg PUBLIC "-//W3C//DTD SVG 1.1//EN" "http://www.w3.org/Graphics/SVG/1.1/DTD/svg11.dtd">
<svg xmlns="http://www.w3.org/2000/svg" version="1.1" width="512px" height="512px" style="shape-rendering:geometricPrecision; text-rendering:geometricPrecision; image-rendering:optimizeQuality; fill-rule:evenodd; clip-rule:evenodd" xmlns:xlink="http://www.w3.org/1999/xlink">
<g><path style="opacity:0.775" fill="#eabb39" d="M 269.5,7.5 C 265.629,7.81497 261.962,7.48164 258.5,6.5C 260.581,5.3773 262.747,4.3773 265,3.5C 267.305,3.97331 268.805,5.30665 269.5,7.5 Z"/></g>
<g><path style="opacity:0.799" fill="#f7c939" d="M 248.5,6.5 C 245.5,6.5 242.5,6.5 239.5,6.5C 242.687,2.84536 245.687,2.84536 248.5,6.5 Z"/></g>
<g><path style="opacity:0.969" fill="#282827" d="M 239.5,6.5 C 242.5,6.5 245.5,6.5 248.5,6.5C 251.833,6.5 255.167,6.5 258.5,6.5C 261.962,7.48164 265.629,7.81497 269.5,7.5C 274.516,8.05822 279.516,8.72489 284.5,9.5C 287.495,11.2429 290.829,12.2429 294.5,12.5C 295.833,12.5 297.167,12.5 298.5,12.5C 300.763,14.3826 303.43,15.7159 306.5,16.5C 307.107,16.3764 307.44,16.0431 307.5,15.5C 311.162,16.8319 314.828,18.1652 318.5,19.5C 320.789,21.3873 323.455,22.7206 326.5,23.5C 327.609,23.5569 328.609,23.8902 329.5,24.5C 331.849,26.341 334.515,27.6743 337.5,28.5C 339.713,29.7729 342.046,30.7729 344.5,31.5C 345.948,34.264 348.281,35.9307 351.5,36.5C 354.5,38.5 357.5,40.5 360.5,42.5C 361.585,44.5869 363.251,45.9202 365.5,46.5C 421.163,91.6853 437.997,148.685 416,217.5C 412.788,226.512 408.955,235.179 404.5,243.5C 402.674,245.147 401.34,247.147 400.5,249.5C 391.565,267.683 379.065,283.016 363,295.5C 356.229,304.045 351.895,313.712 350,324.5C 349.181,337.856 348.181,351.189 347,364.5C 345.772,369.962 343.272,374.629 339.5,378.5C 337.852,379.81 336.186,381.143 334.5,382.5C 334.624,383.107 334.957,383.44 335.5,383.5C 341.485,403.671 341.985,424.005 337,444.5C 335.744,448.016 333.744,451.016 331,453.5C 331.204,460.555 329.204,466.888 325,472.5C 316.406,479.882 307.906,487.382 299.5,495C 295.036,498.565 290.036,501.065 284.5,502.5C 280.514,503.329 276.514,504.163 272.5,505C 271.944,505.383 271.611,505.883 271.5,506.5C 258.505,507.667 245.505,507.667 232.5,506.5C 231.22,505.069 229.553,504.402 227.5,504.5C 208.309,497.801 193.475,485.801 183,468.5C 181.368,463.97 180.368,459.304 180,454.5C 175.503,450.507 172.836,445.507 172,439.5C 169.323,421.404 170.489,403.571 175.5,386C 169.822,382.652 165.988,377.819 164,371.5C 163.524,356.163 162.857,340.83 162,325.5C 148.069,305.295 133.903,285.295 119.5,265.5C 119.573,263.973 118.906,262.973 117.5,262.5C 99.8648,239.877 89.3648,214.211 86,185.5C 85.7456,154.185 92.5789,124.519 106.5,96.5C 107.906,96.0269 108.573,95.0269 108.5,93.5C 135.424,39.8356 179.091,10.8356 239.5,6.5 Z M 263.5,15.5 C 266.5,15.5 269.5,15.5 272.5,15.5C 255.501,26.0019 238.168,36.0019 220.5,45.5C 234.621,35.2662 248.955,25.2662 263.5,15.5 Z M 218.5,17.5 C 206.168,25.3351 193.502,32.6684 180.5,39.5C 187.5,33.5 194.5,27.5 201.5,21.5C 207.126,20.0101 212.793,18.6768 218.5,17.5 Z M 301.5,22.5 C 303.894,23.0147 306.228,23.6814 308.5,24.5C 286.834,37.6687 264.834,50.3354 242.5,62.5C 261.957,48.9321 281.623,35.5988 301.5,22.5 Z M 331.5,34.5 C 332.833,35.1667 334.167,35.8333 335.5,36.5C 316.331,48.588 296.665,59.9213 276.5,70.5C 294.626,58.2647 312.959,46.2647 331.5,34.5 Z M 345.5,43.5 C 347.483,44.4706 349.483,45.4706 351.5,46.5C 323.834,63.0024 295.834,79.0024 267.5,94.5C 293.15,77.0054 319.15,60.0054 345.5,43.5 Z M 220.5,45.5 C 220.027,46.9063 219.027,47.573 217.5,47.5C 217.973,46.0937 218.973,45.427 220.5,45.5 Z M 359.5,53.5 C 360.833,54.1667 361.833,55.1667 362.5,56.5C 341.689,69.6242 320.355,81.9575 298.5,93.5C 318.662,79.918 338.996,66.5847 359.5,53.5 Z M 276.5,70.5 C 276.027,71.9063 275.027,72.573 273.5,72.5C 273.973,71.0937 274.973,70.427 276.5,70.5 Z M 377.5,71.5 C 378.803,73.1423 380.136,74.8089 381.5,76.5C 350.635,94.4315 319.635,112.098 288.5,129.5C 288.167,129.5 287.833,129.5 287.5,129.5C 317.152,109.671 347.152,90.3378 377.5,71.5 Z M 147.5,82.5 C 136.363,91.2382 124.696,99.2382 112.5,106.5C 112.629,104.784 112.962,103.117 113.5,101.5C 124.85,95.1386 136.184,88.8053 147.5,82.5 Z M 298.5,93.5 C 298.027,94.9063 297.027,95.573 295.5,95.5C 295.973,94.0937 296.973,93.427 298.5,93.5 Z M 393.5,93.5 C 393.833,94.8333 394.167,96.1667 394.5,97.5C 377.563,107.641 360.563,117.807 343.5,128C 340.702,129.914 337.702,130.914 334.5,131C 354.195,118.489 373.862,105.989 393.5,93.5 Z M 267.5,94.5 C 267.027,95.9063 266.027,96.573 264.5,96.5C 264.973,95.0937 265.973,94.427 267.5,94.5 Z M 159.5,104.5 C 159.027,105.906 158.027,106.573 156.5,106.5C 156.973,105.094 157.973,104.427 159.5,104.5 Z M 156.5,106.5 C 139.044,118.734 121.377,130.734 103.5,142.5C 103.674,140.139 104.007,137.806 104.5,135.5C 121.85,125.805 139.184,116.139 156.5,106.5 Z M 399.5,107.5 C 399.833,108.167 400.167,108.833 400.5,109.5C 389.462,116.352 378.129,122.686 366.5,128.5C 376.984,120.754 387.984,113.754 399.5,107.5 Z M 366.5,128.5 C 365.341,130.25 363.674,131.25 361.5,131.5C 362.659,129.75 364.326,128.75 366.5,128.5 Z M 406.5,129.5 C 406.833,130.833 407.167,132.167 407.5,133.5C 388.15,144.528 368.816,155.528 349.5,166.5C 350.167,165.5 350.833,164.5 351.5,163.5C 369.833,152.167 388.167,140.833 406.5,129.5 Z M 154.5,136.5 C 154.027,137.906 153.027,138.573 151.5,138.5C 151.973,137.094 152.973,136.427 154.5,136.5 Z M 151.5,138.5 C 150.341,140.25 148.674,141.25 146.5,141.5C 147.659,139.75 149.326,138.75 151.5,138.5 Z M 146.5,141.5 C 131.709,151.735 116.709,161.735 101.5,171.5C 101.5,169.833 101.5,168.167 101.5,166.5C 116.366,157.901 131.366,149.568 146.5,141.5 Z M 155.5,152.5 C 155.5,153.5 155.5,154.5 155.5,155.5C 137.833,166.833 120.167,178.167 102.5,189.5C 102.5,187.167 102.5,184.833 102.5,182.5C 120.302,172.765 137.968,162.765 155.5,152.5 Z M 410.5,156.5 C 410.5,157.833 410.5,159.167 410.5,160.5C 396.301,168.766 381.968,176.766 367.5,184.5C 381.626,174.931 395.959,165.598 410.5,156.5 Z M 160.5,168.5 C 161.167,168.5 161.5,168.833 161.5,169.5C 142.5,181.5 123.5,193.5 104.5,205.5C 104.567,204.041 104.234,202.708 103.5,201.5C 122.336,190.247 141.336,179.247 160.5,168.5 Z M 196.5,174.5 C 197.167,174.5 197.833,174.5 198.5,174.5C 169.793,193.86 140.793,212.86 111.5,231.5C 111.029,229.421 110.363,227.421 109.5,225.5C 138.664,208.752 167.664,191.752 196.5,174.5 Z M 409.5,184.5 C 408.85,186.435 408.517,188.435 408.5,190.5C 392.006,199.246 375.673,208.246 359.5,217.5C 375.787,206.016 392.454,195.016 409.5,184.5 Z M 405.5,204.5 C 405.483,206.565 405.15,208.565 404.5,210.5C 384.968,221.766 365.301,232.766 345.5,243.5C 365.151,230.005 385.151,217.005 405.5,204.5 Z M 189.5,211.5 C 168.437,225.893 147.104,239.893 125.5,253.5C 124.512,252.205 123.512,250.872 122.5,249.5C 144.698,236.568 167.032,223.902 189.5,211.5 Z M 357.5,218.5 C 357.027,219.906 356.027,220.573 354.5,220.5C 354.973,219.094 355.973,218.427 357.5,218.5 Z M 168.5,240.5 C 168.027,241.906 167.027,242.573 165.5,242.5C 165.973,241.094 166.973,240.427 168.5,240.5 Z M 211.5,241.5 C 190.792,255.527 169.792,269.193 148.5,282.5C 147.5,281.167 146.5,279.833 145.5,278.5C 167.5,266.167 189.5,253.833 211.5,241.5 Z M 165.5,242.5 C 154.87,249.487 144.203,256.487 133.5,263.5C 132.5,263.167 131.833,262.5 131.5,261.5C 142.538,254.648 153.871,248.314 165.5,242.5 Z M 345.5,243.5 C 345.027,244.906 344.027,245.573 342.5,245.5C 342.973,244.094 343.973,243.427 345.5,243.5 Z M 382.5,261.5 C 379.996,265.828 376.996,269.828 373.5,273.5C 357.994,282.42 342.328,291.087 326.5,299.5C 344.87,286.475 363.537,273.808 382.5,261.5 Z M 209.5,272.5 C 194.774,282.553 179.774,292.22 164.5,301.5C 163.5,301.167 162.833,300.5 162.5,299.5C 177.904,290.108 193.57,281.108 209.5,272.5 Z M 230.5,287.5 C 230.027,288.906 229.027,289.573 227.5,289.5C 227.973,288.094 228.973,287.427 230.5,287.5 Z M 159.5,288.5 C 158.564,289.974 157.23,290.974 155.5,291.5C 155.5,291.167 155.5,290.833 155.5,290.5C 156.514,289.326 157.847,288.66 159.5,288.5 Z M 227.5,289.5 C 210.545,301.317 193.212,312.651 175.5,323.5C 175.567,322.041 175.234,320.708 174.5,319.5C 192.032,309.235 209.698,299.235 227.5,289.5 Z M 326.5,299.5 C 326.027,300.906 325.027,301.573 323.5,301.5C 323.973,300.094 324.973,299.427 326.5,299.5 Z M 232.5,303.5 C 232.5,303.833 232.5,304.167 232.5,304.5C 214.107,316.887 195.44,328.887 176.5,340.5C 176.833,338.5 177.167,336.5 177.5,334.5C 195.699,323.901 214.032,313.568 232.5,303.5 Z M 257.5,332.5 C 234.797,348.525 211.797,364.191 188.5,379.5C 186.228,378.559 184.228,377.226 182.5,375.5C 207.237,360.775 232.237,346.442 257.5,332.5 Z M 334.5,332.5 C 334.5,333.5 334.5,334.5 334.5,335.5C 331.15,337.196 327.817,338.863 324.5,340.5C 327.52,337.484 330.854,334.817 334.5,332.5 Z M 324.5,340.5 C 324.027,341.906 323.027,342.573 321.5,342.5C 321.973,341.094 322.973,340.427 324.5,340.5 Z M 334.5,349.5 C 334.5,351.167 334.5,352.833 334.5,354.5C 330.299,357.1 325.966,359.434 321.5,361.5C 325.807,357.528 330.141,353.528 334.5,349.5 Z M 297.5,368.5 C 294.14,372.527 290.473,376.194 286.5,379.5C 283.833,379.5 281.167,379.5 278.5,379.5C 284.662,375.584 290.995,371.917 297.5,368.5 Z M 267.5,369.5 C 263.5,372.833 259.5,376.167 255.5,379.5C 253.5,379.5 251.5,379.5 249.5,379.5C 255.17,375.663 261.17,372.33 267.5,369.5 Z M 318.5,375.5 C 318.267,377.062 317.6,378.395 316.5,379.5C 314.833,379.5 313.167,379.5 311.5,379.5C 313.635,377.929 315.968,376.596 318.5,375.5 Z M 195.5,386.5 C 196.5,386.5 197.5,386.5 198.5,386.5C 197.5,387.833 196.5,389.167 195.5,390.5C 190.486,395.113 189.486,394.446 192.5,388.5C 194.027,388.573 195.027,387.906 195.5,386.5 Z M 306.5,387.5 C 307.5,387.5 308.5,387.5 309.5,387.5C 307.396,389.583 307.062,391.917 308.5,394.5C 299.167,399.5 289.833,404.5 280.5,409.5C 288.873,401.791 297.54,394.458 306.5,387.5 Z M 275.5,388.5 C 274.62,390.611 274.62,392.611 275.5,394.5C 266.634,399.766 257.634,404.766 248.5,409.5C 257.208,402.125 266.208,395.125 275.5,388.5 Z M 241.5,390.5 C 241.629,392.216 241.962,393.883 242.5,395.5C 236.965,398.767 231.298,401.767 225.5,404.5C 230.512,399.49 235.845,394.823 241.5,390.5 Z M 326.5,397.5 C 325.85,399.435 325.517,401.435 325.5,403.5C 319.5,407.167 313.5,410.833 307.5,414.5C 306.833,414.5 306.167,414.5 305.5,414.5C 312.205,408.461 319.205,402.794 326.5,397.5 Z M 280.5,409.5 C 280.027,410.906 279.027,411.573 277.5,411.5C 277.973,410.094 278.973,409.427 280.5,409.5 Z M 190.5,420.5 C 189.167,422.5 187.5,424.167 185.5,425.5C 184.833,421.5 186.5,419.833 190.5,420.5 Z M 245.5,423.5 C 245.027,424.906 244.027,425.573 242.5,425.5C 242.973,424.094 243.973,423.427 245.5,423.5 Z M 276.5,424.5 C 271.695,429.134 266.695,433.634 261.5,438C 255.591,441.426 249.591,444.592 243.5,447.5C 242.5,447.5 241.5,447.5 240.5,447.5C 240.971,446.099 241.638,444.766 242.5,443.5C 253.867,437.111 265.201,430.777 276.5,424.5 Z M 242.5,425.5 C 234.836,432.491 226.836,439.157 218.5,445.5C 217.77,443.659 217.103,441.825 216.5,440C 224.818,434.509 233.485,429.676 242.5,425.5 Z M 209.5,426.5 C 204.312,430.696 199.145,435.029 194,439.5C 190.969,438.733 188.136,439.4 185.5,441.5C 185.5,440.833 185.5,440.167 185.5,439.5C 193.208,434.646 201.208,430.312 209.5,426.5 Z M 311.5,436.5 C 312.559,438.07 312.059,439.403 310,440.5C 309.5,440 309,439.5 308.5,439C 309.571,438.148 310.571,437.315 311.5,436.5 Z M 297.5,455.5 C 298.833,455.5 300.167,455.5 301.5,455.5C 298.669,457.417 295.669,459.083 292.5,460.5C 293.973,458.605 295.64,456.939 297.5,455.5 Z M 214.5,476.5 C 213.5,477.833 212.5,479.167 211.5,480.5C 210.5,480.167 209.833,479.5 209.5,478.5C 211.167,477.833 212.833,477.167 214.5,476.5 Z M 244.5,484.5 C 240.485,488.513 236.152,492.179 231.5,495.5C 229.847,495.34 228.514,494.674 227.5,493.5C 233.325,490.755 238.992,487.755 244.5,484.5 Z M 261.5,490.5 C 257.833,493.833 254.167,497.167 250.5,500.5C 248.5,500.5 246.5,500.5 244.5,500.5C 249.994,496.918 255.661,493.585 261.5,490.5 Z"/></g>
<g><path style="opacity:0.819" fill="#eabc39" d="M 294.5,12.5 C 290.829,12.2429 287.495,11.2429 284.5,9.5C 286.795,7.61501 289.462,7.11501 292.5,8C 294.037,9.10963 294.703,10.6096 294.5,12.5 Z"/></g>
<g><path style="opacity:0.791" fill="#e8bb39" d="M 307.5,15.5 C 307.44,16.0431 307.107,16.3764 306.5,16.5C 303.43,15.7159 300.763,14.3826 298.5,12.5C 303.206,9.08352 306.206,10.0835 307.5,15.5 Z"/></g>
<g><path style="opacity:0.968" fill="#f6c53a" d="M 263.5,15.5 C 248.955,25.2662 234.621,35.2662 220.5,45.5C 238.168,36.0019 255.501,26.0019 272.5,15.5C 282.631,16.4543 292.297,18.7876 301.5,22.5C 281.623,35.5988 261.957,48.9321 242.5,62.5C 264.834,50.3354 286.834,37.6687 308.5,24.5C 310.564,24.687 312.564,25.187 314.5,26C 320.49,28.3731 326.156,31.2064 331.5,34.5C 312.959,46.2647 294.626,58.2647 276.5,70.5C 296.665,59.9213 316.331,48.588 335.5,36.5C 339.604,37.8727 342.938,40.206 345.5,43.5C 319.15,60.0054 293.15,77.0054 267.5,94.5C 295.834,79.0024 323.834,63.0024 351.5,46.5C 354.83,48.1691 357.497,50.5025 359.5,53.5C 338.996,66.5847 318.662,79.918 298.5,93.5C 320.355,81.9575 341.689,69.6242 362.5,56.5C 368.605,60.3602 373.605,65.3602 377.5,71.5C 347.152,90.3378 317.152,109.671 287.5,129.5C 267.877,130.393 248.21,131.56 228.5,133C 209.974,133.383 191.641,133.383 173.5,133C 164.209,136.458 158.209,142.958 155.5,152.5C 137.968,162.765 120.302,172.765 102.5,182.5C 101.518,179.038 101.185,175.371 101.5,171.5C 116.709,161.735 131.709,151.735 146.5,141.5C 131.366,149.568 116.366,157.901 101.5,166.5C 101.334,159.825 101.5,153.158 102,146.5C 102.41,145.099 102.91,143.766 103.5,142.5C 121.377,130.734 139.044,118.734 156.5,106.5C 139.184,116.139 121.85,125.805 104.5,135.5C 104.966,125.635 107.3,116.302 111.5,107.5C 112.167,107.5 112.5,107.167 112.5,106.5C 124.696,99.2382 136.363,91.2382 147.5,82.5C 136.184,88.8053 124.85,95.1386 113.5,101.5C 120.646,82.1896 131.979,65.8563 147.5,52.5C 148.167,52.5 148.5,52.1667 148.5,51.5C 149.167,51.5 149.5,51.1667 149.5,50.5C 164.07,36.2069 181.404,26.5402 201.5,21.5C 194.5,27.5 187.5,33.5 180.5,39.5C 193.502,32.6684 206.168,25.3351 218.5,17.5C 229.655,15.0373 240.989,13.7039 252.5,13.5C 256.428,13.4537 260.095,14.1204 263.5,15.5 Z M 263.5,15.5 C 266.5,15.5 269.5,15.5 272.5,15.5C 255.501,26.0019 238.168,36.0019 220.5,45.5C 234.621,35.2662 248.955,25.2662 263.5,15.5 Z M 220.5,45.5 C 220.027,46.9063 219.027,47.573 217.5,47.5C 217.973,46.0937 218.973,45.427 220.5,45.5 Z M 276.5,70.5 C 276.027,71.9063 275.027,72.573 273.5,72.5C 273.973,71.0937 274.973,70.427 276.5,70.5 Z M 298.5,93.5 C 298.027,94.9063 297.027,95.573 295.5,95.5C 295.973,94.0937 296.973,93.427 298.5,93.5 Z M 267.5,94.5 C 267.027,95.9063 266.027,96.573 264.5,96.5C 264.973,95.0937 265.973,94.427 267.5,94.5 Z M 159.5,104.5 C 159.027,105.906 158.027,106.573 156.5,106.5C 156.973,105.094 157.973,104.427 159.5,104.5 Z M 154.5,136.5 C 154.027,137.906 153.027,138.573 151.5,138.5C 151.973,137.094 152.973,136.427 154.5,136.5 Z M 151.5,138.5 C 150.341,140.25 148.674,141.25 146.5,141.5C 147.659,139.75 149.326,138.75 151.5,138.5 Z"/></g>
<g><path style="opacity:0.875" fill="#eec038" d="M 326.5,23.5 C 323.455,22.7206 320.789,21.3873 318.5,19.5C 320.628,18.3709 322.961,18.2042 325.5,19C 326.38,20.3561 326.714,21.8561 326.5,23.5 Z"/></g>
<g><path style="opacity:0.901" fill="#eebf3a" d="M 337.5,28.5 C 334.515,27.6743 331.849,26.341 329.5,24.5C 333.863,22.3451 336.53,23.6785 337.5,28.5 Z"/></g>
<g><path style="opacity:0.744" fill="#ebbd39" d="M 344.5,31.5 C 348.237,31.2407 350.57,32.9074 351.5,36.5C 348.281,35.9307 345.948,34.264 344.5,31.5 Z"/></g>
<g><path style="opacity:0.548" fill="#e7ba38" d="M 360.5,42.5 C 363.367,42.3692 365.033,43.7026 365.5,46.5C 363.251,45.9202 361.585,44.5869 360.5,42.5 Z"/></g>
<g><path style="opacity:0.946" fill="#f5c53a" d="M 381.5,76.5 C 384.449,78.3727 386.449,81.0393 387.5,84.5C 389.799,86.6147 391.799,89.6147 393.5,93.5C 373.862,105.989 354.195,118.489 334.5,131C 337.702,130.914 340.702,129.914 343.5,128C 360.563,117.807 377.563,107.641 394.5,97.5C 397.291,100.168 398.958,103.502 399.5,107.5C 387.984,113.754 376.984,120.754 366.5,128.5C 378.129,122.686 389.462,116.352 400.5,109.5C 403.886,115.666 405.886,122.333 406.5,129.5C 388.167,140.833 369.833,152.167 351.5,163.5C 353.127,159.452 354.46,155.285 355.5,151C 354.561,146.284 352.228,142.451 348.5,139.5C 340.931,135.938 332.931,133.605 324.5,132.5C 312.367,131.257 300.367,130.257 288.5,129.5C 319.635,112.098 350.635,94.4315 381.5,76.5 Z M 366.5,128.5 C 365.341,130.25 363.674,131.25 361.5,131.5C 362.659,129.75 364.326,128.75 366.5,128.5 Z"/></g>
<g><path style="opacity:0.737" fill="#b79534" d="M 108.5,93.5 C 108.573,95.0269 107.906,96.0269 106.5,96.5C 106.427,94.9731 107.094,93.9731 108.5,93.5 Z"/></g>
<g><path style="opacity:0.999" fill="#292826" d="M 287.5,129.5 C 287.833,129.5 288.167,129.5 288.5,129.5C 300.367,130.257 312.367,131.257 324.5,132.5C 332.931,133.605 340.931,135.938 348.5,139.5C 352.228,142.451 354.561,146.284 355.5,151C 354.46,155.285 353.127,159.452 351.5,163.5C 350.833,164.5 350.167,165.5 349.5,166.5C 348.833,166.5 348.5,166.833 348.5,167.5C 345.45,169.692 342.117,171.358 338.5,172.5C 338.167,172.5 337.833,172.5 337.5,172.5C 330.404,173.782 323.238,174.449 316,174.5C 303.51,173.76 291.01,173.426 278.5,173.5C 278.667,216.168 278.5,258.835 278,301.5C 273.764,312.299 265.764,317.966 254,318.5C 249.495,318.554 245.328,317.387 241.5,315C 237.886,311.897 234.886,308.397 232.5,304.5C 232.5,304.167 232.5,303.833 232.5,303.5C 232.821,297.974 232.488,292.64 231.5,287.5C 231.5,287.167 231.5,286.833 231.5,286.5C 232.085,267.24 232.085,247.907 231.5,228.5C 232.497,210.341 232.83,192.008 232.5,173.5C 221.986,173.172 211.653,173.506 201.5,174.5C 200.5,174.5 199.5,174.5 198.5,174.5C 197.833,174.5 197.167,174.5 196.5,174.5C 187.797,174.645 179.13,174.145 170.5,173C 167.691,171.259 164.691,170.092 161.5,169.5C 161.5,168.833 161.167,168.5 160.5,168.5C 158.37,164.289 156.704,159.956 155.5,155.5C 155.5,154.5 155.5,153.5 155.5,152.5C 158.209,142.958 164.209,136.458 173.5,133C 191.641,133.383 209.974,133.383 228.5,133C 248.21,131.56 267.877,130.393 287.5,129.5 Z"/></g>
<g><path style="opacity:0.97" fill="#f6c53a" d="M 407.5,133.5 C 409.217,136.845 409.884,140.511 409.5,144.5C 407.15,145.11 407.483,145.444 410.5,145.5C 410.5,149.167 410.5,152.833 410.5,156.5C 395.959,165.598 381.626,174.931 367.5,184.5C 381.968,176.766 396.301,168.766 410.5,160.5C 411.306,168.418 410.972,176.418 409.5,184.5C 392.454,195.016 375.787,206.016 359.5,217.5C 375.673,208.246 392.006,199.246 408.5,190.5C 408.156,194.894 407.49,199.228 406.5,203.5C 405.833,203.5 405.5,203.833 405.5,204.5C 385.151,217.005 365.151,230.005 345.5,243.5C 365.301,232.766 384.968,221.766 404.5,210.5C 403.835,216.2 402.502,221.2 400.5,225.5C 398.688,233.103 396.188,240.436 393,247.5C 390.695,253.13 387.195,257.797 382.5,261.5C 363.537,273.808 344.87,286.475 326.5,299.5C 342.328,291.087 357.994,282.42 373.5,273.5C 365.874,282.296 358.04,290.963 350,299.5C 342.67,309.494 337.503,320.494 334.5,332.5C 330.854,334.817 327.52,337.484 324.5,340.5C 327.817,338.863 331.15,337.196 334.5,335.5C 334.5,340.167 334.5,344.833 334.5,349.5C 330.141,353.528 325.807,357.528 321.5,361.5C 325.966,359.434 330.299,357.1 334.5,354.5C 336.745,363.701 335.078,372.201 329.5,380C 324.98,380.814 320.646,380.647 316.5,379.5C 317.6,378.395 318.267,377.062 318.5,375.5C 315.968,376.596 313.635,377.929 311.5,379.5C 303.167,379.5 294.833,379.5 286.5,379.5C 290.473,376.194 294.14,372.527 297.5,368.5C 290.995,371.917 284.662,375.584 278.5,379.5C 270.833,379.5 263.167,379.5 255.5,379.5C 259.5,376.167 263.5,372.833 267.5,369.5C 261.17,372.33 255.17,375.663 249.5,379.5C 235.757,380.825 222.423,380.825 209.5,379.5C 202.371,380.777 195.371,380.777 188.5,379.5C 211.797,364.191 234.797,348.525 257.5,332.5C 232.237,346.442 207.237,360.775 182.5,375.5C 179.55,373.272 177.884,370.272 177.5,366.5C 177.938,366.565 178.272,366.399 178.5,366C 175.378,362.325 174.711,358.158 176.5,353.5C 179.167,353.167 179.167,352.833 176.5,352.5C 176.5,348.5 176.5,344.5 176.5,340.5C 195.44,328.887 214.107,316.887 232.5,304.5C 234.886,308.397 237.886,311.897 241.5,315C 245.328,317.387 249.495,318.554 254,318.5C 265.764,317.966 273.764,312.299 278,301.5C 278.5,258.835 278.667,216.168 278.5,173.5C 291.01,173.426 303.51,173.76 316,174.5C 323.238,174.449 330.404,173.782 337.5,172.5C 337.833,173.833 338.167,173.833 338.5,172.5C 342.117,171.358 345.45,169.692 348.5,167.5C 349.167,167.5 349.5,167.167 349.5,166.5C 368.816,155.528 388.15,144.528 407.5,133.5 Z M 357.5,218.5 C 357.027,219.906 356.027,220.573 354.5,220.5C 354.973,219.094 355.973,218.427 357.5,218.5 Z M 345.5,243.5 C 345.027,244.906 344.027,245.573 342.5,245.5C 342.973,244.094 343.973,243.427 345.5,243.5 Z M 326.5,299.5 C 326.027,300.906 325.027,301.573 323.5,301.5C 323.973,300.094 324.973,299.427 326.5,299.5 Z M 324.5,340.5 C 324.027,341.906 323.027,342.573 321.5,342.5C 321.973,341.094 322.973,340.427 324.5,340.5 Z M 297.5,368.5 C 294.14,372.527 290.473,376.194 286.5,379.5C 283.833,379.5 281.167,379.5 278.5,379.5C 284.662,375.584 290.995,371.917 297.5,368.5 Z M 267.5,369.5 C 263.5,372.833 259.5,376.167 255.5,379.5C 253.5,379.5 251.5,379.5 249.5,379.5C 255.17,375.663 261.17,372.33 267.5,369.5 Z M 318.5,375.5 C 318.267,377.062 317.6,378.395 316.5,379.5C 314.833,379.5 313.167,379.5 311.5,379.5C 313.635,377.929 315.968,376.596 318.5,375.5 Z"/></g>
<g><path style="opacity:1" fill="#e0a630" d="M 253.5,139.5 C 250.813,139.336 248.146,139.503 245.5,140C 241.156,144.648 237.823,149.481 235.5,154.5C 243.167,150 250.833,145.5 258.5,141C 257.584,140.722 256.918,140.222 256.5,139.5C 281.145,140.041 305.812,140.207 330.5,140C 341.768,143.554 345.268,150.72 341,161.5C 339.457,163.378 337.624,164.878 335.5,166C 329.362,166.849 323.195,167.349 317,167.5C 304.521,166.213 292.021,165.713 279.5,166C 274.795,166.677 270.628,168.51 267,171.5C 266.811,205.835 266.811,240.169 267,274.5C 266.519,285.791 265.352,296.958 263.5,308C 256.525,312.373 251.359,310.873 248,303.5C 246.708,299.916 245.708,296.249 245,292.5C 243.039,256.832 243.206,221.166 245.5,185.5C 245.167,179.833 244.833,174.167 244.5,168.5C 234.994,165.435 225.328,164.768 215.5,166.5C 215.351,165.448 215.517,164.448 216,163.5C 219.286,159.759 222.453,155.925 225.5,152C 215.802,156.352 206.469,161.519 197.5,167.5C 187.11,169.575 178.277,166.909 171,159.5C 166.942,153.347 167.775,148.18 173.5,144C 180.095,140.601 187.095,138.601 194.5,138C 214.353,137.265 234.02,137.765 253.5,139.5 Z"/></g>
<g><path style="opacity:1" fill="#f6c43a" d="M 253.5,139.5 C 254.5,139.5 255.5,139.5 256.5,139.5C 256.918,140.222 257.584,140.722 258.5,141C 250.833,145.5 243.167,150 235.5,154.5C 237.823,149.481 241.156,144.648 245.5,140C 248.146,139.503 250.813,139.336 253.5,139.5 Z"/></g>
<g><path style="opacity:0.978" fill="#f3c23a" d="M 215.5,166.5 C 209.523,167.165 203.523,167.498 197.5,167.5C 206.469,161.519 215.802,156.352 225.5,152C 222.453,155.925 219.286,159.759 216,163.5C 215.517,164.448 215.351,165.448 215.5,166.5 Z"/></g>
<g><path style="opacity:0.939" fill="#f5c53a" d="M 155.5,155.5 C 156.704,159.956 158.37,164.289 160.5,168.5C 141.336,179.247 122.336,190.247 103.5,201.5C 102.57,197.6 102.237,193.6 102.5,189.5C 120.167,178.167 137.833,166.833 155.5,155.5 Z"/></g>
<g><path style="opacity:0.963" fill="#f6c53a" d="M 161.5,169.5 C 164.691,170.092 167.691,171.259 170.5,173C 179.13,174.145 187.797,174.645 196.5,174.5C 167.664,191.752 138.664,208.752 109.5,225.5C 105.979,219.415 104.312,212.748 104.5,205.5C 123.5,193.5 142.5,181.5 161.5,169.5 Z"/></g>
<g><path style="opacity:0.956" fill="#f6c53a" d="M 198.5,174.5 C 199.5,174.5 200.5,174.5 201.5,174.5C 211.5,174.5 221.5,174.5 231.5,174.5C 231.5,192.5 231.5,210.5 231.5,228.5C 232.085,247.907 232.085,267.24 231.5,286.5C 230.833,286.5 230.5,286.833 230.5,287.5C 228.973,287.427 227.973,288.094 227.5,289.5C 209.698,299.235 192.032,309.235 174.5,319.5C 171.691,315.232 168.857,310.898 166,306.5C 164.991,304.975 164.491,303.308 164.5,301.5C 179.774,292.22 194.774,282.553 209.5,272.5C 193.57,281.108 177.904,290.108 162.5,299.5C 159.705,297.249 157.372,294.582 155.5,291.5C 157.23,290.974 158.564,289.974 159.5,288.5C 157.847,288.66 156.514,289.326 155.5,290.5C 152.45,288.451 150.117,285.784 148.5,282.5C 169.792,269.193 190.792,255.527 211.5,241.5C 189.5,253.833 167.5,266.167 145.5,278.5C 141.555,275.291 138.055,271.624 135,267.5C 134.209,266.255 133.709,264.922 133.5,263.5C 144.203,256.487 154.87,249.487 165.5,242.5C 153.871,248.314 142.538,254.648 131.5,261.5C 128.353,259.687 126.353,257.02 125.5,253.5C 147.104,239.893 168.437,225.893 189.5,211.5C 167.032,223.902 144.698,236.568 122.5,249.5C 120.159,247.344 118.159,244.844 116.5,242C 117.056,241.617 117.389,241.117 117.5,240.5C 114.288,238.438 112.288,235.438 111.5,231.5C 140.793,212.86 169.793,193.86 198.5,174.5 Z M 168.5,240.5 C 168.027,241.906 167.027,242.573 165.5,242.5C 165.973,241.094 166.973,240.427 168.5,240.5 Z"/></g>
<g><path style="opacity:1" fill="#9e8232" d="M 201.5,174.5 C 211.653,173.506 221.986,173.172 232.5,173.5C 232.83,192.008 232.497,210.341 231.5,228.5C 231.5,210.5 231.5,192.5 231.5,174.5C 221.5,174.5 211.5,174.5 201.5,174.5 Z"/></g>
<g><path style="opacity:0.765" fill="#dcb036" d="M 404.5,243.5 C 404.155,246.198 402.822,248.198 400.5,249.5C 401.34,247.147 402.674,245.147 404.5,243.5 Z"/></g>
<g><path style="opacity:0.094" fill="#a78e2e" d="M 117.5,262.5 C 118.906,262.973 119.573,263.973 119.5,265.5C 118.094,265.027 117.427,264.027 117.5,262.5 Z"/></g>
<g><path style="opacity:0.935" fill="#f6c53a" d="M 230.5,287.5 C 230.833,287.5 231.167,287.5 231.5,287.5C 232.488,292.64 232.821,297.974 232.5,303.5C 214.032,313.568 195.699,323.901 177.5,334.5C 176.693,330.979 176.026,327.312 175.5,323.5C 193.212,312.651 210.545,301.317 227.5,289.5C 229.027,289.573 230.027,288.906 230.5,287.5 Z"/></g>
<g><path style="opacity:0.675" fill="#efbf3a" d="M 339.5,378.5 C 339.631,381.367 338.297,383.033 335.5,383.5C 334.957,383.44 334.624,383.107 334.5,382.5C 336.186,381.143 337.852,379.81 339.5,378.5 Z"/></g>
<g><path style="opacity:0.962" fill="#dceffc" d="M 192.5,386.5 C 192.5,387.167 192.5,387.833 192.5,388.5C 189.486,394.446 190.486,395.113 195.5,390.5C 198.331,389.921 200.664,388.588 202.5,386.5C 208.5,386.5 214.5,386.5 220.5,386.5C 218.229,388.266 216.063,390.266 214,392.5C 213.312,393.332 213.479,393.998 214.5,394.5C 219.065,392.059 223.398,389.392 227.5,386.5C 233.358,386.178 239.025,386.511 244.5,387.5C 243.167,388.167 242.167,389.167 241.5,390.5C 235.845,394.823 230.512,399.49 225.5,404.5C 231.298,401.767 236.965,398.767 242.5,395.5C 248.165,393.003 253.498,390.003 258.5,386.5C 264.598,385.883 270.265,386.55 275.5,388.5C 266.208,395.125 257.208,402.125 248.5,409.5C 257.634,404.766 266.634,399.766 275.5,394.5C 280.5,392.336 285.167,389.669 289.5,386.5C 295.358,386.178 301.025,386.511 306.5,387.5C 297.54,394.458 288.873,401.791 280.5,409.5C 289.833,404.5 299.167,399.5 308.5,394.5C 312.864,392.656 316.864,390.323 320.5,387.5C 325.026,389.204 327.026,392.537 326.5,397.5C 319.205,402.794 312.205,408.461 305.5,414.5C 295.167,414.5 284.833,414.5 274.5,414.5C 274.167,413.167 273.833,413.167 273.5,414.5C 244.167,414.5 214.833,414.5 185.5,414.5C 184.609,406.515 184.442,398.515 185,390.5C 186.691,387.641 189.191,386.308 192.5,386.5 Z M 195.5,386.5 C 196.5,386.5 197.5,386.5 198.5,386.5C 197.5,387.833 196.5,389.167 195.5,390.5C 190.486,395.113 189.486,394.446 192.5,388.5C 194.027,388.573 195.027,387.906 195.5,386.5 Z M 306.5,387.5 C 307.5,387.5 308.5,387.5 309.5,387.5C 307.396,389.583 307.062,391.917 308.5,394.5C 299.167,399.5 289.833,404.5 280.5,409.5C 288.873,401.791 297.54,394.458 306.5,387.5 Z M 275.5,388.5 C 274.62,390.611 274.62,392.611 275.5,394.5C 266.634,399.766 257.634,404.766 248.5,409.5C 257.208,402.125 266.208,395.125 275.5,388.5 Z M 241.5,390.5 C 241.629,392.216 241.962,393.883 242.5,395.5C 236.965,398.767 231.298,401.767 225.5,404.5C 230.512,399.49 235.845,394.823 241.5,390.5 Z M 280.5,409.5 C 280.027,410.906 279.027,411.573 277.5,411.5C 277.973,410.094 278.973,409.427 280.5,409.5 Z"/></g>
<g><path style="opacity:0.734" fill="#f5c745" d="M 198.5,386.5 C 199.833,386.5 201.167,386.5 202.5,386.5C 200.664,388.588 198.331,389.921 195.5,390.5C 196.5,389.167 197.5,387.833 198.5,386.5 Z"/></g>
<g><path style="opacity:0.49" fill="#f7cf38" d="M 192.5,386.5 C 193.5,386.5 194.5,386.5 195.5,386.5C 195.027,387.906 194.027,388.573 192.5,388.5C 192.5,387.833 192.5,387.167 192.5,386.5 Z"/></g>
<g><path style="opacity:1" fill="#eac24f" d="M 220.5,386.5 C 222.833,386.5 225.167,386.5 227.5,386.5C 223.398,389.392 219.065,392.059 214.5,394.5C 213.479,393.998 213.312,393.332 214,392.5C 216.063,390.266 218.229,388.266 220.5,386.5 Z"/></g>
<g><path style="opacity:0.939" fill="#ecbf3f" d="M 258.5,386.5 C 253.498,390.003 248.165,393.003 242.5,395.5C 241.962,393.883 241.629,392.216 241.5,390.5C 242.167,389.167 243.167,388.167 244.5,387.5C 249.07,386.559 253.737,386.226 258.5,386.5 Z"/></g>
<g><path style="opacity:0.954" fill="#eec140" d="M 289.5,386.5 C 285.167,389.669 280.5,392.336 275.5,394.5C 274.62,392.611 274.62,390.611 275.5,388.5C 276.167,388.5 276.5,388.167 276.5,387.5C 280.768,386.627 285.102,386.294 289.5,386.5 Z"/></g>
<g><path style="opacity:0.945" fill="#ebbe3f" d="M 320.5,387.5 C 316.864,390.323 312.864,392.656 308.5,394.5C 307.062,391.917 307.396,389.583 309.5,387.5C 313.268,386.213 316.935,386.213 320.5,387.5 Z"/></g>
<g><path style="opacity:0.92" fill="#d8ebf8" d="M 325.5,403.5 C 326.482,406.962 326.815,410.629 326.5,414.5C 320.167,414.5 313.833,414.5 307.5,414.5C 313.5,410.833 319.5,407.167 325.5,403.5 Z"/></g>
<g><path style="opacity:0.978" fill="#dbeffc" d="M 190.5,420.5 C 235.833,420.5 281.167,420.5 326.5,420.5C 326.806,429.554 326.472,438.554 325.5,447.5C 298.003,448.829 270.67,448.829 243.5,447.5C 249.591,444.592 255.591,441.426 261.5,438C 266.695,433.634 271.695,429.134 276.5,424.5C 265.201,430.777 253.867,437.111 242.5,443.5C 241.638,444.766 240.971,446.099 240.5,447.5C 223.574,448.651 206.574,448.818 189.5,448C 186.778,446.728 185.444,444.561 185.5,441.5C 188.136,439.4 190.969,438.733 194,439.5C 199.145,435.029 204.312,430.696 209.5,426.5C 201.208,430.312 193.208,434.646 185.5,439.5C 184.203,434.934 184.203,430.267 185.5,425.5C 187.5,424.167 189.167,422.5 190.5,420.5 Z M 245.5,423.5 C 245.027,424.906 244.027,425.573 242.5,425.5C 242.973,424.094 243.973,423.427 245.5,423.5 Z M 276.5,424.5 C 271.695,429.134 266.695,433.634 261.5,438C 255.591,441.426 249.591,444.592 243.5,447.5C 242.5,447.5 241.5,447.5 240.5,447.5C 240.971,446.099 241.638,444.766 242.5,443.5C 253.867,437.111 265.201,430.777 276.5,424.5 Z M 242.5,425.5 C 233.485,429.676 224.818,434.509 216.5,440C 217.103,441.825 217.77,443.659 218.5,445.5C 226.836,439.157 234.836,432.491 242.5,425.5 Z M 311.5,436.5 C 310.571,437.315 309.571,438.148 308.5,439C 309,439.5 309.5,440 310,440.5C 312.059,439.403 312.559,438.07 311.5,436.5 Z"/></g>
<g><path style="opacity:0.986" fill="#c6dfee" d="M 297.5,455.5 C 295.64,456.939 293.973,458.605 292.5,460.5C 295.669,459.083 298.669,457.417 301.5,455.5C 306.833,455.5 312.167,455.5 317.5,455.5C 317.5,457.167 317.5,458.833 317.5,460.5C 314.833,460.833 314.833,461.167 317.5,461.5C 317.035,465.062 315.868,468.395 314,471.5C 297.13,491.195 275.963,500.861 250.5,500.5C 254.167,497.167 257.833,493.833 261.5,490.5C 255.661,493.585 249.994,496.918 244.5,500.5C 239.536,500.184 235.203,498.517 231.5,495.5C 236.152,492.179 240.485,488.513 244.5,484.5C 238.992,487.755 233.325,490.755 227.5,493.5C 221.002,490.675 215.669,486.342 211.5,480.5C 212.5,479.167 213.5,477.833 214.5,476.5C 212.833,477.167 211.167,477.833 209.5,478.5C 205.266,477.269 202.266,474.602 200.5,470.5C 197.909,469.746 196.076,468.079 195,465.5C 193.957,462.243 193.457,458.91 193.5,455.5C 228.167,455.5 262.833,455.5 297.5,455.5 Z M 297.5,455.5 C 298.833,455.5 300.167,455.5 301.5,455.5C 298.669,457.417 295.669,459.083 292.5,460.5C 293.973,458.605 295.64,456.939 297.5,455.5 Z M 261.5,490.5 C 257.833,493.833 254.167,497.167 250.5,500.5C 248.5,500.5 246.5,500.5 244.5,500.5C 249.994,496.918 255.661,493.585 261.5,490.5 Z"/></g>
<g><path style="opacity:0.69" fill="#b9cdde" d="M 284.5,502.5 C 280.943,506.45 276.609,507.783 271.5,506.5C 271.611,505.883 271.944,505.383 272.5,505C 276.514,504.163 280.514,503.329 284.5,502.5 Z"/></g>
<g><path style="opacity:0.477" fill="#c1d9e7" d="M 227.5,504.5 C 229.553,504.402 231.22,505.069 232.5,506.5C 230.302,506.88 228.635,506.213 227.5,504.5 Z"/></g>
</svg>
