<?xml version="1.0" encoding="UTF-8"?>
<!DOCTYPE svg PUBLIC "-//W3C//DTD SVG 1.1//EN" "http://www.w3.org/Graphics/SVG/1.1/DTD/svg11.dtd">
<svg xmlns="http://www.w3.org/2000/svg" version="1.1" width="512px" height="512px" style="shape-rendering:geometricPrecision; text-rendering:geometricPrecision; image-rendering:optimizeQuality; fill-rule:evenodd; clip-rule:evenodd" xmlns:xlink="http://www.w3.org/1999/xlink">
<g><path style="opacity:0.964" fill="#262627" d="M 126.5,88.5 C 128.796,87.267 130.13,85.267 130.5,82.5C 132.246,78.6733 134.246,75.0066 136.5,71.5C 138.984,69.1997 140.984,66.5331 142.5,63.5C 148.478,54.8569 155.478,47.1903 163.5,40.5C 166.526,37.8046 169.526,35.1379 172.5,32.5C 209.969,3.30791 251.636,-4.52542 297.5,9C 357.109,28.6547 390.276,69.8213 397,132.5C 400.774,177.536 386.274,215.37 353.5,246C 422.686,263.156 471.52,304.323 500,369.5C 519.115,419.845 504.948,457.345 457.5,482C 440.232,489.756 422.232,495.089 403.5,498C 385.271,500.951 366.938,502.951 348.5,504C 310.976,505.398 273.476,506.564 236,507.5C 204.802,506.173 173.636,504.34 142.5,502C 116.988,500.026 91.988,495.359 67.5,488C 6.86805,467.227 -11.2986,427.06 13,367.5C 41.6042,304.572 89.4375,264.406 156.5,247C 121.588,215.946 107.421,177.113 114,130.5C 116.667,116.003 120.834,102.003 126.5,88.5 Z M 227.5,14.5 C 219.659,19.9234 211.326,24.5901 202.5,28.5C 204.913,26.1128 207.58,23.9461 210.5,22C 212.141,20.871 213.141,19.371 213.5,17.5C 218.094,16.185 222.761,15.185 227.5,14.5 Z M 283.5,16.5 C 285.421,17.3627 287.421,18.0293 289.5,18.5C 275.166,27.336 260.5,35.6693 245.5,43.5C 258.167,34.5 270.833,25.5 283.5,16.5 Z M 301.5,23.5 C 302.167,23.8333 302.833,24.1667 303.5,24.5C 298.498,28.0031 293.165,31.0031 287.5,33.5C 291.865,29.8108 296.531,26.4775 301.5,23.5 Z M 285.5,34.5 C 285.027,35.9063 284.027,36.573 282.5,36.5C 282.973,35.0937 283.973,34.427 285.5,34.5 Z M 322.5,35.5 C 323.167,35.8333 323.833,36.1667 324.5,36.5C 317.996,41.2552 310.996,45.2552 303.5,48.5C 309.536,43.8088 315.869,39.4755 322.5,35.5 Z M 245.5,43.5 C 245.027,44.9063 244.027,45.573 242.5,45.5C 242.973,44.0937 243.973,43.427 245.5,43.5 Z M 333.5,43.5 C 335.167,44.5 336.5,45.8333 337.5,47.5C 314.999,61.5875 291.999,74.9209 268.5,87.5C 289.957,72.5988 311.623,57.9321 333.5,43.5 Z M 352.5,62.5 C 353.833,63.1667 354.833,64.1667 355.5,65.5C 337.834,76.3355 319.834,86.6688 301.5,96.5C 318.291,84.9317 335.291,73.5984 352.5,62.5 Z M 361.5,74.5 C 362.5,74.8333 363.167,75.5 363.5,76.5C 355.991,80.755 348.324,84.755 340.5,88.5C 347.291,83.5984 354.291,78.9317 361.5,74.5 Z M 340.5,88.5 C 340.027,89.9063 339.027,90.573 337.5,90.5C 337.973,89.0937 338.973,88.427 340.5,88.5 Z M 158.5,89.5 C 149.364,96.9042 139.697,103.571 129.5,109.5C 129.629,107.784 129.962,106.117 130.5,104.5C 139.833,99.5 149.167,94.5 158.5,89.5 Z M 372.5,93.5 C 373.167,93.5 373.5,93.8333 373.5,94.5C 370.15,96.1961 366.817,97.8627 363.5,99.5C 365.975,96.7589 368.975,94.7589 372.5,93.5 Z M 301.5,96.5 C 301.027,97.9063 300.027,98.573 298.5,98.5C 298.973,97.0937 299.973,96.427 301.5,96.5 Z M 361.5,100.5 C 361.027,101.906 360.027,102.573 358.5,102.5C 358.973,101.094 359.973,100.427 361.5,100.5 Z M 377.5,104.5 C 378.345,105.671 379.011,107.005 379.5,108.5C 361.301,119.099 342.968,129.432 324.5,139.5C 341.644,127.091 359.311,115.424 377.5,104.5 Z M 137.5,118.5 C 133.881,121.65 129.881,124.316 125.5,126.5C 125.5,125.833 125.5,125.167 125.5,124.5C 129.527,122.487 133.527,120.487 137.5,118.5 Z M 382.5,118.5 C 382.5,119.5 382.5,120.5 382.5,121.5C 373.5,127.336 364.167,132.669 354.5,137.5C 363.45,130.685 372.783,124.351 382.5,118.5 Z M 191.5,125.5 C 191.027,126.906 190.027,127.573 188.5,127.5C 188.973,126.094 189.973,125.427 191.5,125.5 Z M 188.5,127.5 C 168.462,141.525 148.129,155.192 127.5,168.5C 127.483,166.435 127.15,164.435 126.5,162.5C 147.184,150.805 167.85,139.139 188.5,127.5 Z M 147.5,136.5 C 147.027,137.906 146.027,138.573 144.5,138.5C 144.973,137.094 145.973,136.427 147.5,136.5 Z M 354.5,137.5 C 353.341,139.25 351.674,140.25 349.5,140.5C 350.659,138.75 352.326,137.75 354.5,137.5 Z M 144.5,138.5 C 143.341,140.25 141.674,141.25 139.5,141.5C 140.659,139.75 142.326,138.75 144.5,138.5 Z M 324.5,139.5 C 323.341,141.25 321.674,142.25 319.5,142.5C 320.659,140.75 322.326,139.75 324.5,139.5 Z M 139.5,141.5 C 135.024,145.575 130.024,148.908 124.5,151.5C 124.5,150.833 124.5,150.167 124.5,149.5C 129.368,146.566 134.368,143.9 139.5,141.5 Z M 386.5,143.5 C 386.5,145.833 386.5,148.167 386.5,150.5C 367.833,160.833 349.167,171.167 330.5,181.5C 348.87,168.475 367.537,155.808 386.5,143.5 Z M 189.5,156.5 C 189.027,157.906 188.027,158.573 186.5,158.5C 186.973,157.094 187.973,156.427 189.5,156.5 Z M 186.5,158.5 C 169.709,170.068 152.709,181.402 135.5,192.5C 134.962,190.883 134.629,189.216 134.5,187.5C 151.85,177.805 169.184,168.139 186.5,158.5 Z M 382.5,176.5 C 382.5,177.167 382.5,177.833 382.5,178.5C 381.167,178.833 379.833,179.167 378.5,179.5C 379.436,178.026 380.77,177.026 382.5,176.5 Z M 378.5,179.5 C 378.027,180.906 377.027,181.573 375.5,181.5C 375.973,180.094 376.973,179.427 378.5,179.5 Z M 330.5,181.5 C 330.027,182.906 329.027,183.573 327.5,183.5C 327.973,182.094 328.973,181.427 330.5,181.5 Z M 165.5,187.5 C 165.027,188.906 164.027,189.573 162.5,189.5C 162.973,188.094 163.973,187.427 165.5,187.5 Z M 162.5,189.5 C 155.709,194.402 148.709,199.068 141.5,203.5C 141.167,202.833 140.833,202.167 140.5,201.5C 147.597,197.07 154.931,193.07 162.5,189.5 Z M 223.5,192.5 C 223.027,193.906 222.027,194.573 220.5,194.5C 220.973,193.094 221.973,192.427 223.5,192.5 Z M 220.5,194.5 C 201.709,207.402 182.709,220.068 163.5,232.5C 161.833,231.5 160.5,230.167 159.5,228.5C 179.833,217.167 200.167,205.833 220.5,194.5 Z M 165.5,212.5 C 165.027,213.906 164.027,214.573 162.5,214.5C 162.973,213.094 163.973,212.427 165.5,212.5 Z M 162.5,214.5 C 159.709,216.735 156.709,218.735 153.5,220.5C 152.833,220.5 152.5,220.167 152.5,219.5C 155.55,217.308 158.883,215.642 162.5,214.5 Z M 257.5,217.5 C 237.376,231.952 216.709,245.619 195.5,258.5C 193.77,257.974 192.436,256.974 191.5,255.5C 213.166,242.331 235.166,229.665 257.5,217.5 Z M 207.5,219.5 C 207.027,220.906 206.027,221.573 204.5,221.5C 204.973,220.094 205.973,219.427 207.5,219.5 Z M 204.5,221.5 C 194.34,228.747 184.006,235.747 173.5,242.5C 172.5,242.167 171.833,241.5 171.5,240.5C 182.002,233.412 193.002,227.079 204.5,221.5 Z M 237.5,259.5 C 237.027,260.906 236.027,261.573 234.5,261.5C 234.973,260.094 235.973,259.427 237.5,259.5 Z M 234.5,261.5 C 230.465,264.857 226.132,267.857 221.5,270.5C 220.508,270.672 219.842,270.338 219.5,269.5C 224.368,266.566 229.368,263.9 234.5,261.5 Z M 177.5,263.5 C 178.833,264.167 180.167,264.833 181.5,265.5C 166.998,274.921 151.998,283.588 136.5,291.5C 149.638,281.428 163.305,272.095 177.5,263.5 Z M 391.5,271.5 C 392.167,271.5 392.5,271.833 392.5,272.5C 391.486,273.674 390.153,274.34 388.5,274.5C 389.306,273.272 390.306,272.272 391.5,271.5 Z M 388.5,274.5 C 388.027,275.906 387.027,276.573 385.5,276.5C 385.973,275.094 386.973,274.427 388.5,274.5 Z M 303.5,276.5 C 284.331,288.588 264.665,299.921 244.5,310.5C 260.16,299.668 276.16,289.335 292.5,279.5C 296.223,278.703 299.89,277.703 303.5,276.5 Z M 207.5,277.5 C 207.833,277.5 208.167,277.5 208.5,277.5C 208.027,278.906 207.027,279.573 205.5,279.5C 205.833,278.5 206.5,277.833 207.5,277.5 Z M 403.5,278.5 C 404.492,278.328 405.158,278.662 405.5,279.5C 393.302,286.765 380.968,293.765 368.5,300.5C 379.653,292.419 391.32,285.086 403.5,278.5 Z M 226.5,282.5 C 228.292,282.366 229.958,282.699 231.5,283.5C 216.096,292.892 200.43,301.892 184.5,310.5C 198.205,300.808 212.205,291.474 226.5,282.5 Z M 254.5,284.5 C 254.833,284.5 255.167,284.5 255.5,284.5C 255.918,285.222 256.584,285.722 257.5,286C 248.273,291.445 238.94,296.611 229.5,301.5C 237.66,295.586 245.993,289.919 254.5,284.5 Z M 415.5,285.5 C 417.139,286.473 418.473,287.806 419.5,289.5C 387.132,308.684 354.465,327.351 321.5,345.5C 352.543,325.139 383.876,305.139 415.5,285.5 Z M 428.5,296.5 C 429.167,296.833 429.833,297.167 430.5,297.5C 416.834,306.002 402.834,314.002 388.5,321.5C 401.489,312.669 414.822,304.336 428.5,296.5 Z M 229.5,301.5 C 229.027,302.906 228.027,303.573 226.5,303.5C 226.973,302.094 227.973,301.427 229.5,301.5 Z M 366.5,301.5 C 366.027,302.906 365.027,303.573 363.5,303.5C 363.973,302.094 364.973,301.427 366.5,301.5 Z M 438.5,305.5 C 439.833,306.167 440.833,307.167 441.5,308.5C 414.332,325.254 386.665,341.254 358.5,356.5C 384.82,339.004 411.486,322.004 438.5,305.5 Z M 184.5,310.5 C 183.341,312.25 181.674,313.25 179.5,313.5C 180.659,311.75 182.326,310.75 184.5,310.5 Z M 244.5,310.5 C 244.027,311.906 243.027,312.573 241.5,312.5C 241.973,311.094 242.973,310.427 244.5,310.5 Z M 239.5,313.5 C 239.027,314.906 238.027,315.573 236.5,315.5C 236.973,314.094 237.973,313.427 239.5,313.5 Z M 449.5,316.5 C 451.5,317.833 453.167,319.5 454.5,321.5C 421.662,340.42 388.662,359.087 355.5,377.5C 386.456,356.682 417.789,336.349 449.5,316.5 Z M 388.5,321.5 C 388.027,322.906 387.027,323.573 385.5,323.5C 385.973,322.094 386.973,321.427 388.5,321.5 Z M 72.5,322.5 C 60.8862,331.314 48.8862,339.647 36.5,347.5C 37.6693,344.489 39.336,341.822 41.5,339.5C 51.7001,333.567 62.0334,327.9 72.5,322.5 Z M 321.5,345.5 C 321.027,346.906 320.027,347.573 318.5,347.5C 318.973,346.094 319.973,345.427 321.5,345.5 Z M 477.5,355.5 C 478.974,356.436 479.974,357.77 480.5,359.5C 458.302,372.432 435.968,385.098 413.5,397.5C 434.454,383.016 455.788,369.016 477.5,355.5 Z M 93.5,356.5 C 67.8499,373.995 41.8499,390.995 15.5,407.5C 15.2826,404.579 15.9493,401.913 17.5,399.5C 42.8606,385.155 68.194,370.821 93.5,356.5 Z M 358.5,356.5 C 357.341,358.25 355.674,359.25 353.5,359.5C 354.659,357.75 356.326,356.75 358.5,356.5 Z M 46.5,368.5 C 46.0269,369.906 45.0269,370.573 43.5,370.5C 43.9731,369.094 44.9731,368.427 46.5,368.5 Z M 484.5,369.5 C 485.167,369.5 485.5,369.833 485.5,370.5C 484.167,370.833 482.833,371.167 481.5,371.5C 481.973,370.094 482.973,369.427 484.5,369.5 Z M 43.5,370.5 C 36.126,375.86 28.4594,380.86 20.5,385.5C 20.5,384.5 20.5,383.5 20.5,382.5C 28.0092,378.245 35.6759,374.245 43.5,370.5 Z M 355.5,377.5 C 355.027,378.906 354.027,379.573 352.5,379.5C 352.973,378.094 353.973,377.427 355.5,377.5 Z M 86.5,379.5 C 86.0269,380.906 85.0269,381.573 83.5,381.5C 83.9731,380.094 84.9731,379.427 86.5,379.5 Z M 350.5,380.5 C 350.027,381.906 349.027,382.573 347.5,382.5C 347.973,381.094 348.973,380.427 350.5,380.5 Z M 488.5,380.5 C 489.345,381.671 490.011,383.005 490.5,384.5C 474.833,393.167 459.167,401.833 443.5,410.5C 457.976,399.759 472.976,389.759 488.5,380.5 Z M 81.5,382.5 C 60.5141,396.663 39.1808,410.329 17.5,423.5C 16.5655,422.432 16.2322,421.099 16.5,419.5C 38.0314,406.902 59.6981,394.568 81.5,382.5 Z M 107.5,384.5 C 106.341,386.25 104.674,387.25 102.5,387.5C 103.659,385.75 105.326,384.75 107.5,384.5 Z M 102.5,387.5 C 76.3733,404.736 50.0399,421.736 23.5,438.5C 22.2632,437.035 21.2632,435.368 20.5,433.5C 47.8333,418.167 75.1667,402.833 102.5,387.5 Z M 492.5,394.5 C 492.5,395.167 492.5,395.833 492.5,396.5C 491.833,396.5 491.167,396.5 490.5,396.5C 490.833,395.5 491.5,394.833 492.5,394.5 Z M 413.5,397.5 C 413.027,398.906 412.027,399.573 410.5,399.5C 410.973,398.094 411.973,397.427 413.5,397.5 Z M 494.5,407.5 C 494.5,409.167 494.5,410.833 494.5,412.5C 484.072,418.928 473.406,424.928 462.5,430.5C 472.776,422.355 483.443,414.689 494.5,407.5 Z M 185.5,418.5 C 185.027,419.906 184.027,420.573 182.5,420.5C 182.973,419.094 183.973,418.427 185.5,418.5 Z M 182.5,420.5 C 150.875,441.319 118.875,461.652 86.5,481.5C 84.0347,481.233 81.7014,480.566 79.5,479.5C 113.571,459.442 147.904,439.775 182.5,420.5 Z M 260.5,425.5 C 260.027,426.906 259.027,427.573 257.5,427.5C 257.973,426.094 258.973,425.427 260.5,425.5 Z M 257.5,427.5 C 227.277,447.864 196.611,467.698 165.5,487C 161.403,489.37 157.736,492.203 154.5,495.5C 149.972,495.23 145.639,494.563 141.5,493.5C 179.927,471.072 218.593,449.072 257.5,427.5 Z M 491.5,428.5 C 491.167,430.5 490.833,432.5 490.5,434.5C 484.298,438.101 477.964,441.434 471.5,444.5C 477.854,438.817 484.52,433.484 491.5,428.5 Z M 219.5,431.5 C 219.027,432.906 218.027,433.573 216.5,433.5C 216.973,432.094 217.973,431.427 219.5,431.5 Z M 216.5,433.5 C 186.536,452.82 156.536,472.153 126.5,491.5C 123.518,491.037 120.518,490.704 117.5,490.5C 150.002,470.745 183.002,451.745 216.5,433.5 Z M 471.5,444.5 C 471.027,445.906 470.027,446.573 468.5,446.5C 468.973,445.094 469.973,444.427 471.5,444.5 Z M 108.5,448.5 C 108.027,449.906 107.027,450.573 105.5,450.5C 105.973,449.094 106.973,448.427 108.5,448.5 Z M 315.5,448.5 C 315.027,449.906 314.027,450.573 312.5,450.5C 312.973,449.094 313.973,448.427 315.5,448.5 Z M 105.5,450.5 C 104.341,452.25 102.674,453.25 100.5,453.5C 101.659,451.75 103.326,450.75 105.5,450.5 Z M 310.5,451.5 C 310.027,452.906 309.027,453.573 307.5,453.5C 307.973,452.094 308.973,451.427 310.5,451.5 Z M 100.5,453.5 C 89.7902,460.861 78.7902,467.861 67.5,474.5C 66.5084,474.672 65.8417,474.338 65.5,473.5C 76.6703,466.078 88.3369,459.411 100.5,453.5 Z M 307.5,453.5 C 284.833,468.833 262.167,484.167 239.5,499.5C 235.5,499.5 231.5,499.5 227.5,499.5C 253.832,483.665 280.499,468.331 307.5,453.5 Z M 152.5,455.5 C 152.027,456.906 151.027,457.573 149.5,457.5C 149.973,456.094 150.973,455.427 152.5,455.5 Z M 149.5,457.5 C 134.54,467.653 119.207,477.319 103.5,486.5C 102.209,486.737 101.209,486.404 100.5,485.5C 116.337,475.411 132.67,466.078 149.5,457.5 Z M 435.5,458.5 C 423.167,468.5 410.833,478.5 398.5,488.5C 392.797,488.375 387.13,488.708 381.5,489.5C 399.166,478.664 417.166,468.331 435.5,458.5 Z M 348.5,460.5 C 348.027,461.906 347.027,462.573 345.5,462.5C 345.973,461.094 346.973,460.427 348.5,460.5 Z M 345.5,462.5 C 328.326,473.92 311.326,485.586 294.5,497.5C 291.167,497.5 287.833,497.5 284.5,497.5C 304.571,485.442 324.904,473.775 345.5,462.5 Z M 397.5,462.5 C 383.833,472.5 370.167,482.5 356.5,492.5C 352.119,492.372 347.785,492.705 343.5,493.5C 361.166,482.664 379.166,472.331 397.5,462.5 Z M 60.5,463.5 C 59.3406,465.25 57.674,466.25 55.5,466.5C 56.6594,464.75 58.326,463.75 60.5,463.5 Z M 451.5,468.5 C 447.795,471.205 444.795,474.538 442.5,478.5C 437.727,480.61 432.727,481.944 427.5,482.5C 435.164,477.332 443.164,472.665 451.5,468.5 Z M 329.5,488.5 C 329.027,489.906 328.027,490.573 326.5,490.5C 326.973,489.094 327.973,488.427 329.5,488.5 Z M 326.5,490.5 C 324.5,492.167 322.5,493.833 320.5,495.5C 319.5,495.5 318.5,495.5 317.5,495.5C 320.24,493.44 323.24,491.774 326.5,490.5 Z M 272.5,491.5 C 271.341,493.25 269.674,494.25 267.5,494.5C 268.659,492.75 270.326,491.75 272.5,491.5 Z M 267.5,494.5 C 266.167,495.833 264.833,497.167 263.5,498.5C 262.5,498.5 261.5,498.5 260.5,498.5C 262.336,496.412 264.669,495.079 267.5,494.5 Z"/></g>
<g><path style="opacity:0.981" fill="#3e58b6" d="M 251.5,11.5 C 251.833,12.8333 252.167,12.8333 252.5,11.5C 263.217,11.6265 273.55,13.2932 283.5,16.5C 270.833,25.5 258.167,34.5 245.5,43.5C 260.5,35.6693 275.166,27.336 289.5,18.5C 293.889,19.4025 297.889,21.0692 301.5,23.5C 296.531,26.4775 291.865,29.8108 287.5,33.5C 293.165,31.0031 298.498,28.0031 303.5,24.5C 306.691,25.0922 309.691,26.2589 312.5,28C 316.3,29.9789 319.634,32.4789 322.5,35.5C 315.869,39.4755 309.536,43.8088 303.5,48.5C 310.996,45.2552 317.996,41.2552 324.5,36.5C 328.051,38.1108 331.051,40.4442 333.5,43.5C 311.623,57.9321 289.957,72.5988 268.5,87.5C 291.999,74.9209 314.999,61.5875 337.5,47.5C 344.167,50.8333 349.167,55.8333 352.5,62.5C 335.291,73.5984 318.291,84.9317 301.5,96.5C 319.834,86.6688 337.834,76.3355 355.5,65.5C 358.754,67.6774 360.754,70.6774 361.5,74.5C 354.291,78.9317 347.291,83.5984 340.5,88.5C 348.324,84.755 355.991,80.755 363.5,76.5C 366.135,79.079 368.301,82.079 370,85.5C 371.707,87.9088 372.54,90.5755 372.5,93.5C 368.975,94.7589 365.975,96.7589 363.5,99.5C 366.817,97.8627 370.15,96.1961 373.5,94.5C 376.181,97.1918 377.514,100.525 377.5,104.5C 359.311,115.424 341.644,127.091 324.5,139.5C 342.968,129.432 361.301,119.099 379.5,108.5C 381.41,111.452 382.41,114.786 382.5,118.5C 372.783,124.351 363.45,130.685 354.5,137.5C 364.167,132.669 373.5,127.336 382.5,121.5C 384.067,122.681 384.901,124.347 385,126.5C 386.131,132.112 386.631,137.779 386.5,143.5C 367.537,155.808 348.87,168.475 330.5,181.5C 349.167,171.167 367.833,160.833 386.5,150.5C 386.562,159.499 385.228,168.165 382.5,176.5C 380.77,177.026 379.436,178.026 378.5,179.5C 379.833,179.167 381.167,178.833 382.5,178.5C 368.722,224.113 339.555,255.446 295,272.5C 273.286,278.467 251.453,278.967 229.5,274C 226.524,273.295 223.858,272.129 221.5,270.5C 226.132,267.857 230.465,264.857 234.5,261.5C 229.368,263.9 224.368,266.566 219.5,269.5C 217.801,269.66 216.134,269.494 214.5,269C 207.577,266.326 201.244,262.826 195.5,258.5C 216.709,245.619 237.376,231.952 257.5,217.5C 235.166,229.665 213.166,242.331 191.5,255.5C 184.406,252.748 178.406,248.415 173.5,242.5C 184.006,235.747 194.34,228.747 204.5,221.5C 193.002,227.079 182.002,233.412 171.5,240.5C 167.833,238.833 165.167,236.167 163.5,232.5C 182.709,220.068 201.709,207.402 220.5,194.5C 200.167,205.833 179.833,217.167 159.5,228.5C 156.313,226.656 154.313,223.989 153.5,220.5C 156.709,218.735 159.709,216.735 162.5,214.5C 158.883,215.642 155.55,217.308 152.5,219.5C 147.872,214.937 144.205,209.604 141.5,203.5C 148.709,199.068 155.709,194.402 162.5,189.5C 154.931,193.07 147.597,197.07 140.5,201.5C 138.282,198.887 136.615,195.887 135.5,192.5C 152.709,181.402 169.709,170.068 186.5,158.5C 169.184,168.139 151.85,177.805 134.5,187.5C 133.21,186.942 132.377,185.942 132,184.5C 130.185,179.237 128.685,173.904 127.5,168.5C 148.129,155.192 168.462,141.525 188.5,127.5C 167.85,139.139 147.184,150.805 126.5,162.5C 125.313,159.054 124.646,155.387 124.5,151.5C 130.024,148.908 135.024,145.575 139.5,141.5C 134.368,143.9 129.368,146.566 124.5,149.5C 124.201,141.747 124.534,134.08 125.5,126.5C 129.881,124.316 133.881,121.65 137.5,118.5C 133.527,120.487 129.527,122.487 125.5,124.5C 125.679,119.636 126.679,114.97 128.5,110.5C 129.167,110.5 129.5,110.167 129.5,109.5C 139.697,103.571 149.364,96.9042 158.5,89.5C 149.167,94.5 139.833,99.5 130.5,104.5C 139.503,78.0065 154.837,55.8398 176.5,38C 187.663,29.0843 199.997,22.251 213.5,17.5C 213.141,19.371 212.141,20.871 210.5,22C 207.58,23.9461 204.913,26.1128 202.5,28.5C 211.326,24.5901 219.659,19.9234 227.5,14.5C 228.167,14.5 228.5,14.1667 228.5,13.5C 236.036,11.742 243.703,11.0753 251.5,11.5 Z M 285.5,34.5 C 285.027,35.9063 284.027,36.573 282.5,36.5C 282.973,35.0937 283.973,34.427 285.5,34.5 Z M 245.5,43.5 C 245.027,44.9063 244.027,45.573 242.5,45.5C 242.973,44.0937 243.973,43.427 245.5,43.5 Z M 340.5,88.5 C 340.027,89.9063 339.027,90.573 337.5,90.5C 337.973,89.0937 338.973,88.427 340.5,88.5 Z M 301.5,96.5 C 301.027,97.9063 300.027,98.573 298.5,98.5C 298.973,97.0937 299.973,96.427 301.5,96.5 Z M 361.5,100.5 C 361.027,101.906 360.027,102.573 358.5,102.5C 358.973,101.094 359.973,100.427 361.5,100.5 Z M 191.5,125.5 C 191.027,126.906 190.027,127.573 188.5,127.5C 188.973,126.094 189.973,125.427 191.5,125.5 Z M 147.5,136.5 C 147.027,137.906 146.027,138.573 144.5,138.5C 144.973,137.094 145.973,136.427 147.5,136.5 Z M 354.5,137.5 C 353.341,139.25 351.674,140.25 349.5,140.5C 350.659,138.75 352.326,137.75 354.5,137.5 Z M 144.5,138.5 C 143.341,140.25 141.674,141.25 139.5,141.5C 140.659,139.75 142.326,138.75 144.5,138.5 Z M 324.5,139.5 C 323.341,141.25 321.674,142.25 319.5,142.5C 320.659,140.75 322.326,139.75 324.5,139.5 Z M 189.5,156.5 C 189.027,157.906 188.027,158.573 186.5,158.5C 186.973,157.094 187.973,156.427 189.5,156.5 Z M 378.5,179.5 C 378.027,180.906 377.027,181.573 375.5,181.5C 375.973,180.094 376.973,179.427 378.5,179.5 Z M 330.5,181.5 C 330.027,182.906 329.027,183.573 327.5,183.5C 327.973,182.094 328.973,181.427 330.5,181.5 Z M 165.5,187.5 C 165.027,188.906 164.027,189.573 162.5,189.5C 162.973,188.094 163.973,187.427 165.5,187.5 Z M 223.5,192.5 C 223.027,193.906 222.027,194.573 220.5,194.5C 220.973,193.094 221.973,192.427 223.5,192.5 Z M 165.5,212.5 C 165.027,213.906 164.027,214.573 162.5,214.5C 162.973,213.094 163.973,212.427 165.5,212.5 Z M 207.5,219.5 C 207.027,220.906 206.027,221.573 204.5,221.5C 204.973,220.094 205.973,219.427 207.5,219.5 Z M 237.5,259.5 C 237.027,260.906 236.027,261.573 234.5,261.5C 234.973,260.094 235.973,259.427 237.5,259.5 Z"/></g>
<g><path style="opacity:0.742" fill="#3c55a8" d="M 172.5,32.5 C 169.526,35.1379 166.526,37.8046 163.5,40.5C 163.297,38.6096 163.963,37.1096 165.5,36C 167.577,34.295 169.91,33.1283 172.5,32.5 Z"/></g>
<g><path style="opacity:0.902" fill="#3c56a8" d="M 142.5,63.5 C 140.984,66.5331 138.984,69.1997 136.5,71.5C 136.562,67.4316 138.562,64.765 142.5,63.5 Z"/></g>
<g><path style="opacity:0.941" fill="#3a53a2" d="M 130.5,82.5 C 130.13,85.267 128.796,87.267 126.5,88.5C 126.845,85.8021 128.178,83.8021 130.5,82.5 Z"/></g>
<g><path style="opacity:0.967" fill="#2f4593" d="M 177.5,263.5 C 163.305,272.095 149.638,281.428 136.5,291.5C 151.998,283.588 166.998,274.921 181.5,265.5C 190.236,269.537 198.902,273.537 207.5,277.5C 206.5,277.833 205.833,278.5 205.5,279.5C 207.027,279.573 208.027,278.906 208.5,277.5C 214.771,278.565 220.771,280.232 226.5,282.5C 212.205,291.474 198.205,300.808 184.5,310.5C 200.43,301.892 216.096,292.892 231.5,283.5C 239.154,284.07 246.821,284.404 254.5,284.5C 245.993,289.919 237.66,295.586 229.5,301.5C 238.94,296.611 248.273,291.445 257.5,286C 256.584,285.722 255.918,285.222 255.5,284.5C 268.003,284.027 280.337,282.36 292.5,279.5C 276.16,289.335 260.16,299.668 244.5,310.5C 264.665,299.921 284.331,288.588 303.5,276.5C 304.492,276.672 305.158,276.338 305.5,275.5C 318.756,269.539 331.422,262.539 343.5,254.5C 352.146,256.075 360.479,258.409 368.5,261.5C 373.048,262.115 377.048,263.781 380.5,266.5C 384.852,266.846 388.519,268.512 391.5,271.5C 390.306,272.272 389.306,273.272 388.5,274.5C 390.153,274.34 391.486,273.674 392.5,272.5C 393.873,272.343 395.207,272.51 396.5,273C 399.336,274.391 401.669,276.224 403.5,278.5C 391.32,285.086 379.653,292.419 368.5,300.5C 380.968,293.765 393.302,286.765 405.5,279.5C 409.505,280.498 412.839,282.498 415.5,285.5C 383.876,305.139 352.543,325.139 321.5,345.5C 354.465,327.351 387.132,308.684 419.5,289.5C 422.14,289.954 424.473,291.121 426.5,293C 427.823,293.816 428.489,294.983 428.5,296.5C 414.822,304.336 401.489,312.669 388.5,321.5C 402.834,314.002 416.834,306.002 430.5,297.5C 434.188,299.188 436.855,301.855 438.5,305.5C 411.486,322.004 384.82,339.004 358.5,356.5C 386.665,341.254 414.332,325.254 441.5,308.5C 445.167,310.167 447.833,312.833 449.5,316.5C 417.789,336.349 386.456,356.682 355.5,377.5C 388.662,359.087 421.662,340.42 454.5,321.5C 461.655,328.652 467.655,336.652 472.5,345.5C 472.062,345.435 471.728,345.601 471.5,346C 475.136,348.101 477.136,351.268 477.5,355.5C 455.788,369.016 434.454,383.016 413.5,397.5C 435.968,385.098 458.302,372.432 480.5,359.5C 482.915,362.34 484.248,365.673 484.5,369.5C 482.973,369.427 481.973,370.094 481.5,371.5C 482.833,371.167 484.167,370.833 485.5,370.5C 487.68,373.381 488.68,376.714 488.5,380.5C 472.976,389.759 457.976,399.759 443.5,410.5C 459.167,401.833 474.833,393.167 490.5,384.5C 492.011,387.544 492.678,390.878 492.5,394.5C 491.5,394.833 490.833,395.5 490.5,396.5C 491.167,396.5 491.833,396.5 492.5,396.5C 493.222,396.918 493.722,397.584 494,398.5C 494.498,401.482 494.665,404.482 494.5,407.5C 483.443,414.689 472.776,422.355 462.5,430.5C 473.406,424.928 484.072,418.928 494.5,412.5C 494.329,417.196 493.829,421.863 493,426.5C 492.722,427.416 492.222,428.082 491.5,428.5C 484.52,433.484 477.854,438.817 471.5,444.5C 477.964,441.434 484.298,438.101 490.5,434.5C 481.684,456.923 465.684,471.59 442.5,478.5C 444.795,474.538 447.795,471.205 451.5,468.5C 443.164,472.665 435.164,477.332 427.5,482.5C 426.508,482.328 425.842,482.662 425.5,483.5C 416.639,485.814 407.639,487.481 398.5,488.5C 410.833,478.5 423.167,468.5 435.5,458.5C 417.166,468.331 399.166,478.664 381.5,489.5C 373.238,490.96 364.905,491.96 356.5,492.5C 370.167,482.5 383.833,472.5 397.5,462.5C 379.166,472.331 361.166,482.664 343.5,493.5C 335.855,494.308 328.189,494.975 320.5,495.5C 322.5,493.833 324.5,492.167 326.5,490.5C 323.24,491.774 320.24,493.44 317.5,495.5C 309.833,496.167 302.167,496.833 294.5,497.5C 311.326,485.586 328.326,473.92 345.5,462.5C 324.904,473.775 304.571,485.442 284.5,497.5C 277.557,498.427 270.557,498.76 263.5,498.5C 264.833,497.167 266.167,495.833 267.5,494.5C 264.669,495.079 262.336,496.412 260.5,498.5C 253.543,499.386 246.543,499.72 239.5,499.5C 262.167,484.167 284.833,468.833 307.5,453.5C 280.499,468.331 253.832,483.665 227.5,499.5C 220.978,499.823 214.645,499.49 208.5,498.5C 209.183,497.356 208.849,497.356 207.5,498.5C 200.513,499.755 193.846,499.755 187.5,498.5C 176.177,497.532 165.177,496.532 154.5,495.5C 157.736,492.203 161.403,489.37 165.5,487C 196.611,467.698 227.277,447.864 257.5,427.5C 218.593,449.072 179.927,471.072 141.5,493.5C 136.217,493.904 131.217,493.238 126.5,491.5C 156.536,472.153 186.536,452.82 216.5,433.5C 183.002,451.745 150.002,470.745 117.5,490.5C 113.116,489.99 108.782,489.157 104.5,488C 103.944,487.617 103.611,487.117 103.5,486.5C 119.207,477.319 134.54,467.653 149.5,457.5C 132.67,466.078 116.337,475.411 100.5,485.5C 96.753,485.608 93.0863,485.108 89.5,484C 87.8807,483.764 86.8807,482.931 86.5,481.5C 118.875,461.652 150.875,441.319 182.5,420.5C 147.904,439.775 113.571,459.442 79.5,479.5C 76.3527,479.263 73.3527,478.43 70.5,477C 69.0577,476.623 68.0577,475.79 67.5,474.5C 78.7902,467.861 89.7902,460.861 100.5,453.5C 88.3369,459.411 76.6703,466.078 65.5,473.5C 60.8191,473.11 57.1524,471.11 54.5,467.5C 55.1667,467.5 55.5,467.167 55.5,466.5C 54.5084,466.328 53.8417,466.662 53.5,467.5C 41.3539,461.524 31.5205,452.858 24,441.5C 23.5172,440.552 23.3505,439.552 23.5,438.5C 50.0399,421.736 76.3733,404.736 102.5,387.5C 75.1667,402.833 47.8333,418.167 20.5,433.5C 18.32,430.619 17.32,427.286 17.5,423.5C 39.1808,410.329 60.5141,396.663 81.5,382.5C 59.6981,394.568 38.0314,406.902 16.5,419.5C 14.2716,415.758 13.9383,411.758 15.5,407.5C 41.8499,390.995 67.8499,373.995 93.5,356.5C 68.194,370.821 42.8606,385.155 17.5,399.5C 16.3478,395.05 17.0145,390.717 19.5,386.5C 20.1667,386.5 20.5,386.167 20.5,385.5C 28.4594,380.86 36.126,375.86 43.5,370.5C 35.6759,374.245 28.0092,378.245 20.5,382.5C 21.6575,376.294 23.6575,370.961 26.5,366.5C 28.4423,359.949 31.4423,353.949 35.5,348.5C 36.1667,348.5 36.5,348.167 36.5,347.5C 48.8862,339.647 60.8862,331.314 72.5,322.5C 62.0334,327.9 51.7001,333.567 41.5,339.5C 41.0618,339.565 40.7284,339.399 40.5,339C 63.1047,304.701 93.4381,279.868 131.5,264.5C 131.833,265.833 132.167,265.833 132.5,264.5C 133.492,264.672 134.158,264.338 134.5,263.5C 143.958,259.343 153.791,256.343 164,254.5C 169.104,256.632 173.604,259.632 177.5,263.5 Z M 237.5,259.5 C 237.027,260.906 236.027,261.573 234.5,261.5C 234.973,260.094 235.973,259.427 237.5,259.5 Z M 234.5,261.5 C 230.465,264.857 226.132,267.857 221.5,270.5C 220.508,270.672 219.842,270.338 219.5,269.5C 224.368,266.566 229.368,263.9 234.5,261.5 Z M 177.5,263.5 C 178.833,264.167 180.167,264.833 181.5,265.5C 166.998,274.921 151.998,283.588 136.5,291.5C 149.638,281.428 163.305,272.095 177.5,263.5 Z M 388.5,274.5 C 388.027,275.906 387.027,276.573 385.5,276.5C 385.973,275.094 386.973,274.427 388.5,274.5 Z M 303.5,276.5 C 284.331,288.588 264.665,299.921 244.5,310.5C 260.16,299.668 276.16,289.335 292.5,279.5C 296.223,278.703 299.89,277.703 303.5,276.5 Z M 207.5,277.5 C 207.833,277.5 208.167,277.5 208.5,277.5C 208.027,278.906 207.027,279.573 205.5,279.5C 205.833,278.5 206.5,277.833 207.5,277.5 Z M 226.5,282.5 C 228.292,282.366 229.958,282.699 231.5,283.5C 216.096,292.892 200.43,301.892 184.5,310.5C 198.205,300.808 212.205,291.474 226.5,282.5 Z M 254.5,284.5 C 254.833,284.5 255.167,284.5 255.5,284.5C 255.918,285.222 256.584,285.722 257.5,286C 248.273,291.445 238.94,296.611 229.5,301.5C 237.66,295.586 245.993,289.919 254.5,284.5 Z M 229.5,301.5 C 229.027,302.906 228.027,303.573 226.5,303.5C 226.973,302.094 227.973,301.427 229.5,301.5 Z M 366.5,301.5 C 366.027,302.906 365.027,303.573 363.5,303.5C 363.973,302.094 364.973,301.427 366.5,301.5 Z M 184.5,310.5 C 183.341,312.25 181.674,313.25 179.5,313.5C 180.659,311.75 182.326,310.75 184.5,310.5 Z M 244.5,310.5 C 244.027,311.906 243.027,312.573 241.5,312.5C 241.973,311.094 242.973,310.427 244.5,310.5 Z M 239.5,313.5 C 239.027,314.906 238.027,315.573 236.5,315.5C 236.973,314.094 237.973,313.427 239.5,313.5 Z M 388.5,321.5 C 388.027,322.906 387.027,323.573 385.5,323.5C 385.973,322.094 386.973,321.427 388.5,321.5 Z M 321.5,345.5 C 321.027,346.906 320.027,347.573 318.5,347.5C 318.973,346.094 319.973,345.427 321.5,345.5 Z M 358.5,356.5 C 357.341,358.25 355.674,359.25 353.5,359.5C 354.659,357.75 356.326,356.75 358.5,356.5 Z M 46.5,368.5 C 46.0269,369.906 45.0269,370.573 43.5,370.5C 43.9731,369.094 44.9731,368.427 46.5,368.5 Z M 355.5,377.5 C 355.027,378.906 354.027,379.573 352.5,379.5C 352.973,378.094 353.973,377.427 355.5,377.5 Z M 86.5,379.5 C 86.0269,380.906 85.0269,381.573 83.5,381.5C 83.9731,380.094 84.9731,379.427 86.5,379.5 Z M 350.5,380.5 C 350.027,381.906 349.027,382.573 347.5,382.5C 347.973,381.094 348.973,380.427 350.5,380.5 Z M 107.5,384.5 C 106.341,386.25 104.674,387.25 102.5,387.5C 103.659,385.75 105.326,384.75 107.5,384.5 Z M 413.5,397.5 C 413.027,398.906 412.027,399.573 410.5,399.5C 410.973,398.094 411.973,397.427 413.5,397.5 Z M 185.5,418.5 C 185.027,419.906 184.027,420.573 182.5,420.5C 182.973,419.094 183.973,418.427 185.5,418.5 Z M 260.5,425.5 C 260.027,426.906 259.027,427.573 257.5,427.5C 257.973,426.094 258.973,425.427 260.5,425.5 Z M 219.5,431.5 C 219.027,432.906 218.027,433.573 216.5,433.5C 216.973,432.094 217.973,431.427 219.5,431.5 Z M 471.5,444.5 C 471.027,445.906 470.027,446.573 468.5,446.5C 468.973,445.094 469.973,444.427 471.5,444.5 Z M 108.5,448.5 C 108.027,449.906 107.027,450.573 105.5,450.5C 105.973,449.094 106.973,448.427 108.5,448.5 Z M 315.5,448.5 C 315.027,449.906 314.027,450.573 312.5,450.5C 312.973,449.094 313.973,448.427 315.5,448.5 Z M 105.5,450.5 C 104.341,452.25 102.674,453.25 100.5,453.5C 101.659,451.75 103.326,450.75 105.5,450.5 Z M 310.5,451.5 C 310.027,452.906 309.027,453.573 307.5,453.5C 307.973,452.094 308.973,451.427 310.5,451.5 Z M 307.5,453.5 C 284.833,468.833 262.167,484.167 239.5,499.5C 235.5,499.5 231.5,499.5 227.5,499.5C 253.832,483.665 280.499,468.331 307.5,453.5 Z M 152.5,455.5 C 152.027,456.906 151.027,457.573 149.5,457.5C 149.973,456.094 150.973,455.427 152.5,455.5 Z M 348.5,460.5 C 348.027,461.906 347.027,462.573 345.5,462.5C 345.973,461.094 346.973,460.427 348.5,460.5 Z M 345.5,462.5 C 328.326,473.92 311.326,485.586 294.5,497.5C 291.167,497.5 287.833,497.5 284.5,497.5C 304.571,485.442 324.904,473.775 345.5,462.5 Z M 60.5,463.5 C 59.3406,465.25 57.674,466.25 55.5,466.5C 56.6594,464.75 58.326,463.75 60.5,463.5 Z M 329.5,488.5 C 329.027,489.906 328.027,490.573 326.5,490.5C 326.973,489.094 327.973,488.427 329.5,488.5 Z M 326.5,490.5 C 324.5,492.167 322.5,493.833 320.5,495.5C 319.5,495.5 318.5,495.5 317.5,495.5C 320.24,493.44 323.24,491.774 326.5,490.5 Z M 272.5,491.5 C 271.341,493.25 269.674,494.25 267.5,494.5C 268.659,492.75 270.326,491.75 272.5,491.5 Z M 267.5,494.5 C 266.167,495.833 264.833,497.167 263.5,498.5C 262.5,498.5 261.5,498.5 260.5,498.5C 262.336,496.412 264.669,495.079 267.5,494.5 Z"/></g>
</svg>
